%TF.GenerationSoftware,KiCad,Pcbnew,(6.0.10)*%
%TF.CreationDate,2023-03-07T15:46:30-03:00*%
%TF.ProjectId,PCB_Hbridge,5043425f-4862-4726-9964-67652e6b6963,rev?*%
%TF.SameCoordinates,Original*%
%TF.FileFunction,Legend,Bot*%
%TF.FilePolarity,Positive*%
%FSLAX46Y46*%
G04 Gerber Fmt 4.6, Leading zero omitted, Abs format (unit mm)*
G04 Created by KiCad (PCBNEW (6.0.10)) date 2023-03-07 15:46:30*
%MOMM*%
%LPD*%
G01*
G04 APERTURE LIST*
%ADD10C,0.254000*%
%ADD11C,0.200000*%
G04 APERTURE END LIST*
D10*
%TO.C,C27*%
X318782428Y-134311571D02*
X318842904Y-134372047D01*
X319024333Y-134432523D01*
X319145285Y-134432523D01*
X319326714Y-134372047D01*
X319447666Y-134251095D01*
X319508142Y-134130142D01*
X319568619Y-133888238D01*
X319568619Y-133706809D01*
X319508142Y-133464904D01*
X319447666Y-133343952D01*
X319326714Y-133223000D01*
X319145285Y-133162523D01*
X319024333Y-133162523D01*
X318842904Y-133223000D01*
X318782428Y-133283476D01*
X318298619Y-133283476D02*
X318238142Y-133223000D01*
X318117190Y-133162523D01*
X317814809Y-133162523D01*
X317693857Y-133223000D01*
X317633380Y-133283476D01*
X317572904Y-133404428D01*
X317572904Y-133525380D01*
X317633380Y-133706809D01*
X318359095Y-134432523D01*
X317572904Y-134432523D01*
X317149571Y-133162523D02*
X316302904Y-133162523D01*
X316847190Y-134432523D01*
%TO.C,C25*%
X87938428Y-108149571D02*
X87998904Y-108210047D01*
X88180333Y-108270523D01*
X88301285Y-108270523D01*
X88482714Y-108210047D01*
X88603666Y-108089095D01*
X88664142Y-107968142D01*
X88724619Y-107726238D01*
X88724619Y-107544809D01*
X88664142Y-107302904D01*
X88603666Y-107181952D01*
X88482714Y-107061000D01*
X88301285Y-107000523D01*
X88180333Y-107000523D01*
X87998904Y-107061000D01*
X87938428Y-107121476D01*
X87454619Y-107121476D02*
X87394142Y-107061000D01*
X87273190Y-107000523D01*
X86970809Y-107000523D01*
X86849857Y-107061000D01*
X86789380Y-107121476D01*
X86728904Y-107242428D01*
X86728904Y-107363380D01*
X86789380Y-107544809D01*
X87515095Y-108270523D01*
X86728904Y-108270523D01*
X85579857Y-107000523D02*
X86184619Y-107000523D01*
X86245095Y-107605285D01*
X86184619Y-107544809D01*
X86063666Y-107484333D01*
X85761285Y-107484333D01*
X85640333Y-107544809D01*
X85579857Y-107605285D01*
X85519380Y-107726238D01*
X85519380Y-108028619D01*
X85579857Y-108149571D01*
X85640333Y-108210047D01*
X85761285Y-108270523D01*
X86063666Y-108270523D01*
X86184619Y-108210047D01*
X86245095Y-108149571D01*
%TO.C,R9*%
X285199666Y-137988523D02*
X285623000Y-137383761D01*
X285925380Y-137988523D02*
X285925380Y-136718523D01*
X285441571Y-136718523D01*
X285320619Y-136779000D01*
X285260142Y-136839476D01*
X285199666Y-136960428D01*
X285199666Y-137141857D01*
X285260142Y-137262809D01*
X285320619Y-137323285D01*
X285441571Y-137383761D01*
X285925380Y-137383761D01*
X284594904Y-137988523D02*
X284353000Y-137988523D01*
X284232047Y-137928047D01*
X284171571Y-137867571D01*
X284050619Y-137686142D01*
X283990142Y-137444238D01*
X283990142Y-136960428D01*
X284050619Y-136839476D01*
X284111095Y-136779000D01*
X284232047Y-136718523D01*
X284473952Y-136718523D01*
X284594904Y-136779000D01*
X284655380Y-136839476D01*
X284715857Y-136960428D01*
X284715857Y-137262809D01*
X284655380Y-137383761D01*
X284594904Y-137444238D01*
X284473952Y-137504714D01*
X284232047Y-137504714D01*
X284111095Y-137444238D01*
X284050619Y-137383761D01*
X283990142Y-137262809D01*
%TO.C,R7*%
X56599666Y-126304523D02*
X57023000Y-125699761D01*
X57325380Y-126304523D02*
X57325380Y-125034523D01*
X56841571Y-125034523D01*
X56720619Y-125095000D01*
X56660142Y-125155476D01*
X56599666Y-125276428D01*
X56599666Y-125457857D01*
X56660142Y-125578809D01*
X56720619Y-125639285D01*
X56841571Y-125699761D01*
X57325380Y-125699761D01*
X56176333Y-125034523D02*
X55329666Y-125034523D01*
X55873952Y-126304523D01*
%TO.C,R50*%
X51505428Y-129544523D02*
X51928761Y-128939761D01*
X52231142Y-129544523D02*
X52231142Y-128274523D01*
X51747333Y-128274523D01*
X51626380Y-128335000D01*
X51565904Y-128395476D01*
X51505428Y-128516428D01*
X51505428Y-128697857D01*
X51565904Y-128818809D01*
X51626380Y-128879285D01*
X51747333Y-128939761D01*
X52231142Y-128939761D01*
X50356380Y-128274523D02*
X50961142Y-128274523D01*
X51021619Y-128879285D01*
X50961142Y-128818809D01*
X50840190Y-128758333D01*
X50537809Y-128758333D01*
X50416857Y-128818809D01*
X50356380Y-128879285D01*
X50295904Y-129000238D01*
X50295904Y-129302619D01*
X50356380Y-129423571D01*
X50416857Y-129484047D01*
X50537809Y-129544523D01*
X50840190Y-129544523D01*
X50961142Y-129484047D01*
X51021619Y-129423571D01*
X49509714Y-128274523D02*
X49388761Y-128274523D01*
X49267809Y-128335000D01*
X49207333Y-128395476D01*
X49146857Y-128516428D01*
X49086380Y-128758333D01*
X49086380Y-129060714D01*
X49146857Y-129302619D01*
X49207333Y-129423571D01*
X49267809Y-129484047D01*
X49388761Y-129544523D01*
X49509714Y-129544523D01*
X49630666Y-129484047D01*
X49691142Y-129423571D01*
X49751619Y-129302619D01*
X49812095Y-129060714D01*
X49812095Y-128758333D01*
X49751619Y-128516428D01*
X49691142Y-128395476D01*
X49630666Y-128335000D01*
X49509714Y-128274523D01*
%TO.C,R11*%
X280724428Y-138242523D02*
X281147761Y-137637761D01*
X281450142Y-138242523D02*
X281450142Y-136972523D01*
X280966333Y-136972523D01*
X280845380Y-137033000D01*
X280784904Y-137093476D01*
X280724428Y-137214428D01*
X280724428Y-137395857D01*
X280784904Y-137516809D01*
X280845380Y-137577285D01*
X280966333Y-137637761D01*
X281450142Y-137637761D01*
X279514904Y-138242523D02*
X280240619Y-138242523D01*
X279877761Y-138242523D02*
X279877761Y-136972523D01*
X279998714Y-137153952D01*
X280119666Y-137274904D01*
X280240619Y-137335380D01*
X278305380Y-138242523D02*
X279031095Y-138242523D01*
X278668238Y-138242523D02*
X278668238Y-136972523D01*
X278789190Y-137153952D01*
X278910142Y-137274904D01*
X279031095Y-137335380D01*
%TO.C,C29*%
X318866428Y-121865571D02*
X318926904Y-121926047D01*
X319108333Y-121986523D01*
X319229285Y-121986523D01*
X319410714Y-121926047D01*
X319531666Y-121805095D01*
X319592142Y-121684142D01*
X319652619Y-121442238D01*
X319652619Y-121260809D01*
X319592142Y-121018904D01*
X319531666Y-120897952D01*
X319410714Y-120777000D01*
X319229285Y-120716523D01*
X319108333Y-120716523D01*
X318926904Y-120777000D01*
X318866428Y-120837476D01*
X318382619Y-120837476D02*
X318322142Y-120777000D01*
X318201190Y-120716523D01*
X317898809Y-120716523D01*
X317777857Y-120777000D01*
X317717380Y-120837476D01*
X317656904Y-120958428D01*
X317656904Y-121079380D01*
X317717380Y-121260809D01*
X318443095Y-121986523D01*
X317656904Y-121986523D01*
X317052142Y-121986523D02*
X316810238Y-121986523D01*
X316689285Y-121926047D01*
X316628809Y-121865571D01*
X316507857Y-121684142D01*
X316447380Y-121442238D01*
X316447380Y-120958428D01*
X316507857Y-120837476D01*
X316568333Y-120777000D01*
X316689285Y-120716523D01*
X316931190Y-120716523D01*
X317052142Y-120777000D01*
X317112619Y-120837476D01*
X317173095Y-120958428D01*
X317173095Y-121260809D01*
X317112619Y-121381761D01*
X317052142Y-121442238D01*
X316931190Y-121502714D01*
X316689285Y-121502714D01*
X316568333Y-121442238D01*
X316507857Y-121381761D01*
X316447380Y-121260809D01*
%TO.C,R10*%
X280978428Y-142560523D02*
X281401761Y-141955761D01*
X281704142Y-142560523D02*
X281704142Y-141290523D01*
X281220333Y-141290523D01*
X281099380Y-141351000D01*
X281038904Y-141411476D01*
X280978428Y-141532428D01*
X280978428Y-141713857D01*
X281038904Y-141834809D01*
X281099380Y-141895285D01*
X281220333Y-141955761D01*
X281704142Y-141955761D01*
X279768904Y-142560523D02*
X280494619Y-142560523D01*
X280131761Y-142560523D02*
X280131761Y-141290523D01*
X280252714Y-141471952D01*
X280373666Y-141592904D01*
X280494619Y-141653380D01*
X278982714Y-141290523D02*
X278861761Y-141290523D01*
X278740809Y-141351000D01*
X278680333Y-141411476D01*
X278619857Y-141532428D01*
X278559380Y-141774333D01*
X278559380Y-142076714D01*
X278619857Y-142318619D01*
X278680333Y-142439571D01*
X278740809Y-142500047D01*
X278861761Y-142560523D01*
X278982714Y-142560523D01*
X279103666Y-142500047D01*
X279164142Y-142439571D01*
X279224619Y-142318619D01*
X279285095Y-142076714D01*
X279285095Y-141774333D01*
X279224619Y-141532428D01*
X279164142Y-141411476D01*
X279103666Y-141351000D01*
X278982714Y-141290523D01*
%TO.C,C23*%
X87430428Y-122881571D02*
X87490904Y-122942047D01*
X87672333Y-123002523D01*
X87793285Y-123002523D01*
X87974714Y-122942047D01*
X88095666Y-122821095D01*
X88156142Y-122700142D01*
X88216619Y-122458238D01*
X88216619Y-122276809D01*
X88156142Y-122034904D01*
X88095666Y-121913952D01*
X87974714Y-121793000D01*
X87793285Y-121732523D01*
X87672333Y-121732523D01*
X87490904Y-121793000D01*
X87430428Y-121853476D01*
X86946619Y-121853476D02*
X86886142Y-121793000D01*
X86765190Y-121732523D01*
X86462809Y-121732523D01*
X86341857Y-121793000D01*
X86281380Y-121853476D01*
X86220904Y-121974428D01*
X86220904Y-122095380D01*
X86281380Y-122276809D01*
X87007095Y-123002523D01*
X86220904Y-123002523D01*
X85797571Y-121732523D02*
X85011380Y-121732523D01*
X85434714Y-122216333D01*
X85253285Y-122216333D01*
X85132333Y-122276809D01*
X85071857Y-122337285D01*
X85011380Y-122458238D01*
X85011380Y-122760619D01*
X85071857Y-122881571D01*
X85132333Y-122942047D01*
X85253285Y-123002523D01*
X85616142Y-123002523D01*
X85737095Y-122942047D01*
X85797571Y-122881571D01*
%TO.C,R8*%
X51585666Y-132146523D02*
X52009000Y-131541761D01*
X52311380Y-132146523D02*
X52311380Y-130876523D01*
X51827571Y-130876523D01*
X51706619Y-130937000D01*
X51646142Y-130997476D01*
X51585666Y-131118428D01*
X51585666Y-131299857D01*
X51646142Y-131420809D01*
X51706619Y-131481285D01*
X51827571Y-131541761D01*
X52311380Y-131541761D01*
X50859952Y-131420809D02*
X50980904Y-131360333D01*
X51041380Y-131299857D01*
X51101857Y-131178904D01*
X51101857Y-131118428D01*
X51041380Y-130997476D01*
X50980904Y-130937000D01*
X50859952Y-130876523D01*
X50618047Y-130876523D01*
X50497095Y-130937000D01*
X50436619Y-130997476D01*
X50376142Y-131118428D01*
X50376142Y-131178904D01*
X50436619Y-131299857D01*
X50497095Y-131360333D01*
X50618047Y-131420809D01*
X50859952Y-131420809D01*
X50980904Y-131481285D01*
X51041380Y-131541761D01*
X51101857Y-131662714D01*
X51101857Y-131904619D01*
X51041380Y-132025571D01*
X50980904Y-132086047D01*
X50859952Y-132146523D01*
X50618047Y-132146523D01*
X50497095Y-132086047D01*
X50436619Y-132025571D01*
X50376142Y-131904619D01*
X50376142Y-131662714D01*
X50436619Y-131541761D01*
X50497095Y-131481285D01*
X50618047Y-131420809D01*
D11*
%TO.C,R9*%
X284988000Y-138768600D02*
X284988000Y-139818600D01*
%TO.C,R7*%
X59436000Y-125205000D02*
X59436000Y-126255000D01*
%TO.C,R50*%
X54422000Y-128445000D02*
X54422000Y-129495000D01*
%TO.C,R11*%
X279974000Y-139175000D02*
X279974000Y-140225000D01*
%TO.C,R10*%
X280162000Y-143340600D02*
X280162000Y-144390600D01*
%TO.C,R8*%
X54422000Y-131047000D02*
X54422000Y-132097000D01*
%TD*%
M02*
