%TF.GenerationSoftware,KiCad,Pcbnew,(6.0.10)*%
%TF.CreationDate,2023-03-07T15:46:30-03:00*%
%TF.ProjectId,PCB_Hbridge,5043425f-4862-4726-9964-67652e6b6963,rev?*%
%TF.SameCoordinates,Original*%
%TF.FileFunction,Legend,Top*%
%TF.FilePolarity,Positive*%
%FSLAX46Y46*%
G04 Gerber Fmt 4.6, Leading zero omitted, Abs format (unit mm)*
G04 Created by KiCad (PCBNEW (6.0.10)) date 2023-03-07 15:46:30*
%MOMM*%
%LPD*%
G01*
G04 APERTURE LIST*
%ADD10C,0.254000*%
%ADD11C,0.150000*%
%ADD12C,0.200000*%
%ADD13C,0.100000*%
%ADD14C,0.127000*%
%ADD15C,0.400000*%
%ADD16C,0.120000*%
G04 APERTURE END LIST*
D10*
%TO.C,U10*%
X62689619Y-145354523D02*
X62689619Y-146382619D01*
X62750095Y-146503571D01*
X62810571Y-146564047D01*
X62931523Y-146624523D01*
X63173428Y-146624523D01*
X63294380Y-146564047D01*
X63354857Y-146503571D01*
X63415333Y-146382619D01*
X63415333Y-145354523D01*
X64685333Y-146624523D02*
X63959619Y-146624523D01*
X64322476Y-146624523D02*
X64322476Y-145354523D01*
X64201523Y-145535952D01*
X64080571Y-145656904D01*
X63959619Y-145717380D01*
X65471523Y-145354523D02*
X65592476Y-145354523D01*
X65713428Y-145415000D01*
X65773904Y-145475476D01*
X65834380Y-145596428D01*
X65894857Y-145838333D01*
X65894857Y-146140714D01*
X65834380Y-146382619D01*
X65773904Y-146503571D01*
X65713428Y-146564047D01*
X65592476Y-146624523D01*
X65471523Y-146624523D01*
X65350571Y-146564047D01*
X65290095Y-146503571D01*
X65229619Y-146382619D01*
X65169142Y-146140714D01*
X65169142Y-145838333D01*
X65229619Y-145596428D01*
X65290095Y-145475476D01*
X65350571Y-145415000D01*
X65471523Y-145354523D01*
%TO.C,R20*%
X85797571Y-122494523D02*
X85374238Y-121889761D01*
X85071857Y-122494523D02*
X85071857Y-121224523D01*
X85555666Y-121224523D01*
X85676619Y-121285000D01*
X85737095Y-121345476D01*
X85797571Y-121466428D01*
X85797571Y-121647857D01*
X85737095Y-121768809D01*
X85676619Y-121829285D01*
X85555666Y-121889761D01*
X85071857Y-121889761D01*
X86281380Y-121345476D02*
X86341857Y-121285000D01*
X86462809Y-121224523D01*
X86765190Y-121224523D01*
X86886142Y-121285000D01*
X86946619Y-121345476D01*
X87007095Y-121466428D01*
X87007095Y-121587380D01*
X86946619Y-121768809D01*
X86220904Y-122494523D01*
X87007095Y-122494523D01*
X87793285Y-121224523D02*
X87914238Y-121224523D01*
X88035190Y-121285000D01*
X88095666Y-121345476D01*
X88156142Y-121466428D01*
X88216619Y-121708333D01*
X88216619Y-122010714D01*
X88156142Y-122252619D01*
X88095666Y-122373571D01*
X88035190Y-122434047D01*
X87914238Y-122494523D01*
X87793285Y-122494523D01*
X87672333Y-122434047D01*
X87611857Y-122373571D01*
X87551380Y-122252619D01*
X87490904Y-122010714D01*
X87490904Y-121708333D01*
X87551380Y-121466428D01*
X87611857Y-121345476D01*
X87672333Y-121285000D01*
X87793285Y-121224523D01*
%TO.C,R39*%
X126304523Y-55064228D02*
X125699761Y-55487561D01*
X126304523Y-55789942D02*
X125034523Y-55789942D01*
X125034523Y-55306133D01*
X125095000Y-55185180D01*
X125155476Y-55124704D01*
X125276428Y-55064228D01*
X125457857Y-55064228D01*
X125578809Y-55124704D01*
X125639285Y-55185180D01*
X125699761Y-55306133D01*
X125699761Y-55789942D01*
X125034523Y-54640895D02*
X125034523Y-53854704D01*
X125518333Y-54278038D01*
X125518333Y-54096609D01*
X125578809Y-53975657D01*
X125639285Y-53915180D01*
X125760238Y-53854704D01*
X126062619Y-53854704D01*
X126183571Y-53915180D01*
X126244047Y-53975657D01*
X126304523Y-54096609D01*
X126304523Y-54459466D01*
X126244047Y-54580419D01*
X126183571Y-54640895D01*
X126304523Y-53249942D02*
X126304523Y-53008038D01*
X126244047Y-52887085D01*
X126183571Y-52826609D01*
X126002142Y-52705657D01*
X125760238Y-52645180D01*
X125276428Y-52645180D01*
X125155476Y-52705657D01*
X125095000Y-52766133D01*
X125034523Y-52887085D01*
X125034523Y-53128990D01*
X125095000Y-53249942D01*
X125155476Y-53310419D01*
X125276428Y-53370895D01*
X125578809Y-53370895D01*
X125699761Y-53310419D01*
X125760238Y-53249942D01*
X125820714Y-53128990D01*
X125820714Y-52887085D01*
X125760238Y-52766133D01*
X125699761Y-52705657D01*
X125578809Y-52645180D01*
%TO.C,J12*%
X348427523Y-40398095D02*
X349334666Y-40398095D01*
X349516095Y-40458571D01*
X349637047Y-40579523D01*
X349697523Y-40760952D01*
X349697523Y-40881904D01*
X349697523Y-39128095D02*
X349697523Y-39853809D01*
X349697523Y-39490952D02*
X348427523Y-39490952D01*
X348608952Y-39611904D01*
X348729904Y-39732857D01*
X348790380Y-39853809D01*
X348548476Y-38644285D02*
X348488000Y-38583809D01*
X348427523Y-38462857D01*
X348427523Y-38160476D01*
X348488000Y-38039523D01*
X348548476Y-37979047D01*
X348669428Y-37918571D01*
X348790380Y-37918571D01*
X348971809Y-37979047D01*
X349697523Y-38704761D01*
X349697523Y-37918571D01*
%TO.C,D2*%
X338152619Y-34610523D02*
X338152619Y-33340523D01*
X338455000Y-33340523D01*
X338636428Y-33401000D01*
X338757380Y-33521952D01*
X338817857Y-33642904D01*
X338878333Y-33884809D01*
X338878333Y-34066238D01*
X338817857Y-34308142D01*
X338757380Y-34429095D01*
X338636428Y-34550047D01*
X338455000Y-34610523D01*
X338152619Y-34610523D01*
X339362142Y-33461476D02*
X339422619Y-33401000D01*
X339543571Y-33340523D01*
X339845952Y-33340523D01*
X339966904Y-33401000D01*
X340027380Y-33461476D01*
X340087857Y-33582428D01*
X340087857Y-33703380D01*
X340027380Y-33884809D01*
X339301666Y-34610523D01*
X340087857Y-34610523D01*
%TO.C,C9*%
X93822333Y-74367571D02*
X93761857Y-74428047D01*
X93580428Y-74488523D01*
X93459476Y-74488523D01*
X93278047Y-74428047D01*
X93157095Y-74307095D01*
X93096619Y-74186142D01*
X93036142Y-73944238D01*
X93036142Y-73762809D01*
X93096619Y-73520904D01*
X93157095Y-73399952D01*
X93278047Y-73279000D01*
X93459476Y-73218523D01*
X93580428Y-73218523D01*
X93761857Y-73279000D01*
X93822333Y-73339476D01*
X94427095Y-74488523D02*
X94669000Y-74488523D01*
X94789952Y-74428047D01*
X94850428Y-74367571D01*
X94971380Y-74186142D01*
X95031857Y-73944238D01*
X95031857Y-73460428D01*
X94971380Y-73339476D01*
X94910904Y-73279000D01*
X94789952Y-73218523D01*
X94548047Y-73218523D01*
X94427095Y-73279000D01*
X94366619Y-73339476D01*
X94306142Y-73460428D01*
X94306142Y-73762809D01*
X94366619Y-73883761D01*
X94427095Y-73944238D01*
X94548047Y-74004714D01*
X94789952Y-74004714D01*
X94910904Y-73944238D01*
X94971380Y-73883761D01*
X95031857Y-73762809D01*
%TO.C,C20*%
X285187571Y-141779171D02*
X285127095Y-141839647D01*
X284945666Y-141900123D01*
X284824714Y-141900123D01*
X284643285Y-141839647D01*
X284522333Y-141718695D01*
X284461857Y-141597742D01*
X284401380Y-141355838D01*
X284401380Y-141174409D01*
X284461857Y-140932504D01*
X284522333Y-140811552D01*
X284643285Y-140690600D01*
X284824714Y-140630123D01*
X284945666Y-140630123D01*
X285127095Y-140690600D01*
X285187571Y-140751076D01*
X285671380Y-140751076D02*
X285731857Y-140690600D01*
X285852809Y-140630123D01*
X286155190Y-140630123D01*
X286276142Y-140690600D01*
X286336619Y-140751076D01*
X286397095Y-140872028D01*
X286397095Y-140992980D01*
X286336619Y-141174409D01*
X285610904Y-141900123D01*
X286397095Y-141900123D01*
X287183285Y-140630123D02*
X287304238Y-140630123D01*
X287425190Y-140690600D01*
X287485666Y-140751076D01*
X287546142Y-140872028D01*
X287606619Y-141113933D01*
X287606619Y-141416314D01*
X287546142Y-141658219D01*
X287485666Y-141779171D01*
X287425190Y-141839647D01*
X287304238Y-141900123D01*
X287183285Y-141900123D01*
X287062333Y-141839647D01*
X287001857Y-141779171D01*
X286941380Y-141658219D01*
X286880904Y-141416314D01*
X286880904Y-141113933D01*
X286941380Y-140872028D01*
X287001857Y-140751076D01*
X287062333Y-140690600D01*
X287183285Y-140630123D01*
%TO.C,D1*%
X340692619Y-37112523D02*
X340692619Y-35842523D01*
X340995000Y-35842523D01*
X341176428Y-35903000D01*
X341297380Y-36023952D01*
X341357857Y-36144904D01*
X341418333Y-36386809D01*
X341418333Y-36568238D01*
X341357857Y-36810142D01*
X341297380Y-36931095D01*
X341176428Y-37052047D01*
X340995000Y-37112523D01*
X340692619Y-37112523D01*
X342627857Y-37112523D02*
X341902142Y-37112523D01*
X342265000Y-37112523D02*
X342265000Y-35842523D01*
X342144047Y-36023952D01*
X342023095Y-36144904D01*
X341902142Y-36205380D01*
%TO.C,R16*%
X71192571Y-126431523D02*
X70769238Y-125826761D01*
X70466857Y-126431523D02*
X70466857Y-125161523D01*
X70950666Y-125161523D01*
X71071619Y-125222000D01*
X71132095Y-125282476D01*
X71192571Y-125403428D01*
X71192571Y-125584857D01*
X71132095Y-125705809D01*
X71071619Y-125766285D01*
X70950666Y-125826761D01*
X70466857Y-125826761D01*
X72402095Y-126431523D02*
X71676380Y-126431523D01*
X72039238Y-126431523D02*
X72039238Y-125161523D01*
X71918285Y-125342952D01*
X71797333Y-125463904D01*
X71676380Y-125524380D01*
X73490666Y-125161523D02*
X73248761Y-125161523D01*
X73127809Y-125222000D01*
X73067333Y-125282476D01*
X72946380Y-125463904D01*
X72885904Y-125705809D01*
X72885904Y-126189619D01*
X72946380Y-126310571D01*
X73006857Y-126371047D01*
X73127809Y-126431523D01*
X73369714Y-126431523D01*
X73490666Y-126371047D01*
X73551142Y-126310571D01*
X73611619Y-126189619D01*
X73611619Y-125887238D01*
X73551142Y-125766285D01*
X73490666Y-125705809D01*
X73369714Y-125645333D01*
X73127809Y-125645333D01*
X73006857Y-125705809D01*
X72946380Y-125766285D01*
X72885904Y-125887238D01*
%TO.C,C4*%
X78044571Y-73617666D02*
X78105047Y-73678142D01*
X78165523Y-73859571D01*
X78165523Y-73980523D01*
X78105047Y-74161952D01*
X77984095Y-74282904D01*
X77863142Y-74343380D01*
X77621238Y-74403857D01*
X77439809Y-74403857D01*
X77197904Y-74343380D01*
X77076952Y-74282904D01*
X76956000Y-74161952D01*
X76895523Y-73980523D01*
X76895523Y-73859571D01*
X76956000Y-73678142D01*
X77016476Y-73617666D01*
X77318857Y-72529095D02*
X78165523Y-72529095D01*
X76835047Y-72831476D02*
X77742190Y-73133857D01*
X77742190Y-72347666D01*
%TO.C,C12*%
X52015571Y-33111971D02*
X51955095Y-33172447D01*
X51773666Y-33232923D01*
X51652714Y-33232923D01*
X51471285Y-33172447D01*
X51350333Y-33051495D01*
X51289857Y-32930542D01*
X51229380Y-32688638D01*
X51229380Y-32507209D01*
X51289857Y-32265304D01*
X51350333Y-32144352D01*
X51471285Y-32023400D01*
X51652714Y-31962923D01*
X51773666Y-31962923D01*
X51955095Y-32023400D01*
X52015571Y-32083876D01*
X53225095Y-33232923D02*
X52499380Y-33232923D01*
X52862238Y-33232923D02*
X52862238Y-31962923D01*
X52741285Y-32144352D01*
X52620333Y-32265304D01*
X52499380Y-32325780D01*
X53708904Y-32083876D02*
X53769380Y-32023400D01*
X53890333Y-31962923D01*
X54192714Y-31962923D01*
X54313666Y-32023400D01*
X54374142Y-32083876D01*
X54434619Y-32204828D01*
X54434619Y-32325780D01*
X54374142Y-32507209D01*
X53648428Y-33232923D01*
X54434619Y-33232923D01*
%TO.C,U7*%
X82090380Y-67884523D02*
X82090380Y-68912619D01*
X82150857Y-69033571D01*
X82211333Y-69094047D01*
X82332285Y-69154523D01*
X82574190Y-69154523D01*
X82695142Y-69094047D01*
X82755619Y-69033571D01*
X82816095Y-68912619D01*
X82816095Y-67884523D01*
X83299904Y-67884523D02*
X84146571Y-67884523D01*
X83602285Y-69154523D01*
%TO.C,J6*%
X29530523Y-51985333D02*
X30437666Y-51985333D01*
X30619095Y-52045809D01*
X30740047Y-52166761D01*
X30800523Y-52348190D01*
X30800523Y-52469142D01*
X29530523Y-50836285D02*
X29530523Y-51078190D01*
X29591000Y-51199142D01*
X29651476Y-51259619D01*
X29832904Y-51380571D01*
X30074809Y-51441047D01*
X30558619Y-51441047D01*
X30679571Y-51380571D01*
X30740047Y-51320095D01*
X30800523Y-51199142D01*
X30800523Y-50957238D01*
X30740047Y-50836285D01*
X30679571Y-50775809D01*
X30558619Y-50715333D01*
X30256238Y-50715333D01*
X30135285Y-50775809D01*
X30074809Y-50836285D01*
X30014333Y-50957238D01*
X30014333Y-51199142D01*
X30074809Y-51320095D01*
X30135285Y-51380571D01*
X30256238Y-51441047D01*
%TO.C,R30*%
X131689323Y-62430228D02*
X131084561Y-62853561D01*
X131689323Y-63155942D02*
X130419323Y-63155942D01*
X130419323Y-62672133D01*
X130479800Y-62551180D01*
X130540276Y-62490704D01*
X130661228Y-62430228D01*
X130842657Y-62430228D01*
X130963609Y-62490704D01*
X131024085Y-62551180D01*
X131084561Y-62672133D01*
X131084561Y-63155942D01*
X130419323Y-62006895D02*
X130419323Y-61220704D01*
X130903133Y-61644038D01*
X130903133Y-61462609D01*
X130963609Y-61341657D01*
X131024085Y-61281180D01*
X131145038Y-61220704D01*
X131447419Y-61220704D01*
X131568371Y-61281180D01*
X131628847Y-61341657D01*
X131689323Y-61462609D01*
X131689323Y-61825466D01*
X131628847Y-61946419D01*
X131568371Y-62006895D01*
X130419323Y-60434514D02*
X130419323Y-60313561D01*
X130479800Y-60192609D01*
X130540276Y-60132133D01*
X130661228Y-60071657D01*
X130903133Y-60011180D01*
X131205514Y-60011180D01*
X131447419Y-60071657D01*
X131568371Y-60132133D01*
X131628847Y-60192609D01*
X131689323Y-60313561D01*
X131689323Y-60434514D01*
X131628847Y-60555466D01*
X131568371Y-60615942D01*
X131447419Y-60676419D01*
X131205514Y-60736895D01*
X130903133Y-60736895D01*
X130661228Y-60676419D01*
X130540276Y-60615942D01*
X130479800Y-60555466D01*
X130419323Y-60434514D01*
D11*
%TO.C,U5*%
X64262095Y-67016380D02*
X64262095Y-67825904D01*
X64309714Y-67921142D01*
X64357333Y-67968761D01*
X64452571Y-68016380D01*
X64643047Y-68016380D01*
X64738285Y-67968761D01*
X64785904Y-67921142D01*
X64833523Y-67825904D01*
X64833523Y-67016380D01*
X65785904Y-67016380D02*
X65309714Y-67016380D01*
X65262095Y-67492571D01*
X65309714Y-67444952D01*
X65404952Y-67397333D01*
X65643047Y-67397333D01*
X65738285Y-67444952D01*
X65785904Y-67492571D01*
X65833523Y-67587809D01*
X65833523Y-67825904D01*
X65785904Y-67921142D01*
X65738285Y-67968761D01*
X65643047Y-68016380D01*
X65404952Y-68016380D01*
X65309714Y-67968761D01*
X65262095Y-67921142D01*
D10*
%TO.C,U4*%
X141290523Y-207977619D02*
X142318619Y-207977619D01*
X142439571Y-207917142D01*
X142500047Y-207856666D01*
X142560523Y-207735714D01*
X142560523Y-207493809D01*
X142500047Y-207372857D01*
X142439571Y-207312380D01*
X142318619Y-207251904D01*
X141290523Y-207251904D01*
X141713857Y-206102857D02*
X142560523Y-206102857D01*
X141230047Y-206405238D02*
X142137190Y-206707619D01*
X142137190Y-205921428D01*
%TO.C,R40*%
X139258523Y-55130228D02*
X138653761Y-55553561D01*
X139258523Y-55855942D02*
X137988523Y-55855942D01*
X137988523Y-55372133D01*
X138049000Y-55251180D01*
X138109476Y-55190704D01*
X138230428Y-55130228D01*
X138411857Y-55130228D01*
X138532809Y-55190704D01*
X138593285Y-55251180D01*
X138653761Y-55372133D01*
X138653761Y-55855942D01*
X138411857Y-54041657D02*
X139258523Y-54041657D01*
X137928047Y-54344038D02*
X138835190Y-54646419D01*
X138835190Y-53860228D01*
X137988523Y-53134514D02*
X137988523Y-53013561D01*
X138049000Y-52892609D01*
X138109476Y-52832133D01*
X138230428Y-52771657D01*
X138472333Y-52711180D01*
X138774714Y-52711180D01*
X139016619Y-52771657D01*
X139137571Y-52832133D01*
X139198047Y-52892609D01*
X139258523Y-53013561D01*
X139258523Y-53134514D01*
X139198047Y-53255466D01*
X139137571Y-53315942D01*
X139016619Y-53376419D01*
X138774714Y-53436895D01*
X138472333Y-53436895D01*
X138230428Y-53376419D01*
X138109476Y-53315942D01*
X138049000Y-53255466D01*
X137988523Y-53134514D01*
%TO.C,R22*%
X321255571Y-148402523D02*
X320832238Y-147797761D01*
X320529857Y-148402523D02*
X320529857Y-147132523D01*
X321013666Y-147132523D01*
X321134619Y-147193000D01*
X321195095Y-147253476D01*
X321255571Y-147374428D01*
X321255571Y-147555857D01*
X321195095Y-147676809D01*
X321134619Y-147737285D01*
X321013666Y-147797761D01*
X320529857Y-147797761D01*
X321739380Y-147253476D02*
X321799857Y-147193000D01*
X321920809Y-147132523D01*
X322223190Y-147132523D01*
X322344142Y-147193000D01*
X322404619Y-147253476D01*
X322465095Y-147374428D01*
X322465095Y-147495380D01*
X322404619Y-147676809D01*
X321678904Y-148402523D01*
X322465095Y-148402523D01*
X322948904Y-147253476D02*
X323009380Y-147193000D01*
X323130333Y-147132523D01*
X323432714Y-147132523D01*
X323553666Y-147193000D01*
X323614142Y-147253476D01*
X323674619Y-147374428D01*
X323674619Y-147495380D01*
X323614142Y-147676809D01*
X322888428Y-148402523D01*
X323674619Y-148402523D01*
%TO.C,C28*%
X163267571Y-42617571D02*
X163207095Y-42678047D01*
X163025666Y-42738523D01*
X162904714Y-42738523D01*
X162723285Y-42678047D01*
X162602333Y-42557095D01*
X162541857Y-42436142D01*
X162481380Y-42194238D01*
X162481380Y-42012809D01*
X162541857Y-41770904D01*
X162602333Y-41649952D01*
X162723285Y-41529000D01*
X162904714Y-41468523D01*
X163025666Y-41468523D01*
X163207095Y-41529000D01*
X163267571Y-41589476D01*
X163751380Y-41589476D02*
X163811857Y-41529000D01*
X163932809Y-41468523D01*
X164235190Y-41468523D01*
X164356142Y-41529000D01*
X164416619Y-41589476D01*
X164477095Y-41710428D01*
X164477095Y-41831380D01*
X164416619Y-42012809D01*
X163690904Y-42738523D01*
X164477095Y-42738523D01*
X165202809Y-42012809D02*
X165081857Y-41952333D01*
X165021380Y-41891857D01*
X164960904Y-41770904D01*
X164960904Y-41710428D01*
X165021380Y-41589476D01*
X165081857Y-41529000D01*
X165202809Y-41468523D01*
X165444714Y-41468523D01*
X165565666Y-41529000D01*
X165626142Y-41589476D01*
X165686619Y-41710428D01*
X165686619Y-41770904D01*
X165626142Y-41891857D01*
X165565666Y-41952333D01*
X165444714Y-42012809D01*
X165202809Y-42012809D01*
X165081857Y-42073285D01*
X165021380Y-42133761D01*
X164960904Y-42254714D01*
X164960904Y-42496619D01*
X165021380Y-42617571D01*
X165081857Y-42678047D01*
X165202809Y-42738523D01*
X165444714Y-42738523D01*
X165565666Y-42678047D01*
X165626142Y-42617571D01*
X165686619Y-42496619D01*
X165686619Y-42254714D01*
X165626142Y-42133761D01*
X165565666Y-42073285D01*
X165444714Y-42012809D01*
%TO.C,C3*%
X77258333Y-63445571D02*
X77197857Y-63506047D01*
X77016428Y-63566523D01*
X76895476Y-63566523D01*
X76714047Y-63506047D01*
X76593095Y-63385095D01*
X76532619Y-63264142D01*
X76472142Y-63022238D01*
X76472142Y-62840809D01*
X76532619Y-62598904D01*
X76593095Y-62477952D01*
X76714047Y-62357000D01*
X76895476Y-62296523D01*
X77016428Y-62296523D01*
X77197857Y-62357000D01*
X77258333Y-62417476D01*
X77681666Y-62296523D02*
X78467857Y-62296523D01*
X78044523Y-62780333D01*
X78225952Y-62780333D01*
X78346904Y-62840809D01*
X78407380Y-62901285D01*
X78467857Y-63022238D01*
X78467857Y-63324619D01*
X78407380Y-63445571D01*
X78346904Y-63506047D01*
X78225952Y-63566523D01*
X77863095Y-63566523D01*
X77742142Y-63506047D01*
X77681666Y-63445571D01*
%TO.C,C11*%
X264486571Y-155393571D02*
X264426095Y-155454047D01*
X264244666Y-155514523D01*
X264123714Y-155514523D01*
X263942285Y-155454047D01*
X263821333Y-155333095D01*
X263760857Y-155212142D01*
X263700380Y-154970238D01*
X263700380Y-154788809D01*
X263760857Y-154546904D01*
X263821333Y-154425952D01*
X263942285Y-154305000D01*
X264123714Y-154244523D01*
X264244666Y-154244523D01*
X264426095Y-154305000D01*
X264486571Y-154365476D01*
X265696095Y-155514523D02*
X264970380Y-155514523D01*
X265333238Y-155514523D02*
X265333238Y-154244523D01*
X265212285Y-154425952D01*
X265091333Y-154546904D01*
X264970380Y-154607380D01*
X266905619Y-155514523D02*
X266179904Y-155514523D01*
X266542761Y-155514523D02*
X266542761Y-154244523D01*
X266421809Y-154425952D01*
X266300857Y-154546904D01*
X266179904Y-154607380D01*
%TO.C,U3*%
X141290523Y-159209619D02*
X142318619Y-159209619D01*
X142439571Y-159149142D01*
X142500047Y-159088666D01*
X142560523Y-158967714D01*
X142560523Y-158725809D01*
X142500047Y-158604857D01*
X142439571Y-158544380D01*
X142318619Y-158483904D01*
X141290523Y-158483904D01*
X141290523Y-158000095D02*
X141290523Y-157213904D01*
X141774333Y-157637238D01*
X141774333Y-157455809D01*
X141834809Y-157334857D01*
X141895285Y-157274380D01*
X142016238Y-157213904D01*
X142318619Y-157213904D01*
X142439571Y-157274380D01*
X142500047Y-157334857D01*
X142560523Y-157455809D01*
X142560523Y-157818666D01*
X142500047Y-157939619D01*
X142439571Y-158000095D01*
%TO.C,U8*%
X82344380Y-78552523D02*
X82344380Y-79580619D01*
X82404857Y-79701571D01*
X82465333Y-79762047D01*
X82586285Y-79822523D01*
X82828190Y-79822523D01*
X82949142Y-79762047D01*
X83009619Y-79701571D01*
X83070095Y-79580619D01*
X83070095Y-78552523D01*
X83856285Y-79096809D02*
X83735333Y-79036333D01*
X83674857Y-78975857D01*
X83614380Y-78854904D01*
X83614380Y-78794428D01*
X83674857Y-78673476D01*
X83735333Y-78613000D01*
X83856285Y-78552523D01*
X84098190Y-78552523D01*
X84219142Y-78613000D01*
X84279619Y-78673476D01*
X84340095Y-78794428D01*
X84340095Y-78854904D01*
X84279619Y-78975857D01*
X84219142Y-79036333D01*
X84098190Y-79096809D01*
X83856285Y-79096809D01*
X83735333Y-79157285D01*
X83674857Y-79217761D01*
X83614380Y-79338714D01*
X83614380Y-79580619D01*
X83674857Y-79701571D01*
X83735333Y-79762047D01*
X83856285Y-79822523D01*
X84098190Y-79822523D01*
X84219142Y-79762047D01*
X84279619Y-79701571D01*
X84340095Y-79580619D01*
X84340095Y-79338714D01*
X84279619Y-79217761D01*
X84219142Y-79157285D01*
X84098190Y-79096809D01*
%TO.C,R21*%
X312619571Y-148148523D02*
X312196238Y-147543761D01*
X311893857Y-148148523D02*
X311893857Y-146878523D01*
X312377666Y-146878523D01*
X312498619Y-146939000D01*
X312559095Y-146999476D01*
X312619571Y-147120428D01*
X312619571Y-147301857D01*
X312559095Y-147422809D01*
X312498619Y-147483285D01*
X312377666Y-147543761D01*
X311893857Y-147543761D01*
X313103380Y-146999476D02*
X313163857Y-146939000D01*
X313284809Y-146878523D01*
X313587190Y-146878523D01*
X313708142Y-146939000D01*
X313768619Y-146999476D01*
X313829095Y-147120428D01*
X313829095Y-147241380D01*
X313768619Y-147422809D01*
X313042904Y-148148523D01*
X313829095Y-148148523D01*
X315038619Y-148148523D02*
X314312904Y-148148523D01*
X314675761Y-148148523D02*
X314675761Y-146878523D01*
X314554809Y-147059952D01*
X314433857Y-147180904D01*
X314312904Y-147241380D01*
%TO.C,R44*%
X125491723Y-31937228D02*
X124886961Y-32360561D01*
X125491723Y-32662942D02*
X124221723Y-32662942D01*
X124221723Y-32179133D01*
X124282200Y-32058180D01*
X124342676Y-31997704D01*
X124463628Y-31937228D01*
X124645057Y-31937228D01*
X124766009Y-31997704D01*
X124826485Y-32058180D01*
X124886961Y-32179133D01*
X124886961Y-32662942D01*
X124645057Y-30848657D02*
X125491723Y-30848657D01*
X124161247Y-31151038D02*
X125068390Y-31453419D01*
X125068390Y-30667228D01*
X124645057Y-29639133D02*
X125491723Y-29639133D01*
X124161247Y-29941514D02*
X125068390Y-30243895D01*
X125068390Y-29457704D01*
%TO.C,H4*%
X122494523Y-207723619D02*
X121224523Y-207723619D01*
X121829285Y-207723619D02*
X121829285Y-206997904D01*
X122494523Y-206997904D02*
X121224523Y-206997904D01*
X121647857Y-205848857D02*
X122494523Y-205848857D01*
X121164047Y-206151238D02*
X122071190Y-206453619D01*
X122071190Y-205667428D01*
%TO.C,U1*%
X141290523Y-106123619D02*
X142318619Y-106123619D01*
X142439571Y-106063142D01*
X142500047Y-106002666D01*
X142560523Y-105881714D01*
X142560523Y-105639809D01*
X142500047Y-105518857D01*
X142439571Y-105458380D01*
X142318619Y-105397904D01*
X141290523Y-105397904D01*
X142560523Y-104127904D02*
X142560523Y-104853619D01*
X142560523Y-104490761D02*
X141290523Y-104490761D01*
X141471952Y-104611714D01*
X141592904Y-104732666D01*
X141653380Y-104853619D01*
%TO.C,R48*%
X129860523Y-39490428D02*
X129255761Y-39913761D01*
X129860523Y-40216142D02*
X128590523Y-40216142D01*
X128590523Y-39732333D01*
X128651000Y-39611380D01*
X128711476Y-39550904D01*
X128832428Y-39490428D01*
X129013857Y-39490428D01*
X129134809Y-39550904D01*
X129195285Y-39611380D01*
X129255761Y-39732333D01*
X129255761Y-40216142D01*
X129013857Y-38401857D02*
X129860523Y-38401857D01*
X128530047Y-38704238D02*
X129437190Y-39006619D01*
X129437190Y-38220428D01*
X129134809Y-37555190D02*
X129074333Y-37676142D01*
X129013857Y-37736619D01*
X128892904Y-37797095D01*
X128832428Y-37797095D01*
X128711476Y-37736619D01*
X128651000Y-37676142D01*
X128590523Y-37555190D01*
X128590523Y-37313285D01*
X128651000Y-37192333D01*
X128711476Y-37131857D01*
X128832428Y-37071380D01*
X128892904Y-37071380D01*
X129013857Y-37131857D01*
X129074333Y-37192333D01*
X129134809Y-37313285D01*
X129134809Y-37555190D01*
X129195285Y-37676142D01*
X129255761Y-37736619D01*
X129376714Y-37797095D01*
X129618619Y-37797095D01*
X129739571Y-37736619D01*
X129800047Y-37676142D01*
X129860523Y-37555190D01*
X129860523Y-37313285D01*
X129800047Y-37192333D01*
X129739571Y-37131857D01*
X129618619Y-37071380D01*
X129376714Y-37071380D01*
X129255761Y-37131857D01*
X129195285Y-37192333D01*
X129134809Y-37313285D01*
%TO.C,R25*%
X302967571Y-138242523D02*
X302544238Y-137637761D01*
X302241857Y-138242523D02*
X302241857Y-136972523D01*
X302725666Y-136972523D01*
X302846619Y-137033000D01*
X302907095Y-137093476D01*
X302967571Y-137214428D01*
X302967571Y-137395857D01*
X302907095Y-137516809D01*
X302846619Y-137577285D01*
X302725666Y-137637761D01*
X302241857Y-137637761D01*
X303451380Y-137093476D02*
X303511857Y-137033000D01*
X303632809Y-136972523D01*
X303935190Y-136972523D01*
X304056142Y-137033000D01*
X304116619Y-137093476D01*
X304177095Y-137214428D01*
X304177095Y-137335380D01*
X304116619Y-137516809D01*
X303390904Y-138242523D01*
X304177095Y-138242523D01*
X305326142Y-136972523D02*
X304721380Y-136972523D01*
X304660904Y-137577285D01*
X304721380Y-137516809D01*
X304842333Y-137456333D01*
X305144714Y-137456333D01*
X305265666Y-137516809D01*
X305326142Y-137577285D01*
X305386619Y-137698238D01*
X305386619Y-138000619D01*
X305326142Y-138121571D01*
X305265666Y-138182047D01*
X305144714Y-138242523D01*
X304842333Y-138242523D01*
X304721380Y-138182047D01*
X304660904Y-138121571D01*
%TO.C,R4*%
X88942333Y-81288523D02*
X88519000Y-80683761D01*
X88216619Y-81288523D02*
X88216619Y-80018523D01*
X88700428Y-80018523D01*
X88821380Y-80079000D01*
X88881857Y-80139476D01*
X88942333Y-80260428D01*
X88942333Y-80441857D01*
X88881857Y-80562809D01*
X88821380Y-80623285D01*
X88700428Y-80683761D01*
X88216619Y-80683761D01*
X90030904Y-80441857D02*
X90030904Y-81288523D01*
X89728523Y-79958047D02*
X89426142Y-80865190D01*
X90212333Y-80865190D01*
%TO.C,C8*%
X93433533Y-63699571D02*
X93373057Y-63760047D01*
X93191628Y-63820523D01*
X93070676Y-63820523D01*
X92889247Y-63760047D01*
X92768295Y-63639095D01*
X92707819Y-63518142D01*
X92647342Y-63276238D01*
X92647342Y-63094809D01*
X92707819Y-62852904D01*
X92768295Y-62731952D01*
X92889247Y-62611000D01*
X93070676Y-62550523D01*
X93191628Y-62550523D01*
X93373057Y-62611000D01*
X93433533Y-62671476D01*
X94159247Y-63094809D02*
X94038295Y-63034333D01*
X93977819Y-62973857D01*
X93917342Y-62852904D01*
X93917342Y-62792428D01*
X93977819Y-62671476D01*
X94038295Y-62611000D01*
X94159247Y-62550523D01*
X94401152Y-62550523D01*
X94522104Y-62611000D01*
X94582580Y-62671476D01*
X94643057Y-62792428D01*
X94643057Y-62852904D01*
X94582580Y-62973857D01*
X94522104Y-63034333D01*
X94401152Y-63094809D01*
X94159247Y-63094809D01*
X94038295Y-63155285D01*
X93977819Y-63215761D01*
X93917342Y-63336714D01*
X93917342Y-63578619D01*
X93977819Y-63699571D01*
X94038295Y-63760047D01*
X94159247Y-63820523D01*
X94401152Y-63820523D01*
X94522104Y-63760047D01*
X94582580Y-63699571D01*
X94643057Y-63578619D01*
X94643057Y-63336714D01*
X94582580Y-63215761D01*
X94522104Y-63155285D01*
X94401152Y-63094809D01*
%TO.C,R18*%
X79447571Y-126558523D02*
X79024238Y-125953761D01*
X78721857Y-126558523D02*
X78721857Y-125288523D01*
X79205666Y-125288523D01*
X79326619Y-125349000D01*
X79387095Y-125409476D01*
X79447571Y-125530428D01*
X79447571Y-125711857D01*
X79387095Y-125832809D01*
X79326619Y-125893285D01*
X79205666Y-125953761D01*
X78721857Y-125953761D01*
X80657095Y-126558523D02*
X79931380Y-126558523D01*
X80294238Y-126558523D02*
X80294238Y-125288523D01*
X80173285Y-125469952D01*
X80052333Y-125590904D01*
X79931380Y-125651380D01*
X81382809Y-125832809D02*
X81261857Y-125772333D01*
X81201380Y-125711857D01*
X81140904Y-125590904D01*
X81140904Y-125530428D01*
X81201380Y-125409476D01*
X81261857Y-125349000D01*
X81382809Y-125288523D01*
X81624714Y-125288523D01*
X81745666Y-125349000D01*
X81806142Y-125409476D01*
X81866619Y-125530428D01*
X81866619Y-125590904D01*
X81806142Y-125711857D01*
X81745666Y-125772333D01*
X81624714Y-125832809D01*
X81382809Y-125832809D01*
X81261857Y-125893285D01*
X81201380Y-125953761D01*
X81140904Y-126074714D01*
X81140904Y-126316619D01*
X81201380Y-126437571D01*
X81261857Y-126498047D01*
X81382809Y-126558523D01*
X81624714Y-126558523D01*
X81745666Y-126498047D01*
X81806142Y-126437571D01*
X81866619Y-126316619D01*
X81866619Y-126074714D01*
X81806142Y-125953761D01*
X81745666Y-125893285D01*
X81624714Y-125832809D01*
%TO.C,C16*%
X65020371Y-125167571D02*
X64959895Y-125228047D01*
X64778466Y-125288523D01*
X64657514Y-125288523D01*
X64476085Y-125228047D01*
X64355133Y-125107095D01*
X64294657Y-124986142D01*
X64234180Y-124744238D01*
X64234180Y-124562809D01*
X64294657Y-124320904D01*
X64355133Y-124199952D01*
X64476085Y-124079000D01*
X64657514Y-124018523D01*
X64778466Y-124018523D01*
X64959895Y-124079000D01*
X65020371Y-124139476D01*
X66229895Y-125288523D02*
X65504180Y-125288523D01*
X65867038Y-125288523D02*
X65867038Y-124018523D01*
X65746085Y-124199952D01*
X65625133Y-124320904D01*
X65504180Y-124381380D01*
X67318466Y-124018523D02*
X67076561Y-124018523D01*
X66955609Y-124079000D01*
X66895133Y-124139476D01*
X66774180Y-124320904D01*
X66713704Y-124562809D01*
X66713704Y-125046619D01*
X66774180Y-125167571D01*
X66834657Y-125228047D01*
X66955609Y-125288523D01*
X67197514Y-125288523D01*
X67318466Y-125228047D01*
X67378942Y-125167571D01*
X67439419Y-125046619D01*
X67439419Y-124744238D01*
X67378942Y-124623285D01*
X67318466Y-124562809D01*
X67197514Y-124502333D01*
X66955609Y-124502333D01*
X66834657Y-124562809D01*
X66774180Y-124623285D01*
X66713704Y-124744238D01*
%TO.C,R5*%
X90690333Y-63566523D02*
X90267000Y-62961761D01*
X89964619Y-63566523D02*
X89964619Y-62296523D01*
X90448428Y-62296523D01*
X90569380Y-62357000D01*
X90629857Y-62417476D01*
X90690333Y-62538428D01*
X90690333Y-62719857D01*
X90629857Y-62840809D01*
X90569380Y-62901285D01*
X90448428Y-62961761D01*
X89964619Y-62961761D01*
X91839380Y-62296523D02*
X91234619Y-62296523D01*
X91174142Y-62901285D01*
X91234619Y-62840809D01*
X91355571Y-62780333D01*
X91657952Y-62780333D01*
X91778904Y-62840809D01*
X91839380Y-62901285D01*
X91899857Y-63022238D01*
X91899857Y-63324619D01*
X91839380Y-63445571D01*
X91778904Y-63506047D01*
X91657952Y-63566523D01*
X91355571Y-63566523D01*
X91234619Y-63506047D01*
X91174142Y-63445571D01*
%TO.C,R1*%
X88180333Y-69408523D02*
X87757000Y-68803761D01*
X87454619Y-69408523D02*
X87454619Y-68138523D01*
X87938428Y-68138523D01*
X88059380Y-68199000D01*
X88119857Y-68259476D01*
X88180333Y-68380428D01*
X88180333Y-68561857D01*
X88119857Y-68682809D01*
X88059380Y-68743285D01*
X87938428Y-68803761D01*
X87454619Y-68803761D01*
X89389857Y-69408523D02*
X88664142Y-69408523D01*
X89027000Y-69408523D02*
X89027000Y-68138523D01*
X88906047Y-68319952D01*
X88785095Y-68440904D01*
X88664142Y-68501380D01*
%TO.C,C5*%
X58970333Y-68017571D02*
X58909857Y-68078047D01*
X58728428Y-68138523D01*
X58607476Y-68138523D01*
X58426047Y-68078047D01*
X58305095Y-67957095D01*
X58244619Y-67836142D01*
X58184142Y-67594238D01*
X58184142Y-67412809D01*
X58244619Y-67170904D01*
X58305095Y-67049952D01*
X58426047Y-66929000D01*
X58607476Y-66868523D01*
X58728428Y-66868523D01*
X58909857Y-66929000D01*
X58970333Y-66989476D01*
X60119380Y-66868523D02*
X59514619Y-66868523D01*
X59454142Y-67473285D01*
X59514619Y-67412809D01*
X59635571Y-67352333D01*
X59937952Y-67352333D01*
X60058904Y-67412809D01*
X60119380Y-67473285D01*
X60179857Y-67594238D01*
X60179857Y-67896619D01*
X60119380Y-68017571D01*
X60058904Y-68078047D01*
X59937952Y-68138523D01*
X59635571Y-68138523D01*
X59514619Y-68078047D01*
X59454142Y-68017571D01*
%TO.C,C18*%
X290775571Y-141779171D02*
X290715095Y-141839647D01*
X290533666Y-141900123D01*
X290412714Y-141900123D01*
X290231285Y-141839647D01*
X290110333Y-141718695D01*
X290049857Y-141597742D01*
X289989380Y-141355838D01*
X289989380Y-141174409D01*
X290049857Y-140932504D01*
X290110333Y-140811552D01*
X290231285Y-140690600D01*
X290412714Y-140630123D01*
X290533666Y-140630123D01*
X290715095Y-140690600D01*
X290775571Y-140751076D01*
X291985095Y-141900123D02*
X291259380Y-141900123D01*
X291622238Y-141900123D02*
X291622238Y-140630123D01*
X291501285Y-140811552D01*
X291380333Y-140932504D01*
X291259380Y-140992980D01*
X292710809Y-141174409D02*
X292589857Y-141113933D01*
X292529380Y-141053457D01*
X292468904Y-140932504D01*
X292468904Y-140872028D01*
X292529380Y-140751076D01*
X292589857Y-140690600D01*
X292710809Y-140630123D01*
X292952714Y-140630123D01*
X293073666Y-140690600D01*
X293134142Y-140751076D01*
X293194619Y-140872028D01*
X293194619Y-140932504D01*
X293134142Y-141053457D01*
X293073666Y-141113933D01*
X292952714Y-141174409D01*
X292710809Y-141174409D01*
X292589857Y-141234885D01*
X292529380Y-141295361D01*
X292468904Y-141416314D01*
X292468904Y-141658219D01*
X292529380Y-141779171D01*
X292589857Y-141839647D01*
X292710809Y-141900123D01*
X292952714Y-141900123D01*
X293073666Y-141839647D01*
X293134142Y-141779171D01*
X293194619Y-141658219D01*
X293194619Y-141416314D01*
X293134142Y-141295361D01*
X293073666Y-141234885D01*
X292952714Y-141174409D01*
%TO.C,R12*%
X81352571Y-136591523D02*
X80929238Y-135986761D01*
X80626857Y-136591523D02*
X80626857Y-135321523D01*
X81110666Y-135321523D01*
X81231619Y-135382000D01*
X81292095Y-135442476D01*
X81352571Y-135563428D01*
X81352571Y-135744857D01*
X81292095Y-135865809D01*
X81231619Y-135926285D01*
X81110666Y-135986761D01*
X80626857Y-135986761D01*
X82562095Y-136591523D02*
X81836380Y-136591523D01*
X82199238Y-136591523D02*
X82199238Y-135321523D01*
X82078285Y-135502952D01*
X81957333Y-135623904D01*
X81836380Y-135684380D01*
X83045904Y-135442476D02*
X83106380Y-135382000D01*
X83227333Y-135321523D01*
X83529714Y-135321523D01*
X83650666Y-135382000D01*
X83711142Y-135442476D01*
X83771619Y-135563428D01*
X83771619Y-135684380D01*
X83711142Y-135865809D01*
X82985428Y-136591523D01*
X83771619Y-136591523D01*
%TO.C,R26*%
X331415571Y-138242523D02*
X330992238Y-137637761D01*
X330689857Y-138242523D02*
X330689857Y-136972523D01*
X331173666Y-136972523D01*
X331294619Y-137033000D01*
X331355095Y-137093476D01*
X331415571Y-137214428D01*
X331415571Y-137395857D01*
X331355095Y-137516809D01*
X331294619Y-137577285D01*
X331173666Y-137637761D01*
X330689857Y-137637761D01*
X331899380Y-137093476D02*
X331959857Y-137033000D01*
X332080809Y-136972523D01*
X332383190Y-136972523D01*
X332504142Y-137033000D01*
X332564619Y-137093476D01*
X332625095Y-137214428D01*
X332625095Y-137335380D01*
X332564619Y-137516809D01*
X331838904Y-138242523D01*
X332625095Y-138242523D01*
X333713666Y-136972523D02*
X333471761Y-136972523D01*
X333350809Y-137033000D01*
X333290333Y-137093476D01*
X333169380Y-137274904D01*
X333108904Y-137516809D01*
X333108904Y-138000619D01*
X333169380Y-138121571D01*
X333229857Y-138182047D01*
X333350809Y-138242523D01*
X333592714Y-138242523D01*
X333713666Y-138182047D01*
X333774142Y-138121571D01*
X333834619Y-138000619D01*
X333834619Y-137698238D01*
X333774142Y-137577285D01*
X333713666Y-137516809D01*
X333592714Y-137456333D01*
X333350809Y-137456333D01*
X333229857Y-137516809D01*
X333169380Y-137577285D01*
X333108904Y-137698238D01*
%TO.C,U11*%
X88851619Y-120208523D02*
X88851619Y-121236619D01*
X88912095Y-121357571D01*
X88972571Y-121418047D01*
X89093523Y-121478523D01*
X89335428Y-121478523D01*
X89456380Y-121418047D01*
X89516857Y-121357571D01*
X89577333Y-121236619D01*
X89577333Y-120208523D01*
X90847333Y-121478523D02*
X90121619Y-121478523D01*
X90484476Y-121478523D02*
X90484476Y-120208523D01*
X90363523Y-120389952D01*
X90242571Y-120510904D01*
X90121619Y-120571380D01*
X92056857Y-121478523D02*
X91331142Y-121478523D01*
X91694000Y-121478523D02*
X91694000Y-120208523D01*
X91573047Y-120389952D01*
X91452095Y-120510904D01*
X91331142Y-120571380D01*
%TO.C,J2*%
X55288666Y-207481523D02*
X55288666Y-208388666D01*
X55228190Y-208570095D01*
X55107238Y-208691047D01*
X54925809Y-208751523D01*
X54804857Y-208751523D01*
X55832952Y-207602476D02*
X55893428Y-207542000D01*
X56014380Y-207481523D01*
X56316761Y-207481523D01*
X56437714Y-207542000D01*
X56498190Y-207602476D01*
X56558666Y-207723428D01*
X56558666Y-207844380D01*
X56498190Y-208025809D01*
X55772476Y-208751523D01*
X56558666Y-208751523D01*
%TO.C,R24*%
X327351571Y-148402523D02*
X326928238Y-147797761D01*
X326625857Y-148402523D02*
X326625857Y-147132523D01*
X327109666Y-147132523D01*
X327230619Y-147193000D01*
X327291095Y-147253476D01*
X327351571Y-147374428D01*
X327351571Y-147555857D01*
X327291095Y-147676809D01*
X327230619Y-147737285D01*
X327109666Y-147797761D01*
X326625857Y-147797761D01*
X327835380Y-147253476D02*
X327895857Y-147193000D01*
X328016809Y-147132523D01*
X328319190Y-147132523D01*
X328440142Y-147193000D01*
X328500619Y-147253476D01*
X328561095Y-147374428D01*
X328561095Y-147495380D01*
X328500619Y-147676809D01*
X327774904Y-148402523D01*
X328561095Y-148402523D01*
X329649666Y-147555857D02*
X329649666Y-148402523D01*
X329347285Y-147072047D02*
X329044904Y-147979190D01*
X329831095Y-147979190D01*
%TO.C,R15*%
X96592571Y-136591523D02*
X96169238Y-135986761D01*
X95866857Y-136591523D02*
X95866857Y-135321523D01*
X96350666Y-135321523D01*
X96471619Y-135382000D01*
X96532095Y-135442476D01*
X96592571Y-135563428D01*
X96592571Y-135744857D01*
X96532095Y-135865809D01*
X96471619Y-135926285D01*
X96350666Y-135986761D01*
X95866857Y-135986761D01*
X97802095Y-136591523D02*
X97076380Y-136591523D01*
X97439238Y-136591523D02*
X97439238Y-135321523D01*
X97318285Y-135502952D01*
X97197333Y-135623904D01*
X97076380Y-135684380D01*
X98951142Y-135321523D02*
X98346380Y-135321523D01*
X98285904Y-135926285D01*
X98346380Y-135865809D01*
X98467333Y-135805333D01*
X98769714Y-135805333D01*
X98890666Y-135865809D01*
X98951142Y-135926285D01*
X99011619Y-136047238D01*
X99011619Y-136349619D01*
X98951142Y-136470571D01*
X98890666Y-136531047D01*
X98769714Y-136591523D01*
X98467333Y-136591523D01*
X98346380Y-136531047D01*
X98285904Y-136470571D01*
%TO.C,R42*%
X125745723Y-39490428D02*
X125140961Y-39913761D01*
X125745723Y-40216142D02*
X124475723Y-40216142D01*
X124475723Y-39732333D01*
X124536200Y-39611380D01*
X124596676Y-39550904D01*
X124717628Y-39490428D01*
X124899057Y-39490428D01*
X125020009Y-39550904D01*
X125080485Y-39611380D01*
X125140961Y-39732333D01*
X125140961Y-40216142D01*
X124899057Y-38401857D02*
X125745723Y-38401857D01*
X124415247Y-38704238D02*
X125322390Y-39006619D01*
X125322390Y-38220428D01*
X124596676Y-37797095D02*
X124536200Y-37736619D01*
X124475723Y-37615666D01*
X124475723Y-37313285D01*
X124536200Y-37192333D01*
X124596676Y-37131857D01*
X124717628Y-37071380D01*
X124838580Y-37071380D01*
X125020009Y-37131857D01*
X125745723Y-37857571D01*
X125745723Y-37071380D01*
%TO.C,R35*%
X139309323Y-62430228D02*
X138704561Y-62853561D01*
X139309323Y-63155942D02*
X138039323Y-63155942D01*
X138039323Y-62672133D01*
X138099800Y-62551180D01*
X138160276Y-62490704D01*
X138281228Y-62430228D01*
X138462657Y-62430228D01*
X138583609Y-62490704D01*
X138644085Y-62551180D01*
X138704561Y-62672133D01*
X138704561Y-63155942D01*
X138039323Y-62006895D02*
X138039323Y-61220704D01*
X138523133Y-61644038D01*
X138523133Y-61462609D01*
X138583609Y-61341657D01*
X138644085Y-61281180D01*
X138765038Y-61220704D01*
X139067419Y-61220704D01*
X139188371Y-61281180D01*
X139248847Y-61341657D01*
X139309323Y-61462609D01*
X139309323Y-61825466D01*
X139248847Y-61946419D01*
X139188371Y-62006895D01*
X138039323Y-60071657D02*
X138039323Y-60676419D01*
X138644085Y-60736895D01*
X138583609Y-60676419D01*
X138523133Y-60555466D01*
X138523133Y-60253085D01*
X138583609Y-60132133D01*
X138644085Y-60071657D01*
X138765038Y-60011180D01*
X139067419Y-60011180D01*
X139188371Y-60071657D01*
X139248847Y-60132133D01*
X139309323Y-60253085D01*
X139309323Y-60555466D01*
X139248847Y-60676419D01*
X139188371Y-60736895D01*
%TO.C,H3*%
X122494523Y-181815619D02*
X121224523Y-181815619D01*
X121829285Y-181815619D02*
X121829285Y-181089904D01*
X122494523Y-181089904D02*
X121224523Y-181089904D01*
X121224523Y-180606095D02*
X121224523Y-179819904D01*
X121708333Y-180243238D01*
X121708333Y-180061809D01*
X121768809Y-179940857D01*
X121829285Y-179880380D01*
X121950238Y-179819904D01*
X122252619Y-179819904D01*
X122373571Y-179880380D01*
X122434047Y-179940857D01*
X122494523Y-180061809D01*
X122494523Y-180424666D01*
X122434047Y-180545619D01*
X122373571Y-180606095D01*
%TO.C,J5*%
X30546523Y-157695333D02*
X31453666Y-157695333D01*
X31635095Y-157755809D01*
X31756047Y-157876761D01*
X31816523Y-158058190D01*
X31816523Y-158179142D01*
X30546523Y-156485809D02*
X30546523Y-157090571D01*
X31151285Y-157151047D01*
X31090809Y-157090571D01*
X31030333Y-156969619D01*
X31030333Y-156667238D01*
X31090809Y-156546285D01*
X31151285Y-156485809D01*
X31272238Y-156425333D01*
X31574619Y-156425333D01*
X31695571Y-156485809D01*
X31756047Y-156546285D01*
X31816523Y-156667238D01*
X31816523Y-156969619D01*
X31756047Y-157090571D01*
X31695571Y-157151047D01*
%TO.C,J7*%
X348427523Y-172508333D02*
X349334666Y-172508333D01*
X349516095Y-172568809D01*
X349637047Y-172689761D01*
X349697523Y-172871190D01*
X349697523Y-172992142D01*
X348427523Y-172024523D02*
X348427523Y-171177857D01*
X349697523Y-171722142D01*
%TO.C,J8*%
X348427523Y-58208333D02*
X349334666Y-58208333D01*
X349516095Y-58268809D01*
X349637047Y-58389761D01*
X349697523Y-58571190D01*
X349697523Y-58692142D01*
X348971809Y-57422142D02*
X348911333Y-57543095D01*
X348850857Y-57603571D01*
X348729904Y-57664047D01*
X348669428Y-57664047D01*
X348548476Y-57603571D01*
X348488000Y-57543095D01*
X348427523Y-57422142D01*
X348427523Y-57180238D01*
X348488000Y-57059285D01*
X348548476Y-56998809D01*
X348669428Y-56938333D01*
X348729904Y-56938333D01*
X348850857Y-56998809D01*
X348911333Y-57059285D01*
X348971809Y-57180238D01*
X348971809Y-57422142D01*
X349032285Y-57543095D01*
X349092761Y-57603571D01*
X349213714Y-57664047D01*
X349455619Y-57664047D01*
X349576571Y-57603571D01*
X349637047Y-57543095D01*
X349697523Y-57422142D01*
X349697523Y-57180238D01*
X349637047Y-57059285D01*
X349576571Y-56998809D01*
X349455619Y-56938333D01*
X349213714Y-56938333D01*
X349092761Y-56998809D01*
X349032285Y-57059285D01*
X348971809Y-57180238D01*
%TO.C,C21*%
X147265571Y-171250428D02*
X147326047Y-171310904D01*
X147386523Y-171492333D01*
X147386523Y-171613285D01*
X147326047Y-171794714D01*
X147205095Y-171915666D01*
X147084142Y-171976142D01*
X146842238Y-172036619D01*
X146660809Y-172036619D01*
X146418904Y-171976142D01*
X146297952Y-171915666D01*
X146177000Y-171794714D01*
X146116523Y-171613285D01*
X146116523Y-171492333D01*
X146177000Y-171310904D01*
X146237476Y-171250428D01*
X146237476Y-170766619D02*
X146177000Y-170706142D01*
X146116523Y-170585190D01*
X146116523Y-170282809D01*
X146177000Y-170161857D01*
X146237476Y-170101380D01*
X146358428Y-170040904D01*
X146479380Y-170040904D01*
X146660809Y-170101380D01*
X147386523Y-170827095D01*
X147386523Y-170040904D01*
X147386523Y-168831380D02*
X147386523Y-169557095D01*
X147386523Y-169194238D02*
X146116523Y-169194238D01*
X146297952Y-169315190D01*
X146418904Y-169436142D01*
X146479380Y-169557095D01*
%TO.C,C13*%
X63699571Y-40839571D02*
X63639095Y-40900047D01*
X63457666Y-40960523D01*
X63336714Y-40960523D01*
X63155285Y-40900047D01*
X63034333Y-40779095D01*
X62973857Y-40658142D01*
X62913380Y-40416238D01*
X62913380Y-40234809D01*
X62973857Y-39992904D01*
X63034333Y-39871952D01*
X63155285Y-39751000D01*
X63336714Y-39690523D01*
X63457666Y-39690523D01*
X63639095Y-39751000D01*
X63699571Y-39811476D01*
X64909095Y-40960523D02*
X64183380Y-40960523D01*
X64546238Y-40960523D02*
X64546238Y-39690523D01*
X64425285Y-39871952D01*
X64304333Y-39992904D01*
X64183380Y-40053380D01*
X65332428Y-39690523D02*
X66118619Y-39690523D01*
X65695285Y-40174333D01*
X65876714Y-40174333D01*
X65997666Y-40234809D01*
X66058142Y-40295285D01*
X66118619Y-40416238D01*
X66118619Y-40718619D01*
X66058142Y-40839571D01*
X65997666Y-40900047D01*
X65876714Y-40960523D01*
X65513857Y-40960523D01*
X65392904Y-40900047D01*
X65332428Y-40839571D01*
%TO.C,J10*%
X348427523Y-113423095D02*
X349334666Y-113423095D01*
X349516095Y-113483571D01*
X349637047Y-113604523D01*
X349697523Y-113785952D01*
X349697523Y-113906904D01*
X349697523Y-112153095D02*
X349697523Y-112878809D01*
X349697523Y-112515952D02*
X348427523Y-112515952D01*
X348608952Y-112636904D01*
X348729904Y-112757857D01*
X348790380Y-112878809D01*
X348427523Y-111366904D02*
X348427523Y-111245952D01*
X348488000Y-111125000D01*
X348548476Y-111064523D01*
X348669428Y-111004047D01*
X348911333Y-110943571D01*
X349213714Y-110943571D01*
X349455619Y-111004047D01*
X349576571Y-111064523D01*
X349637047Y-111125000D01*
X349697523Y-111245952D01*
X349697523Y-111366904D01*
X349637047Y-111487857D01*
X349576571Y-111548333D01*
X349455619Y-111608809D01*
X349213714Y-111669285D01*
X348911333Y-111669285D01*
X348669428Y-111608809D01*
X348548476Y-111548333D01*
X348488000Y-111487857D01*
X348427523Y-111366904D01*
%TO.C,R47*%
X137607523Y-32225028D02*
X137002761Y-32648361D01*
X137607523Y-32950742D02*
X136337523Y-32950742D01*
X136337523Y-32466933D01*
X136398000Y-32345980D01*
X136458476Y-32285504D01*
X136579428Y-32225028D01*
X136760857Y-32225028D01*
X136881809Y-32285504D01*
X136942285Y-32345980D01*
X137002761Y-32466933D01*
X137002761Y-32950742D01*
X136760857Y-31136457D02*
X137607523Y-31136457D01*
X136277047Y-31438838D02*
X137184190Y-31741219D01*
X137184190Y-30955028D01*
X136337523Y-30592171D02*
X136337523Y-29745504D01*
X137607523Y-30289790D01*
%TO.C,R37*%
X160594523Y-62792428D02*
X159989761Y-63215761D01*
X160594523Y-63518142D02*
X159324523Y-63518142D01*
X159324523Y-63034333D01*
X159385000Y-62913380D01*
X159445476Y-62852904D01*
X159566428Y-62792428D01*
X159747857Y-62792428D01*
X159868809Y-62852904D01*
X159929285Y-62913380D01*
X159989761Y-63034333D01*
X159989761Y-63518142D01*
X159324523Y-62369095D02*
X159324523Y-61582904D01*
X159808333Y-62006238D01*
X159808333Y-61824809D01*
X159868809Y-61703857D01*
X159929285Y-61643380D01*
X160050238Y-61582904D01*
X160352619Y-61582904D01*
X160473571Y-61643380D01*
X160534047Y-61703857D01*
X160594523Y-61824809D01*
X160594523Y-62187666D01*
X160534047Y-62308619D01*
X160473571Y-62369095D01*
X159324523Y-61159571D02*
X159324523Y-60312904D01*
X160594523Y-60857190D01*
%TO.C,C2*%
X49890333Y-74367571D02*
X49829857Y-74428047D01*
X49648428Y-74488523D01*
X49527476Y-74488523D01*
X49346047Y-74428047D01*
X49225095Y-74307095D01*
X49164619Y-74186142D01*
X49104142Y-73944238D01*
X49104142Y-73762809D01*
X49164619Y-73520904D01*
X49225095Y-73399952D01*
X49346047Y-73279000D01*
X49527476Y-73218523D01*
X49648428Y-73218523D01*
X49829857Y-73279000D01*
X49890333Y-73339476D01*
X50374142Y-73339476D02*
X50434619Y-73279000D01*
X50555571Y-73218523D01*
X50857952Y-73218523D01*
X50978904Y-73279000D01*
X51039380Y-73339476D01*
X51099857Y-73460428D01*
X51099857Y-73581380D01*
X51039380Y-73762809D01*
X50313666Y-74488523D01*
X51099857Y-74488523D01*
%TO.C,C24*%
X130755571Y-58982428D02*
X130816047Y-59042904D01*
X130876523Y-59224333D01*
X130876523Y-59345285D01*
X130816047Y-59526714D01*
X130695095Y-59647666D01*
X130574142Y-59708142D01*
X130332238Y-59768619D01*
X130150809Y-59768619D01*
X129908904Y-59708142D01*
X129787952Y-59647666D01*
X129667000Y-59526714D01*
X129606523Y-59345285D01*
X129606523Y-59224333D01*
X129667000Y-59042904D01*
X129727476Y-58982428D01*
X129727476Y-58498619D02*
X129667000Y-58438142D01*
X129606523Y-58317190D01*
X129606523Y-58014809D01*
X129667000Y-57893857D01*
X129727476Y-57833380D01*
X129848428Y-57772904D01*
X129969380Y-57772904D01*
X130150809Y-57833380D01*
X130876523Y-58559095D01*
X130876523Y-57772904D01*
X130029857Y-56684333D02*
X130876523Y-56684333D01*
X129546047Y-56986714D02*
X130453190Y-57289095D01*
X130453190Y-56502904D01*
%TO.C,R34*%
X136718523Y-62430228D02*
X136113761Y-62853561D01*
X136718523Y-63155942D02*
X135448523Y-63155942D01*
X135448523Y-62672133D01*
X135509000Y-62551180D01*
X135569476Y-62490704D01*
X135690428Y-62430228D01*
X135871857Y-62430228D01*
X135992809Y-62490704D01*
X136053285Y-62551180D01*
X136113761Y-62672133D01*
X136113761Y-63155942D01*
X135448523Y-62006895D02*
X135448523Y-61220704D01*
X135932333Y-61644038D01*
X135932333Y-61462609D01*
X135992809Y-61341657D01*
X136053285Y-61281180D01*
X136174238Y-61220704D01*
X136476619Y-61220704D01*
X136597571Y-61281180D01*
X136658047Y-61341657D01*
X136718523Y-61462609D01*
X136718523Y-61825466D01*
X136658047Y-61946419D01*
X136597571Y-62006895D01*
X135871857Y-60132133D02*
X136718523Y-60132133D01*
X135388047Y-60434514D02*
X136295190Y-60736895D01*
X136295190Y-59950704D01*
D11*
%TO.C,U6*%
X64262095Y-86066380D02*
X64262095Y-86875904D01*
X64309714Y-86971142D01*
X64357333Y-87018761D01*
X64452571Y-87066380D01*
X64643047Y-87066380D01*
X64738285Y-87018761D01*
X64785904Y-86971142D01*
X64833523Y-86875904D01*
X64833523Y-86066380D01*
X65738285Y-86066380D02*
X65547809Y-86066380D01*
X65452571Y-86114000D01*
X65404952Y-86161619D01*
X65309714Y-86304476D01*
X65262095Y-86494952D01*
X65262095Y-86875904D01*
X65309714Y-86971142D01*
X65357333Y-87018761D01*
X65452571Y-87066380D01*
X65643047Y-87066380D01*
X65738285Y-87018761D01*
X65785904Y-86971142D01*
X65833523Y-86875904D01*
X65833523Y-86637809D01*
X65785904Y-86542571D01*
X65738285Y-86494952D01*
X65643047Y-86447333D01*
X65452571Y-86447333D01*
X65357333Y-86494952D01*
X65309714Y-86542571D01*
X65262095Y-86637809D01*
D10*
%TO.C,R17*%
X100402571Y-126431523D02*
X99979238Y-125826761D01*
X99676857Y-126431523D02*
X99676857Y-125161523D01*
X100160666Y-125161523D01*
X100281619Y-125222000D01*
X100342095Y-125282476D01*
X100402571Y-125403428D01*
X100402571Y-125584857D01*
X100342095Y-125705809D01*
X100281619Y-125766285D01*
X100160666Y-125826761D01*
X99676857Y-125826761D01*
X101612095Y-126431523D02*
X100886380Y-126431523D01*
X101249238Y-126431523D02*
X101249238Y-125161523D01*
X101128285Y-125342952D01*
X101007333Y-125463904D01*
X100886380Y-125524380D01*
X102035428Y-125161523D02*
X102882095Y-125161523D01*
X102337809Y-126431523D01*
%TO.C,R33*%
X129352523Y-62430228D02*
X128747761Y-62853561D01*
X129352523Y-63155942D02*
X128082523Y-63155942D01*
X128082523Y-62672133D01*
X128143000Y-62551180D01*
X128203476Y-62490704D01*
X128324428Y-62430228D01*
X128505857Y-62430228D01*
X128626809Y-62490704D01*
X128687285Y-62551180D01*
X128747761Y-62672133D01*
X128747761Y-63155942D01*
X128082523Y-62006895D02*
X128082523Y-61220704D01*
X128566333Y-61644038D01*
X128566333Y-61462609D01*
X128626809Y-61341657D01*
X128687285Y-61281180D01*
X128808238Y-61220704D01*
X129110619Y-61220704D01*
X129231571Y-61281180D01*
X129292047Y-61341657D01*
X129352523Y-61462609D01*
X129352523Y-61825466D01*
X129292047Y-61946419D01*
X129231571Y-62006895D01*
X128082523Y-60797371D02*
X128082523Y-60011180D01*
X128566333Y-60434514D01*
X128566333Y-60253085D01*
X128626809Y-60132133D01*
X128687285Y-60071657D01*
X128808238Y-60011180D01*
X129110619Y-60011180D01*
X129231571Y-60071657D01*
X129292047Y-60132133D01*
X129352523Y-60253085D01*
X129352523Y-60615942D01*
X129292047Y-60736895D01*
X129231571Y-60797371D01*
%TO.C,C17*%
X59635571Y-129739571D02*
X59575095Y-129800047D01*
X59393666Y-129860523D01*
X59272714Y-129860523D01*
X59091285Y-129800047D01*
X58970333Y-129679095D01*
X58909857Y-129558142D01*
X58849380Y-129316238D01*
X58849380Y-129134809D01*
X58909857Y-128892904D01*
X58970333Y-128771952D01*
X59091285Y-128651000D01*
X59272714Y-128590523D01*
X59393666Y-128590523D01*
X59575095Y-128651000D01*
X59635571Y-128711476D01*
X60845095Y-129860523D02*
X60119380Y-129860523D01*
X60482238Y-129860523D02*
X60482238Y-128590523D01*
X60361285Y-128771952D01*
X60240333Y-128892904D01*
X60119380Y-128953380D01*
X61268428Y-128590523D02*
X62115095Y-128590523D01*
X61570809Y-129860523D01*
%TO.C,C7*%
X244621333Y-155393571D02*
X244560857Y-155454047D01*
X244379428Y-155514523D01*
X244258476Y-155514523D01*
X244077047Y-155454047D01*
X243956095Y-155333095D01*
X243895619Y-155212142D01*
X243835142Y-154970238D01*
X243835142Y-154788809D01*
X243895619Y-154546904D01*
X243956095Y-154425952D01*
X244077047Y-154305000D01*
X244258476Y-154244523D01*
X244379428Y-154244523D01*
X244560857Y-154305000D01*
X244621333Y-154365476D01*
X245044666Y-154244523D02*
X245891333Y-154244523D01*
X245347047Y-155514523D01*
%TO.C,C1*%
X47858333Y-54555571D02*
X47797857Y-54616047D01*
X47616428Y-54676523D01*
X47495476Y-54676523D01*
X47314047Y-54616047D01*
X47193095Y-54495095D01*
X47132619Y-54374142D01*
X47072142Y-54132238D01*
X47072142Y-53950809D01*
X47132619Y-53708904D01*
X47193095Y-53587952D01*
X47314047Y-53467000D01*
X47495476Y-53406523D01*
X47616428Y-53406523D01*
X47797857Y-53467000D01*
X47858333Y-53527476D01*
X49067857Y-54676523D02*
X48342142Y-54676523D01*
X48705000Y-54676523D02*
X48705000Y-53406523D01*
X48584047Y-53587952D01*
X48463095Y-53708904D01*
X48342142Y-53769380D01*
%TO.C,R43*%
X137988523Y-39778228D02*
X137383761Y-40201561D01*
X137988523Y-40503942D02*
X136718523Y-40503942D01*
X136718523Y-40020133D01*
X136779000Y-39899180D01*
X136839476Y-39838704D01*
X136960428Y-39778228D01*
X137141857Y-39778228D01*
X137262809Y-39838704D01*
X137323285Y-39899180D01*
X137383761Y-40020133D01*
X137383761Y-40503942D01*
X137141857Y-38689657D02*
X137988523Y-38689657D01*
X136658047Y-38992038D02*
X137565190Y-39294419D01*
X137565190Y-38508228D01*
X136718523Y-38145371D02*
X136718523Y-37359180D01*
X137202333Y-37782514D01*
X137202333Y-37601085D01*
X137262809Y-37480133D01*
X137323285Y-37419657D01*
X137444238Y-37359180D01*
X137746619Y-37359180D01*
X137867571Y-37419657D01*
X137928047Y-37480133D01*
X137988523Y-37601085D01*
X137988523Y-37963942D01*
X137928047Y-38084895D01*
X137867571Y-38145371D01*
%TO.C,R27*%
X310635571Y-138242523D02*
X310212238Y-137637761D01*
X309909857Y-138242523D02*
X309909857Y-136972523D01*
X310393666Y-136972523D01*
X310514619Y-137033000D01*
X310575095Y-137093476D01*
X310635571Y-137214428D01*
X310635571Y-137395857D01*
X310575095Y-137516809D01*
X310514619Y-137577285D01*
X310393666Y-137637761D01*
X309909857Y-137637761D01*
X311119380Y-137093476D02*
X311179857Y-137033000D01*
X311300809Y-136972523D01*
X311603190Y-136972523D01*
X311724142Y-137033000D01*
X311784619Y-137093476D01*
X311845095Y-137214428D01*
X311845095Y-137335380D01*
X311784619Y-137516809D01*
X311058904Y-138242523D01*
X311845095Y-138242523D01*
X312268428Y-136972523D02*
X313115095Y-136972523D01*
X312570809Y-138242523D01*
D11*
%TO.C,U9*%
X60978588Y-51718235D02*
X60978588Y-52238235D01*
X61009177Y-52299411D01*
X61039765Y-52329999D01*
X61100941Y-52360587D01*
X61223294Y-52360587D01*
X61284470Y-52329999D01*
X61315059Y-52299411D01*
X61345647Y-52238235D01*
X61345647Y-51718235D01*
X61682117Y-52360587D02*
X61804470Y-52360587D01*
X61865646Y-52329999D01*
X61896234Y-52299411D01*
X61957411Y-52207646D01*
X61987999Y-52085294D01*
X61987999Y-51840588D01*
X61957411Y-51779412D01*
X61926822Y-51748824D01*
X61865646Y-51718235D01*
X61743293Y-51718235D01*
X61682117Y-51748824D01*
X61651529Y-51779412D01*
X61620940Y-51840588D01*
X61620940Y-51993529D01*
X61651529Y-52054705D01*
X61682117Y-52085294D01*
X61743293Y-52115882D01*
X61865646Y-52115882D01*
X61926822Y-52085294D01*
X61957411Y-52054705D01*
X61987999Y-51993529D01*
D10*
%TO.C,R49*%
X130571723Y-32065428D02*
X129966961Y-32488761D01*
X130571723Y-32791142D02*
X129301723Y-32791142D01*
X129301723Y-32307333D01*
X129362200Y-32186380D01*
X129422676Y-32125904D01*
X129543628Y-32065428D01*
X129725057Y-32065428D01*
X129846009Y-32125904D01*
X129906485Y-32186380D01*
X129966961Y-32307333D01*
X129966961Y-32791142D01*
X129725057Y-30976857D02*
X130571723Y-30976857D01*
X129241247Y-31279238D02*
X130148390Y-31581619D01*
X130148390Y-30795428D01*
X130571723Y-30251142D02*
X130571723Y-30009238D01*
X130511247Y-29888285D01*
X130450771Y-29827809D01*
X130269342Y-29706857D01*
X130027438Y-29646380D01*
X129543628Y-29646380D01*
X129422676Y-29706857D01*
X129362200Y-29767333D01*
X129301723Y-29888285D01*
X129301723Y-30130190D01*
X129362200Y-30251142D01*
X129422676Y-30311619D01*
X129543628Y-30372095D01*
X129846009Y-30372095D01*
X129966961Y-30311619D01*
X130027438Y-30251142D01*
X130087914Y-30130190D01*
X130087914Y-29888285D01*
X130027438Y-29767333D01*
X129966961Y-29706857D01*
X129846009Y-29646380D01*
%TO.C,U2*%
X141290523Y-133047619D02*
X142318619Y-133047619D01*
X142439571Y-132987142D01*
X142500047Y-132926666D01*
X142560523Y-132805714D01*
X142560523Y-132563809D01*
X142500047Y-132442857D01*
X142439571Y-132382380D01*
X142318619Y-132321904D01*
X141290523Y-132321904D01*
X141411476Y-131777619D02*
X141351000Y-131717142D01*
X141290523Y-131596190D01*
X141290523Y-131293809D01*
X141351000Y-131172857D01*
X141411476Y-131112380D01*
X141532428Y-131051904D01*
X141653380Y-131051904D01*
X141834809Y-131112380D01*
X142560523Y-131838095D01*
X142560523Y-131051904D01*
%TO.C,R13*%
X90750571Y-136591523D02*
X90327238Y-135986761D01*
X90024857Y-136591523D02*
X90024857Y-135321523D01*
X90508666Y-135321523D01*
X90629619Y-135382000D01*
X90690095Y-135442476D01*
X90750571Y-135563428D01*
X90750571Y-135744857D01*
X90690095Y-135865809D01*
X90629619Y-135926285D01*
X90508666Y-135986761D01*
X90024857Y-135986761D01*
X91960095Y-136591523D02*
X91234380Y-136591523D01*
X91597238Y-136591523D02*
X91597238Y-135321523D01*
X91476285Y-135502952D01*
X91355333Y-135623904D01*
X91234380Y-135684380D01*
X92383428Y-135321523D02*
X93169619Y-135321523D01*
X92746285Y-135805333D01*
X92927714Y-135805333D01*
X93048666Y-135865809D01*
X93109142Y-135926285D01*
X93169619Y-136047238D01*
X93169619Y-136349619D01*
X93109142Y-136470571D01*
X93048666Y-136531047D01*
X92927714Y-136591523D01*
X92564857Y-136591523D01*
X92443904Y-136531047D01*
X92383428Y-136470571D01*
%TO.C,U15*%
X167083619Y-51120523D02*
X167083619Y-52148619D01*
X167144095Y-52269571D01*
X167204571Y-52330047D01*
X167325523Y-52390523D01*
X167567428Y-52390523D01*
X167688380Y-52330047D01*
X167748857Y-52269571D01*
X167809333Y-52148619D01*
X167809333Y-51120523D01*
X169079333Y-52390523D02*
X168353619Y-52390523D01*
X168716476Y-52390523D02*
X168716476Y-51120523D01*
X168595523Y-51301952D01*
X168474571Y-51422904D01*
X168353619Y-51483380D01*
X170228380Y-51120523D02*
X169623619Y-51120523D01*
X169563142Y-51725285D01*
X169623619Y-51664809D01*
X169744571Y-51604333D01*
X170046952Y-51604333D01*
X170167904Y-51664809D01*
X170228380Y-51725285D01*
X170288857Y-51846238D01*
X170288857Y-52148619D01*
X170228380Y-52269571D01*
X170167904Y-52330047D01*
X170046952Y-52390523D01*
X169744571Y-52390523D01*
X169623619Y-52330047D01*
X169563142Y-52269571D01*
%TO.C,R38*%
X157381523Y-62792428D02*
X156776761Y-63215761D01*
X157381523Y-63518142D02*
X156111523Y-63518142D01*
X156111523Y-63034333D01*
X156172000Y-62913380D01*
X156232476Y-62852904D01*
X156353428Y-62792428D01*
X156534857Y-62792428D01*
X156655809Y-62852904D01*
X156716285Y-62913380D01*
X156776761Y-63034333D01*
X156776761Y-63518142D01*
X156111523Y-62369095D02*
X156111523Y-61582904D01*
X156595333Y-62006238D01*
X156595333Y-61824809D01*
X156655809Y-61703857D01*
X156716285Y-61643380D01*
X156837238Y-61582904D01*
X157139619Y-61582904D01*
X157260571Y-61643380D01*
X157321047Y-61703857D01*
X157381523Y-61824809D01*
X157381523Y-62187666D01*
X157321047Y-62308619D01*
X157260571Y-62369095D01*
X156655809Y-60857190D02*
X156595333Y-60978142D01*
X156534857Y-61038619D01*
X156413904Y-61099095D01*
X156353428Y-61099095D01*
X156232476Y-61038619D01*
X156172000Y-60978142D01*
X156111523Y-60857190D01*
X156111523Y-60615285D01*
X156172000Y-60494333D01*
X156232476Y-60433857D01*
X156353428Y-60373380D01*
X156413904Y-60373380D01*
X156534857Y-60433857D01*
X156595333Y-60494333D01*
X156655809Y-60615285D01*
X156655809Y-60857190D01*
X156716285Y-60978142D01*
X156776761Y-61038619D01*
X156897714Y-61099095D01*
X157139619Y-61099095D01*
X157260571Y-61038619D01*
X157321047Y-60978142D01*
X157381523Y-60857190D01*
X157381523Y-60615285D01*
X157321047Y-60494333D01*
X157260571Y-60433857D01*
X157139619Y-60373380D01*
X156897714Y-60373380D01*
X156776761Y-60433857D01*
X156716285Y-60494333D01*
X156655809Y-60615285D01*
%TO.C,R28*%
X323287571Y-138242523D02*
X322864238Y-137637761D01*
X322561857Y-138242523D02*
X322561857Y-136972523D01*
X323045666Y-136972523D01*
X323166619Y-137033000D01*
X323227095Y-137093476D01*
X323287571Y-137214428D01*
X323287571Y-137395857D01*
X323227095Y-137516809D01*
X323166619Y-137577285D01*
X323045666Y-137637761D01*
X322561857Y-137637761D01*
X323771380Y-137093476D02*
X323831857Y-137033000D01*
X323952809Y-136972523D01*
X324255190Y-136972523D01*
X324376142Y-137033000D01*
X324436619Y-137093476D01*
X324497095Y-137214428D01*
X324497095Y-137335380D01*
X324436619Y-137516809D01*
X323710904Y-138242523D01*
X324497095Y-138242523D01*
X325222809Y-137516809D02*
X325101857Y-137456333D01*
X325041380Y-137395857D01*
X324980904Y-137274904D01*
X324980904Y-137214428D01*
X325041380Y-137093476D01*
X325101857Y-137033000D01*
X325222809Y-136972523D01*
X325464714Y-136972523D01*
X325585666Y-137033000D01*
X325646142Y-137093476D01*
X325706619Y-137214428D01*
X325706619Y-137274904D01*
X325646142Y-137395857D01*
X325585666Y-137456333D01*
X325464714Y-137516809D01*
X325222809Y-137516809D01*
X325101857Y-137577285D01*
X325041380Y-137637761D01*
X324980904Y-137758714D01*
X324980904Y-138000619D01*
X325041380Y-138121571D01*
X325101857Y-138182047D01*
X325222809Y-138242523D01*
X325464714Y-138242523D01*
X325585666Y-138182047D01*
X325646142Y-138121571D01*
X325706619Y-138000619D01*
X325706619Y-137758714D01*
X325646142Y-137637761D01*
X325585666Y-137577285D01*
X325464714Y-137516809D01*
%TO.C,H1*%
X122367523Y-129237619D02*
X121097523Y-129237619D01*
X121702285Y-129237619D02*
X121702285Y-128511904D01*
X122367523Y-128511904D02*
X121097523Y-128511904D01*
X122367523Y-127241904D02*
X122367523Y-127967619D01*
X122367523Y-127604761D02*
X121097523Y-127604761D01*
X121278952Y-127725714D01*
X121399904Y-127846666D01*
X121460380Y-127967619D01*
%TO.C,U14*%
X136603619Y-51120523D02*
X136603619Y-52148619D01*
X136664095Y-52269571D01*
X136724571Y-52330047D01*
X136845523Y-52390523D01*
X137087428Y-52390523D01*
X137208380Y-52330047D01*
X137268857Y-52269571D01*
X137329333Y-52148619D01*
X137329333Y-51120523D01*
X138599333Y-52390523D02*
X137873619Y-52390523D01*
X138236476Y-52390523D02*
X138236476Y-51120523D01*
X138115523Y-51301952D01*
X137994571Y-51422904D01*
X137873619Y-51483380D01*
X139687904Y-51543857D02*
X139687904Y-52390523D01*
X139385523Y-51060047D02*
X139083142Y-51967190D01*
X139869333Y-51967190D01*
%TO.C,R23*%
X307031571Y-148402523D02*
X306608238Y-147797761D01*
X306305857Y-148402523D02*
X306305857Y-147132523D01*
X306789666Y-147132523D01*
X306910619Y-147193000D01*
X306971095Y-147253476D01*
X307031571Y-147374428D01*
X307031571Y-147555857D01*
X306971095Y-147676809D01*
X306910619Y-147737285D01*
X306789666Y-147797761D01*
X306305857Y-147797761D01*
X307515380Y-147253476D02*
X307575857Y-147193000D01*
X307696809Y-147132523D01*
X307999190Y-147132523D01*
X308120142Y-147193000D01*
X308180619Y-147253476D01*
X308241095Y-147374428D01*
X308241095Y-147495380D01*
X308180619Y-147676809D01*
X307454904Y-148402523D01*
X308241095Y-148402523D01*
X308664428Y-147132523D02*
X309450619Y-147132523D01*
X309027285Y-147616333D01*
X309208714Y-147616333D01*
X309329666Y-147676809D01*
X309390142Y-147737285D01*
X309450619Y-147858238D01*
X309450619Y-148160619D01*
X309390142Y-148281571D01*
X309329666Y-148342047D01*
X309208714Y-148402523D01*
X308845857Y-148402523D01*
X308724904Y-148342047D01*
X308664428Y-148281571D01*
%TO.C,R6*%
X91282333Y-74488523D02*
X90859000Y-73883761D01*
X90556619Y-74488523D02*
X90556619Y-73218523D01*
X91040428Y-73218523D01*
X91161380Y-73279000D01*
X91221857Y-73339476D01*
X91282333Y-73460428D01*
X91282333Y-73641857D01*
X91221857Y-73762809D01*
X91161380Y-73823285D01*
X91040428Y-73883761D01*
X90556619Y-73883761D01*
X92370904Y-73218523D02*
X92129000Y-73218523D01*
X92008047Y-73279000D01*
X91947571Y-73339476D01*
X91826619Y-73520904D01*
X91766142Y-73762809D01*
X91766142Y-74246619D01*
X91826619Y-74367571D01*
X91887095Y-74428047D01*
X92008047Y-74488523D01*
X92249952Y-74488523D01*
X92370904Y-74428047D01*
X92431380Y-74367571D01*
X92491857Y-74246619D01*
X92491857Y-73944238D01*
X92431380Y-73823285D01*
X92370904Y-73762809D01*
X92249952Y-73702333D01*
X92008047Y-73702333D01*
X91887095Y-73762809D01*
X91826619Y-73823285D01*
X91766142Y-73944238D01*
%TO.C,R2*%
X86245333Y-63566523D02*
X85822000Y-62961761D01*
X85519619Y-63566523D02*
X85519619Y-62296523D01*
X86003428Y-62296523D01*
X86124380Y-62357000D01*
X86184857Y-62417476D01*
X86245333Y-62538428D01*
X86245333Y-62719857D01*
X86184857Y-62840809D01*
X86124380Y-62901285D01*
X86003428Y-62961761D01*
X85519619Y-62961761D01*
X86729142Y-62417476D02*
X86789619Y-62357000D01*
X86910571Y-62296523D01*
X87212952Y-62296523D01*
X87333904Y-62357000D01*
X87394380Y-62417476D01*
X87454857Y-62538428D01*
X87454857Y-62659380D01*
X87394380Y-62840809D01*
X86668666Y-63566523D01*
X87454857Y-63566523D01*
%TO.C,C15*%
X64969571Y-129739571D02*
X64909095Y-129800047D01*
X64727666Y-129860523D01*
X64606714Y-129860523D01*
X64425285Y-129800047D01*
X64304333Y-129679095D01*
X64243857Y-129558142D01*
X64183380Y-129316238D01*
X64183380Y-129134809D01*
X64243857Y-128892904D01*
X64304333Y-128771952D01*
X64425285Y-128651000D01*
X64606714Y-128590523D01*
X64727666Y-128590523D01*
X64909095Y-128651000D01*
X64969571Y-128711476D01*
X66179095Y-129860523D02*
X65453380Y-129860523D01*
X65816238Y-129860523D02*
X65816238Y-128590523D01*
X65695285Y-128771952D01*
X65574333Y-128892904D01*
X65453380Y-128953380D01*
X67328142Y-128590523D02*
X66723380Y-128590523D01*
X66662904Y-129195285D01*
X66723380Y-129134809D01*
X66844333Y-129074333D01*
X67146714Y-129074333D01*
X67267666Y-129134809D01*
X67328142Y-129195285D01*
X67388619Y-129316238D01*
X67388619Y-129618619D01*
X67328142Y-129739571D01*
X67267666Y-129800047D01*
X67146714Y-129860523D01*
X66844333Y-129860523D01*
X66723380Y-129800047D01*
X66662904Y-129739571D01*
%TO.C,H2*%
X122470523Y-155850219D02*
X121200523Y-155850219D01*
X121805285Y-155850219D02*
X121805285Y-155124504D01*
X122470523Y-155124504D02*
X121200523Y-155124504D01*
X121321476Y-154580219D02*
X121261000Y-154519742D01*
X121200523Y-154398790D01*
X121200523Y-154096409D01*
X121261000Y-153975457D01*
X121321476Y-153914980D01*
X121442428Y-153854504D01*
X121563380Y-153854504D01*
X121744809Y-153914980D01*
X122470523Y-154640695D01*
X122470523Y-153854504D01*
%TO.C,R32*%
X164912523Y-62980428D02*
X164307761Y-63403761D01*
X164912523Y-63706142D02*
X163642523Y-63706142D01*
X163642523Y-63222333D01*
X163703000Y-63101380D01*
X163763476Y-63040904D01*
X163884428Y-62980428D01*
X164065857Y-62980428D01*
X164186809Y-63040904D01*
X164247285Y-63101380D01*
X164307761Y-63222333D01*
X164307761Y-63706142D01*
X163642523Y-62557095D02*
X163642523Y-61770904D01*
X164126333Y-62194238D01*
X164126333Y-62012809D01*
X164186809Y-61891857D01*
X164247285Y-61831380D01*
X164368238Y-61770904D01*
X164670619Y-61770904D01*
X164791571Y-61831380D01*
X164852047Y-61891857D01*
X164912523Y-62012809D01*
X164912523Y-62375666D01*
X164852047Y-62496619D01*
X164791571Y-62557095D01*
X163763476Y-61287095D02*
X163703000Y-61226619D01*
X163642523Y-61105666D01*
X163642523Y-60803285D01*
X163703000Y-60682333D01*
X163763476Y-60621857D01*
X163884428Y-60561380D01*
X164005380Y-60561380D01*
X164186809Y-60621857D01*
X164912523Y-61347571D01*
X164912523Y-60561380D01*
%TO.C,R19*%
X92147571Y-126558523D02*
X91724238Y-125953761D01*
X91421857Y-126558523D02*
X91421857Y-125288523D01*
X91905666Y-125288523D01*
X92026619Y-125349000D01*
X92087095Y-125409476D01*
X92147571Y-125530428D01*
X92147571Y-125711857D01*
X92087095Y-125832809D01*
X92026619Y-125893285D01*
X91905666Y-125953761D01*
X91421857Y-125953761D01*
X93357095Y-126558523D02*
X92631380Y-126558523D01*
X92994238Y-126558523D02*
X92994238Y-125288523D01*
X92873285Y-125469952D01*
X92752333Y-125590904D01*
X92631380Y-125651380D01*
X93961857Y-126558523D02*
X94203761Y-126558523D01*
X94324714Y-126498047D01*
X94385190Y-126437571D01*
X94506142Y-126256142D01*
X94566619Y-126014238D01*
X94566619Y-125530428D01*
X94506142Y-125409476D01*
X94445666Y-125349000D01*
X94324714Y-125288523D01*
X94082809Y-125288523D01*
X93961857Y-125349000D01*
X93901380Y-125409476D01*
X93840904Y-125530428D01*
X93840904Y-125832809D01*
X93901380Y-125953761D01*
X93961857Y-126014238D01*
X94082809Y-126074714D01*
X94324714Y-126074714D01*
X94445666Y-126014238D01*
X94506142Y-125953761D01*
X94566619Y-125832809D01*
%TO.C,R3*%
X85894333Y-74488523D02*
X85471000Y-73883761D01*
X85168619Y-74488523D02*
X85168619Y-73218523D01*
X85652428Y-73218523D01*
X85773380Y-73279000D01*
X85833857Y-73339476D01*
X85894333Y-73460428D01*
X85894333Y-73641857D01*
X85833857Y-73762809D01*
X85773380Y-73823285D01*
X85652428Y-73883761D01*
X85168619Y-73883761D01*
X86317666Y-73218523D02*
X87103857Y-73218523D01*
X86680523Y-73702333D01*
X86861952Y-73702333D01*
X86982904Y-73762809D01*
X87043380Y-73823285D01*
X87103857Y-73944238D01*
X87103857Y-74246619D01*
X87043380Y-74367571D01*
X86982904Y-74428047D01*
X86861952Y-74488523D01*
X86499095Y-74488523D01*
X86378142Y-74428047D01*
X86317666Y-74367571D01*
%TO.C,R29*%
X317191571Y-135194523D02*
X316768238Y-134589761D01*
X316465857Y-135194523D02*
X316465857Y-133924523D01*
X316949666Y-133924523D01*
X317070619Y-133985000D01*
X317131095Y-134045476D01*
X317191571Y-134166428D01*
X317191571Y-134347857D01*
X317131095Y-134468809D01*
X317070619Y-134529285D01*
X316949666Y-134589761D01*
X316465857Y-134589761D01*
X317675380Y-134045476D02*
X317735857Y-133985000D01*
X317856809Y-133924523D01*
X318159190Y-133924523D01*
X318280142Y-133985000D01*
X318340619Y-134045476D01*
X318401095Y-134166428D01*
X318401095Y-134287380D01*
X318340619Y-134468809D01*
X317614904Y-135194523D01*
X318401095Y-135194523D01*
X319005857Y-135194523D02*
X319247761Y-135194523D01*
X319368714Y-135134047D01*
X319429190Y-135073571D01*
X319550142Y-134892142D01*
X319610619Y-134650238D01*
X319610619Y-134166428D01*
X319550142Y-134045476D01*
X319489666Y-133985000D01*
X319368714Y-133924523D01*
X319126809Y-133924523D01*
X319005857Y-133985000D01*
X318945380Y-134045476D01*
X318884904Y-134166428D01*
X318884904Y-134468809D01*
X318945380Y-134589761D01*
X319005857Y-134650238D01*
X319126809Y-134710714D01*
X319368714Y-134710714D01*
X319489666Y-134650238D01*
X319550142Y-134589761D01*
X319610619Y-134468809D01*
%TO.C,C19*%
X291029571Y-137613571D02*
X290969095Y-137674047D01*
X290787666Y-137734523D01*
X290666714Y-137734523D01*
X290485285Y-137674047D01*
X290364333Y-137553095D01*
X290303857Y-137432142D01*
X290243380Y-137190238D01*
X290243380Y-137008809D01*
X290303857Y-136766904D01*
X290364333Y-136645952D01*
X290485285Y-136525000D01*
X290666714Y-136464523D01*
X290787666Y-136464523D01*
X290969095Y-136525000D01*
X291029571Y-136585476D01*
X292239095Y-137734523D02*
X291513380Y-137734523D01*
X291876238Y-137734523D02*
X291876238Y-136464523D01*
X291755285Y-136645952D01*
X291634333Y-136766904D01*
X291513380Y-136827380D01*
X292843857Y-137734523D02*
X293085761Y-137734523D01*
X293206714Y-137674047D01*
X293267190Y-137613571D01*
X293388142Y-137432142D01*
X293448619Y-137190238D01*
X293448619Y-136706428D01*
X293388142Y-136585476D01*
X293327666Y-136525000D01*
X293206714Y-136464523D01*
X292964809Y-136464523D01*
X292843857Y-136525000D01*
X292783380Y-136585476D01*
X292722904Y-136706428D01*
X292722904Y-137008809D01*
X292783380Y-137129761D01*
X292843857Y-137190238D01*
X292964809Y-137250714D01*
X293206714Y-137250714D01*
X293327666Y-137190238D01*
X293388142Y-137129761D01*
X293448619Y-137008809D01*
%TO.C,R36*%
X126371523Y-62430228D02*
X125766761Y-62853561D01*
X126371523Y-63155942D02*
X125101523Y-63155942D01*
X125101523Y-62672133D01*
X125162000Y-62551180D01*
X125222476Y-62490704D01*
X125343428Y-62430228D01*
X125524857Y-62430228D01*
X125645809Y-62490704D01*
X125706285Y-62551180D01*
X125766761Y-62672133D01*
X125766761Y-63155942D01*
X125101523Y-62006895D02*
X125101523Y-61220704D01*
X125585333Y-61644038D01*
X125585333Y-61462609D01*
X125645809Y-61341657D01*
X125706285Y-61281180D01*
X125827238Y-61220704D01*
X126129619Y-61220704D01*
X126250571Y-61281180D01*
X126311047Y-61341657D01*
X126371523Y-61462609D01*
X126371523Y-61825466D01*
X126311047Y-61946419D01*
X126250571Y-62006895D01*
X125101523Y-60132133D02*
X125101523Y-60374038D01*
X125162000Y-60494990D01*
X125222476Y-60555466D01*
X125403904Y-60676419D01*
X125645809Y-60736895D01*
X126129619Y-60736895D01*
X126250571Y-60676419D01*
X126311047Y-60615942D01*
X126371523Y-60494990D01*
X126371523Y-60253085D01*
X126311047Y-60132133D01*
X126250571Y-60071657D01*
X126129619Y-60011180D01*
X125827238Y-60011180D01*
X125706285Y-60071657D01*
X125645809Y-60132133D01*
X125585333Y-60253085D01*
X125585333Y-60494990D01*
X125645809Y-60615942D01*
X125706285Y-60676419D01*
X125827238Y-60736895D01*
%TO.C,J11*%
X348427523Y-94693095D02*
X349334666Y-94693095D01*
X349516095Y-94753571D01*
X349637047Y-94874523D01*
X349697523Y-95055952D01*
X349697523Y-95176904D01*
X349697523Y-93423095D02*
X349697523Y-94148809D01*
X349697523Y-93785952D02*
X348427523Y-93785952D01*
X348608952Y-93906904D01*
X348729904Y-94027857D01*
X348790380Y-94148809D01*
X349697523Y-92213571D02*
X349697523Y-92939285D01*
X349697523Y-92576428D02*
X348427523Y-92576428D01*
X348608952Y-92697380D01*
X348729904Y-92818333D01*
X348790380Y-92939285D01*
%TO.C,C26*%
X131771571Y-42472428D02*
X131832047Y-42532904D01*
X131892523Y-42714333D01*
X131892523Y-42835285D01*
X131832047Y-43016714D01*
X131711095Y-43137666D01*
X131590142Y-43198142D01*
X131348238Y-43258619D01*
X131166809Y-43258619D01*
X130924904Y-43198142D01*
X130803952Y-43137666D01*
X130683000Y-43016714D01*
X130622523Y-42835285D01*
X130622523Y-42714333D01*
X130683000Y-42532904D01*
X130743476Y-42472428D01*
X130743476Y-41988619D02*
X130683000Y-41928142D01*
X130622523Y-41807190D01*
X130622523Y-41504809D01*
X130683000Y-41383857D01*
X130743476Y-41323380D01*
X130864428Y-41262904D01*
X130985380Y-41262904D01*
X131166809Y-41323380D01*
X131892523Y-42049095D01*
X131892523Y-41262904D01*
X130622523Y-40174333D02*
X130622523Y-40416238D01*
X130683000Y-40537190D01*
X130743476Y-40597666D01*
X130924904Y-40718619D01*
X131166809Y-40779095D01*
X131650619Y-40779095D01*
X131771571Y-40718619D01*
X131832047Y-40658142D01*
X131892523Y-40537190D01*
X131892523Y-40295285D01*
X131832047Y-40174333D01*
X131771571Y-40113857D01*
X131650619Y-40053380D01*
X131348238Y-40053380D01*
X131227285Y-40113857D01*
X131166809Y-40174333D01*
X131106333Y-40295285D01*
X131106333Y-40537190D01*
X131166809Y-40658142D01*
X131227285Y-40718619D01*
X131348238Y-40779095D01*
%TO.C,J9*%
X348427523Y-76623333D02*
X349334666Y-76623333D01*
X349516095Y-76683809D01*
X349637047Y-76804761D01*
X349697523Y-76986190D01*
X349697523Y-77107142D01*
X349697523Y-75958095D02*
X349697523Y-75716190D01*
X349637047Y-75595238D01*
X349576571Y-75534761D01*
X349395142Y-75413809D01*
X349153238Y-75353333D01*
X348669428Y-75353333D01*
X348548476Y-75413809D01*
X348488000Y-75474285D01*
X348427523Y-75595238D01*
X348427523Y-75837142D01*
X348488000Y-75958095D01*
X348548476Y-76018571D01*
X348669428Y-76079047D01*
X348971809Y-76079047D01*
X349092761Y-76018571D01*
X349153238Y-75958095D01*
X349213714Y-75837142D01*
X349213714Y-75595238D01*
X349153238Y-75474285D01*
X349092761Y-75413809D01*
X348971809Y-75353333D01*
%TO.C,U13*%
X317312523Y-129842380D02*
X318340619Y-129842380D01*
X318461571Y-129781904D01*
X318522047Y-129721428D01*
X318582523Y-129600476D01*
X318582523Y-129358571D01*
X318522047Y-129237619D01*
X318461571Y-129177142D01*
X318340619Y-129116666D01*
X317312523Y-129116666D01*
X318582523Y-127846666D02*
X318582523Y-128572380D01*
X318582523Y-128209523D02*
X317312523Y-128209523D01*
X317493952Y-128330476D01*
X317614904Y-128451428D01*
X317675380Y-128572380D01*
X317312523Y-127423333D02*
X317312523Y-126637142D01*
X317796333Y-127060476D01*
X317796333Y-126879047D01*
X317856809Y-126758095D01*
X317917285Y-126697619D01*
X318038238Y-126637142D01*
X318340619Y-126637142D01*
X318461571Y-126697619D01*
X318522047Y-126758095D01*
X318582523Y-126879047D01*
X318582523Y-127241904D01*
X318522047Y-127362857D01*
X318461571Y-127423333D01*
%TO.C,C22*%
X161235571Y-56696428D02*
X161296047Y-56756904D01*
X161356523Y-56938333D01*
X161356523Y-57059285D01*
X161296047Y-57240714D01*
X161175095Y-57361666D01*
X161054142Y-57422142D01*
X160812238Y-57482619D01*
X160630809Y-57482619D01*
X160388904Y-57422142D01*
X160267952Y-57361666D01*
X160147000Y-57240714D01*
X160086523Y-57059285D01*
X160086523Y-56938333D01*
X160147000Y-56756904D01*
X160207476Y-56696428D01*
X160207476Y-56212619D02*
X160147000Y-56152142D01*
X160086523Y-56031190D01*
X160086523Y-55728809D01*
X160147000Y-55607857D01*
X160207476Y-55547380D01*
X160328428Y-55486904D01*
X160449380Y-55486904D01*
X160630809Y-55547380D01*
X161356523Y-56273095D01*
X161356523Y-55486904D01*
X160207476Y-55003095D02*
X160147000Y-54942619D01*
X160086523Y-54821666D01*
X160086523Y-54519285D01*
X160147000Y-54398333D01*
X160207476Y-54337857D01*
X160328428Y-54277380D01*
X160449380Y-54277380D01*
X160630809Y-54337857D01*
X161356523Y-55063571D01*
X161356523Y-54277380D01*
%TO.C,U12*%
X285943523Y-152956380D02*
X286971619Y-152956380D01*
X287092571Y-152895904D01*
X287153047Y-152835428D01*
X287213523Y-152714476D01*
X287213523Y-152472571D01*
X287153047Y-152351619D01*
X287092571Y-152291142D01*
X286971619Y-152230666D01*
X285943523Y-152230666D01*
X287213523Y-150960666D02*
X287213523Y-151686380D01*
X287213523Y-151323523D02*
X285943523Y-151323523D01*
X286124952Y-151444476D01*
X286245904Y-151565428D01*
X286306380Y-151686380D01*
X286064476Y-150476857D02*
X286004000Y-150416380D01*
X285943523Y-150295428D01*
X285943523Y-149993047D01*
X286004000Y-149872095D01*
X286064476Y-149811619D01*
X286185428Y-149751142D01*
X286306380Y-149751142D01*
X286487809Y-149811619D01*
X287213523Y-150537333D01*
X287213523Y-149751142D01*
%TO.C,R46*%
X135067523Y-32137228D02*
X134462761Y-32560561D01*
X135067523Y-32862942D02*
X133797523Y-32862942D01*
X133797523Y-32379133D01*
X133858000Y-32258180D01*
X133918476Y-32197704D01*
X134039428Y-32137228D01*
X134220857Y-32137228D01*
X134341809Y-32197704D01*
X134402285Y-32258180D01*
X134462761Y-32379133D01*
X134462761Y-32862942D01*
X134220857Y-31048657D02*
X135067523Y-31048657D01*
X133737047Y-31351038D02*
X134644190Y-31653419D01*
X134644190Y-30867228D01*
X133797523Y-29839133D02*
X133797523Y-30081038D01*
X133858000Y-30201990D01*
X133918476Y-30262466D01*
X134099904Y-30383419D01*
X134341809Y-30443895D01*
X134825619Y-30443895D01*
X134946571Y-30383419D01*
X135007047Y-30322942D01*
X135067523Y-30201990D01*
X135067523Y-29960085D01*
X135007047Y-29839133D01*
X134946571Y-29778657D01*
X134825619Y-29718180D01*
X134523238Y-29718180D01*
X134402285Y-29778657D01*
X134341809Y-29839133D01*
X134281333Y-29960085D01*
X134281333Y-30201990D01*
X134341809Y-30322942D01*
X134402285Y-30383419D01*
X134523238Y-30443895D01*
%TO.C,R31*%
X134229323Y-62430228D02*
X133624561Y-62853561D01*
X134229323Y-63155942D02*
X132959323Y-63155942D01*
X132959323Y-62672133D01*
X133019800Y-62551180D01*
X133080276Y-62490704D01*
X133201228Y-62430228D01*
X133382657Y-62430228D01*
X133503609Y-62490704D01*
X133564085Y-62551180D01*
X133624561Y-62672133D01*
X133624561Y-63155942D01*
X132959323Y-62006895D02*
X132959323Y-61220704D01*
X133443133Y-61644038D01*
X133443133Y-61462609D01*
X133503609Y-61341657D01*
X133564085Y-61281180D01*
X133685038Y-61220704D01*
X133987419Y-61220704D01*
X134108371Y-61281180D01*
X134168847Y-61341657D01*
X134229323Y-61462609D01*
X134229323Y-61825466D01*
X134168847Y-61946419D01*
X134108371Y-62006895D01*
X134229323Y-60011180D02*
X134229323Y-60736895D01*
X134229323Y-60374038D02*
X132959323Y-60374038D01*
X133140752Y-60494990D01*
X133261704Y-60615942D01*
X133322180Y-60736895D01*
%TO.C,C6*%
X59224333Y-87067571D02*
X59163857Y-87128047D01*
X58982428Y-87188523D01*
X58861476Y-87188523D01*
X58680047Y-87128047D01*
X58559095Y-87007095D01*
X58498619Y-86886142D01*
X58438142Y-86644238D01*
X58438142Y-86462809D01*
X58498619Y-86220904D01*
X58559095Y-86099952D01*
X58680047Y-85979000D01*
X58861476Y-85918523D01*
X58982428Y-85918523D01*
X59163857Y-85979000D01*
X59224333Y-86039476D01*
X60312904Y-85918523D02*
X60071000Y-85918523D01*
X59950047Y-85979000D01*
X59889571Y-86039476D01*
X59768619Y-86220904D01*
X59708142Y-86462809D01*
X59708142Y-86946619D01*
X59768619Y-87067571D01*
X59829095Y-87128047D01*
X59950047Y-87188523D01*
X60191952Y-87188523D01*
X60312904Y-87128047D01*
X60373380Y-87067571D01*
X60433857Y-86946619D01*
X60433857Y-86644238D01*
X60373380Y-86523285D01*
X60312904Y-86462809D01*
X60191952Y-86402333D01*
X59950047Y-86402333D01*
X59829095Y-86462809D01*
X59768619Y-86523285D01*
X59708142Y-86644238D01*
%TO.C,R45*%
X128107923Y-32103428D02*
X127503161Y-32526761D01*
X128107923Y-32829142D02*
X126837923Y-32829142D01*
X126837923Y-32345333D01*
X126898400Y-32224380D01*
X126958876Y-32163904D01*
X127079828Y-32103428D01*
X127261257Y-32103428D01*
X127382209Y-32163904D01*
X127442685Y-32224380D01*
X127503161Y-32345333D01*
X127503161Y-32829142D01*
X127261257Y-31014857D02*
X128107923Y-31014857D01*
X126777447Y-31317238D02*
X127684590Y-31619619D01*
X127684590Y-30833428D01*
X126837923Y-29744857D02*
X126837923Y-30349619D01*
X127442685Y-30410095D01*
X127382209Y-30349619D01*
X127321733Y-30228666D01*
X127321733Y-29926285D01*
X127382209Y-29805333D01*
X127442685Y-29744857D01*
X127563638Y-29684380D01*
X127866019Y-29684380D01*
X127986971Y-29744857D01*
X128047447Y-29805333D01*
X128107923Y-29926285D01*
X128107923Y-30228666D01*
X128047447Y-30349619D01*
X127986971Y-30410095D01*
%TO.C,R14*%
X75002571Y-136591523D02*
X74579238Y-135986761D01*
X74276857Y-136591523D02*
X74276857Y-135321523D01*
X74760666Y-135321523D01*
X74881619Y-135382000D01*
X74942095Y-135442476D01*
X75002571Y-135563428D01*
X75002571Y-135744857D01*
X74942095Y-135865809D01*
X74881619Y-135926285D01*
X74760666Y-135986761D01*
X74276857Y-135986761D01*
X76212095Y-136591523D02*
X75486380Y-136591523D01*
X75849238Y-136591523D02*
X75849238Y-135321523D01*
X75728285Y-135502952D01*
X75607333Y-135623904D01*
X75486380Y-135684380D01*
X77300666Y-135744857D02*
X77300666Y-136591523D01*
X76998285Y-135261047D02*
X76695904Y-136168190D01*
X77482095Y-136168190D01*
%TO.C,C10*%
X254176571Y-155393571D02*
X254116095Y-155454047D01*
X253934666Y-155514523D01*
X253813714Y-155514523D01*
X253632285Y-155454047D01*
X253511333Y-155333095D01*
X253450857Y-155212142D01*
X253390380Y-154970238D01*
X253390380Y-154788809D01*
X253450857Y-154546904D01*
X253511333Y-154425952D01*
X253632285Y-154305000D01*
X253813714Y-154244523D01*
X253934666Y-154244523D01*
X254116095Y-154305000D01*
X254176571Y-154365476D01*
X255386095Y-155514523D02*
X254660380Y-155514523D01*
X255023238Y-155514523D02*
X255023238Y-154244523D01*
X254902285Y-154425952D01*
X254781333Y-154546904D01*
X254660380Y-154607380D01*
X256172285Y-154244523D02*
X256293238Y-154244523D01*
X256414190Y-154305000D01*
X256474666Y-154365476D01*
X256535142Y-154486428D01*
X256595619Y-154728333D01*
X256595619Y-155030714D01*
X256535142Y-155272619D01*
X256474666Y-155393571D01*
X256414190Y-155454047D01*
X256293238Y-155514523D01*
X256172285Y-155514523D01*
X256051333Y-155454047D01*
X255990857Y-155393571D01*
X255930380Y-155272619D01*
X255869904Y-155030714D01*
X255869904Y-154728333D01*
X255930380Y-154486428D01*
X255990857Y-154365476D01*
X256051333Y-154305000D01*
X256172285Y-154244523D01*
D11*
%TO.C,L1*%
X202271333Y-124277380D02*
X201795142Y-124277380D01*
X201795142Y-123277380D01*
X203128476Y-124277380D02*
X202557047Y-124277380D01*
X202842761Y-124277380D02*
X202842761Y-123277380D01*
X202747523Y-123420238D01*
X202652285Y-123515476D01*
X202557047Y-123563095D01*
D10*
%TO.C,J3*%
X74560666Y-207657523D02*
X74560666Y-208564666D01*
X74500190Y-208746095D01*
X74379238Y-208867047D01*
X74197809Y-208927523D01*
X74076857Y-208927523D01*
X75044476Y-207657523D02*
X75830666Y-207657523D01*
X75407333Y-208141333D01*
X75588761Y-208141333D01*
X75709714Y-208201809D01*
X75770190Y-208262285D01*
X75830666Y-208383238D01*
X75830666Y-208685619D01*
X75770190Y-208806571D01*
X75709714Y-208867047D01*
X75588761Y-208927523D01*
X75225904Y-208927523D01*
X75104952Y-208867047D01*
X75044476Y-208806571D01*
%TO.C,J4*%
X92984666Y-207657523D02*
X92984666Y-208564666D01*
X92924190Y-208746095D01*
X92803238Y-208867047D01*
X92621809Y-208927523D01*
X92500857Y-208927523D01*
X94133714Y-208080857D02*
X94133714Y-208927523D01*
X93831333Y-207597047D02*
X93528952Y-208504190D01*
X94315142Y-208504190D01*
%TO.C,C14*%
X63699571Y-46989571D02*
X63639095Y-47050047D01*
X63457666Y-47110523D01*
X63336714Y-47110523D01*
X63155285Y-47050047D01*
X63034333Y-46929095D01*
X62973857Y-46808142D01*
X62913380Y-46566238D01*
X62913380Y-46384809D01*
X62973857Y-46142904D01*
X63034333Y-46021952D01*
X63155285Y-45901000D01*
X63336714Y-45840523D01*
X63457666Y-45840523D01*
X63639095Y-45901000D01*
X63699571Y-45961476D01*
X64909095Y-47110523D02*
X64183380Y-47110523D01*
X64546238Y-47110523D02*
X64546238Y-45840523D01*
X64425285Y-46021952D01*
X64304333Y-46142904D01*
X64183380Y-46203380D01*
X65997666Y-46263857D02*
X65997666Y-47110523D01*
X65695285Y-45780047D02*
X65392904Y-46687190D01*
X66179095Y-46687190D01*
%TO.C,R41*%
X157292523Y-55477228D02*
X156687761Y-55900561D01*
X157292523Y-56202942D02*
X156022523Y-56202942D01*
X156022523Y-55719133D01*
X156083000Y-55598180D01*
X156143476Y-55537704D01*
X156264428Y-55477228D01*
X156445857Y-55477228D01*
X156566809Y-55537704D01*
X156627285Y-55598180D01*
X156687761Y-55719133D01*
X156687761Y-56202942D01*
X156445857Y-54388657D02*
X157292523Y-54388657D01*
X155962047Y-54691038D02*
X156869190Y-54993419D01*
X156869190Y-54207228D01*
X157292523Y-53058180D02*
X157292523Y-53783895D01*
X157292523Y-53421038D02*
X156022523Y-53421038D01*
X156203952Y-53541990D01*
X156324904Y-53662942D01*
X156385380Y-53783895D01*
%TO.C,J1*%
X37016666Y-207481523D02*
X37016666Y-208388666D01*
X36956190Y-208570095D01*
X36835238Y-208691047D01*
X36653809Y-208751523D01*
X36532857Y-208751523D01*
X38286666Y-208751523D02*
X37560952Y-208751523D01*
X37923809Y-208751523D02*
X37923809Y-207481523D01*
X37802857Y-207662952D01*
X37681904Y-207783904D01*
X37560952Y-207844380D01*
D12*
%TO.C,U10*%
X55310000Y-142667000D02*
X55310000Y-135717000D01*
X65594000Y-142667000D02*
X55310000Y-142667000D01*
X55332000Y-144817000D02*
X55332000Y-143017000D01*
X65594000Y-135717000D02*
X65594000Y-142667000D01*
X55310000Y-135717000D02*
X65594000Y-135717000D01*
%TO.C,R20*%
X86614000Y-123252000D02*
X86614000Y-124652000D01*
%TO.C,R39*%
X125205000Y-57803800D02*
X126255000Y-57803800D01*
%TO.C,J12*%
X345383000Y-41350000D02*
X347783000Y-41350000D01*
X347783000Y-30500000D02*
X346583000Y-30500000D01*
X347783000Y-41350000D02*
X347783000Y-30500000D01*
X345383000Y-31750000D02*
X345383000Y-41350000D01*
%TO.C,D2*%
X338440000Y-35776000D02*
X338440000Y-37376000D01*
X339740000Y-37376000D02*
X339740000Y-35251000D01*
%TO.C,C20*%
X286004000Y-142657600D02*
X286004000Y-144057600D01*
%TO.C,D1*%
X342280000Y-39662000D02*
X342280000Y-37537000D01*
X340980000Y-38062000D02*
X340980000Y-39662000D01*
%TO.C,R16*%
X70534000Y-130937000D02*
X73484000Y-130937000D01*
%TO.C,U7*%
X80137000Y-64225000D02*
X81287000Y-64225000D01*
X81637000Y-64225000D02*
X82387000Y-64225000D01*
X82387000Y-67225000D02*
X81637000Y-67225000D01*
X82387000Y-64225000D02*
X82387000Y-67225000D01*
X81637000Y-67225000D02*
X81637000Y-64225000D01*
D13*
%TO.C,J6*%
X32338000Y-61515000D02*
X32338000Y-51515000D01*
X42338000Y-51515000D02*
X42338000Y-61515000D01*
X32338000Y-51515000D02*
X42338000Y-51515000D01*
X42338000Y-61515000D02*
X32338000Y-61515000D01*
D12*
%TO.C,R30*%
X130589800Y-65185800D02*
X131639800Y-65185800D01*
D14*
%TO.C,U5*%
X55440000Y-53090000D02*
X63940000Y-53090000D01*
X63940000Y-66290000D02*
X63940000Y-64320000D01*
X63940000Y-53090000D02*
X63940000Y-55060000D01*
X55440000Y-66290000D02*
X63940000Y-66290000D01*
X55440000Y-66290000D02*
X55440000Y-64320000D01*
X63940000Y-56700000D02*
X63940000Y-62680000D01*
X55440000Y-53090000D02*
X55440000Y-55060000D01*
D12*
X53071000Y-55118000D02*
G75*
G03*
X53071000Y-55118000I-100000J0D01*
G01*
%TO.C,U4*%
X135482000Y-187140000D02*
X135482000Y-187140000D01*
D13*
X132882000Y-188140000D02*
X137882000Y-188140000D01*
X137882000Y-188140000D02*
X137882000Y-204120000D01*
X137882000Y-204120000D02*
X132882000Y-204120000D01*
D12*
X135482000Y-187140000D02*
X135482000Y-187140000D01*
X135482000Y-187040000D02*
X135482000Y-187040000D01*
D13*
X132882000Y-204120000D02*
X132882000Y-188140000D01*
D12*
X135482000Y-187140000D02*
G75*
G03*
X135482000Y-187040000I0J50000D01*
G01*
X135482000Y-187140000D02*
G75*
G03*
X135482000Y-187040000I0J50000D01*
G01*
X135482000Y-187040000D02*
G75*
G03*
X135482000Y-187140000I0J-50000D01*
G01*
%TO.C,R40*%
X138159000Y-57869800D02*
X139209000Y-57869800D01*
%TO.C,R22*%
X320597000Y-152608000D02*
X323547000Y-152608000D01*
D13*
%TO.C,C11*%
X263053000Y-173850000D02*
X263053000Y-156350000D01*
X267553000Y-173850000D02*
X263053000Y-173850000D01*
X267553000Y-156350000D02*
X267553000Y-173850000D01*
X263053000Y-156350000D02*
X267553000Y-156350000D01*
D12*
%TO.C,U3*%
X135458000Y-160846000D02*
X135458000Y-160846000D01*
X135458000Y-160946000D02*
X135458000Y-160946000D01*
X135458000Y-160946000D02*
X135458000Y-160946000D01*
D13*
X137858000Y-161946000D02*
X137858000Y-177926000D01*
X137858000Y-177926000D02*
X132858000Y-177926000D01*
X132858000Y-177926000D02*
X132858000Y-161946000D01*
X132858000Y-161946000D02*
X137858000Y-161946000D01*
D12*
X135458000Y-160946000D02*
G75*
G03*
X135458000Y-160846000I0J50000D01*
G01*
X135458000Y-160846000D02*
G75*
G03*
X135458000Y-160946000I0J-50000D01*
G01*
X135458000Y-160946000D02*
G75*
G03*
X135458000Y-160846000I0J50000D01*
G01*
%TO.C,U8*%
X80288000Y-74954000D02*
X81438000Y-74954000D01*
X81788000Y-74954000D02*
X82538000Y-74954000D01*
X81788000Y-77954000D02*
X81788000Y-74954000D01*
X82538000Y-77954000D02*
X81788000Y-77954000D01*
X82538000Y-74954000D02*
X82538000Y-77954000D01*
%TO.C,R21*%
X311961000Y-152654000D02*
X314911000Y-152654000D01*
%TO.C,R44*%
X124448400Y-34786200D02*
X125498400Y-34786200D01*
D13*
%TO.C,H4*%
X140080000Y-184030000D02*
X140080000Y-207130000D01*
X140080000Y-207130000D02*
X124080000Y-207130000D01*
X124080000Y-184030000D02*
X140080000Y-184030000D01*
X124080000Y-207130000D02*
X124080000Y-184030000D01*
%TO.C,U1*%
X137804000Y-125348000D02*
X132804000Y-125348000D01*
D12*
X135404000Y-108268000D02*
X135404000Y-108268000D01*
D13*
X137804000Y-109368000D02*
X137804000Y-125348000D01*
D12*
X135404000Y-108368000D02*
X135404000Y-108368000D01*
D13*
X132804000Y-109368000D02*
X137804000Y-109368000D01*
X132804000Y-125348000D02*
X132804000Y-109368000D01*
D12*
X135404000Y-108368000D02*
X135404000Y-108368000D01*
X135404000Y-108368000D02*
G75*
G03*
X135404000Y-108268000I0J50000D01*
G01*
X135404000Y-108368000D02*
G75*
G03*
X135404000Y-108268000I0J50000D01*
G01*
X135404000Y-108268000D02*
G75*
G03*
X135404000Y-108368000I0J-50000D01*
G01*
%TO.C,R48*%
X129811000Y-42230000D02*
X128761000Y-42230000D01*
%TO.C,R25*%
X302309000Y-142796000D02*
X305259000Y-142796000D01*
%TO.C,R4*%
X89679000Y-83312000D02*
X88629000Y-83312000D01*
%TO.C,R18*%
X80264000Y-127557000D02*
X80264000Y-130507000D01*
%TO.C,R5*%
X91427000Y-65699600D02*
X90377000Y-65699600D01*
%TO.C,R1*%
X88917000Y-71420000D02*
X87867000Y-71420000D01*
%TO.C,C5*%
X59182000Y-68896000D02*
X59182000Y-70296000D01*
%TO.C,C18*%
X291592000Y-142657600D02*
X291592000Y-144057600D01*
%TO.C,R12*%
X80694000Y-141097000D02*
X83644000Y-141097000D01*
%TO.C,R26*%
X330757000Y-142748000D02*
X333707000Y-142748000D01*
%TO.C,U11*%
X81589000Y-119497000D02*
X81589000Y-111762000D01*
X91639000Y-118362000D02*
X91639000Y-111762000D01*
D13*
%TO.C,J2*%
X51412000Y-204129000D02*
X55712000Y-204129000D01*
X55712000Y-206129000D02*
X51412000Y-206129000D01*
X55712000Y-204129000D02*
X55712000Y-206129000D01*
X51412000Y-206129000D02*
X51412000Y-204129000D01*
D12*
X54562000Y-203629000D02*
G75*
G03*
X54562000Y-203629000I-50000J0D01*
G01*
%TO.C,R24*%
X330200000Y-152351000D02*
X330200000Y-149401000D01*
%TO.C,R15*%
X99314000Y-140540000D02*
X99314000Y-137590000D01*
%TO.C,R42*%
X125803200Y-42230000D02*
X124753200Y-42230000D01*
%TO.C,R35*%
X139259800Y-65185800D02*
X138209800Y-65185800D01*
D13*
%TO.C,H3*%
X140056000Y-157942400D02*
X140056000Y-181042400D01*
X124056000Y-181042400D02*
X124056000Y-157942400D01*
X140056000Y-181042400D02*
X124056000Y-181042400D01*
X124056000Y-157942400D02*
X140056000Y-157942400D01*
D12*
%TO.C,J5*%
X44362000Y-157272000D02*
X33362000Y-157272000D01*
X33362000Y-141432000D02*
X44362000Y-141432000D01*
X33362000Y-157272000D02*
X33362000Y-141432000D01*
X44362000Y-141432000D02*
X44362000Y-157272000D01*
%TO.C,J7*%
X336003000Y-172385000D02*
X336003000Y-156545000D01*
X347003000Y-156545000D02*
X347003000Y-172385000D01*
X336003000Y-156545000D02*
X347003000Y-156545000D01*
X347003000Y-172385000D02*
X336003000Y-172385000D01*
%TO.C,J8*%
X326849500Y-57880000D02*
X311949500Y-57880000D01*
X311949500Y-43080000D02*
X311949500Y-45400000D01*
X337349500Y-45480000D02*
X337349500Y-42980000D01*
X337349500Y-42980000D02*
X347149500Y-42980000D01*
X326849500Y-43080000D02*
X326849500Y-57880000D01*
X311249500Y-47940000D02*
X311049500Y-47940000D01*
X311949500Y-43080000D02*
X326849500Y-43080000D01*
X347149500Y-42980000D02*
X347149500Y-57980000D01*
X311949500Y-57880000D02*
X311949500Y-52480000D01*
X337349500Y-55480000D02*
X337349500Y-54980000D01*
X337349500Y-57980000D02*
X337349500Y-55480000D01*
X347149500Y-57980000D02*
X337349500Y-57980000D01*
X311049500Y-47940000D02*
X311249500Y-47940000D01*
%TO.C,C21*%
X146862000Y-166584000D02*
G75*
G03*
X146862000Y-166584000I-50000J0D01*
G01*
%TO.C,J10*%
X326849500Y-98010000D02*
X326849500Y-112810000D01*
X311949500Y-98010000D02*
X311949500Y-100330000D01*
X337349500Y-97910000D02*
X347149500Y-97910000D01*
X311049500Y-102870000D02*
X311249500Y-102870000D01*
X311949500Y-98010000D02*
X326849500Y-98010000D01*
X311949500Y-112810000D02*
X311949500Y-107410000D01*
X337349500Y-110410000D02*
X337349500Y-109910000D01*
X326849500Y-112810000D02*
X311949500Y-112810000D01*
X337349500Y-100410000D02*
X337349500Y-97910000D01*
X347149500Y-112910000D02*
X337349500Y-112910000D01*
X347149500Y-97910000D02*
X347149500Y-112910000D01*
X311249500Y-102870000D02*
X311049500Y-102870000D01*
X337349500Y-112910000D02*
X337349500Y-110410000D01*
%TO.C,R47*%
X136508000Y-34913800D02*
X137558000Y-34913800D01*
%TO.C,R37*%
X160032000Y-66707000D02*
G75*
G03*
X160032000Y-66707000I-50000J0D01*
G01*
%TO.C,R34*%
X136719800Y-65185800D02*
X135669800Y-65185800D01*
D14*
%TO.C,U6*%
X55440000Y-72140000D02*
X55440000Y-74110000D01*
X63940000Y-75750000D02*
X63940000Y-81730000D01*
X63940000Y-85340000D02*
X63940000Y-83370000D01*
X55440000Y-72140000D02*
X63940000Y-72140000D01*
X55440000Y-85340000D02*
X63940000Y-85340000D01*
X63940000Y-72140000D02*
X63940000Y-74110000D01*
X55440000Y-85340000D02*
X55440000Y-83370000D01*
D12*
X53071000Y-74168000D02*
G75*
G03*
X53071000Y-74168000I-100000J0D01*
G01*
%TO.C,R17*%
X99744000Y-130937000D02*
X102694000Y-130937000D01*
%TO.C,R33*%
X129142000Y-65185800D02*
X128092000Y-65185800D01*
%TO.C,C17*%
X59944000Y-130459000D02*
X59944000Y-131859000D01*
D13*
%TO.C,C7*%
X242583000Y-174113200D02*
X242583000Y-156613200D01*
X247083000Y-156613200D02*
X247083000Y-174113200D01*
X247083000Y-174113200D02*
X242583000Y-174113200D01*
X242583000Y-156613200D02*
X247083000Y-156613200D01*
D12*
%TO.C,R43*%
X137939000Y-42418000D02*
X136889000Y-42418000D01*
%TO.C,R27*%
X311452000Y-139241000D02*
X311452000Y-142191000D01*
D14*
%TO.C,U9*%
X61945000Y-51100000D02*
X54895000Y-51100000D01*
X54895000Y-51100000D02*
X54895000Y-31450000D01*
X54895000Y-31450000D02*
X61945000Y-31450000D01*
X61945000Y-31450000D02*
X61945000Y-51100000D01*
D15*
X61120000Y-30525000D02*
G75*
G03*
X61120000Y-30525000I-200000J0D01*
G01*
D12*
%TO.C,R49*%
X130522200Y-34805000D02*
X129472200Y-34805000D01*
D13*
%TO.C,U2*%
X132804000Y-152041600D02*
X132804000Y-136061600D01*
X137804000Y-136061600D02*
X137804000Y-152041600D01*
D12*
X135404000Y-134961600D02*
X135404000Y-134961600D01*
X135404000Y-135061600D02*
X135404000Y-135061600D01*
D13*
X132804000Y-136061600D02*
X137804000Y-136061600D01*
D12*
X135404000Y-135061600D02*
X135404000Y-135061600D01*
D13*
X137804000Y-152041600D02*
X132804000Y-152041600D01*
D12*
X135404000Y-135061600D02*
G75*
G03*
X135404000Y-134961600I0J50000D01*
G01*
X135404000Y-135061600D02*
G75*
G03*
X135404000Y-134961600I0J50000D01*
G01*
X135404000Y-134961600D02*
G75*
G03*
X135404000Y-135061600I0J-50000D01*
G01*
%TO.C,R13*%
X90092000Y-141097000D02*
X93042000Y-141097000D01*
%TO.C,U15*%
X166377000Y-50317200D02*
X157727000Y-50317200D01*
X157727000Y-50317200D02*
X157727000Y-47117200D01*
X166377000Y-47117200D02*
X166377000Y-50317200D01*
X157727000Y-47117200D02*
X166377000Y-47117200D01*
X157542000Y-52192200D02*
X157542000Y-50667200D01*
%TO.C,R38*%
X156857000Y-66692000D02*
G75*
G03*
X156857000Y-66692000I-50000J0D01*
G01*
%TO.C,R28*%
X324104000Y-142191000D02*
X324104000Y-139241000D01*
D13*
%TO.C,H1*%
X140056000Y-128337400D02*
X124056000Y-128337400D01*
X124056000Y-105237400D02*
X140056000Y-105237400D01*
X140056000Y-105237400D02*
X140056000Y-128337400D01*
X124056000Y-128337400D02*
X124056000Y-105237400D01*
D12*
%TO.C,U14*%
X127247000Y-50622000D02*
X127247000Y-47422000D01*
X135897000Y-47422000D02*
X135897000Y-50622000D01*
X127062000Y-52497000D02*
X127062000Y-50972000D01*
X135897000Y-50622000D02*
X127247000Y-50622000D01*
X127247000Y-47422000D02*
X135897000Y-47422000D01*
%TO.C,R23*%
X305562000Y-149147000D02*
X305562000Y-152097000D01*
%TO.C,R6*%
X90969000Y-76403200D02*
X92019000Y-76403200D01*
%TO.C,R2*%
X86982000Y-65725000D02*
X85932000Y-65725000D01*
%TO.C,C15*%
X65786000Y-130364000D02*
X65786000Y-131764000D01*
D13*
%TO.C,H2*%
X124056000Y-131850000D02*
X140056000Y-131850000D01*
X140056000Y-131850000D02*
X140056000Y-154950000D01*
X124056000Y-154950000D02*
X124056000Y-131850000D01*
X140056000Y-154950000D02*
X124056000Y-154950000D01*
D12*
%TO.C,R32*%
X163813000Y-65786000D02*
X164863000Y-65786000D01*
%TO.C,R19*%
X92964000Y-130380000D02*
X92964000Y-127430000D01*
%TO.C,R3*%
X85524200Y-76403200D02*
X86574200Y-76403200D01*
%TO.C,R29*%
X318008000Y-135952000D02*
X318008000Y-137352000D01*
%TO.C,R36*%
X126322000Y-65185800D02*
X125272000Y-65185800D01*
%TO.C,J11*%
X337349500Y-81680000D02*
X337349500Y-79180000D01*
X311249500Y-84140000D02*
X311049500Y-84140000D01*
X337349500Y-79180000D02*
X347149500Y-79180000D01*
X311949500Y-79280000D02*
X311949500Y-81600000D01*
X326849500Y-94080000D02*
X311949500Y-94080000D01*
X337349500Y-91680000D02*
X337349500Y-91180000D01*
X311949500Y-79280000D02*
X326849500Y-79280000D01*
X347149500Y-79180000D02*
X347149500Y-94180000D01*
X347149500Y-94180000D02*
X337349500Y-94180000D01*
X311949500Y-94080000D02*
X311949500Y-88680000D01*
X337349500Y-94180000D02*
X337349500Y-91680000D01*
X326849500Y-79280000D02*
X326849500Y-94080000D01*
X311049500Y-84140000D02*
X311249500Y-84140000D01*
%TO.C,J9*%
X311949500Y-61180000D02*
X326849500Y-61180000D01*
X337349500Y-73580000D02*
X337349500Y-73080000D01*
X337349500Y-76080000D02*
X337349500Y-73580000D01*
X311949500Y-75980000D02*
X311949500Y-70580000D01*
X311249500Y-66040000D02*
X311049500Y-66040000D01*
X326849500Y-61180000D02*
X326849500Y-75980000D01*
X337349500Y-63580000D02*
X337349500Y-61080000D01*
X337349500Y-61080000D02*
X347149500Y-61080000D01*
X311949500Y-61180000D02*
X311949500Y-63500000D01*
X311049500Y-66040000D02*
X311249500Y-66040000D01*
X347149500Y-61080000D02*
X347149500Y-76080000D01*
X326849500Y-75980000D02*
X311949500Y-75980000D01*
X347149500Y-76080000D02*
X337349500Y-76080000D01*
%TO.C,U13*%
X312983000Y-132705000D02*
X312983000Y-124970000D01*
X323033000Y-131570000D02*
X323033000Y-124970000D01*
%TO.C,U12*%
X291781000Y-154859000D02*
X281497000Y-154859000D01*
X281497000Y-154859000D02*
X281497000Y-147909000D01*
X291781000Y-147909000D02*
X291781000Y-154859000D01*
X281519000Y-157009000D02*
X281519000Y-155209000D01*
X281497000Y-147909000D02*
X291781000Y-147909000D01*
%TO.C,R46*%
X133968000Y-34876800D02*
X135018000Y-34876800D01*
%TO.C,R31*%
X133129800Y-65185800D02*
X134179800Y-65185800D01*
%TO.C,C6*%
X59436000Y-87946000D02*
X59436000Y-89346000D01*
%TO.C,R45*%
X127008400Y-34843000D02*
X128058400Y-34843000D01*
%TO.C,R14*%
X74168000Y-137717000D02*
X74168000Y-140667000D01*
D13*
%TO.C,C10*%
X257243000Y-156553200D02*
X257243000Y-174053200D01*
X252743000Y-156553200D02*
X257243000Y-156553200D01*
X257243000Y-174053200D02*
X252743000Y-174053200D01*
X252743000Y-174053200D02*
X252743000Y-156553200D01*
D16*
%TO.C,L1*%
X213834667Y-159385000D02*
G75*
G03*
X213834667Y-159385000I-11396667J0D01*
G01*
X237108000Y-159385000D02*
G75*
G03*
X237108000Y-159385000I-34670000J0D01*
G01*
D13*
%TO.C,J3*%
X74984000Y-205997000D02*
X70684000Y-205997000D01*
X74984000Y-203997000D02*
X74984000Y-205997000D01*
X70684000Y-203997000D02*
X74984000Y-203997000D01*
X70684000Y-205997000D02*
X70684000Y-203997000D01*
D12*
X73834000Y-203497000D02*
G75*
G03*
X73834000Y-203497000I-50000J0D01*
G01*
D13*
%TO.C,J4*%
X88988000Y-204178000D02*
X93288000Y-204178000D01*
X93288000Y-204178000D02*
X93288000Y-206178000D01*
X93288000Y-206178000D02*
X88988000Y-206178000D01*
X88988000Y-206178000D02*
X88988000Y-204178000D01*
D12*
X92138000Y-203678000D02*
G75*
G03*
X92138000Y-203678000I-50000J0D01*
G01*
%TO.C,R41*%
X156193000Y-58166000D02*
X157243000Y-58166000D01*
D13*
%TO.C,J1*%
X33140000Y-204129000D02*
X37440000Y-204129000D01*
X37440000Y-206129000D02*
X33140000Y-206129000D01*
X33140000Y-206129000D02*
X33140000Y-204129000D01*
X37440000Y-204129000D02*
X37440000Y-206129000D01*
D12*
X36290000Y-203629000D02*
G75*
G03*
X36290000Y-203629000I-50000J0D01*
G01*
%TD*%
M02*
