%TF.GenerationSoftware,KiCad,Pcbnew,(6.0.10)*%
%TF.CreationDate,2023-03-07T15:46:30-03:00*%
%TF.ProjectId,PCB_Hbridge,5043425f-4862-4726-9964-67652e6b6963,rev?*%
%TF.SameCoordinates,Original*%
%TF.FileFunction,Paste,Top*%
%TF.FilePolarity,Positive*%
%FSLAX46Y46*%
G04 Gerber Fmt 4.6, Leading zero omitted, Abs format (unit mm)*
G04 Created by KiCad (PCBNEW (6.0.10)) date 2023-03-07 15:46:30*
%MOMM*%
%LPD*%
G01*
G04 APERTURE LIST*
%ADD10R,0.650000X1.800000*%
%ADD11R,1.150000X1.800000*%
%ADD12R,1.400000X1.000000*%
%ADD13R,1.050000X1.150000*%
%ADD14R,1.470000X1.020000*%
%ADD15R,1.020000X1.820000*%
%ADD16R,3.350000X1.250000*%
%ADD17R,1.150000X0.600000*%
%ADD18R,2.100000X1.000000*%
%ADD19R,0.420000X0.620000*%
%ADD20R,1.450000X0.950000*%
%ADD21R,1.250000X3.350000*%
%ADD22R,1.117600X1.447800*%
%ADD23R,1.010000X1.820000*%
%ADD24R,6.800000X1.500000*%
%ADD25R,0.900000X0.650000*%
%ADD26R,0.620000X0.420000*%
%ADD27R,0.700000X1.525000*%
G04 APERTURE END LIST*
D10*
%TO.C,U10*%
X56007000Y-143917000D03*
X57277000Y-143917000D03*
X58547000Y-143917000D03*
X59817000Y-143917000D03*
X61087000Y-143917000D03*
X62357000Y-143917000D03*
X63627000Y-143917000D03*
X64897000Y-143917000D03*
X64897000Y-134467000D03*
X63627000Y-134467000D03*
X62357000Y-134467000D03*
X61087000Y-134467000D03*
X59817000Y-134467000D03*
X58547000Y-134467000D03*
X57277000Y-134467000D03*
X56007000Y-134467000D03*
%TD*%
D11*
%TO.C,R20*%
X85164000Y-123952000D03*
X88064000Y-123952000D03*
%TD*%
D12*
%TO.C,R39*%
X125730000Y-58753800D03*
X125730000Y-56853800D03*
%TD*%
D13*
%TO.C,D2*%
X339090000Y-35776000D03*
X339090000Y-37376000D03*
%TD*%
D14*
%TO.C,C9*%
X94034000Y-75603200D03*
X94034000Y-77203200D03*
%TD*%
D15*
%TO.C,C20*%
X284604000Y-143357600D03*
X287404000Y-143357600D03*
%TD*%
D13*
%TO.C,D1*%
X341630000Y-38062000D03*
X341630000Y-39662000D03*
%TD*%
D16*
%TO.C,R16*%
X72009000Y-133937000D03*
X72009000Y-127937000D03*
%TD*%
D14*
%TO.C,C4*%
X77591000Y-76708000D03*
X77591000Y-75108000D03*
%TD*%
%TO.C,C12*%
X53340000Y-36068000D03*
X53340000Y-34468000D03*
%TD*%
D17*
%TO.C,U7*%
X80712000Y-64775000D03*
X80712000Y-65725000D03*
X80712000Y-66675000D03*
X83312000Y-66675000D03*
X83312000Y-64775000D03*
%TD*%
D12*
%TO.C,R30*%
X131114800Y-66135800D03*
X131114800Y-64235800D03*
%TD*%
D18*
%TO.C,U5*%
X54640000Y-55880000D03*
X54640000Y-58420000D03*
X54640000Y-63500000D03*
X64740000Y-63500000D03*
X64740000Y-55880000D03*
%TD*%
D12*
%TO.C,R40*%
X138684000Y-58819800D03*
X138684000Y-56919800D03*
%TD*%
D16*
%TO.C,R22*%
X322072000Y-155608000D03*
X322072000Y-149608000D03*
%TD*%
D19*
%TO.C,C28*%
X163534000Y-43434000D03*
X164634000Y-43434000D03*
%TD*%
D14*
%TO.C,C3*%
X77577000Y-66233000D03*
X77577000Y-64633000D03*
%TD*%
D17*
%TO.C,U8*%
X80863000Y-75504000D03*
X80863000Y-76454000D03*
X80863000Y-77404000D03*
X83463000Y-77404000D03*
X83463000Y-75504000D03*
%TD*%
D16*
%TO.C,R21*%
X313436000Y-155654000D03*
X313436000Y-149654000D03*
%TD*%
D20*
%TO.C,R44*%
X124973400Y-35786200D03*
X124973400Y-33786200D03*
%TD*%
D12*
%TO.C,R48*%
X129286000Y-41280000D03*
X129286000Y-43180000D03*
%TD*%
D16*
%TO.C,R25*%
X303784000Y-145796000D03*
X303784000Y-139796000D03*
%TD*%
D12*
%TO.C,R4*%
X89154000Y-82362000D03*
X89154000Y-84262000D03*
%TD*%
D14*
%TO.C,C8*%
X93645200Y-65001200D03*
X93645200Y-66601200D03*
%TD*%
D21*
%TO.C,R18*%
X77264000Y-129032000D03*
X83264000Y-129032000D03*
%TD*%
D22*
%TO.C,C16*%
X64922400Y-126492000D03*
X66751200Y-126492000D03*
%TD*%
D20*
%TO.C,R5*%
X90902000Y-64699600D03*
X90902000Y-66699600D03*
%TD*%
D12*
%TO.C,R1*%
X88392000Y-70470000D03*
X88392000Y-72370000D03*
%TD*%
D23*
%TO.C,C5*%
X57862000Y-69596000D03*
X60502000Y-69596000D03*
%TD*%
D15*
%TO.C,C18*%
X290192000Y-143357600D03*
X292992000Y-143357600D03*
%TD*%
D16*
%TO.C,R12*%
X82169000Y-144097000D03*
X82169000Y-138097000D03*
%TD*%
%TO.C,R26*%
X332232000Y-145748000D03*
X332232000Y-139748000D03*
%TD*%
D21*
%TO.C,R24*%
X333200000Y-150876000D03*
X327200000Y-150876000D03*
%TD*%
%TO.C,R15*%
X102314000Y-139065000D03*
X96314000Y-139065000D03*
%TD*%
D12*
%TO.C,R42*%
X125278200Y-41280000D03*
X125278200Y-43180000D03*
%TD*%
D20*
%TO.C,R35*%
X138734800Y-64185800D03*
X138734800Y-66185800D03*
%TD*%
D24*
%TO.C,C21*%
X146812000Y-167834000D03*
X146812000Y-173034000D03*
%TD*%
D14*
%TO.C,C13*%
X64516000Y-43726000D03*
X64516000Y-42126000D03*
%TD*%
D20*
%TO.C,R47*%
X137033000Y-35913800D03*
X137033000Y-33913800D03*
%TD*%
D25*
%TO.C,R37*%
X159982000Y-66107000D03*
X159982000Y-64957000D03*
%TD*%
D14*
%TO.C,C2*%
X50102000Y-75614000D03*
X50102000Y-77214000D03*
%TD*%
D26*
%TO.C,C24*%
X131568000Y-59478000D03*
X131568000Y-58378000D03*
%TD*%
D20*
%TO.C,R34*%
X136194800Y-64185800D03*
X136194800Y-66185800D03*
%TD*%
D18*
%TO.C,U6*%
X54640000Y-74930000D03*
X54640000Y-77470000D03*
X54640000Y-82550000D03*
X64740000Y-82550000D03*
X64740000Y-74930000D03*
%TD*%
D16*
%TO.C,R17*%
X101219000Y-133937000D03*
X101219000Y-127937000D03*
%TD*%
D20*
%TO.C,R33*%
X128617000Y-64185800D03*
X128617000Y-66185800D03*
%TD*%
D15*
%TO.C,C17*%
X58544000Y-131159000D03*
X61344000Y-131159000D03*
%TD*%
D14*
%TO.C,C1*%
X48070000Y-55842000D03*
X48070000Y-57442000D03*
%TD*%
D12*
%TO.C,R43*%
X137414000Y-41468000D03*
X137414000Y-43368000D03*
%TD*%
D21*
%TO.C,R27*%
X308452000Y-140716000D03*
X314452000Y-140716000D03*
%TD*%
D12*
%TO.C,R49*%
X129997200Y-33855000D03*
X129997200Y-35755000D03*
%TD*%
D16*
%TO.C,R13*%
X91567000Y-144097000D03*
X91567000Y-138097000D03*
%TD*%
D27*
%TO.C,U15*%
X158242000Y-51429200D03*
X159512000Y-51429200D03*
X160782000Y-51429200D03*
X162052000Y-51429200D03*
X163322000Y-51429200D03*
X164592000Y-51429200D03*
X165862000Y-51429200D03*
X165862000Y-46005200D03*
X164592000Y-46005200D03*
X163322000Y-46005200D03*
X162052000Y-46005200D03*
X160782000Y-46005200D03*
X159512000Y-46005200D03*
X158242000Y-46005200D03*
%TD*%
D25*
%TO.C,R38*%
X156807000Y-66092000D03*
X156807000Y-64942000D03*
%TD*%
D21*
%TO.C,R28*%
X327104000Y-140716000D03*
X321104000Y-140716000D03*
%TD*%
D27*
%TO.C,U14*%
X127762000Y-51734000D03*
X129032000Y-51734000D03*
X130302000Y-51734000D03*
X131572000Y-51734000D03*
X132842000Y-51734000D03*
X134112000Y-51734000D03*
X135382000Y-51734000D03*
X135382000Y-46310000D03*
X134112000Y-46310000D03*
X132842000Y-46310000D03*
X131572000Y-46310000D03*
X130302000Y-46310000D03*
X129032000Y-46310000D03*
X127762000Y-46310000D03*
%TD*%
D21*
%TO.C,R23*%
X302562000Y-150622000D03*
X308562000Y-150622000D03*
%TD*%
D20*
%TO.C,R6*%
X91494000Y-77403200D03*
X91494000Y-75403200D03*
%TD*%
D12*
%TO.C,R2*%
X86457000Y-64775000D03*
X86457000Y-66675000D03*
%TD*%
D15*
%TO.C,C15*%
X64386000Y-131064000D03*
X67186000Y-131064000D03*
%TD*%
D12*
%TO.C,R32*%
X164338000Y-66736000D03*
X164338000Y-64836000D03*
%TD*%
D21*
%TO.C,R19*%
X95964000Y-128905000D03*
X89964000Y-128905000D03*
%TD*%
D20*
%TO.C,R3*%
X86049200Y-77403200D03*
X86049200Y-75403200D03*
%TD*%
D11*
%TO.C,R29*%
X316558000Y-136652000D03*
X319458000Y-136652000D03*
%TD*%
D22*
%TO.C,C19*%
X290931600Y-138938000D03*
X292760400Y-138938000D03*
%TD*%
D20*
%TO.C,R36*%
X125797000Y-64185800D03*
X125797000Y-66185800D03*
%TD*%
D26*
%TO.C,C26*%
X132876000Y-42460000D03*
X132876000Y-41360000D03*
%TD*%
%TO.C,C22*%
X162056000Y-56430000D03*
X162056000Y-55330000D03*
%TD*%
D10*
%TO.C,U12*%
X282194000Y-156109000D03*
X283464000Y-156109000D03*
X284734000Y-156109000D03*
X286004000Y-156109000D03*
X287274000Y-156109000D03*
X288544000Y-156109000D03*
X289814000Y-156109000D03*
X291084000Y-156109000D03*
X291084000Y-146659000D03*
X289814000Y-146659000D03*
X288544000Y-146659000D03*
X287274000Y-146659000D03*
X286004000Y-146659000D03*
X284734000Y-146659000D03*
X283464000Y-146659000D03*
X282194000Y-146659000D03*
%TD*%
D20*
%TO.C,R46*%
X134493000Y-35876800D03*
X134493000Y-33876800D03*
%TD*%
D12*
%TO.C,R31*%
X133654800Y-66135800D03*
X133654800Y-64235800D03*
%TD*%
D23*
%TO.C,C6*%
X58116000Y-88646000D03*
X60756000Y-88646000D03*
%TD*%
D20*
%TO.C,R45*%
X127533400Y-35843000D03*
X127533400Y-33843000D03*
%TD*%
D21*
%TO.C,R14*%
X71168000Y-139192000D03*
X77168000Y-139192000D03*
%TD*%
D14*
%TO.C,C14*%
X64516000Y-48276000D03*
X64516000Y-49876000D03*
%TD*%
D12*
%TO.C,R41*%
X156718000Y-59116000D03*
X156718000Y-57216000D03*
%TD*%
M02*
