M48
; DRILL file {KiCad (6.0.10)} date Tue Mar  7 15:46:37 2023
; FORMAT={-:-/ absolute / inch / decimal}
; #@! TF.CreationDate,2023-03-07T15:46:37-03:00
; #@! TF.GenerationSoftware,Kicad,Pcbnew,(6.0.10)
; #@! TF.FileFunction,Plated,1,2,PTH
FMAT,2
INCH
; #@! TA.AperFunction,Plated,PTH,ViaDrill
T1C0.0157
; #@! TA.AperFunction,Plated,PTH,ComponentDrill
T2C0.0335
; #@! TA.AperFunction,Plated,PTH,ComponentDrill
T3C0.0350
; #@! TA.AperFunction,Plated,PTH,ComponentDrill
T4C0.0354
; #@! TA.AperFunction,Plated,PTH,ComponentDrill
T5C0.0390
; #@! TA.AperFunction,Plated,PTH,ComponentDrill
T6C0.0394
; #@! TA.AperFunction,Plated,PTH,ComponentDrill
T7C0.0512
; #@! TA.AperFunction,Plated,PTH,ComponentDrill
T8C0.0669
; #@! TA.AperFunction,Plated,PTH,ComponentDrill
T9C0.0705
; #@! TA.AperFunction,Plated,PTH,ComponentDrill
T10C0.0787
%
G90
G05
T1
X2.11Y-5.25
X2.2384Y-5.0784
X2.29Y-5.11
X2.36Y-5.23
X2.4485Y-5.1
X2.5Y-2.79
X2.54Y-3.62
X2.57Y-5.05
X2.59Y-3.88
X2.65Y-1.67
X2.65Y-1.97
X2.69Y-5.04
X3.12Y-4.53
X3.3Y-4.76
X3.33Y-4.29
X3.37Y-5.82
X3.4405Y-5.8905
X3.4677Y-2.9077
X3.48Y-2.59
X3.48Y-2.67
X3.51Y-3.0
X3.51Y-3.13
X3.52Y-3.37
X3.53Y-4.76
X3.61Y-4.32
X3.62Y-6.15
X3.63Y-4.26
X3.66Y-6.19
X3.72Y-2.71
X3.77Y-6.3041
X3.8447Y-6.38
X3.87Y-6.2
X3.95Y-6.27
X4.14Y-5.63
X4.21Y-5.6357
X4.64Y-3.04
X4.91Y-2.84
X4.99Y-2.76
X5.0Y-3.04
X5.16Y-2.67
X5.1615Y-2.13
X5.17Y-1.76
X5.1985Y-2.37
X5.24Y-1.56
X5.26Y-2.67
X5.34Y-2.78
X5.39Y-2.79
X5.44Y-1.16
X5.45Y-1.88
X5.54Y-1.35
X5.57Y-6.07
X5.57Y-7.27
X5.62Y-6.97
X5.74Y-2.3
X5.81Y-5.4
X5.81Y-5.56
X5.8715Y-1.877
X6.09Y-1.8485
X6.1Y-2.0105
X6.2Y-2.75
X6.34Y-1.7556
X6.37Y-2.09
X6.3802Y-2.2898
X6.5Y-2.15
X6.5052Y-2.7648
X6.51Y-2.33
X6.52Y-2.87
X6.53Y-1.71
X6.59Y-2.77
X6.63Y-2.04
X6.71Y-1.8559
X9.38Y-6.71
X10.88Y-5.23
X10.9Y-5.49
X11.05Y-5.75
X11.12Y-5.71
X11.1283Y-5.3985
X11.13Y-5.4615
X11.26Y-5.72
X11.34Y-5.59
X11.42Y-5.5585
X11.48Y-3.31
X11.6Y-5.55
X11.62Y-3.31
X11.77Y-1.3
X11.85Y-1.34
X12.39Y-4.85
X12.41Y-5.29
X12.65Y-4.84
X12.65Y-5.3
X12.84Y-6.27
X13.09Y-6.52
X13.29Y-1.47
T2
X3.26Y-4.38
X3.26Y-4.68
X3.36Y-4.38
X3.36Y-4.68
X3.46Y-4.38
X3.46Y-4.68
X3.56Y-4.38
X3.56Y-4.68
X9.6391Y-6.3627
X9.6391Y-6.658
X10.0391Y-6.3604
X10.0391Y-6.6556
X10.445Y-6.3524
X10.445Y-6.6476
X12.37Y-4.9
X12.37Y-5.2
X12.47Y-4.9
X12.47Y-5.2
X12.57Y-4.9
X12.57Y-5.2
X12.67Y-4.9
X12.67Y-5.2
T3
X12.3012Y-1.8874
X12.3012Y-1.9874
X12.3012Y-2.6
X12.3012Y-2.7
X12.3012Y-3.3126
X12.3012Y-3.4126
X12.3012Y-4.05
X12.3012Y-4.15
T4
X13.645Y-1.25
X13.645Y-1.3287
X13.645Y-1.4075
X13.645Y-1.4862
X13.645Y-1.565
T5
X1.35Y-8.0759
X1.4287Y-8.0759
X2.0694Y-8.0759
X2.1481Y-8.0759
X2.8281Y-8.0707
X2.9069Y-8.0707
X3.5487Y-8.0779
X3.6275Y-8.0779
T6
X2.4033Y-1.325
X2.4033Y-1.425
X2.4033Y-1.725
X2.4033Y-1.825
X2.4033Y-1.925
T7
X1.53Y-5.73
X1.53Y-6.03
X1.5625Y-2.1266
X1.5625Y-2.3234
X13.445Y-6.325
X13.445Y-6.625
T8
X5.14Y-4.2436
X5.14Y-4.9523
X5.14Y-5.2913
X5.14Y-6.0
X5.14Y-6.3186
X5.14Y-7.0273
X5.1409Y-7.3457
X5.1409Y-8.0543
T9
X5.3348Y-4.42
X5.3348Y-4.62
X5.3348Y-4.72
X5.3348Y-4.82
X5.3348Y-5.4709
X5.3348Y-5.6709
X5.3348Y-5.7709
X5.3348Y-5.8709
X5.3369Y-6.49
X5.3369Y-6.69
X5.3369Y-6.79
X5.3369Y-6.89
X5.3379Y-7.5213
X5.3379Y-7.7213
X5.3379Y-7.8213
X5.3379Y-7.9213
T10
X6.7259Y-6.275
X9.2141Y-6.275
X12.5012Y-1.7874
X12.5012Y-2.1874
X12.5012Y-2.5
X12.5012Y-2.9
X12.5012Y-3.2126
X12.5012Y-3.6126
X12.5012Y-3.95
X12.5012Y-4.35
T0
M30
