%TF.GenerationSoftware,KiCad,Pcbnew,(6.0.10)*%
%TF.CreationDate,2023-03-07T15:46:30-03:00*%
%TF.ProjectId,PCB_Hbridge,5043425f-4862-4726-9964-67652e6b6963,rev?*%
%TF.SameCoordinates,Original*%
%TF.FileFunction,Copper,L2,Bot*%
%TF.FilePolarity,Positive*%
%FSLAX46Y46*%
G04 Gerber Fmt 4.6, Leading zero omitted, Abs format (unit mm)*
G04 Created by KiCad (PCBNEW (6.0.10)) date 2023-03-07 15:46:30*
%MOMM*%
%LPD*%
G01*
G04 APERTURE LIST*
%TA.AperFunction,ComponentPad*%
%ADD10R,1.350000X1.350000*%
%TD*%
%TA.AperFunction,ComponentPad*%
%ADD11C,1.350000*%
%TD*%
%TA.AperFunction,ComponentPad*%
%ADD12C,1.950000*%
%TD*%
%TA.AperFunction,ComponentPad*%
%ADD13C,2.685000*%
%TD*%
%TA.AperFunction,ComponentPad*%
%ADD14C,2.340000*%
%TD*%
%TA.AperFunction,ComponentPad*%
%ADD15C,1.381000*%
%TD*%
%TA.AperFunction,ComponentPad*%
%ADD16C,2.550000*%
%TD*%
%TA.AperFunction,ComponentPad*%
%ADD17R,1.250000X1.250000*%
%TD*%
%TA.AperFunction,ComponentPad*%
%ADD18C,1.250000*%
%TD*%
%TA.AperFunction,ComponentPad*%
%ADD19C,1.500000*%
%TD*%
%TA.AperFunction,ComponentPad*%
%ADD20R,1.446000X1.446000*%
%TD*%
%TA.AperFunction,ComponentPad*%
%ADD21C,1.446000*%
%TD*%
%TA.AperFunction,ComponentPad*%
%ADD22C,3.000000*%
%TD*%
%TA.AperFunction,ComponentPad*%
%ADD23R,1.508000X1.508000*%
%TD*%
%TA.AperFunction,ComponentPad*%
%ADD24C,1.508000*%
%TD*%
%TA.AperFunction,ComponentPad*%
%ADD25C,4.000000*%
%TD*%
%TA.AperFunction,SMDPad,CuDef*%
%ADD26R,0.420000X0.620000*%
%TD*%
%TA.AperFunction,SMDPad,CuDef*%
%ADD27R,1.000000X1.400000*%
%TD*%
%TA.AperFunction,ViaPad*%
%ADD28C,0.800000*%
%TD*%
%TA.AperFunction,Conductor*%
%ADD29C,0.300000*%
%TD*%
%TA.AperFunction,Conductor*%
%ADD30C,0.600000*%
%TD*%
G04 APERTURE END LIST*
D10*
%TO.P,J12,1,1*%
%TO.N,OCD_INT*%
X346583000Y-31750000D03*
D11*
%TO.P,J12,2,2*%
%TO.N,3V3*%
X346583000Y-33750000D03*
%TO.P,J12,3,3*%
%TO.N,Vout_3V3*%
X346583000Y-35750000D03*
%TO.P,J12,4,4*%
%TO.N,Iout_3V3*%
X346583000Y-37750000D03*
%TO.P,J12,5,5*%
%TO.N,GND*%
X346583000Y-39750000D03*
%TD*%
D12*
%TO.P,J6,1,1*%
%TO.N,24V+*%
X39688000Y-59015000D03*
%TO.P,J6,2,2*%
%TO.N,24V-*%
X39688000Y-54015000D03*
%TD*%
D13*
%TO.P,U4,1,DRAIN*%
%TO.N,VAC-*%
X135582000Y-191040000D03*
D14*
%TO.P,U4,2,POWER_SOURCE*%
%TO.N,VDC-*%
X135582000Y-196120000D03*
%TO.P,U4,3,DRIVER_SOURCE*%
%TO.N,SB2*%
X135582000Y-198660000D03*
%TO.P,U4,4,GATE*%
%TO.N,GB2*%
X135582000Y-201200000D03*
%TD*%
D15*
%TO.P,C11,1*%
%TO.N,VAC-*%
X265303000Y-168850000D03*
%TO.P,C11,2*%
%TO.N,IP+_2*%
X265303000Y-161350000D03*
%TD*%
D13*
%TO.P,U3,1,DRAIN*%
%TO.N,VDC+*%
X135558000Y-164846000D03*
D14*
%TO.P,U3,2,POWER_SOURCE*%
%TO.N,VAC-*%
X135558000Y-169926000D03*
%TO.P,U3,3,DRIVER_SOURCE*%
%TO.N,SA2*%
X135558000Y-172466000D03*
%TO.P,U3,4,GATE*%
%TO.N,GA2*%
X135558000Y-175006000D03*
%TD*%
D16*
%TO.P,H4,1,1*%
%TO.N,unconnected-(H4-Pad1)*%
X130580000Y-204580000D03*
%TO.P,H4,2,2*%
%TO.N,unconnected-(H4-Pad2)*%
X130580000Y-186580000D03*
%TD*%
D13*
%TO.P,U1,1,DRAIN*%
%TO.N,VDC+*%
X135504000Y-112268000D03*
D14*
%TO.P,U1,2,POWER_SOURCE*%
%TO.N,Net-(U1-Pad2)*%
X135504000Y-117348000D03*
%TO.P,U1,3,DRIVER_SOURCE*%
%TO.N,SA1*%
X135504000Y-119888000D03*
%TO.P,U1,4,GATE*%
%TO.N,GA1*%
X135504000Y-122428000D03*
%TD*%
D17*
%TO.P,U11,1,VDD1*%
%TO.N,5V_0*%
X82804000Y-118872000D03*
D18*
%TO.P,U11,2,VIN+*%
%TO.N,Net-(U11-Pad2)*%
X85344000Y-118872000D03*
%TO.P,U11,3,VIN-*%
%TO.N,Net-(U11-Pad3)*%
X87884000Y-118872000D03*
%TO.P,U11,4,GND1*%
%TO.N,24V-*%
X90424000Y-118872000D03*
%TO.P,U11,5,GND2*%
%TO.N,GND*%
X90424000Y-111252000D03*
%TO.P,U11,6,VOUT-*%
%TO.N,VOUT-_1*%
X87884000Y-111252000D03*
%TO.P,U11,7,VOUT+*%
%TO.N,VOUT+_1*%
X85344000Y-111252000D03*
%TO.P,U11,8,VDD2*%
%TO.N,5V_1*%
X82804000Y-111252000D03*
%TD*%
D19*
%TO.P,J2,1,1*%
%TO.N,GB1*%
X54562000Y-205129000D03*
%TO.P,J2,2,2*%
%TO.N,SB1*%
X52562000Y-205129000D03*
%TD*%
D16*
%TO.P,H3,1,1*%
%TO.N,unconnected-(H3-Pad1)*%
X130556000Y-178492400D03*
%TO.P,H3,2,2*%
%TO.N,unconnected-(H3-Pad2)*%
X130556000Y-160492400D03*
%TD*%
D12*
%TO.P,J5,1,1*%
%TO.N,IP+_1*%
X38862000Y-145542000D03*
%TO.P,J5,2,2*%
%TO.N,VDC-*%
X38862000Y-153162000D03*
%TD*%
%TO.P,J7,1,1*%
%TO.N,VAC+*%
X341503000Y-160655000D03*
%TO.P,J7,2,2*%
%TO.N,VAC-*%
X341503000Y-168275000D03*
%TD*%
D20*
%TO.P,J8,1,1*%
%TO.N,Vout_5V*%
X312449500Y-47940000D03*
D21*
%TO.P,J8,2,2*%
%TO.N,GND*%
X312449500Y-50480000D03*
D22*
%TO.P,J8,MH1,MH1*%
%TO.N,unconnected-(J8-PadMH1)*%
X317529500Y-45400000D03*
%TO.P,J8,MH2,MH2*%
%TO.N,unconnected-(J8-PadMH2)*%
X317529500Y-55560000D03*
%TD*%
D20*
%TO.P,J10,1,1*%
%TO.N,Vin_5V*%
X312449500Y-102870000D03*
D21*
%TO.P,J10,2,2*%
%TO.N,GND*%
X312449500Y-105410000D03*
D22*
%TO.P,J10,MH1,MH1*%
%TO.N,unconnected-(J10-PadMH1)*%
X317529500Y-100330000D03*
%TO.P,J10,MH2,MH2*%
%TO.N,unconnected-(J10-PadMH2)*%
X317529500Y-110490000D03*
%TD*%
D15*
%TO.P,C7,1*%
%TO.N,IP+_2*%
X244833000Y-161613200D03*
%TO.P,C7,2*%
%TO.N,VAC-*%
X244833000Y-169113200D03*
%TD*%
D23*
%TO.P,U9,1,VIN*%
%TO.N,24V+*%
X61045000Y-33655000D03*
D24*
%TO.P,U9,2,GND*%
%TO.N,24V-*%
X61045000Y-36195000D03*
%TO.P,U9,5,-VO*%
%TO.N,-12V*%
X61045000Y-43815000D03*
%TO.P,U9,6,0V*%
%TO.N,GND*%
X61045000Y-46355000D03*
%TO.P,U9,7,+VO*%
%TO.N,+12V*%
X61045000Y-48895000D03*
%TD*%
D13*
%TO.P,U2,1,DRAIN*%
%TO.N,Net-(U1-Pad2)*%
X135504000Y-138961600D03*
D14*
%TO.P,U2,2,POWER_SOURCE*%
%TO.N,VDC-*%
X135504000Y-144041600D03*
%TO.P,U2,3,DRIVER_SOURCE*%
%TO.N,SB1*%
X135504000Y-146581600D03*
%TO.P,U2,4,GATE*%
%TO.N,GB1*%
X135504000Y-149121600D03*
%TD*%
D16*
%TO.P,H1,1,1*%
%TO.N,unconnected-(H1-Pad1)*%
X130556000Y-125787400D03*
%TO.P,H1,2,2*%
%TO.N,unconnected-(H1-Pad2)*%
X130556000Y-107787400D03*
%TD*%
%TO.P,H2,1,1*%
%TO.N,unconnected-(H2-Pad1)*%
X130556000Y-152400000D03*
%TO.P,H2,2,2*%
%TO.N,unconnected-(H2-Pad2)*%
X130556000Y-134400000D03*
%TD*%
D20*
%TO.P,J11,1,1*%
%TO.N,Iin_5V*%
X312449500Y-84140000D03*
D21*
%TO.P,J11,2,2*%
%TO.N,GND*%
X312449500Y-86680000D03*
D22*
%TO.P,J11,MH1,MH1*%
%TO.N,unconnected-(J11-PadMH1)*%
X317529500Y-81600000D03*
%TO.P,J11,MH2,MH2*%
%TO.N,unconnected-(J11-PadMH2)*%
X317529500Y-91760000D03*
%TD*%
D20*
%TO.P,J9,1,1*%
%TO.N,Iout_5V*%
X312449500Y-66040000D03*
D21*
%TO.P,J9,2,2*%
%TO.N,GND*%
X312449500Y-68580000D03*
D22*
%TO.P,J9,MH1,MH1*%
%TO.N,unconnected-(J9-PadMH1)*%
X317529500Y-63500000D03*
%TO.P,J9,MH2,MH2*%
%TO.N,unconnected-(J9-PadMH2)*%
X317529500Y-73660000D03*
%TD*%
D17*
%TO.P,U13,1,VDD1*%
%TO.N,5V_0*%
X314198000Y-132080000D03*
D18*
%TO.P,U13,2,VIN+*%
%TO.N,Net-(U13-Pad2)*%
X316738000Y-132080000D03*
%TO.P,U13,3,VIN-*%
%TO.N,Net-(U13-Pad3)*%
X319278000Y-132080000D03*
%TO.P,U13,4,GND1*%
%TO.N,24V-*%
X321818000Y-132080000D03*
%TO.P,U13,5,GND2*%
%TO.N,GND*%
X321818000Y-124460000D03*
%TO.P,U13,6,VOUT-*%
%TO.N,VOUT-_2*%
X319278000Y-124460000D03*
%TO.P,U13,7,VOUT+*%
%TO.N,VOUT+_2*%
X316738000Y-124460000D03*
%TO.P,U13,8,VDD2*%
%TO.N,5V_1*%
X314198000Y-124460000D03*
%TD*%
D15*
%TO.P,C10,1*%
%TO.N,IP+_2*%
X254993000Y-161553200D03*
%TO.P,C10,2*%
%TO.N,VAC-*%
X254993000Y-169053200D03*
%TD*%
D25*
%TO.P,L1,1,1*%
%TO.N,Net-(U1-Pad2)*%
X170838000Y-159385000D03*
%TO.P,L1,2,2*%
%TO.N,IP+_2*%
X234038000Y-159385000D03*
%TD*%
D19*
%TO.P,J3,1,1*%
%TO.N,GA2*%
X73834000Y-204997000D03*
%TO.P,J3,2,2*%
%TO.N,SA2*%
X71834000Y-204997000D03*
%TD*%
%TO.P,J4,1,1*%
%TO.N,GB2*%
X92138000Y-205178000D03*
%TO.P,J4,2,2*%
%TO.N,SB2*%
X90138000Y-205178000D03*
%TD*%
%TO.P,J1,1,1*%
%TO.N,GA1*%
X36290000Y-205129000D03*
%TO.P,J1,2,2*%
%TO.N,SA1*%
X34290000Y-205129000D03*
%TD*%
D26*
%TO.P,C27,1*%
%TO.N,24V-*%
X318516000Y-135128000D03*
%TO.P,C27,2*%
%TO.N,5V_0*%
X317416000Y-135128000D03*
%TD*%
%TO.P,C25,1*%
%TO.N,GND*%
X87672000Y-108966000D03*
%TO.P,C25,2*%
%TO.N,5V_1*%
X86572000Y-108966000D03*
%TD*%
D27*
%TO.P,R9,1*%
%TO.N,Net-(U12-Pad13)*%
X285938000Y-139293600D03*
%TO.P,R9,2*%
%TO.N,3V3*%
X284038000Y-139293600D03*
%TD*%
%TO.P,R7,1*%
%TO.N,Net-(U10-Pad13)*%
X60386000Y-125730000D03*
%TO.P,R7,2*%
%TO.N,3V3*%
X58486000Y-125730000D03*
%TD*%
%TO.P,R50,1*%
%TO.N,Net-(U10-Pad15)*%
X55372000Y-128970000D03*
%TO.P,R50,2*%
%TO.N,Net-(U10-Pad16)*%
X53472000Y-128970000D03*
%TD*%
%TO.P,R11,1*%
%TO.N,3V3*%
X280924000Y-139700000D03*
%TO.P,R11,2*%
%TO.N,OCD_INT*%
X279024000Y-139700000D03*
%TD*%
D26*
%TO.P,C29,1*%
%TO.N,GND*%
X318558000Y-122682000D03*
%TO.P,C29,2*%
%TO.N,5V_1*%
X317458000Y-122682000D03*
%TD*%
D27*
%TO.P,R10,1*%
%TO.N,Net-(U12-Pad15)*%
X281112000Y-143865600D03*
%TO.P,R10,2*%
%TO.N,OCD_INT*%
X279212000Y-143865600D03*
%TD*%
D26*
%TO.P,C23,1*%
%TO.N,24V-*%
X87164000Y-120904000D03*
%TO.P,C23,2*%
%TO.N,5V_0*%
X86064000Y-120904000D03*
%TD*%
D27*
%TO.P,R8,1*%
%TO.N,3V3*%
X55372000Y-131572000D03*
%TO.P,R8,2*%
%TO.N,Net-(U10-Pad16)*%
X53472000Y-131572000D03*
%TD*%
D28*
%TO.N,24V-*%
X92202000Y-108204000D03*
X321310000Y-134620000D03*
X89662000Y-120904000D03*
X65786000Y-98552000D03*
%TO.N,GND*%
X288036000Y-141986000D03*
X165862000Y-43434000D03*
X91694000Y-109728000D03*
X132042500Y-60198000D03*
X62192500Y-129540000D03*
X321310000Y-122936000D03*
X294640000Y-140970000D03*
X133604000Y-67818000D03*
X337566000Y-37338000D03*
X133096000Y-39624000D03*
X68326000Y-128016000D03*
X89408000Y-85598000D03*
X88080668Y-73856668D03*
X131064000Y-67818000D03*
X162056000Y-58162000D03*
%TO.N,5V_0*%
X315214000Y-134366000D03*
X64516000Y-91948000D03*
X83820000Y-120904000D03*
X63500000Y-70866000D03*
%TO.N,5V_1*%
X314706000Y-123190000D03*
X84582000Y-108966000D03*
%TO.N,VAC-*%
X332486000Y-165608000D03*
X142748000Y-177038000D03*
X326136000Y-159258000D03*
X238252000Y-170434000D03*
%TO.N,Net-(C8-Pad1)*%
X88392000Y-67818000D03*
X88392000Y-65786000D03*
%TO.N,3V3*%
X282660000Y-137122500D03*
X282702000Y-138721500D03*
X300990000Y-34036000D03*
X94488000Y-68834000D03*
X58166000Y-129794000D03*
%TO.N,Net-(C9-Pad1)*%
X89154000Y-79502000D03*
X89154000Y-76200000D03*
%TO.N,1V65*%
X117856000Y-77216000D03*
X167386000Y-70358000D03*
X127000000Y-77216000D03*
X165608000Y-72898000D03*
%TO.N,-12V*%
X161036000Y-44593198D03*
X131318000Y-44704000D03*
X67310000Y-42418000D03*
%TO.N,+12V*%
X161798000Y-53086000D03*
X131101500Y-54102000D03*
X67310000Y-50038000D03*
%TO.N,I_VREF1*%
X136906000Y-70866000D03*
X65278000Y-128270000D03*
%TO.N,I_VOUT1*%
X79248000Y-115062000D03*
X135636000Y-70612000D03*
%TO.N,I_VREF2*%
X140716000Y-34290000D03*
X290068000Y-141186500D03*
%TO.N,I_VOUT2*%
X138176000Y-29464000D03*
X165100000Y-54610000D03*
%TO.N,Iout_3V3*%
X168402000Y-51816000D03*
X170434000Y-47140500D03*
%TO.N,Vout_3V3*%
X154940000Y-51066200D03*
X154686000Y-46952500D03*
%TO.N,VDC+*%
X87388398Y-149618398D03*
X147574000Y-141224000D03*
X85598000Y-147828000D03*
X147574000Y-137160000D03*
%TO.N,SA1*%
X91948000Y-156210000D03*
X105156000Y-143002000D03*
%TO.N,GA1*%
X106934000Y-143147500D03*
X92964000Y-157226000D03*
%TO.N,VDC-*%
X141478000Y-154178000D03*
X141478000Y-184658000D03*
%TO.N,SB1*%
X95758000Y-160123000D03*
X98298000Y-157480000D03*
%TO.N,GB1*%
X97655000Y-162052000D03*
X100330000Y-159258000D03*
%TO.N,Net-(U10-Pad13)*%
X59944000Y-132842000D03*
%TO.N,Net-(U10-Pad16)*%
X53594000Y-133350000D03*
%TO.N,Net-(U12-Pad13)*%
X286004000Y-145288000D03*
%TO.N,Net-(U12-Pad15)*%
X282448000Y-145034000D03*
%TO.N,OCD_INT*%
X298958000Y-33020000D03*
X280670000Y-146050000D03*
X276352000Y-132842000D03*
X276860000Y-139446000D03*
%TO.N,VOUT+_1*%
X126746000Y-70104000D03*
X124714000Y-72136000D03*
%TO.N,VOUT-_2*%
X157480000Y-69850000D03*
X165231832Y-70226168D03*
%TO.N,Iin_5V*%
X145796000Y-58420000D03*
X291592000Y-84074000D03*
X165354000Y-59182000D03*
X295148000Y-84074000D03*
%TO.N,Net-(U10-Pad15)*%
X56856345Y-128992345D03*
%TO.N,Vout_5V*%
X149136583Y-47675917D03*
X138430000Y-47752000D03*
%TD*%
D29*
%TO.N,24V-*%
X65786000Y-98552000D02*
X82550000Y-98552000D01*
X318516000Y-135128000D02*
X320802000Y-135128000D01*
X87164000Y-120904000D02*
X89662000Y-120904000D01*
X82550000Y-98552000D02*
X92202000Y-108204000D01*
X320802000Y-135128000D02*
X321310000Y-134620000D01*
%TO.N,GND*%
X66802000Y-129540000D02*
X62192500Y-129540000D01*
X293624000Y-141986000D02*
X294640000Y-140970000D01*
X318558000Y-122682000D02*
X321056000Y-122682000D01*
X68326000Y-128016000D02*
X66802000Y-129540000D01*
X91694000Y-109728000D02*
X90932000Y-108966000D01*
X288036000Y-141986000D02*
X293624000Y-141986000D01*
X321056000Y-122682000D02*
X321310000Y-122936000D01*
X90932000Y-108966000D02*
X87630000Y-108966000D01*
%TO.N,5V_0*%
X86064000Y-120904000D02*
X83820000Y-120904000D01*
X64516000Y-91948000D02*
X64516000Y-71882000D01*
X64516000Y-71882000D02*
X63500000Y-70866000D01*
X317416000Y-135128000D02*
X315976000Y-135128000D01*
X315976000Y-135128000D02*
X315214000Y-134366000D01*
%TO.N,5V_1*%
X86530000Y-108966000D02*
X84582000Y-108966000D01*
X317458000Y-122682000D02*
X315214000Y-122682000D01*
X315214000Y-122682000D02*
X314706000Y-123190000D01*
D30*
%TO.N,VAC-*%
X155956000Y-170688000D02*
X237998000Y-170688000D01*
X326136000Y-159258000D02*
X332486000Y-165608000D01*
X237998000Y-170688000D02*
X238252000Y-170434000D01*
X149606000Y-177038000D02*
X155956000Y-170688000D01*
X142748000Y-177038000D02*
X149606000Y-177038000D01*
D29*
%TO.N,Net-(C8-Pad1)*%
X88392000Y-65786000D02*
X88392000Y-67818000D01*
%TO.N,3V3*%
X57656345Y-129284345D02*
X58166000Y-129794000D01*
X278130000Y-134874000D02*
X280628000Y-137372000D01*
X58486000Y-125730000D02*
X57656345Y-126559655D01*
X278130000Y-132842000D02*
X278130000Y-134874000D01*
X58486000Y-104582000D02*
X94234000Y-68834000D01*
X282702000Y-137164500D02*
X282660000Y-137122500D01*
X300990000Y-80141189D02*
X276925594Y-104205595D01*
X300990000Y-34036000D02*
X300990000Y-80141189D01*
X94234000Y-68834000D02*
X94488000Y-68834000D01*
X282956000Y-139700000D02*
X283631600Y-139700000D01*
X282702000Y-138721500D02*
X282702000Y-139446000D01*
X56388000Y-131572000D02*
X55372000Y-131572000D01*
X276925594Y-104205595D02*
X276925594Y-131637594D01*
X280924000Y-139700000D02*
X282956000Y-139700000D01*
X58486000Y-125730000D02*
X58486000Y-104582000D01*
X58166000Y-129794000D02*
X56388000Y-131572000D01*
X282702000Y-139446000D02*
X282956000Y-139700000D01*
X280628000Y-137372000D02*
X282702000Y-137372000D01*
X280924000Y-139700000D02*
X210058000Y-68834000D01*
X57656345Y-126559655D02*
X57656345Y-129284345D01*
X276925594Y-131637594D02*
X278130000Y-132842000D01*
X283631600Y-139700000D02*
X284038000Y-139293600D01*
X210058000Y-68834000D02*
X94488000Y-68834000D01*
X282702000Y-137372000D02*
X282702000Y-137164500D01*
%TO.N,Net-(C9-Pad1)*%
X89154000Y-76200000D02*
X89154000Y-79502000D01*
%TO.N,1V65*%
X117856000Y-77216000D02*
X127000000Y-77216000D01*
X167386000Y-71120000D02*
X167386000Y-70358000D01*
X165608000Y-72898000D02*
X167386000Y-71120000D01*
%TO.N,-12V*%
X131318000Y-44704000D02*
X129032000Y-42418000D01*
X131318000Y-44704000D02*
X160925198Y-44704000D01*
X160925198Y-44704000D02*
X161036000Y-44593198D01*
X129032000Y-42418000D02*
X67310000Y-42418000D01*
%TO.N,+12V*%
X131101500Y-54102000D02*
X71374000Y-54102000D01*
X132117500Y-53086000D02*
X131101500Y-54102000D01*
X71374000Y-54102000D02*
X67310000Y-50038000D01*
X161798000Y-53086000D02*
X132117500Y-53086000D01*
%TO.N,I_VREF1*%
X91694000Y-116078000D02*
X136906000Y-70866000D01*
X77470000Y-116078000D02*
X91694000Y-116078000D01*
X68834000Y-124714000D02*
X77470000Y-116078000D01*
X65278000Y-128270000D02*
X68834000Y-124714000D01*
%TO.N,I_VOUT1*%
X91186000Y-115062000D02*
X135636000Y-70612000D01*
X79248000Y-115062000D02*
X91186000Y-115062000D01*
%TO.N,I_VREF2*%
X290068000Y-141186500D02*
X290068000Y-140970000D01*
X287020000Y-137922000D02*
X279923818Y-137922000D01*
X176291818Y-34290000D02*
X140716000Y-34290000D01*
X290068000Y-140970000D02*
X287020000Y-137922000D01*
X279923818Y-137922000D02*
X176291818Y-34290000D01*
%TO.N,I_VOUT2*%
X165100000Y-47525827D02*
X153134173Y-35560000D01*
X139700000Y-35560000D02*
X138684000Y-34544000D01*
X165100000Y-54610000D02*
X165100000Y-47525827D01*
X138684000Y-34544000D02*
X138684000Y-29972000D01*
X138684000Y-29972000D02*
X138176000Y-29464000D01*
X153134173Y-35560000D02*
X139700000Y-35560000D01*
%TO.N,Iout_3V3*%
X170434000Y-47140500D02*
X170434000Y-49784000D01*
X170434000Y-49784000D02*
X168402000Y-51816000D01*
%TO.N,Vout_3V3*%
X154686000Y-50800000D02*
X154940000Y-51054000D01*
X154686000Y-46952500D02*
X154686000Y-50800000D01*
X154940000Y-51054000D02*
X154940000Y-51066200D01*
D30*
%TO.N,VDC+*%
X147574000Y-141224000D02*
X147574000Y-137160000D01*
X85598000Y-147828000D02*
X87388398Y-149618398D01*
%TO.N,SA1*%
X91948000Y-156210000D02*
X105156000Y-143002000D01*
%TO.N,GA1*%
X106934000Y-143256000D02*
X106934000Y-143147500D01*
X92964000Y-157226000D02*
X106934000Y-143256000D01*
%TO.N,VDC-*%
X141478000Y-154178000D02*
X141478000Y-184658000D01*
%TO.N,SB1*%
X95758000Y-160123000D02*
X95758000Y-160020000D01*
X95758000Y-160020000D02*
X98298000Y-157480000D01*
%TO.N,GB1*%
X97655000Y-162052000D02*
X97655000Y-161933000D01*
X97655000Y-161933000D02*
X100330000Y-159258000D01*
D29*
%TO.N,Net-(U10-Pad13)*%
X60386000Y-132400000D02*
X60386000Y-125730000D01*
X59944000Y-132842000D02*
X60386000Y-132400000D01*
%TO.N,Net-(U10-Pad16)*%
X53472000Y-131572000D02*
X53472000Y-128970000D01*
X53472000Y-131572000D02*
X53472000Y-133228000D01*
X53472000Y-133228000D02*
X53594000Y-133350000D01*
%TO.N,Net-(U12-Pad13)*%
X286004000Y-145288000D02*
X285938000Y-145222000D01*
X285938000Y-145222000D02*
X285938000Y-139293600D01*
%TO.N,Net-(U12-Pad15)*%
X281279600Y-143865600D02*
X282448000Y-145034000D01*
X281112000Y-143865600D02*
X281279600Y-143865600D01*
%TO.N,OCD_INT*%
X280670000Y-145323600D02*
X279212000Y-143865600D01*
X298958000Y-81395371D02*
X276352000Y-104001371D01*
X278770000Y-139446000D02*
X279024000Y-139700000D01*
X279212000Y-139888000D02*
X279024000Y-139700000D01*
X279212000Y-143865600D02*
X279212000Y-139888000D01*
X276860000Y-139446000D02*
X278770000Y-139446000D01*
X280670000Y-146050000D02*
X280670000Y-145323600D01*
X298958000Y-33020000D02*
X298958000Y-81395371D01*
X276352000Y-104001371D02*
X276352000Y-132842000D01*
%TO.N,VOUT+_1*%
X124714000Y-72136000D02*
X126746000Y-70104000D01*
%TO.N,VOUT-_2*%
X157856168Y-70226168D02*
X157480000Y-69850000D01*
X165231832Y-70226168D02*
X157856168Y-70226168D01*
%TO.N,Iin_5V*%
X165354000Y-59182000D02*
X146558000Y-59182000D01*
X146558000Y-59182000D02*
X145796000Y-58420000D01*
X295148000Y-84074000D02*
X291592000Y-84074000D01*
%TO.N,Net-(U10-Pad15)*%
X56834000Y-128970000D02*
X56856345Y-128992345D01*
X55372000Y-128970000D02*
X56834000Y-128970000D01*
%TO.N,Vout_5V*%
X138506083Y-47675917D02*
X138430000Y-47752000D01*
X149136583Y-47675917D02*
X138506083Y-47675917D01*
%TD*%
%TA.AperFunction,Conductor*%
%TO.N,GND*%
G36*
X349826621Y-28468502D02*
G01*
X349873114Y-28522158D01*
X349884500Y-28574500D01*
X349884500Y-133732000D01*
X349864498Y-133800121D01*
X349810842Y-133846614D01*
X349758500Y-133858000D01*
X321847770Y-133858000D01*
X321779649Y-133837998D01*
X321773707Y-133833935D01*
X321772091Y-133832761D01*
X321766752Y-133828882D01*
X321702154Y-133800121D01*
X321598319Y-133753891D01*
X321598318Y-133753891D01*
X321592288Y-133751206D01*
X321479721Y-133727279D01*
X321411944Y-133712872D01*
X321411939Y-133712872D01*
X321405487Y-133711500D01*
X321214513Y-133711500D01*
X321208061Y-133712872D01*
X321208056Y-133712872D01*
X321140279Y-133727279D01*
X321027712Y-133751206D01*
X321021682Y-133753891D01*
X321021681Y-133753891D01*
X320917847Y-133800121D01*
X320853248Y-133828882D01*
X320847909Y-133832761D01*
X320846293Y-133833935D01*
X320845199Y-133834325D01*
X320842186Y-133836065D01*
X320841868Y-133835514D01*
X320779425Y-133857794D01*
X320772230Y-133858000D01*
X316035199Y-133858000D01*
X315967078Y-133837998D01*
X315941563Y-133816310D01*
X315926987Y-133800121D01*
X315843898Y-133707841D01*
X315829675Y-133692045D01*
X315829674Y-133692044D01*
X315825253Y-133687134D01*
X315670752Y-133574882D01*
X315664724Y-133572198D01*
X315664722Y-133572197D01*
X315502319Y-133499891D01*
X315502318Y-133499891D01*
X315496288Y-133497206D01*
X315402888Y-133477353D01*
X315315944Y-133458872D01*
X315315939Y-133458872D01*
X315309487Y-133457500D01*
X315118513Y-133457500D01*
X315112061Y-133458872D01*
X315112056Y-133458872D01*
X315025112Y-133477353D01*
X314931712Y-133497206D01*
X314925682Y-133499891D01*
X314925681Y-133499891D01*
X314763278Y-133572197D01*
X314763276Y-133572198D01*
X314757248Y-133574882D01*
X314602747Y-133687134D01*
X314598326Y-133692044D01*
X314598325Y-133692045D01*
X314584102Y-133707841D01*
X314501014Y-133800121D01*
X314486437Y-133816310D01*
X314425991Y-133853550D01*
X314392801Y-133858000D01*
X304292000Y-133858000D01*
X304285536Y-133866165D01*
X304285535Y-133866166D01*
X301560200Y-137308695D01*
X294700047Y-145974152D01*
X294677835Y-146002209D01*
X294619870Y-146043203D01*
X294579045Y-146050000D01*
X286823399Y-146050000D01*
X286755278Y-146029998D01*
X286708785Y-145976342D01*
X286698681Y-145906068D01*
X286729762Y-145839691D01*
X286738621Y-145829852D01*
X286738622Y-145829851D01*
X286743040Y-145824944D01*
X286838527Y-145659556D01*
X286897542Y-145477928D01*
X286901062Y-145444442D01*
X286916814Y-145294565D01*
X286917504Y-145288000D01*
X286897542Y-145098072D01*
X286838527Y-144916444D01*
X286743040Y-144751056D01*
X286628863Y-144624249D01*
X286598147Y-144560244D01*
X286596500Y-144539941D01*
X286596500Y-140564609D01*
X286616502Y-140496488D01*
X286670158Y-140449995D01*
X286675694Y-140447697D01*
X286676297Y-140447367D01*
X286684705Y-140444215D01*
X286801261Y-140356861D01*
X286888615Y-140240305D01*
X286939745Y-140103916D01*
X286946500Y-140041734D01*
X286946500Y-139083950D01*
X286966502Y-139015829D01*
X287020158Y-138969336D01*
X287090432Y-138959232D01*
X287155012Y-138988726D01*
X287161595Y-138994855D01*
X289130901Y-140964161D01*
X289164927Y-141026473D01*
X289167116Y-141066426D01*
X289154496Y-141186500D01*
X289174458Y-141376428D01*
X289233473Y-141558056D01*
X289328960Y-141723444D01*
X289456747Y-141865366D01*
X289611248Y-141977618D01*
X289617276Y-141980302D01*
X289617278Y-141980303D01*
X289779681Y-142052609D01*
X289785712Y-142055294D01*
X289879112Y-142075147D01*
X289966056Y-142093628D01*
X289966061Y-142093628D01*
X289972513Y-142095000D01*
X290163487Y-142095000D01*
X290169939Y-142093628D01*
X290169944Y-142093628D01*
X290256888Y-142075147D01*
X290350288Y-142055294D01*
X290356319Y-142052609D01*
X290518722Y-141980303D01*
X290518724Y-141980302D01*
X290524752Y-141977618D01*
X290679253Y-141865366D01*
X290807040Y-141723444D01*
X290902527Y-141558056D01*
X290961542Y-141376428D01*
X290981504Y-141186500D01*
X290968884Y-141066426D01*
X290962232Y-141003135D01*
X290962232Y-141003133D01*
X290961542Y-140996572D01*
X290902527Y-140814944D01*
X290899149Y-140809092D01*
X290810341Y-140655274D01*
X290807040Y-140649556D01*
X290796903Y-140638297D01*
X290683675Y-140512545D01*
X290683674Y-140512544D01*
X290679253Y-140507634D01*
X290524752Y-140395382D01*
X290518724Y-140392698D01*
X290518722Y-140392697D01*
X290365631Y-140324537D01*
X290327785Y-140298525D01*
X287543655Y-137514395D01*
X287535665Y-137505615D01*
X287535663Y-137505613D01*
X287531416Y-137498920D01*
X287479742Y-137450395D01*
X287476901Y-137447641D01*
X287456333Y-137427073D01*
X287452826Y-137424353D01*
X287443804Y-137416647D01*
X287410133Y-137385028D01*
X287399772Y-137379332D01*
X287391342Y-137374697D01*
X287374818Y-137363843D01*
X287364132Y-137355555D01*
X287357868Y-137350696D01*
X287350596Y-137347549D01*
X287350594Y-137347548D01*
X287315465Y-137332346D01*
X287304805Y-137327124D01*
X287271284Y-137308695D01*
X287271282Y-137308694D01*
X287264337Y-137304876D01*
X287243559Y-137299541D01*
X287224869Y-137293142D01*
X287205176Y-137284620D01*
X287159552Y-137277394D01*
X287147929Y-137274987D01*
X287119928Y-137267798D01*
X287103188Y-137263500D01*
X287081741Y-137263500D01*
X287062031Y-137261949D01*
X287048677Y-137259834D01*
X287040848Y-137258594D01*
X286994859Y-137262941D01*
X286983004Y-137263500D01*
X283698622Y-137263500D01*
X283630501Y-137243498D01*
X283584008Y-137189842D01*
X283575161Y-137135671D01*
X283572814Y-137135671D01*
X283572814Y-137129065D01*
X283573504Y-137122500D01*
X283571780Y-137106101D01*
X283554232Y-136939135D01*
X283554232Y-136939133D01*
X283553542Y-136932572D01*
X283494527Y-136750944D01*
X283399040Y-136585556D01*
X283271253Y-136443634D01*
X283116752Y-136331382D01*
X283110724Y-136328698D01*
X283110722Y-136328697D01*
X282948319Y-136256391D01*
X282948318Y-136256391D01*
X282942288Y-136253706D01*
X282848887Y-136233853D01*
X282761944Y-136215372D01*
X282761939Y-136215372D01*
X282755487Y-136214000D01*
X282564513Y-136214000D01*
X282558061Y-136215372D01*
X282558056Y-136215372D01*
X282471113Y-136233853D01*
X282377712Y-136253706D01*
X282371682Y-136256391D01*
X282371681Y-136256391D01*
X282209278Y-136328697D01*
X282209276Y-136328698D01*
X282203248Y-136331382D01*
X282048747Y-136443634D01*
X281920960Y-136585556D01*
X281883464Y-136650501D01*
X281832081Y-136699494D01*
X281774345Y-136713500D01*
X280952949Y-136713500D01*
X280884828Y-136693498D01*
X280863854Y-136676595D01*
X278825405Y-134638145D01*
X278791379Y-134575833D01*
X278788500Y-134549050D01*
X278788500Y-132924056D01*
X278789059Y-132912200D01*
X278789059Y-132912197D01*
X278790788Y-132904463D01*
X278788562Y-132833631D01*
X278788500Y-132829673D01*
X278788500Y-132800568D01*
X278787944Y-132796168D01*
X278787012Y-132784330D01*
X278786707Y-132774598D01*
X278786032Y-132753134D01*
X313064500Y-132753134D01*
X313071255Y-132815316D01*
X313122385Y-132951705D01*
X313209739Y-133068261D01*
X313326295Y-133155615D01*
X313462684Y-133206745D01*
X313524866Y-133213500D01*
X314871134Y-133213500D01*
X314933316Y-133206745D01*
X315069705Y-133155615D01*
X315186261Y-133068261D01*
X315273615Y-132951705D01*
X315324745Y-132815316D01*
X315331500Y-132753134D01*
X315331500Y-132050201D01*
X315600034Y-132050201D01*
X315613659Y-132258078D01*
X315664938Y-132459991D01*
X315752155Y-132649178D01*
X315872387Y-132819303D01*
X316021609Y-132964669D01*
X316026405Y-132967874D01*
X316026408Y-132967876D01*
X316089562Y-133010074D01*
X316194823Y-133080407D01*
X316200131Y-133082688D01*
X316200132Y-133082688D01*
X316380926Y-133160363D01*
X316380929Y-133160364D01*
X316386229Y-133162641D01*
X316391858Y-133163915D01*
X316391859Y-133163915D01*
X316583778Y-133207342D01*
X316583783Y-133207343D01*
X316589415Y-133208617D01*
X316595186Y-133208844D01*
X316595188Y-133208844D01*
X316657508Y-133211292D01*
X316797577Y-133216796D01*
X316900660Y-133201850D01*
X316998030Y-133187732D01*
X316998035Y-133187731D01*
X317003744Y-133186903D01*
X317009208Y-133185048D01*
X317009213Y-133185047D01*
X317195543Y-133121796D01*
X317201011Y-133119940D01*
X317382772Y-133018149D01*
X317542939Y-132884939D01*
X317635418Y-132773745D01*
X317672458Y-132729210D01*
X317676149Y-132724772D01*
X317777940Y-132543011D01*
X317805527Y-132461742D01*
X317843047Y-132351213D01*
X317843048Y-132351208D01*
X317844903Y-132345744D01*
X317845731Y-132340035D01*
X317845732Y-132340030D01*
X317866901Y-132194027D01*
X317874796Y-132139577D01*
X317876356Y-132080000D01*
X317873618Y-132050201D01*
X318140034Y-132050201D01*
X318153659Y-132258078D01*
X318204938Y-132459991D01*
X318292155Y-132649178D01*
X318412387Y-132819303D01*
X318561609Y-132964669D01*
X318566405Y-132967874D01*
X318566408Y-132967876D01*
X318629562Y-133010074D01*
X318734823Y-133080407D01*
X318740131Y-133082688D01*
X318740132Y-133082688D01*
X318920926Y-133160363D01*
X318920929Y-133160364D01*
X318926229Y-133162641D01*
X318931858Y-133163915D01*
X318931859Y-133163915D01*
X319123778Y-133207342D01*
X319123783Y-133207343D01*
X319129415Y-133208617D01*
X319135186Y-133208844D01*
X319135188Y-133208844D01*
X319197508Y-133211292D01*
X319337577Y-133216796D01*
X319440660Y-133201850D01*
X319538030Y-133187732D01*
X319538035Y-133187731D01*
X319543744Y-133186903D01*
X319549208Y-133185048D01*
X319549213Y-133185047D01*
X319735543Y-133121796D01*
X319741011Y-133119940D01*
X319922772Y-133018149D01*
X320082939Y-132884939D01*
X320175418Y-132773745D01*
X320212458Y-132729210D01*
X320216149Y-132724772D01*
X320317940Y-132543011D01*
X320345527Y-132461742D01*
X320383047Y-132351213D01*
X320383048Y-132351208D01*
X320384903Y-132345744D01*
X320385731Y-132340035D01*
X320385732Y-132340030D01*
X320406901Y-132194027D01*
X320414796Y-132139577D01*
X320416356Y-132080000D01*
X320413618Y-132050201D01*
X320680034Y-132050201D01*
X320693659Y-132258078D01*
X320744938Y-132459991D01*
X320832155Y-132649178D01*
X320952387Y-132819303D01*
X321101609Y-132964669D01*
X321106405Y-132967874D01*
X321106408Y-132967876D01*
X321169562Y-133010074D01*
X321274823Y-133080407D01*
X321280131Y-133082688D01*
X321280132Y-133082688D01*
X321460926Y-133160363D01*
X321460929Y-133160364D01*
X321466229Y-133162641D01*
X321471858Y-133163915D01*
X321471859Y-133163915D01*
X321663778Y-133207342D01*
X321663783Y-133207343D01*
X321669415Y-133208617D01*
X321675186Y-133208844D01*
X321675188Y-133208844D01*
X321737508Y-133211292D01*
X321877577Y-133216796D01*
X321980660Y-133201850D01*
X322078030Y-133187732D01*
X322078035Y-133187731D01*
X322083744Y-133186903D01*
X322089208Y-133185048D01*
X322089213Y-133185047D01*
X322275543Y-133121796D01*
X322281011Y-133119940D01*
X322462772Y-133018149D01*
X322622939Y-132884939D01*
X322715418Y-132773745D01*
X322752458Y-132729210D01*
X322756149Y-132724772D01*
X322857940Y-132543011D01*
X322885527Y-132461742D01*
X322923047Y-132351213D01*
X322923048Y-132351208D01*
X322924903Y-132345744D01*
X322925731Y-132340035D01*
X322925732Y-132340030D01*
X322946901Y-132194027D01*
X322954796Y-132139577D01*
X322956356Y-132080000D01*
X322937294Y-131872551D01*
X322880747Y-131672050D01*
X322788608Y-131485211D01*
X322727569Y-131403469D01*
X322667416Y-131322915D01*
X322667415Y-131322914D01*
X322663963Y-131318291D01*
X322510987Y-131176881D01*
X322334803Y-131065717D01*
X322141311Y-130988522D01*
X321936991Y-130947880D01*
X321931216Y-130947804D01*
X321931212Y-130947804D01*
X321826901Y-130946439D01*
X321728686Y-130945153D01*
X321722989Y-130946132D01*
X321722988Y-130946132D01*
X321665392Y-130956029D01*
X321523372Y-130980433D01*
X321327925Y-131052537D01*
X321148891Y-131159051D01*
X320992266Y-131296407D01*
X320988699Y-131300932D01*
X320988694Y-131300937D01*
X320907865Y-131403469D01*
X320863294Y-131460007D01*
X320860603Y-131465123D01*
X320860601Y-131465125D01*
X320768988Y-131639253D01*
X320766296Y-131644370D01*
X320704520Y-131843322D01*
X320680034Y-132050201D01*
X320413618Y-132050201D01*
X320397294Y-131872551D01*
X320340747Y-131672050D01*
X320248608Y-131485211D01*
X320187569Y-131403469D01*
X320127416Y-131322915D01*
X320127415Y-131322914D01*
X320123963Y-131318291D01*
X319970987Y-131176881D01*
X319794803Y-131065717D01*
X319601311Y-130988522D01*
X319396991Y-130947880D01*
X319391216Y-130947804D01*
X319391212Y-130947804D01*
X319286901Y-130946439D01*
X319188686Y-130945153D01*
X319182989Y-130946132D01*
X319182988Y-130946132D01*
X319125392Y-130956029D01*
X318983372Y-130980433D01*
X318787925Y-131052537D01*
X318608891Y-131159051D01*
X318452266Y-131296407D01*
X318448699Y-131300932D01*
X318448694Y-131300937D01*
X318367865Y-131403469D01*
X318323294Y-131460007D01*
X318320603Y-131465123D01*
X318320601Y-131465125D01*
X318228988Y-131639253D01*
X318226296Y-131644370D01*
X318164520Y-131843322D01*
X318140034Y-132050201D01*
X317873618Y-132050201D01*
X317857294Y-131872551D01*
X317800747Y-131672050D01*
X317708608Y-131485211D01*
X317647569Y-131403469D01*
X317587416Y-131322915D01*
X317587415Y-131322914D01*
X317583963Y-131318291D01*
X317430987Y-131176881D01*
X317254803Y-131065717D01*
X317061311Y-130988522D01*
X316856991Y-130947880D01*
X316851216Y-130947804D01*
X316851212Y-130947804D01*
X316746901Y-130946439D01*
X316648686Y-130945153D01*
X316642989Y-130946132D01*
X316642988Y-130946132D01*
X316585392Y-130956029D01*
X316443372Y-130980433D01*
X316247925Y-131052537D01*
X316068891Y-131159051D01*
X315912266Y-131296407D01*
X315908699Y-131300932D01*
X315908694Y-131300937D01*
X315827865Y-131403469D01*
X315783294Y-131460007D01*
X315780603Y-131465123D01*
X315780601Y-131465125D01*
X315688988Y-131639253D01*
X315686296Y-131644370D01*
X315624520Y-131843322D01*
X315600034Y-132050201D01*
X315331500Y-132050201D01*
X315331500Y-131406866D01*
X315324745Y-131344684D01*
X315273615Y-131208295D01*
X315186261Y-131091739D01*
X315069705Y-131004385D01*
X314933316Y-130953255D01*
X314871134Y-130946500D01*
X313524866Y-130946500D01*
X313462684Y-130953255D01*
X313326295Y-131004385D01*
X313209739Y-131091739D01*
X313122385Y-131208295D01*
X313071255Y-131344684D01*
X313064500Y-131406866D01*
X313064500Y-132753134D01*
X278786032Y-132753134D01*
X278785562Y-132738169D01*
X278779580Y-132717579D01*
X278775570Y-132698216D01*
X278773875Y-132684796D01*
X278773875Y-132684795D01*
X278772882Y-132676936D01*
X278769966Y-132669571D01*
X278769965Y-132669567D01*
X278755874Y-132633979D01*
X278752035Y-132622769D01*
X278739145Y-132578400D01*
X278728229Y-132559943D01*
X278719534Y-132542193D01*
X278711635Y-132522244D01*
X278684477Y-132484864D01*
X278677960Y-132474943D01*
X278670153Y-132461742D01*
X278654452Y-132435193D01*
X278639291Y-132420032D01*
X278626449Y-132404997D01*
X278613841Y-132387643D01*
X278578242Y-132358193D01*
X278569473Y-132350214D01*
X277620997Y-131401737D01*
X277586973Y-131339427D01*
X277584094Y-131312644D01*
X277584094Y-124430201D01*
X313060034Y-124430201D01*
X313073659Y-124638078D01*
X313124938Y-124839991D01*
X313212155Y-125029178D01*
X313332387Y-125199303D01*
X313481609Y-125344669D01*
X313486405Y-125347874D01*
X313486408Y-125347876D01*
X313609714Y-125430266D01*
X313654823Y-125460407D01*
X313660131Y-125462688D01*
X313660132Y-125462688D01*
X313840926Y-125540363D01*
X313840929Y-125540364D01*
X313846229Y-125542641D01*
X313851858Y-125543915D01*
X313851859Y-125543915D01*
X314043778Y-125587342D01*
X314043783Y-125587343D01*
X314049415Y-125588617D01*
X314055186Y-125588844D01*
X314055188Y-125588844D01*
X314117508Y-125591292D01*
X314257577Y-125596796D01*
X314360661Y-125581849D01*
X314458030Y-125567732D01*
X314458035Y-125567731D01*
X314463744Y-125566903D01*
X314469208Y-125565048D01*
X314469213Y-125565047D01*
X314655543Y-125501796D01*
X314661011Y-125499940D01*
X314842772Y-125398149D01*
X315002939Y-125264939D01*
X315136149Y-125104772D01*
X315237940Y-124923011D01*
X315264399Y-124845066D01*
X315303047Y-124731213D01*
X315303048Y-124731208D01*
X315304903Y-124725744D01*
X315305731Y-124720035D01*
X315305732Y-124720030D01*
X315332656Y-124534337D01*
X315334796Y-124519577D01*
X315336356Y-124460000D01*
X315317294Y-124252551D01*
X315260747Y-124052050D01*
X315258189Y-124046862D01*
X315256114Y-124042654D01*
X315243924Y-123972712D01*
X315271484Y-123907283D01*
X315295059Y-123884991D01*
X315299401Y-123881836D01*
X315317253Y-123868866D01*
X315329342Y-123855440D01*
X315440621Y-123731852D01*
X315440622Y-123731851D01*
X315445040Y-123726944D01*
X315540527Y-123561556D01*
X315584064Y-123427564D01*
X315624138Y-123368958D01*
X315689534Y-123341321D01*
X315703897Y-123340500D01*
X315960521Y-123340500D01*
X316028642Y-123360502D01*
X316075135Y-123414158D01*
X316085239Y-123484432D01*
X316055745Y-123549012D01*
X316043604Y-123561227D01*
X315912266Y-123676407D01*
X315908699Y-123680932D01*
X315908694Y-123680937D01*
X315797947Y-123821420D01*
X315783294Y-123840007D01*
X315780603Y-123845123D01*
X315780601Y-123845125D01*
X315697942Y-124002235D01*
X315686296Y-124024370D01*
X315624520Y-124223322D01*
X315600034Y-124430201D01*
X315613659Y-124638078D01*
X315664938Y-124839991D01*
X315752155Y-125029178D01*
X315872387Y-125199303D01*
X316021609Y-125344669D01*
X316026405Y-125347874D01*
X316026408Y-125347876D01*
X316149714Y-125430266D01*
X316194823Y-125460407D01*
X316200131Y-125462688D01*
X316200132Y-125462688D01*
X316380926Y-125540363D01*
X316380929Y-125540364D01*
X316386229Y-125542641D01*
X316391858Y-125543915D01*
X316391859Y-125543915D01*
X316583778Y-125587342D01*
X316583783Y-125587343D01*
X316589415Y-125588617D01*
X316595186Y-125588844D01*
X316595188Y-125588844D01*
X316657508Y-125591292D01*
X316797577Y-125596796D01*
X316900661Y-125581849D01*
X316998030Y-125567732D01*
X316998035Y-125567731D01*
X317003744Y-125566903D01*
X317009208Y-125565048D01*
X317009213Y-125565047D01*
X317195543Y-125501796D01*
X317201011Y-125499940D01*
X317382772Y-125398149D01*
X317542939Y-125264939D01*
X317676149Y-125104772D01*
X317777940Y-124923011D01*
X317804399Y-124845066D01*
X317843047Y-124731213D01*
X317843048Y-124731208D01*
X317844903Y-124725744D01*
X317845731Y-124720035D01*
X317845732Y-124720030D01*
X317872656Y-124534337D01*
X317874796Y-124519577D01*
X317876356Y-124460000D01*
X317857294Y-124252551D01*
X317800747Y-124052050D01*
X317708608Y-123865211D01*
X317654282Y-123792459D01*
X317586650Y-123701889D01*
X317561918Y-123635339D01*
X317577092Y-123565983D01*
X317627354Y-123515841D01*
X317687608Y-123500500D01*
X317716134Y-123500500D01*
X317778316Y-123493745D01*
X317914705Y-123442615D01*
X317932852Y-123429014D01*
X317999360Y-123404167D01*
X318068743Y-123419221D01*
X318083980Y-123429013D01*
X318094353Y-123436787D01*
X318109946Y-123445324D01*
X318230394Y-123490478D01*
X318245649Y-123494105D01*
X318296514Y-123499631D01*
X318303328Y-123500000D01*
X318331559Y-123500000D01*
X318399680Y-123520002D01*
X318446173Y-123573658D01*
X318456277Y-123643932D01*
X318430509Y-123704005D01*
X318323294Y-123840007D01*
X318320603Y-123845123D01*
X318320601Y-123845125D01*
X318237942Y-124002235D01*
X318226296Y-124024370D01*
X318164520Y-124223322D01*
X318140034Y-124430201D01*
X318153659Y-124638078D01*
X318204938Y-124839991D01*
X318292155Y-125029178D01*
X318412387Y-125199303D01*
X318561609Y-125344669D01*
X318566405Y-125347874D01*
X318566408Y-125347876D01*
X318689714Y-125430266D01*
X318734823Y-125460407D01*
X318740131Y-125462688D01*
X318740132Y-125462688D01*
X318920926Y-125540363D01*
X318920929Y-125540364D01*
X318926229Y-125542641D01*
X318931858Y-125543915D01*
X318931859Y-125543915D01*
X319123778Y-125587342D01*
X319123783Y-125587343D01*
X319129415Y-125588617D01*
X319135186Y-125588844D01*
X319135188Y-125588844D01*
X319197508Y-125591292D01*
X319337577Y-125596796D01*
X319440661Y-125581849D01*
X319538030Y-125567732D01*
X319538035Y-125567731D01*
X319543744Y-125566903D01*
X319549208Y-125565048D01*
X319549213Y-125565047D01*
X319735543Y-125501796D01*
X319741011Y-125499940D01*
X319884970Y-125419319D01*
X321223041Y-125419319D01*
X321232923Y-125431809D01*
X321270259Y-125456756D01*
X321280371Y-125462247D01*
X321461081Y-125539885D01*
X321472014Y-125543437D01*
X321663844Y-125586845D01*
X321675253Y-125588347D01*
X321871783Y-125596068D01*
X321883265Y-125595466D01*
X322077905Y-125567245D01*
X322089101Y-125564557D01*
X322275343Y-125501336D01*
X322285840Y-125496662D01*
X322404401Y-125430266D01*
X322414264Y-125420189D01*
X322411309Y-125412519D01*
X321830812Y-124832022D01*
X321816868Y-124824408D01*
X321815035Y-124824539D01*
X321808420Y-124828790D01*
X321229237Y-125407973D01*
X321223041Y-125419319D01*
X319884970Y-125419319D01*
X319922772Y-125398149D01*
X320082939Y-125264939D01*
X320216149Y-125104772D01*
X320317940Y-124923011D01*
X320344399Y-124845066D01*
X320383047Y-124731213D01*
X320383048Y-124731208D01*
X320384903Y-124725744D01*
X320385731Y-124720035D01*
X320385732Y-124720030D01*
X320412656Y-124534337D01*
X320414796Y-124519577D01*
X320416356Y-124460000D01*
X320414149Y-124435980D01*
X320680914Y-124435980D01*
X320693777Y-124632233D01*
X320695577Y-124643601D01*
X320743991Y-124834228D01*
X320747829Y-124845066D01*
X320830173Y-125023685D01*
X320835922Y-125033642D01*
X320845850Y-125047690D01*
X320856439Y-125056078D01*
X320869740Y-125049050D01*
X321445978Y-124472812D01*
X321452356Y-124461132D01*
X322182408Y-124461132D01*
X322182539Y-124462965D01*
X322186790Y-124469580D01*
X322766603Y-125049393D01*
X322778983Y-125056153D01*
X322785563Y-125051227D01*
X322854662Y-124927840D01*
X322859336Y-124917343D01*
X322922557Y-124731101D01*
X322925245Y-124719905D01*
X322953762Y-124523224D01*
X322954392Y-124515843D01*
X322955757Y-124463704D01*
X322955514Y-124456305D01*
X322937330Y-124258397D01*
X322935233Y-124247083D01*
X322881846Y-124057789D01*
X322877724Y-124047050D01*
X322790736Y-123870656D01*
X322789577Y-123868765D01*
X322780732Y-123862126D01*
X322768312Y-123868898D01*
X322190022Y-124447188D01*
X322182408Y-124461132D01*
X321452356Y-124461132D01*
X321453592Y-124458868D01*
X321453461Y-124457035D01*
X321449210Y-124450420D01*
X320868031Y-123869241D01*
X320855651Y-123862481D01*
X320849685Y-123866947D01*
X320769452Y-124019445D01*
X320765047Y-124030079D01*
X320706724Y-124217910D01*
X320704332Y-124229164D01*
X320681215Y-124424479D01*
X320680914Y-124435980D01*
X320414149Y-124435980D01*
X320397294Y-124252551D01*
X320340747Y-124052050D01*
X320248608Y-123865211D01*
X320192254Y-123789743D01*
X320127416Y-123702915D01*
X320127415Y-123702914D01*
X320123963Y-123698291D01*
X319970987Y-123556881D01*
X319881527Y-123500436D01*
X321222547Y-123500436D01*
X321226033Y-123508823D01*
X321805188Y-124087978D01*
X321819132Y-124095592D01*
X321820965Y-124095461D01*
X321827580Y-124091210D01*
X322406407Y-123512383D01*
X322413167Y-123500003D01*
X322407137Y-123491948D01*
X322339459Y-123449246D01*
X322329211Y-123444025D01*
X322146531Y-123371143D01*
X322135504Y-123367876D01*
X321942605Y-123329506D01*
X321931159Y-123328303D01*
X321734507Y-123325730D01*
X321723027Y-123326633D01*
X321529199Y-123359938D01*
X321518079Y-123362918D01*
X321333557Y-123430992D01*
X321323179Y-123435942D01*
X321232146Y-123490101D01*
X321222547Y-123500436D01*
X319881527Y-123500436D01*
X319865147Y-123490101D01*
X319799683Y-123448796D01*
X319794803Y-123445717D01*
X319601311Y-123368522D01*
X319419644Y-123332386D01*
X319402657Y-123329007D01*
X319396991Y-123327880D01*
X319391217Y-123327804D01*
X319391213Y-123327804D01*
X319378949Y-123327644D01*
X319364953Y-123327461D01*
X319297101Y-123306570D01*
X319251314Y-123252311D01*
X319242130Y-123181911D01*
X319248620Y-123157242D01*
X319266478Y-123109606D01*
X319270105Y-123094351D01*
X319275631Y-123043486D01*
X319276000Y-123036672D01*
X319276000Y-122910115D01*
X319271525Y-122894876D01*
X319270135Y-122893671D01*
X319262452Y-122892000D01*
X318474000Y-122892000D01*
X318405879Y-122871998D01*
X318359386Y-122818342D01*
X318348000Y-122766000D01*
X318348000Y-122453885D01*
X318768000Y-122453885D01*
X318772475Y-122469124D01*
X318773865Y-122470329D01*
X318781548Y-122472000D01*
X319257884Y-122472000D01*
X319273123Y-122467525D01*
X319274328Y-122466135D01*
X319275999Y-122458452D01*
X319275999Y-122327331D01*
X319275629Y-122320510D01*
X319270105Y-122269648D01*
X319266479Y-122254396D01*
X319221324Y-122133946D01*
X319212786Y-122118351D01*
X319136285Y-122016276D01*
X319123724Y-122003715D01*
X319021649Y-121927214D01*
X319006054Y-121918676D01*
X318885606Y-121873522D01*
X318870351Y-121869895D01*
X318819486Y-121864369D01*
X318812672Y-121864000D01*
X318786115Y-121864000D01*
X318770876Y-121868475D01*
X318769671Y-121869865D01*
X318768000Y-121877548D01*
X318768000Y-122453885D01*
X318348000Y-122453885D01*
X318348000Y-121882116D01*
X318343525Y-121866877D01*
X318342135Y-121865672D01*
X318334452Y-121864001D01*
X318303331Y-121864001D01*
X318296510Y-121864371D01*
X318245648Y-121869895D01*
X318230396Y-121873521D01*
X318109946Y-121918676D01*
X318094353Y-121927213D01*
X318083980Y-121934987D01*
X318017473Y-121959833D01*
X317948091Y-121944779D01*
X317932853Y-121934986D01*
X317929215Y-121932260D01*
X317914705Y-121921385D01*
X317778316Y-121870255D01*
X317716134Y-121863500D01*
X317199866Y-121863500D01*
X317137684Y-121870255D01*
X317001295Y-121921385D01*
X316970081Y-121944779D01*
X316898633Y-121998326D01*
X316832127Y-122023174D01*
X316823068Y-122023500D01*
X315296056Y-122023500D01*
X315284200Y-122022941D01*
X315284197Y-122022941D01*
X315276463Y-122021212D01*
X315205631Y-122023438D01*
X315201673Y-122023500D01*
X315172568Y-122023500D01*
X315168168Y-122024056D01*
X315156336Y-122024988D01*
X315110169Y-122026438D01*
X315089579Y-122032420D01*
X315070218Y-122036430D01*
X315063230Y-122037312D01*
X315056796Y-122038125D01*
X315056795Y-122038125D01*
X315048936Y-122039118D01*
X315041571Y-122042034D01*
X315041567Y-122042035D01*
X315005982Y-122056124D01*
X314994752Y-122059969D01*
X314950399Y-122072855D01*
X314943575Y-122076891D01*
X314931943Y-122083770D01*
X314914187Y-122092469D01*
X314894244Y-122100365D01*
X314869488Y-122118351D01*
X314856868Y-122127520D01*
X314846949Y-122134035D01*
X314814023Y-122153508D01*
X314814019Y-122153511D01*
X314807193Y-122157548D01*
X314792032Y-122172709D01*
X314777000Y-122185548D01*
X314759643Y-122198159D01*
X314754590Y-122204267D01*
X314730194Y-122233757D01*
X314722204Y-122242537D01*
X314720146Y-122244595D01*
X314657834Y-122278621D01*
X314631051Y-122281500D01*
X314610513Y-122281500D01*
X314604061Y-122282872D01*
X314604056Y-122282872D01*
X314517113Y-122301353D01*
X314423712Y-122321206D01*
X314417682Y-122323891D01*
X314417681Y-122323891D01*
X314255278Y-122396197D01*
X314255276Y-122396198D01*
X314249248Y-122398882D01*
X314094747Y-122511134D01*
X314090326Y-122516044D01*
X314090325Y-122516045D01*
X313984901Y-122633131D01*
X313966960Y-122653056D01*
X313871473Y-122818444D01*
X313812458Y-123000072D01*
X313792496Y-123190000D01*
X313793186Y-123196565D01*
X313803635Y-123295986D01*
X313790863Y-123365824D01*
X313742360Y-123417671D01*
X313721939Y-123427367D01*
X313707925Y-123432537D01*
X313603610Y-123494598D01*
X313560910Y-123520002D01*
X313528891Y-123539051D01*
X313372266Y-123676407D01*
X313368699Y-123680932D01*
X313368694Y-123680937D01*
X313257947Y-123821420D01*
X313243294Y-123840007D01*
X313240603Y-123845123D01*
X313240601Y-123845125D01*
X313157942Y-124002235D01*
X313146296Y-124024370D01*
X313084520Y-124223322D01*
X313060034Y-124430201D01*
X277584094Y-124430201D01*
X277584094Y-110468918D01*
X315516417Y-110468918D01*
X315532182Y-110742320D01*
X315533007Y-110746525D01*
X315533008Y-110746533D01*
X315553232Y-110849614D01*
X315584905Y-111011053D01*
X315586292Y-111015103D01*
X315586293Y-111015108D01*
X315667012Y-111250868D01*
X315673612Y-111270144D01*
X315796660Y-111514799D01*
X315799086Y-111518328D01*
X315799089Y-111518334D01*
X315937723Y-111720046D01*
X315951774Y-111740490D01*
X315954661Y-111743663D01*
X315954662Y-111743664D01*
X316043276Y-111841050D01*
X316136082Y-111943043D01*
X316139377Y-111945798D01*
X316139378Y-111945799D01*
X316190741Y-111988745D01*
X316346175Y-112118707D01*
X316349816Y-112120991D01*
X316574524Y-112261951D01*
X316574528Y-112261953D01*
X316578164Y-112264234D01*
X316646044Y-112294883D01*
X316823845Y-112375164D01*
X316823849Y-112375166D01*
X316827757Y-112376930D01*
X316867050Y-112388569D01*
X317086223Y-112453491D01*
X317086227Y-112453492D01*
X317090336Y-112454709D01*
X317094570Y-112455357D01*
X317094575Y-112455358D01*
X317356798Y-112495483D01*
X317356800Y-112495483D01*
X317361040Y-112496132D01*
X317500412Y-112498322D01*
X317630571Y-112500367D01*
X317630577Y-112500367D01*
X317634862Y-112500434D01*
X317906735Y-112467534D01*
X318171627Y-112398041D01*
X318175587Y-112396401D01*
X318175592Y-112396399D01*
X318331341Y-112331885D01*
X318424636Y-112293241D01*
X318661082Y-112155073D01*
X318876589Y-111986094D01*
X318918309Y-111943043D01*
X319064186Y-111792509D01*
X319067169Y-111789431D01*
X319069702Y-111785983D01*
X319069706Y-111785978D01*
X319226757Y-111572178D01*
X319229295Y-111568723D01*
X319256654Y-111518334D01*
X319357918Y-111331830D01*
X319357919Y-111331828D01*
X319359968Y-111328054D01*
X319456769Y-111071877D01*
X319499979Y-110883210D01*
X319516949Y-110809117D01*
X319516950Y-110809113D01*
X319517907Y-110804933D01*
X319525758Y-110716969D01*
X319542031Y-110534627D01*
X319542031Y-110534625D01*
X319542251Y-110532161D01*
X319542642Y-110494915D01*
X319542667Y-110492484D01*
X319542667Y-110492483D01*
X319542693Y-110490000D01*
X319531656Y-110328097D01*
X319524359Y-110221055D01*
X319524358Y-110221049D01*
X319524067Y-110216778D01*
X319512861Y-110162664D01*
X319469401Y-109952809D01*
X319468532Y-109948612D01*
X319377117Y-109690465D01*
X319290530Y-109522705D01*
X319253478Y-109450919D01*
X319253478Y-109450918D01*
X319251513Y-109447112D01*
X319241540Y-109432921D01*
X319096508Y-109226562D01*
X319094045Y-109223057D01*
X318907625Y-109022445D01*
X318904310Y-109019731D01*
X318904306Y-109019728D01*
X318699023Y-108851706D01*
X318695705Y-108848990D01*
X318462204Y-108705901D01*
X318458268Y-108704173D01*
X318215373Y-108597549D01*
X318215369Y-108597548D01*
X318211445Y-108595825D01*
X317948066Y-108520800D01*
X317943824Y-108520196D01*
X317943818Y-108520195D01*
X317743334Y-108491662D01*
X317676943Y-108482213D01*
X317533089Y-108481460D01*
X317407377Y-108480802D01*
X317407371Y-108480802D01*
X317403091Y-108480780D01*
X317398847Y-108481339D01*
X317398843Y-108481339D01*
X317279802Y-108497011D01*
X317131578Y-108516525D01*
X317127438Y-108517658D01*
X317127436Y-108517658D01*
X317054508Y-108537609D01*
X316867428Y-108588788D01*
X316863480Y-108590472D01*
X316619482Y-108694546D01*
X316619478Y-108694548D01*
X316615530Y-108696232D01*
X316515664Y-108756000D01*
X316384225Y-108834664D01*
X316384221Y-108834667D01*
X316380543Y-108836868D01*
X316166818Y-109008094D01*
X316150217Y-109025588D01*
X315990291Y-109194115D01*
X315978308Y-109206742D01*
X315818502Y-109429136D01*
X315690357Y-109671161D01*
X315688885Y-109675184D01*
X315688883Y-109675188D01*
X315651040Y-109778598D01*
X315596243Y-109928337D01*
X315537904Y-110195907D01*
X315516417Y-110468918D01*
X277584094Y-110468918D01*
X277584094Y-106440775D01*
X311783280Y-106440775D01*
X311792576Y-106452789D01*
X311827140Y-106476992D01*
X311836636Y-106482475D01*
X312021883Y-106568857D01*
X312032175Y-106572603D01*
X312229608Y-106625505D01*
X312240403Y-106627408D01*
X312444025Y-106645223D01*
X312454975Y-106645223D01*
X312658597Y-106627408D01*
X312669392Y-106625505D01*
X312866825Y-106572603D01*
X312877117Y-106568857D01*
X313062364Y-106482475D01*
X313071860Y-106476992D01*
X313107262Y-106452203D01*
X313115637Y-106441726D01*
X313108568Y-106428278D01*
X312462312Y-105782022D01*
X312448368Y-105774408D01*
X312446535Y-105774539D01*
X312439920Y-105778790D01*
X311789710Y-106429000D01*
X311783280Y-106440775D01*
X277584094Y-106440775D01*
X277584094Y-105415475D01*
X311214277Y-105415475D01*
X311232092Y-105619097D01*
X311233995Y-105629892D01*
X311286897Y-105827325D01*
X311290643Y-105837617D01*
X311377025Y-106022864D01*
X311382508Y-106032360D01*
X311407297Y-106067762D01*
X311417774Y-106076137D01*
X311431222Y-106069068D01*
X312077478Y-105422812D01*
X312083856Y-105411132D01*
X312813908Y-105411132D01*
X312814039Y-105412965D01*
X312818290Y-105419580D01*
X313468500Y-106069790D01*
X313480275Y-106076220D01*
X313492289Y-106066924D01*
X313516492Y-106032360D01*
X313521975Y-106022864D01*
X313608357Y-105837617D01*
X313612103Y-105827325D01*
X313665005Y-105629892D01*
X313666908Y-105619097D01*
X313684723Y-105415475D01*
X313684723Y-105404525D01*
X313666908Y-105200903D01*
X313665005Y-105190108D01*
X313612103Y-104992675D01*
X313608357Y-104982383D01*
X313521975Y-104797136D01*
X313516492Y-104787640D01*
X313491703Y-104752238D01*
X313481226Y-104743863D01*
X313467778Y-104750932D01*
X312821522Y-105397188D01*
X312813908Y-105411132D01*
X312083856Y-105411132D01*
X312085092Y-105408868D01*
X312084961Y-105407035D01*
X312080710Y-105400420D01*
X311430500Y-104750210D01*
X311418725Y-104743780D01*
X311406711Y-104753076D01*
X311382508Y-104787640D01*
X311377025Y-104797136D01*
X311290643Y-104982383D01*
X311286897Y-104992675D01*
X311233995Y-105190108D01*
X311232092Y-105200903D01*
X311214277Y-105404525D01*
X311214277Y-105415475D01*
X277584094Y-105415475D01*
X277584094Y-104530545D01*
X277604096Y-104462424D01*
X277620999Y-104441450D01*
X278421315Y-103641134D01*
X311218000Y-103641134D01*
X311224755Y-103703316D01*
X311275885Y-103839705D01*
X311363239Y-103956261D01*
X311479795Y-104043615D01*
X311616184Y-104094745D01*
X311678366Y-104101500D01*
X311775205Y-104101500D01*
X311843326Y-104121502D01*
X311889819Y-104175158D01*
X311899923Y-104245432D01*
X311870429Y-104310012D01*
X311838206Y-104336618D01*
X311827149Y-104343002D01*
X311791738Y-104367797D01*
X311783363Y-104378274D01*
X311790432Y-104391722D01*
X312436688Y-105037978D01*
X312450632Y-105045592D01*
X312452465Y-105045461D01*
X312459080Y-105041210D01*
X313109290Y-104391000D01*
X313115720Y-104379225D01*
X313106424Y-104367211D01*
X313071851Y-104343002D01*
X313060794Y-104336618D01*
X313011801Y-104285235D01*
X312998366Y-104215521D01*
X313024753Y-104149611D01*
X313082586Y-104108429D01*
X313123795Y-104101500D01*
X313220634Y-104101500D01*
X313282816Y-104094745D01*
X313419205Y-104043615D01*
X313535761Y-103956261D01*
X313623115Y-103839705D01*
X313674245Y-103703316D01*
X313681000Y-103641134D01*
X313681000Y-102098866D01*
X313674245Y-102036684D01*
X313623115Y-101900295D01*
X313535761Y-101783739D01*
X313419205Y-101696385D01*
X313282816Y-101645255D01*
X313220634Y-101638500D01*
X311678366Y-101638500D01*
X311616184Y-101645255D01*
X311479795Y-101696385D01*
X311363239Y-101783739D01*
X311275885Y-101900295D01*
X311224755Y-102036684D01*
X311218000Y-102098866D01*
X311218000Y-103641134D01*
X278421315Y-103641134D01*
X281753531Y-100308918D01*
X315516417Y-100308918D01*
X315532182Y-100582320D01*
X315533007Y-100586525D01*
X315533008Y-100586533D01*
X315543627Y-100640657D01*
X315584905Y-100851053D01*
X315586292Y-100855103D01*
X315586293Y-100855108D01*
X315607105Y-100915895D01*
X315673612Y-101110144D01*
X315796660Y-101354799D01*
X315799086Y-101358328D01*
X315799089Y-101358334D01*
X315949343Y-101576953D01*
X315951774Y-101580490D01*
X315954661Y-101583663D01*
X315954662Y-101583664D01*
X316009929Y-101644402D01*
X316136082Y-101783043D01*
X316139377Y-101785798D01*
X316139378Y-101785799D01*
X316183882Y-101823010D01*
X316346175Y-101958707D01*
X316349816Y-101960991D01*
X316574524Y-102101951D01*
X316574528Y-102101953D01*
X316578164Y-102104234D01*
X316646044Y-102134883D01*
X316823845Y-102215164D01*
X316823849Y-102215166D01*
X316827757Y-102216930D01*
X316831877Y-102218150D01*
X316831876Y-102218150D01*
X317086223Y-102293491D01*
X317086227Y-102293492D01*
X317090336Y-102294709D01*
X317094570Y-102295357D01*
X317094575Y-102295358D01*
X317356798Y-102335483D01*
X317356800Y-102335483D01*
X317361040Y-102336132D01*
X317500412Y-102338322D01*
X317630571Y-102340367D01*
X317630577Y-102340367D01*
X317634862Y-102340434D01*
X317906735Y-102307534D01*
X318171627Y-102238041D01*
X318175587Y-102236401D01*
X318175592Y-102236399D01*
X318298132Y-102185641D01*
X318424636Y-102133241D01*
X318542859Y-102064157D01*
X318657379Y-101997237D01*
X318657380Y-101997236D01*
X318661082Y-101995073D01*
X318876589Y-101826094D01*
X318918309Y-101783043D01*
X319058023Y-101638869D01*
X319067169Y-101629431D01*
X319069702Y-101625983D01*
X319069706Y-101625978D01*
X319226757Y-101412178D01*
X319229295Y-101408723D01*
X319256654Y-101358334D01*
X319357918Y-101171830D01*
X319357919Y-101171828D01*
X319359968Y-101168054D01*
X319456769Y-100911877D01*
X319517907Y-100644933D01*
X319542251Y-100372161D01*
X319542693Y-100330000D01*
X319524067Y-100056778D01*
X319468532Y-99788612D01*
X319377117Y-99530465D01*
X319251513Y-99287112D01*
X319241540Y-99272921D01*
X319127689Y-99110928D01*
X319094045Y-99063057D01*
X318907625Y-98862445D01*
X318904310Y-98859731D01*
X318904306Y-98859728D01*
X318699023Y-98691706D01*
X318695705Y-98688990D01*
X318462204Y-98545901D01*
X318458268Y-98544173D01*
X318215373Y-98437549D01*
X318215369Y-98437548D01*
X318211445Y-98435825D01*
X317948066Y-98360800D01*
X317943824Y-98360196D01*
X317943818Y-98360195D01*
X317743334Y-98331662D01*
X317676943Y-98322213D01*
X317533089Y-98321460D01*
X317407377Y-98320802D01*
X317407371Y-98320802D01*
X317403091Y-98320780D01*
X317398847Y-98321339D01*
X317398843Y-98321339D01*
X317279802Y-98337011D01*
X317131578Y-98356525D01*
X317127438Y-98357658D01*
X317127436Y-98357658D01*
X317054508Y-98377609D01*
X316867428Y-98428788D01*
X316863480Y-98430472D01*
X316619482Y-98534546D01*
X316619478Y-98534548D01*
X316615530Y-98536232D01*
X316595625Y-98548145D01*
X316384225Y-98674664D01*
X316384221Y-98674667D01*
X316380543Y-98676868D01*
X316166818Y-98848094D01*
X315978308Y-99046742D01*
X315818502Y-99269136D01*
X315690357Y-99511161D01*
X315688885Y-99515184D01*
X315688883Y-99515188D01*
X315681814Y-99534506D01*
X315596243Y-99768337D01*
X315537904Y-100035907D01*
X315516417Y-100308918D01*
X281753531Y-100308918D01*
X290323530Y-91738918D01*
X315516417Y-91738918D01*
X315532182Y-92012320D01*
X315533007Y-92016525D01*
X315533008Y-92016533D01*
X315556825Y-92137928D01*
X315584905Y-92281053D01*
X315586292Y-92285103D01*
X315586293Y-92285108D01*
X315656393Y-92489852D01*
X315673612Y-92540144D01*
X315796660Y-92784799D01*
X315799086Y-92788328D01*
X315799089Y-92788334D01*
X315844996Y-92855128D01*
X315951774Y-93010490D01*
X316136082Y-93213043D01*
X316346175Y-93388707D01*
X316349816Y-93390991D01*
X316574524Y-93531951D01*
X316574528Y-93531953D01*
X316578164Y-93534234D01*
X316646044Y-93564883D01*
X316823845Y-93645164D01*
X316823849Y-93645166D01*
X316827757Y-93646930D01*
X316831877Y-93648150D01*
X316831876Y-93648150D01*
X317086223Y-93723491D01*
X317086227Y-93723492D01*
X317090336Y-93724709D01*
X317094570Y-93725357D01*
X317094575Y-93725358D01*
X317356798Y-93765483D01*
X317356800Y-93765483D01*
X317361040Y-93766132D01*
X317500412Y-93768322D01*
X317630571Y-93770367D01*
X317630577Y-93770367D01*
X317634862Y-93770434D01*
X317906735Y-93737534D01*
X318171627Y-93668041D01*
X318175587Y-93666401D01*
X318175592Y-93666399D01*
X318298132Y-93615641D01*
X318424636Y-93563241D01*
X318661082Y-93425073D01*
X318876589Y-93256094D01*
X318918309Y-93213043D01*
X319064186Y-93062509D01*
X319067169Y-93059431D01*
X319069702Y-93055983D01*
X319069706Y-93055978D01*
X319212410Y-92861710D01*
X319229295Y-92838723D01*
X319256654Y-92788334D01*
X319357918Y-92601830D01*
X319357919Y-92601828D01*
X319359968Y-92598054D01*
X319456769Y-92341877D01*
X319481607Y-92233427D01*
X319516949Y-92079117D01*
X319516950Y-92079113D01*
X319517907Y-92074933D01*
X319528650Y-91954565D01*
X319542031Y-91804627D01*
X319542031Y-91804625D01*
X319542251Y-91802161D01*
X319542693Y-91760000D01*
X319524067Y-91486778D01*
X319468532Y-91218612D01*
X319377117Y-90960465D01*
X319251513Y-90717112D01*
X319241540Y-90702921D01*
X319096508Y-90496562D01*
X319094045Y-90493057D01*
X318907625Y-90292445D01*
X318904310Y-90289731D01*
X318904306Y-90289728D01*
X318699023Y-90121706D01*
X318695705Y-90118990D01*
X318462204Y-89975901D01*
X318458268Y-89974173D01*
X318215373Y-89867549D01*
X318215369Y-89867548D01*
X318211445Y-89865825D01*
X317948066Y-89790800D01*
X317943824Y-89790196D01*
X317943818Y-89790195D01*
X317743334Y-89761662D01*
X317676943Y-89752213D01*
X317533089Y-89751460D01*
X317407377Y-89750802D01*
X317407371Y-89750802D01*
X317403091Y-89750780D01*
X317398847Y-89751339D01*
X317398843Y-89751339D01*
X317279802Y-89767011D01*
X317131578Y-89786525D01*
X317127438Y-89787658D01*
X317127436Y-89787658D01*
X317054508Y-89807609D01*
X316867428Y-89858788D01*
X316863480Y-89860472D01*
X316619482Y-89964546D01*
X316619478Y-89964548D01*
X316615530Y-89966232D01*
X316595625Y-89978145D01*
X316384225Y-90104664D01*
X316384221Y-90104667D01*
X316380543Y-90106868D01*
X316166818Y-90278094D01*
X315978308Y-90476742D01*
X315818502Y-90699136D01*
X315690357Y-90941161D01*
X315688885Y-90945184D01*
X315688883Y-90945188D01*
X315681814Y-90964506D01*
X315596243Y-91198337D01*
X315537904Y-91465907D01*
X315516417Y-91738918D01*
X290323530Y-91738918D01*
X294351673Y-87710775D01*
X311783280Y-87710775D01*
X311792576Y-87722789D01*
X311827140Y-87746992D01*
X311836636Y-87752475D01*
X312021883Y-87838857D01*
X312032175Y-87842603D01*
X312229608Y-87895505D01*
X312240403Y-87897408D01*
X312444025Y-87915223D01*
X312454975Y-87915223D01*
X312658597Y-87897408D01*
X312669392Y-87895505D01*
X312866825Y-87842603D01*
X312877117Y-87838857D01*
X313062364Y-87752475D01*
X313071860Y-87746992D01*
X313107262Y-87722203D01*
X313115637Y-87711726D01*
X313108568Y-87698278D01*
X312462312Y-87052022D01*
X312448368Y-87044408D01*
X312446535Y-87044539D01*
X312439920Y-87048790D01*
X311789710Y-87699000D01*
X311783280Y-87710775D01*
X294351673Y-87710775D01*
X295376973Y-86685475D01*
X311214277Y-86685475D01*
X311232092Y-86889097D01*
X311233995Y-86899892D01*
X311286897Y-87097325D01*
X311290643Y-87107617D01*
X311377025Y-87292864D01*
X311382508Y-87302360D01*
X311407297Y-87337762D01*
X311417774Y-87346137D01*
X311431222Y-87339068D01*
X312077478Y-86692812D01*
X312083856Y-86681132D01*
X312813908Y-86681132D01*
X312814039Y-86682965D01*
X312818290Y-86689580D01*
X313468500Y-87339790D01*
X313480275Y-87346220D01*
X313492289Y-87336924D01*
X313516492Y-87302360D01*
X313521975Y-87292864D01*
X313608357Y-87107617D01*
X313612103Y-87097325D01*
X313665005Y-86899892D01*
X313666908Y-86889097D01*
X313684723Y-86685475D01*
X313684723Y-86674525D01*
X313666908Y-86470903D01*
X313665005Y-86460108D01*
X313612103Y-86262675D01*
X313608357Y-86252383D01*
X313521975Y-86067136D01*
X313516492Y-86057640D01*
X313491703Y-86022238D01*
X313481226Y-86013863D01*
X313467778Y-86020932D01*
X312821522Y-86667188D01*
X312813908Y-86681132D01*
X312083856Y-86681132D01*
X312085092Y-86678868D01*
X312084961Y-86677035D01*
X312080710Y-86670420D01*
X311430500Y-86020210D01*
X311418725Y-86013780D01*
X311406711Y-86023076D01*
X311382508Y-86057640D01*
X311377025Y-86067136D01*
X311290643Y-86252383D01*
X311286897Y-86262675D01*
X311233995Y-86460108D01*
X311232092Y-86470903D01*
X311214277Y-86674525D01*
X311214277Y-86685475D01*
X295376973Y-86685475D01*
X297151314Y-84911134D01*
X311218000Y-84911134D01*
X311224755Y-84973316D01*
X311275885Y-85109705D01*
X311363239Y-85226261D01*
X311479795Y-85313615D01*
X311616184Y-85364745D01*
X311678366Y-85371500D01*
X311775205Y-85371500D01*
X311843326Y-85391502D01*
X311889819Y-85445158D01*
X311899923Y-85515432D01*
X311870429Y-85580012D01*
X311838206Y-85606618D01*
X311827149Y-85613002D01*
X311791738Y-85637797D01*
X311783363Y-85648274D01*
X311790432Y-85661722D01*
X312436688Y-86307978D01*
X312450632Y-86315592D01*
X312452465Y-86315461D01*
X312459080Y-86311210D01*
X313109290Y-85661000D01*
X313115720Y-85649225D01*
X313106424Y-85637211D01*
X313071851Y-85613002D01*
X313060794Y-85606618D01*
X313011801Y-85555235D01*
X312998366Y-85485521D01*
X313024753Y-85419611D01*
X313082586Y-85378429D01*
X313123795Y-85371500D01*
X313220634Y-85371500D01*
X313282816Y-85364745D01*
X313419205Y-85313615D01*
X313535761Y-85226261D01*
X313623115Y-85109705D01*
X313674245Y-84973316D01*
X313681000Y-84911134D01*
X313681000Y-83368866D01*
X313674245Y-83306684D01*
X313623115Y-83170295D01*
X313535761Y-83053739D01*
X313419205Y-82966385D01*
X313282816Y-82915255D01*
X313220634Y-82908500D01*
X311678366Y-82908500D01*
X311616184Y-82915255D01*
X311479795Y-82966385D01*
X311363239Y-83053739D01*
X311275885Y-83170295D01*
X311224755Y-83306684D01*
X311218000Y-83368866D01*
X311218000Y-84911134D01*
X297151314Y-84911134D01*
X300483530Y-81578918D01*
X315516417Y-81578918D01*
X315532182Y-81852320D01*
X315533007Y-81856525D01*
X315533008Y-81856533D01*
X315543627Y-81910657D01*
X315584905Y-82121053D01*
X315586292Y-82125103D01*
X315586293Y-82125108D01*
X315607105Y-82185895D01*
X315673612Y-82380144D01*
X315796660Y-82624799D01*
X315799086Y-82628328D01*
X315799089Y-82628334D01*
X315949343Y-82846953D01*
X315951774Y-82850490D01*
X315954661Y-82853663D01*
X315954662Y-82853664D01*
X316009929Y-82914402D01*
X316136082Y-83053043D01*
X316139377Y-83055798D01*
X316139378Y-83055799D01*
X316183882Y-83093010D01*
X316346175Y-83228707D01*
X316349816Y-83230991D01*
X316574524Y-83371951D01*
X316574528Y-83371953D01*
X316578164Y-83374234D01*
X316669558Y-83415500D01*
X316823845Y-83485164D01*
X316823849Y-83485166D01*
X316827757Y-83486930D01*
X316831877Y-83488150D01*
X316831876Y-83488150D01*
X317086223Y-83563491D01*
X317086227Y-83563492D01*
X317090336Y-83564709D01*
X317094570Y-83565357D01*
X317094575Y-83565358D01*
X317356798Y-83605483D01*
X317356800Y-83605483D01*
X317361040Y-83606132D01*
X317500412Y-83608322D01*
X317630571Y-83610367D01*
X317630577Y-83610367D01*
X317634862Y-83610434D01*
X317906735Y-83577534D01*
X318171627Y-83508041D01*
X318175587Y-83506401D01*
X318175592Y-83506399D01*
X318395040Y-83415500D01*
X318424636Y-83403241D01*
X318542859Y-83334157D01*
X318657379Y-83267237D01*
X318657380Y-83267236D01*
X318661082Y-83265073D01*
X318876589Y-83096094D01*
X318918309Y-83053043D01*
X319058023Y-82908869D01*
X319067169Y-82899431D01*
X319069702Y-82895983D01*
X319069706Y-82895978D01*
X319226757Y-82682178D01*
X319229295Y-82678723D01*
X319256654Y-82628334D01*
X319357918Y-82441830D01*
X319357919Y-82441828D01*
X319359968Y-82438054D01*
X319456769Y-82181877D01*
X319517907Y-81914933D01*
X319542251Y-81642161D01*
X319542693Y-81600000D01*
X319524067Y-81326778D01*
X319468532Y-81058612D01*
X319377117Y-80800465D01*
X319251513Y-80557112D01*
X319241540Y-80542921D01*
X319147508Y-80409128D01*
X319094045Y-80333057D01*
X319000187Y-80232054D01*
X318910546Y-80135588D01*
X318910543Y-80135585D01*
X318907625Y-80132445D01*
X318904310Y-80129731D01*
X318904306Y-80129728D01*
X318699023Y-79961706D01*
X318695705Y-79958990D01*
X318462204Y-79815901D01*
X318458268Y-79814173D01*
X318215373Y-79707549D01*
X318215369Y-79707548D01*
X318211445Y-79705825D01*
X317948066Y-79630800D01*
X317943824Y-79630196D01*
X317943818Y-79630195D01*
X317743334Y-79601662D01*
X317676943Y-79592213D01*
X317533089Y-79591460D01*
X317407377Y-79590802D01*
X317407371Y-79590802D01*
X317403091Y-79590780D01*
X317398847Y-79591339D01*
X317398843Y-79591339D01*
X317279802Y-79607011D01*
X317131578Y-79626525D01*
X317127438Y-79627658D01*
X317127436Y-79627658D01*
X317054508Y-79647609D01*
X316867428Y-79698788D01*
X316863480Y-79700472D01*
X316619482Y-79804546D01*
X316619478Y-79804548D01*
X316615530Y-79806232D01*
X316598808Y-79816240D01*
X316384225Y-79944664D01*
X316384221Y-79944667D01*
X316380543Y-79946868D01*
X316166818Y-80118094D01*
X316086311Y-80202931D01*
X316012472Y-80280741D01*
X315978308Y-80316742D01*
X315818502Y-80539136D01*
X315690357Y-80781161D01*
X315688885Y-80785184D01*
X315688883Y-80785188D01*
X315681814Y-80804506D01*
X315596243Y-81038337D01*
X315537904Y-81305907D01*
X315516417Y-81578918D01*
X300483530Y-81578918D01*
X301397600Y-80664848D01*
X301406381Y-80656858D01*
X301406390Y-80656850D01*
X301413080Y-80652605D01*
X301461621Y-80600914D01*
X301464375Y-80598073D01*
X301484926Y-80577522D01*
X301487638Y-80574026D01*
X301495349Y-80564997D01*
X301526972Y-80531322D01*
X301537301Y-80512534D01*
X301548158Y-80496005D01*
X301556447Y-80485320D01*
X301556448Y-80485318D01*
X301561304Y-80479058D01*
X301579657Y-80436645D01*
X301584868Y-80426008D01*
X301607124Y-80385526D01*
X301610907Y-80370794D01*
X301612457Y-80364755D01*
X301618859Y-80346053D01*
X301627379Y-80326366D01*
X301632220Y-80295803D01*
X301634605Y-80280741D01*
X301637013Y-80269115D01*
X301646529Y-80232054D01*
X301646529Y-80232053D01*
X301648500Y-80224377D01*
X301648500Y-80202931D01*
X301650051Y-80183220D01*
X301652166Y-80169867D01*
X301653406Y-80162038D01*
X301649059Y-80116053D01*
X301648500Y-80104195D01*
X301648500Y-73638918D01*
X315516417Y-73638918D01*
X315532182Y-73912320D01*
X315533007Y-73916525D01*
X315533008Y-73916533D01*
X315543627Y-73970657D01*
X315584905Y-74181053D01*
X315586292Y-74185103D01*
X315586293Y-74185108D01*
X315607105Y-74245895D01*
X315673612Y-74440144D01*
X315796660Y-74684799D01*
X315799086Y-74688328D01*
X315799089Y-74688334D01*
X315949343Y-74906953D01*
X315951774Y-74910490D01*
X316136082Y-75113043D01*
X316346175Y-75288707D01*
X316349816Y-75290991D01*
X316574524Y-75431951D01*
X316574528Y-75431953D01*
X316578164Y-75434234D01*
X316646044Y-75464883D01*
X316823845Y-75545164D01*
X316823849Y-75545166D01*
X316827757Y-75546930D01*
X316831877Y-75548150D01*
X316831876Y-75548150D01*
X317086223Y-75623491D01*
X317086227Y-75623492D01*
X317090336Y-75624709D01*
X317094570Y-75625357D01*
X317094575Y-75625358D01*
X317356798Y-75665483D01*
X317356800Y-75665483D01*
X317361040Y-75666132D01*
X317500412Y-75668322D01*
X317630571Y-75670367D01*
X317630577Y-75670367D01*
X317634862Y-75670434D01*
X317906735Y-75637534D01*
X318171627Y-75568041D01*
X318175587Y-75566401D01*
X318175592Y-75566399D01*
X318298132Y-75515641D01*
X318424636Y-75463241D01*
X318661082Y-75325073D01*
X318876589Y-75156094D01*
X318918309Y-75113043D01*
X319064186Y-74962509D01*
X319067169Y-74959431D01*
X319069702Y-74955983D01*
X319069706Y-74955978D01*
X319226757Y-74742178D01*
X319229295Y-74738723D01*
X319256654Y-74688334D01*
X319357918Y-74501830D01*
X319357919Y-74501828D01*
X319359968Y-74498054D01*
X319456769Y-74241877D01*
X319517907Y-73974933D01*
X319542251Y-73702161D01*
X319542693Y-73660000D01*
X319540965Y-73634648D01*
X319524359Y-73391055D01*
X319524358Y-73391049D01*
X319524067Y-73386778D01*
X319468532Y-73118612D01*
X319377117Y-72860465D01*
X319251513Y-72617112D01*
X319241540Y-72602921D01*
X319096508Y-72396562D01*
X319094045Y-72393057D01*
X318921104Y-72206950D01*
X318910546Y-72195588D01*
X318910543Y-72195585D01*
X318907625Y-72192445D01*
X318904310Y-72189731D01*
X318904306Y-72189728D01*
X318699023Y-72021706D01*
X318695705Y-72018990D01*
X318462204Y-71875901D01*
X318457033Y-71873631D01*
X318215373Y-71767549D01*
X318215369Y-71767548D01*
X318211445Y-71765825D01*
X317948066Y-71690800D01*
X317943824Y-71690196D01*
X317943818Y-71690195D01*
X317730272Y-71659803D01*
X317676943Y-71652213D01*
X317533089Y-71651460D01*
X317407377Y-71650802D01*
X317407371Y-71650802D01*
X317403091Y-71650780D01*
X317398847Y-71651339D01*
X317398843Y-71651339D01*
X317279802Y-71667011D01*
X317131578Y-71686525D01*
X317127438Y-71687658D01*
X317127436Y-71687658D01*
X317054508Y-71707609D01*
X316867428Y-71758788D01*
X316863480Y-71760472D01*
X316619482Y-71864546D01*
X316619478Y-71864548D01*
X316615530Y-71866232D01*
X316595625Y-71878145D01*
X316384225Y-72004664D01*
X316384221Y-72004667D01*
X316380543Y-72006868D01*
X316166818Y-72178094D01*
X315978308Y-72376742D01*
X315818502Y-72599136D01*
X315690357Y-72841161D01*
X315688885Y-72845184D01*
X315688883Y-72845188D01*
X315667154Y-72904565D01*
X315596243Y-73098337D01*
X315537904Y-73365907D01*
X315516417Y-73638918D01*
X301648500Y-73638918D01*
X301648500Y-69610775D01*
X311783280Y-69610775D01*
X311792576Y-69622789D01*
X311827140Y-69646992D01*
X311836636Y-69652475D01*
X312021883Y-69738857D01*
X312032175Y-69742603D01*
X312229608Y-69795505D01*
X312240403Y-69797408D01*
X312444025Y-69815223D01*
X312454975Y-69815223D01*
X312658597Y-69797408D01*
X312669392Y-69795505D01*
X312866825Y-69742603D01*
X312877117Y-69738857D01*
X313062364Y-69652475D01*
X313071860Y-69646992D01*
X313107262Y-69622203D01*
X313115637Y-69611726D01*
X313108568Y-69598278D01*
X312462312Y-68952022D01*
X312448368Y-68944408D01*
X312446535Y-68944539D01*
X312439920Y-68948790D01*
X311789710Y-69599000D01*
X311783280Y-69610775D01*
X301648500Y-69610775D01*
X301648500Y-68585475D01*
X311214277Y-68585475D01*
X311232092Y-68789097D01*
X311233995Y-68799892D01*
X311286897Y-68997325D01*
X311290643Y-69007617D01*
X311377025Y-69192864D01*
X311382508Y-69202360D01*
X311407297Y-69237762D01*
X311417774Y-69246137D01*
X311431222Y-69239068D01*
X312077478Y-68592812D01*
X312083856Y-68581132D01*
X312813908Y-68581132D01*
X312814039Y-68582965D01*
X312818290Y-68589580D01*
X313468500Y-69239790D01*
X313480275Y-69246220D01*
X313492289Y-69236924D01*
X313516492Y-69202360D01*
X313521975Y-69192864D01*
X313608357Y-69007617D01*
X313612103Y-68997325D01*
X313665005Y-68799892D01*
X313666908Y-68789097D01*
X313684723Y-68585475D01*
X313684723Y-68574525D01*
X313666908Y-68370903D01*
X313665005Y-68360108D01*
X313612103Y-68162675D01*
X313608357Y-68152383D01*
X313521975Y-67967136D01*
X313516492Y-67957640D01*
X313491703Y-67922238D01*
X313481226Y-67913863D01*
X313467778Y-67920932D01*
X312821522Y-68567188D01*
X312813908Y-68581132D01*
X312083856Y-68581132D01*
X312085092Y-68578868D01*
X312084961Y-68577035D01*
X312080710Y-68570420D01*
X311430500Y-67920210D01*
X311418725Y-67913780D01*
X311406711Y-67923076D01*
X311382508Y-67957640D01*
X311377025Y-67967136D01*
X311290643Y-68152383D01*
X311286897Y-68162675D01*
X311233995Y-68360108D01*
X311232092Y-68370903D01*
X311214277Y-68574525D01*
X311214277Y-68585475D01*
X301648500Y-68585475D01*
X301648500Y-66811134D01*
X311218000Y-66811134D01*
X311224755Y-66873316D01*
X311275885Y-67009705D01*
X311363239Y-67126261D01*
X311479795Y-67213615D01*
X311616184Y-67264745D01*
X311678366Y-67271500D01*
X311775205Y-67271500D01*
X311843326Y-67291502D01*
X311889819Y-67345158D01*
X311899923Y-67415432D01*
X311870429Y-67480012D01*
X311838206Y-67506618D01*
X311827149Y-67513002D01*
X311791738Y-67537797D01*
X311783363Y-67548274D01*
X311790432Y-67561722D01*
X312436688Y-68207978D01*
X312450632Y-68215592D01*
X312452465Y-68215461D01*
X312459080Y-68211210D01*
X313109290Y-67561000D01*
X313115720Y-67549225D01*
X313106424Y-67537211D01*
X313071851Y-67513002D01*
X313060794Y-67506618D01*
X313011801Y-67455235D01*
X312998366Y-67385521D01*
X313024753Y-67319611D01*
X313082586Y-67278429D01*
X313123795Y-67271500D01*
X313220634Y-67271500D01*
X313282816Y-67264745D01*
X313419205Y-67213615D01*
X313535761Y-67126261D01*
X313623115Y-67009705D01*
X313674245Y-66873316D01*
X313681000Y-66811134D01*
X313681000Y-65268866D01*
X313674245Y-65206684D01*
X313623115Y-65070295D01*
X313535761Y-64953739D01*
X313419205Y-64866385D01*
X313282816Y-64815255D01*
X313220634Y-64808500D01*
X311678366Y-64808500D01*
X311616184Y-64815255D01*
X311479795Y-64866385D01*
X311363239Y-64953739D01*
X311275885Y-65070295D01*
X311224755Y-65206684D01*
X311218000Y-65268866D01*
X311218000Y-66811134D01*
X301648500Y-66811134D01*
X301648500Y-63478918D01*
X315516417Y-63478918D01*
X315532182Y-63752320D01*
X315533007Y-63756525D01*
X315533008Y-63756533D01*
X315543627Y-63810657D01*
X315584905Y-64021053D01*
X315586292Y-64025103D01*
X315586293Y-64025108D01*
X315607105Y-64085895D01*
X315673612Y-64280144D01*
X315796660Y-64524799D01*
X315799086Y-64528328D01*
X315799089Y-64528334D01*
X315949343Y-64746953D01*
X315951774Y-64750490D01*
X315954661Y-64753663D01*
X315954662Y-64753664D01*
X316068592Y-64878872D01*
X316136082Y-64953043D01*
X316139377Y-64955798D01*
X316139378Y-64955799D01*
X316182910Y-64992197D01*
X316346175Y-65128707D01*
X316349816Y-65130991D01*
X316574524Y-65271951D01*
X316574528Y-65271953D01*
X316578164Y-65274234D01*
X316646044Y-65304883D01*
X316823845Y-65385164D01*
X316823849Y-65385166D01*
X316827757Y-65386930D01*
X316831877Y-65388150D01*
X316831876Y-65388150D01*
X317086223Y-65463491D01*
X317086227Y-65463492D01*
X317090336Y-65464709D01*
X317094570Y-65465357D01*
X317094575Y-65465358D01*
X317356798Y-65505483D01*
X317356800Y-65505483D01*
X317361040Y-65506132D01*
X317500412Y-65508322D01*
X317630571Y-65510367D01*
X317630577Y-65510367D01*
X317634862Y-65510434D01*
X317906735Y-65477534D01*
X318171627Y-65408041D01*
X318175587Y-65406401D01*
X318175592Y-65406399D01*
X318298132Y-65355641D01*
X318424636Y-65303241D01*
X318542859Y-65234157D01*
X318657379Y-65167237D01*
X318657380Y-65167236D01*
X318661082Y-65165073D01*
X318876589Y-64996094D01*
X318880366Y-64992197D01*
X319058023Y-64808869D01*
X319067169Y-64799431D01*
X319069702Y-64795983D01*
X319069706Y-64795978D01*
X319226757Y-64582178D01*
X319229295Y-64578723D01*
X319256654Y-64528334D01*
X319357918Y-64341830D01*
X319357919Y-64341828D01*
X319359968Y-64338054D01*
X319456769Y-64081877D01*
X319517907Y-63814933D01*
X319542251Y-63542161D01*
X319542693Y-63500000D01*
X319524067Y-63226778D01*
X319468532Y-62958612D01*
X319377117Y-62700465D01*
X319251513Y-62457112D01*
X319241540Y-62442921D01*
X319096508Y-62236562D01*
X319094045Y-62233057D01*
X318907625Y-62032445D01*
X318904310Y-62029731D01*
X318904306Y-62029728D01*
X318699023Y-61861706D01*
X318695705Y-61858990D01*
X318462204Y-61715901D01*
X318458268Y-61714173D01*
X318215373Y-61607549D01*
X318215369Y-61607548D01*
X318211445Y-61605825D01*
X317948066Y-61530800D01*
X317943824Y-61530196D01*
X317943818Y-61530195D01*
X317743334Y-61501662D01*
X317676943Y-61492213D01*
X317533089Y-61491460D01*
X317407377Y-61490802D01*
X317407371Y-61490802D01*
X317403091Y-61490780D01*
X317398847Y-61491339D01*
X317398843Y-61491339D01*
X317279802Y-61507011D01*
X317131578Y-61526525D01*
X317127438Y-61527658D01*
X317127436Y-61527658D01*
X317054508Y-61547609D01*
X316867428Y-61598788D01*
X316863480Y-61600472D01*
X316619482Y-61704546D01*
X316619478Y-61704548D01*
X316615530Y-61706232D01*
X316595625Y-61718145D01*
X316384225Y-61844664D01*
X316384221Y-61844667D01*
X316380543Y-61846868D01*
X316166818Y-62018094D01*
X315978308Y-62216742D01*
X315818502Y-62439136D01*
X315690357Y-62681161D01*
X315688885Y-62685184D01*
X315688883Y-62685188D01*
X315681814Y-62704506D01*
X315596243Y-62938337D01*
X315537904Y-63205907D01*
X315516417Y-63478918D01*
X301648500Y-63478918D01*
X301648500Y-55538918D01*
X315516417Y-55538918D01*
X315532182Y-55812320D01*
X315533007Y-55816525D01*
X315533008Y-55816533D01*
X315543627Y-55870657D01*
X315584905Y-56081053D01*
X315586292Y-56085103D01*
X315586293Y-56085108D01*
X315607105Y-56145895D01*
X315673612Y-56340144D01*
X315796660Y-56584799D01*
X315799086Y-56588328D01*
X315799089Y-56588334D01*
X315949343Y-56806953D01*
X315951774Y-56810490D01*
X316136082Y-57013043D01*
X316346175Y-57188707D01*
X316349816Y-57190991D01*
X316574524Y-57331951D01*
X316574528Y-57331953D01*
X316578164Y-57334234D01*
X316646044Y-57364883D01*
X316823845Y-57445164D01*
X316823849Y-57445166D01*
X316827757Y-57446930D01*
X316831877Y-57448150D01*
X316831876Y-57448150D01*
X317086223Y-57523491D01*
X317086227Y-57523492D01*
X317090336Y-57524709D01*
X317094570Y-57525357D01*
X317094575Y-57525358D01*
X317356798Y-57565483D01*
X317356800Y-57565483D01*
X317361040Y-57566132D01*
X317500412Y-57568322D01*
X317630571Y-57570367D01*
X317630577Y-57570367D01*
X317634862Y-57570434D01*
X317906735Y-57537534D01*
X318171627Y-57468041D01*
X318175587Y-57466401D01*
X318175592Y-57466399D01*
X318298131Y-57415641D01*
X318424636Y-57363241D01*
X318661082Y-57225073D01*
X318876589Y-57056094D01*
X318918309Y-57013043D01*
X319064186Y-56862509D01*
X319067169Y-56859431D01*
X319069702Y-56855983D01*
X319069706Y-56855978D01*
X319226757Y-56642178D01*
X319229295Y-56638723D01*
X319256654Y-56588334D01*
X319357918Y-56401830D01*
X319357919Y-56401828D01*
X319359968Y-56398054D01*
X319456769Y-56141877D01*
X319517907Y-55874933D01*
X319542251Y-55602161D01*
X319542693Y-55560000D01*
X319539864Y-55518500D01*
X319524359Y-55291055D01*
X319524358Y-55291049D01*
X319524067Y-55286778D01*
X319468532Y-55018612D01*
X319377117Y-54760465D01*
X319251513Y-54517112D01*
X319241540Y-54502921D01*
X319096508Y-54296562D01*
X319094045Y-54293057D01*
X318976175Y-54166214D01*
X318910546Y-54095588D01*
X318910543Y-54095585D01*
X318907625Y-54092445D01*
X318904310Y-54089731D01*
X318904306Y-54089728D01*
X318699023Y-53921706D01*
X318695705Y-53918990D01*
X318462204Y-53775901D01*
X318458268Y-53774173D01*
X318215373Y-53667549D01*
X318215369Y-53667548D01*
X318211445Y-53665825D01*
X317948066Y-53590800D01*
X317943824Y-53590196D01*
X317943818Y-53590195D01*
X317743334Y-53561662D01*
X317676943Y-53552213D01*
X317533089Y-53551460D01*
X317407377Y-53550802D01*
X317407371Y-53550802D01*
X317403091Y-53550780D01*
X317398847Y-53551339D01*
X317398843Y-53551339D01*
X317279802Y-53567011D01*
X317131578Y-53586525D01*
X317127438Y-53587658D01*
X317127436Y-53587658D01*
X317054508Y-53607609D01*
X316867428Y-53658788D01*
X316863480Y-53660472D01*
X316619482Y-53764546D01*
X316619478Y-53764548D01*
X316615530Y-53766232D01*
X316595625Y-53778145D01*
X316384225Y-53904664D01*
X316384221Y-53904667D01*
X316380543Y-53906868D01*
X316166818Y-54078094D01*
X315978308Y-54276742D01*
X315818502Y-54499136D01*
X315690357Y-54741161D01*
X315688885Y-54745184D01*
X315688883Y-54745188D01*
X315636168Y-54889237D01*
X315596243Y-54998337D01*
X315537904Y-55265907D01*
X315516417Y-55538918D01*
X301648500Y-55538918D01*
X301648500Y-51510775D01*
X311783280Y-51510775D01*
X311792576Y-51522789D01*
X311827140Y-51546992D01*
X311836636Y-51552475D01*
X312021883Y-51638857D01*
X312032175Y-51642603D01*
X312229608Y-51695505D01*
X312240403Y-51697408D01*
X312444025Y-51715223D01*
X312454975Y-51715223D01*
X312658597Y-51697408D01*
X312669392Y-51695505D01*
X312866825Y-51642603D01*
X312877117Y-51638857D01*
X313062364Y-51552475D01*
X313071860Y-51546992D01*
X313107262Y-51522203D01*
X313115637Y-51511726D01*
X313108568Y-51498278D01*
X312462312Y-50852022D01*
X312448368Y-50844408D01*
X312446535Y-50844539D01*
X312439920Y-50848790D01*
X311789710Y-51499000D01*
X311783280Y-51510775D01*
X301648500Y-51510775D01*
X301648500Y-50485475D01*
X311214277Y-50485475D01*
X311232092Y-50689097D01*
X311233995Y-50699892D01*
X311286897Y-50897325D01*
X311290643Y-50907617D01*
X311377025Y-51092864D01*
X311382508Y-51102360D01*
X311407297Y-51137762D01*
X311417774Y-51146137D01*
X311431222Y-51139068D01*
X312077478Y-50492812D01*
X312083856Y-50481132D01*
X312813908Y-50481132D01*
X312814039Y-50482965D01*
X312818290Y-50489580D01*
X313468500Y-51139790D01*
X313480275Y-51146220D01*
X313492289Y-51136924D01*
X313516492Y-51102360D01*
X313521975Y-51092864D01*
X313608357Y-50907617D01*
X313612103Y-50897325D01*
X313665005Y-50699892D01*
X313666908Y-50689097D01*
X313684723Y-50485475D01*
X313684723Y-50474525D01*
X313666908Y-50270903D01*
X313665005Y-50260108D01*
X313612103Y-50062675D01*
X313608357Y-50052383D01*
X313521975Y-49867136D01*
X313516492Y-49857640D01*
X313491703Y-49822238D01*
X313481226Y-49813863D01*
X313467778Y-49820932D01*
X312821522Y-50467188D01*
X312813908Y-50481132D01*
X312083856Y-50481132D01*
X312085092Y-50478868D01*
X312084961Y-50477035D01*
X312080710Y-50470420D01*
X311430500Y-49820210D01*
X311418725Y-49813780D01*
X311406711Y-49823076D01*
X311382508Y-49857640D01*
X311377025Y-49867136D01*
X311290643Y-50052383D01*
X311286897Y-50062675D01*
X311233995Y-50260108D01*
X311232092Y-50270903D01*
X311214277Y-50474525D01*
X311214277Y-50485475D01*
X301648500Y-50485475D01*
X301648500Y-48711134D01*
X311218000Y-48711134D01*
X311224755Y-48773316D01*
X311275885Y-48909705D01*
X311363239Y-49026261D01*
X311479795Y-49113615D01*
X311616184Y-49164745D01*
X311678366Y-49171500D01*
X311775205Y-49171500D01*
X311843326Y-49191502D01*
X311889819Y-49245158D01*
X311899923Y-49315432D01*
X311870429Y-49380012D01*
X311838206Y-49406618D01*
X311827149Y-49413002D01*
X311791738Y-49437797D01*
X311783363Y-49448274D01*
X311790432Y-49461722D01*
X312436688Y-50107978D01*
X312450632Y-50115592D01*
X312452465Y-50115461D01*
X312459080Y-50111210D01*
X313109290Y-49461000D01*
X313115720Y-49449225D01*
X313106424Y-49437211D01*
X313071851Y-49413002D01*
X313060794Y-49406618D01*
X313011801Y-49355235D01*
X312998366Y-49285521D01*
X313024753Y-49219611D01*
X313082586Y-49178429D01*
X313123795Y-49171500D01*
X313220634Y-49171500D01*
X313282816Y-49164745D01*
X313419205Y-49113615D01*
X313535761Y-49026261D01*
X313623115Y-48909705D01*
X313674245Y-48773316D01*
X313681000Y-48711134D01*
X313681000Y-47168866D01*
X313674245Y-47106684D01*
X313623115Y-46970295D01*
X313535761Y-46853739D01*
X313419205Y-46766385D01*
X313282816Y-46715255D01*
X313220634Y-46708500D01*
X311678366Y-46708500D01*
X311616184Y-46715255D01*
X311479795Y-46766385D01*
X311363239Y-46853739D01*
X311275885Y-46970295D01*
X311224755Y-47106684D01*
X311218000Y-47168866D01*
X311218000Y-48711134D01*
X301648500Y-48711134D01*
X301648500Y-45378918D01*
X315516417Y-45378918D01*
X315532182Y-45652320D01*
X315533007Y-45656525D01*
X315533008Y-45656533D01*
X315543627Y-45710657D01*
X315584905Y-45921053D01*
X315586292Y-45925103D01*
X315586293Y-45925108D01*
X315641513Y-46086391D01*
X315673612Y-46180144D01*
X315675539Y-46183975D01*
X315764309Y-46360475D01*
X315796660Y-46424799D01*
X315799086Y-46428328D01*
X315799089Y-46428334D01*
X315916144Y-46598648D01*
X315951774Y-46650490D01*
X315954661Y-46653663D01*
X315954662Y-46653664D01*
X316009929Y-46714402D01*
X316136082Y-46853043D01*
X316139377Y-46855798D01*
X316139378Y-46855799D01*
X316170516Y-46881834D01*
X316346175Y-47028707D01*
X316349816Y-47030991D01*
X316574524Y-47171951D01*
X316574528Y-47171953D01*
X316578164Y-47174234D01*
X316681238Y-47220774D01*
X316823845Y-47285164D01*
X316823849Y-47285166D01*
X316827757Y-47286930D01*
X316831877Y-47288150D01*
X316831876Y-47288150D01*
X317086223Y-47363491D01*
X317086227Y-47363492D01*
X317090336Y-47364709D01*
X317094570Y-47365357D01*
X317094575Y-47365358D01*
X317356798Y-47405483D01*
X317356800Y-47405483D01*
X317361040Y-47406132D01*
X317500412Y-47408322D01*
X317630571Y-47410367D01*
X317630577Y-47410367D01*
X317634862Y-47410434D01*
X317906735Y-47377534D01*
X318171627Y-47308041D01*
X318175587Y-47306401D01*
X318175592Y-47306399D01*
X318347398Y-47235234D01*
X318424636Y-47203241D01*
X318568763Y-47119020D01*
X318657379Y-47067237D01*
X318657380Y-47067236D01*
X318661082Y-47065073D01*
X318876589Y-46896094D01*
X318886477Y-46885891D01*
X319058023Y-46708869D01*
X319067169Y-46699431D01*
X319069702Y-46695983D01*
X319069706Y-46695978D01*
X319226757Y-46482178D01*
X319229295Y-46478723D01*
X319256654Y-46428334D01*
X319357918Y-46241830D01*
X319357919Y-46241828D01*
X319359968Y-46238054D01*
X319453476Y-45990592D01*
X319455251Y-45985895D01*
X319455252Y-45985891D01*
X319456769Y-45981877D01*
X319517907Y-45714933D01*
X319521590Y-45673673D01*
X319542031Y-45444627D01*
X319542031Y-45444625D01*
X319542251Y-45442161D01*
X319542693Y-45400000D01*
X319534236Y-45275943D01*
X319524359Y-45131055D01*
X319524358Y-45131049D01*
X319524067Y-45126778D01*
X319515266Y-45084277D01*
X319491823Y-44971081D01*
X319468532Y-44858612D01*
X319377117Y-44600465D01*
X319251513Y-44357112D01*
X319241540Y-44342921D01*
X319096508Y-44136562D01*
X319094045Y-44133057D01*
X318993757Y-44025134D01*
X318910546Y-43935588D01*
X318910543Y-43935585D01*
X318907625Y-43932445D01*
X318904310Y-43929731D01*
X318904306Y-43929728D01*
X318764136Y-43815000D01*
X318695705Y-43758990D01*
X318462204Y-43615901D01*
X318458268Y-43614173D01*
X318215373Y-43507549D01*
X318215369Y-43507548D01*
X318211445Y-43505825D01*
X317948066Y-43430800D01*
X317943824Y-43430196D01*
X317943818Y-43430195D01*
X317743334Y-43401662D01*
X317676943Y-43392213D01*
X317533089Y-43391460D01*
X317407377Y-43390802D01*
X317407371Y-43390802D01*
X317403091Y-43390780D01*
X317398847Y-43391339D01*
X317398843Y-43391339D01*
X317279802Y-43407011D01*
X317131578Y-43426525D01*
X317127438Y-43427658D01*
X317127436Y-43427658D01*
X317054508Y-43447609D01*
X316867428Y-43498788D01*
X316863480Y-43500472D01*
X316619482Y-43604546D01*
X316619478Y-43604548D01*
X316615530Y-43606232D01*
X316595625Y-43618145D01*
X316384225Y-43744664D01*
X316384221Y-43744667D01*
X316380543Y-43746868D01*
X316166818Y-43918094D01*
X315978308Y-44116742D01*
X315818502Y-44339136D01*
X315690357Y-44581161D01*
X315688885Y-44585184D01*
X315688883Y-44585188D01*
X315615459Y-44785826D01*
X315596243Y-44838337D01*
X315537904Y-45105907D01*
X315516417Y-45378918D01*
X301648500Y-45378918D01*
X301648500Y-40745369D01*
X345951991Y-40745369D01*
X345961872Y-40757857D01*
X346011304Y-40790887D01*
X346021407Y-40796373D01*
X346210560Y-40877640D01*
X346221503Y-40881195D01*
X346422289Y-40926629D01*
X346433699Y-40928131D01*
X346639411Y-40936213D01*
X346650893Y-40935611D01*
X346854627Y-40906072D01*
X346865823Y-40903384D01*
X347060763Y-40837210D01*
X347071272Y-40832531D01*
X347206135Y-40757004D01*
X347215999Y-40746926D01*
X347213044Y-40739255D01*
X346595811Y-40122021D01*
X346581868Y-40114408D01*
X346580034Y-40114539D01*
X346573420Y-40118790D01*
X345958184Y-40734027D01*
X345951991Y-40745369D01*
X301648500Y-40745369D01*
X301648500Y-39724666D01*
X345395717Y-39724666D01*
X345409181Y-39930088D01*
X345410981Y-39941456D01*
X345461657Y-40140990D01*
X345465495Y-40151828D01*
X345551684Y-40338786D01*
X345557440Y-40348755D01*
X345574972Y-40373563D01*
X345585563Y-40381954D01*
X345598862Y-40374927D01*
X346210979Y-39762811D01*
X346217356Y-39751132D01*
X346947408Y-39751132D01*
X346947539Y-39752966D01*
X346951790Y-39759580D01*
X347568344Y-40376133D01*
X347580719Y-40382890D01*
X347587299Y-40377964D01*
X347665531Y-40238272D01*
X347670210Y-40227763D01*
X347736384Y-40032823D01*
X347739072Y-40021627D01*
X347768907Y-39815853D01*
X347769537Y-39808470D01*
X347770971Y-39753704D01*
X347770728Y-39746305D01*
X347751703Y-39539246D01*
X347749606Y-39527932D01*
X347693725Y-39329794D01*
X347689603Y-39319055D01*
X347598548Y-39134414D01*
X347592659Y-39124805D01*
X347581458Y-39116399D01*
X347569042Y-39123169D01*
X346955021Y-39737189D01*
X346947408Y-39751132D01*
X346217356Y-39751132D01*
X346218592Y-39748868D01*
X346218461Y-39747034D01*
X346214210Y-39740420D01*
X345596004Y-39122215D01*
X345583629Y-39115458D01*
X345577663Y-39119924D01*
X345488060Y-39290230D01*
X345483655Y-39300864D01*
X345422607Y-39497470D01*
X345420215Y-39508724D01*
X345396018Y-39713165D01*
X345395717Y-39724666D01*
X301648500Y-39724666D01*
X301648500Y-37718887D01*
X345394837Y-37718887D01*
X345409063Y-37935933D01*
X345410484Y-37941529D01*
X345410485Y-37941534D01*
X345461184Y-38141158D01*
X345462605Y-38146753D01*
X345553668Y-38344285D01*
X345679204Y-38521914D01*
X345835009Y-38673692D01*
X345839812Y-38676901D01*
X345839819Y-38676907D01*
X345919872Y-38730398D01*
X345943560Y-38750913D01*
X345947450Y-38755239D01*
X346570189Y-39377979D01*
X346584132Y-39385592D01*
X346585966Y-39385461D01*
X346592580Y-39381210D01*
X347216715Y-38757074D01*
X347244244Y-38736235D01*
X347251175Y-38732354D01*
X347251180Y-38732351D01*
X347256213Y-38729532D01*
X347260650Y-38725842D01*
X347260654Y-38725839D01*
X347419008Y-38594137D01*
X347423446Y-38590446D01*
X347562532Y-38423213D01*
X347668813Y-38233435D01*
X347670669Y-38227968D01*
X347670671Y-38227963D01*
X347736874Y-38032935D01*
X347736875Y-38032930D01*
X347738730Y-38027466D01*
X347769941Y-37812205D01*
X347771570Y-37750000D01*
X347751667Y-37533400D01*
X347726192Y-37443070D01*
X347694195Y-37329619D01*
X347692626Y-37324055D01*
X347596423Y-37128974D01*
X347466280Y-36954691D01*
X347344078Y-36841729D01*
X347307633Y-36780800D01*
X347309914Y-36709840D01*
X347349038Y-36652330D01*
X347384136Y-36623140D01*
X347423446Y-36590446D01*
X347562532Y-36423213D01*
X347656509Y-36255405D01*
X347665989Y-36238478D01*
X347665990Y-36238476D01*
X347668813Y-36233435D01*
X347670669Y-36227968D01*
X347670671Y-36227963D01*
X347736874Y-36032935D01*
X347736875Y-36032930D01*
X347738730Y-36027466D01*
X347769941Y-35812205D01*
X347771570Y-35750000D01*
X347751667Y-35533400D01*
X347692626Y-35324055D01*
X347596423Y-35128974D01*
X347520875Y-35027802D01*
X347469733Y-34959315D01*
X347469732Y-34959314D01*
X347466280Y-34954691D01*
X347437057Y-34927677D01*
X347344078Y-34841729D01*
X347307633Y-34780800D01*
X347309914Y-34709840D01*
X347349038Y-34652330D01*
X347354448Y-34647831D01*
X347423446Y-34590446D01*
X347562532Y-34423213D01*
X347668813Y-34233435D01*
X347670669Y-34227968D01*
X347670671Y-34227963D01*
X347736874Y-34032935D01*
X347736875Y-34032930D01*
X347738730Y-34027466D01*
X347769941Y-33812205D01*
X347771570Y-33750000D01*
X347751667Y-33533400D01*
X347692626Y-33324055D01*
X347596423Y-33128974D01*
X347517465Y-33023236D01*
X347492733Y-32956686D01*
X347507907Y-32887330D01*
X347542858Y-32847021D01*
X347614080Y-32793643D01*
X347614081Y-32793642D01*
X347621261Y-32788261D01*
X347708615Y-32671705D01*
X347759745Y-32535316D01*
X347766500Y-32473134D01*
X347766500Y-31026866D01*
X347759745Y-30964684D01*
X347708615Y-30828295D01*
X347621261Y-30711739D01*
X347504705Y-30624385D01*
X347368316Y-30573255D01*
X347306134Y-30566500D01*
X345859866Y-30566500D01*
X345797684Y-30573255D01*
X345661295Y-30624385D01*
X345544739Y-30711739D01*
X345457385Y-30828295D01*
X345406255Y-30964684D01*
X345399500Y-31026866D01*
X345399500Y-32473134D01*
X345406255Y-32535316D01*
X345457385Y-32671705D01*
X345544739Y-32788261D01*
X345551919Y-32793642D01*
X345623269Y-32847116D01*
X345665784Y-32903975D01*
X345670810Y-32974794D01*
X345646654Y-33025948D01*
X345646168Y-33026565D01*
X345586181Y-33102658D01*
X345484905Y-33295154D01*
X345483192Y-33300671D01*
X345422479Y-33496197D01*
X345420403Y-33502882D01*
X345394837Y-33718887D01*
X345409063Y-33935933D01*
X345410484Y-33941529D01*
X345410485Y-33941534D01*
X345434477Y-34036000D01*
X345462605Y-34146753D01*
X345553668Y-34344285D01*
X345557001Y-34349001D01*
X345613677Y-34429195D01*
X345679204Y-34521914D01*
X345683346Y-34525949D01*
X345822741Y-34661741D01*
X345857579Y-34723602D01*
X345853442Y-34794478D01*
X345817899Y-34846726D01*
X345720842Y-34931842D01*
X345717270Y-34936373D01*
X345595170Y-35091256D01*
X345586181Y-35102658D01*
X345484905Y-35295154D01*
X345420403Y-35502882D01*
X345394837Y-35718887D01*
X345409063Y-35935933D01*
X345410484Y-35941529D01*
X345410485Y-35941534D01*
X345449962Y-36096972D01*
X345462605Y-36146753D01*
X345465022Y-36151996D01*
X345495681Y-36218500D01*
X345553668Y-36344285D01*
X345679204Y-36521914D01*
X345683346Y-36525949D01*
X345822741Y-36661741D01*
X345857579Y-36723602D01*
X345853442Y-36794478D01*
X345817899Y-36846726D01*
X345720842Y-36931842D01*
X345717270Y-36936373D01*
X345659527Y-37009620D01*
X345586181Y-37102658D01*
X345484905Y-37295154D01*
X345483192Y-37300671D01*
X345438827Y-37443549D01*
X345420403Y-37502882D01*
X345394837Y-37718887D01*
X301648500Y-37718887D01*
X301648500Y-34710759D01*
X301668502Y-34642638D01*
X301680864Y-34626449D01*
X301724621Y-34577852D01*
X301724622Y-34577851D01*
X301729040Y-34572944D01*
X301812921Y-34427659D01*
X301821223Y-34413279D01*
X301821224Y-34413278D01*
X301824527Y-34407556D01*
X301883542Y-34225928D01*
X301891313Y-34151996D01*
X301902814Y-34042565D01*
X301903504Y-34036000D01*
X301902607Y-34027466D01*
X301884232Y-33852635D01*
X301884232Y-33852633D01*
X301883542Y-33846072D01*
X301824527Y-33664444D01*
X301819519Y-33655769D01*
X301752192Y-33539157D01*
X301729040Y-33499056D01*
X301601253Y-33357134D01*
X301446752Y-33244882D01*
X301440724Y-33242198D01*
X301440722Y-33242197D01*
X301278319Y-33169891D01*
X301278318Y-33169891D01*
X301272288Y-33167206D01*
X301178887Y-33147353D01*
X301091944Y-33128872D01*
X301091939Y-33128872D01*
X301085487Y-33127500D01*
X300894513Y-33127500D01*
X300888061Y-33128872D01*
X300888056Y-33128872D01*
X300801112Y-33147353D01*
X300707712Y-33167206D01*
X300701682Y-33169891D01*
X300701681Y-33169891D01*
X300539278Y-33242197D01*
X300539276Y-33242198D01*
X300533248Y-33244882D01*
X300378747Y-33357134D01*
X300250960Y-33499056D01*
X300227808Y-33539157D01*
X300160482Y-33655769D01*
X300155473Y-33664444D01*
X300096458Y-33846072D01*
X300095768Y-33852633D01*
X300095768Y-33852635D01*
X300077393Y-34027466D01*
X300076496Y-34036000D01*
X300077186Y-34042565D01*
X300088688Y-34151996D01*
X300096458Y-34225928D01*
X300155473Y-34407556D01*
X300158776Y-34413278D01*
X300158777Y-34413279D01*
X300167079Y-34427659D01*
X300250960Y-34572944D01*
X300255378Y-34577851D01*
X300255379Y-34577852D01*
X300299136Y-34626449D01*
X300329854Y-34690456D01*
X300331500Y-34710759D01*
X300331500Y-79816240D01*
X300311498Y-79884361D01*
X300294595Y-79905335D01*
X299831595Y-80368335D01*
X299769283Y-80402361D01*
X299698468Y-80397296D01*
X299641632Y-80354749D01*
X299616821Y-80288229D01*
X299616500Y-80279240D01*
X299616500Y-33694759D01*
X299636502Y-33626638D01*
X299648864Y-33610449D01*
X299651744Y-33607251D01*
X299697040Y-33556944D01*
X299792527Y-33391556D01*
X299851542Y-33209928D01*
X299856177Y-33165834D01*
X299870814Y-33026565D01*
X299871504Y-33020000D01*
X299859742Y-32908091D01*
X299852232Y-32836635D01*
X299852232Y-32836633D01*
X299851542Y-32830072D01*
X299792527Y-32648444D01*
X299697040Y-32483056D01*
X299569253Y-32341134D01*
X299414752Y-32228882D01*
X299408724Y-32226198D01*
X299408722Y-32226197D01*
X299246319Y-32153891D01*
X299246318Y-32153891D01*
X299240288Y-32151206D01*
X299146887Y-32131353D01*
X299059944Y-32112872D01*
X299059939Y-32112872D01*
X299053487Y-32111500D01*
X298862513Y-32111500D01*
X298856061Y-32112872D01*
X298856056Y-32112872D01*
X298769112Y-32131353D01*
X298675712Y-32151206D01*
X298669682Y-32153891D01*
X298669681Y-32153891D01*
X298507278Y-32226197D01*
X298507276Y-32226198D01*
X298501248Y-32228882D01*
X298346747Y-32341134D01*
X298218960Y-32483056D01*
X298123473Y-32648444D01*
X298064458Y-32830072D01*
X298063768Y-32836633D01*
X298063768Y-32836635D01*
X298056258Y-32908091D01*
X298044496Y-33020000D01*
X298045186Y-33026565D01*
X298059824Y-33165834D01*
X298064458Y-33209928D01*
X298123473Y-33391556D01*
X298218960Y-33556944D01*
X298264257Y-33607251D01*
X298267136Y-33610449D01*
X298297854Y-33674456D01*
X298299500Y-33694759D01*
X298299500Y-81070421D01*
X298279498Y-81138542D01*
X298262595Y-81159516D01*
X295979987Y-83442124D01*
X295917675Y-83476150D01*
X295846860Y-83471085D01*
X295797256Y-83437340D01*
X295763668Y-83400037D01*
X295763666Y-83400036D01*
X295759253Y-83395134D01*
X295718423Y-83365469D01*
X295610094Y-83286763D01*
X295610093Y-83286762D01*
X295604752Y-83282882D01*
X295598724Y-83280198D01*
X295598722Y-83280197D01*
X295436319Y-83207891D01*
X295436318Y-83207891D01*
X295430288Y-83205206D01*
X295336888Y-83185353D01*
X295249944Y-83166872D01*
X295249939Y-83166872D01*
X295243487Y-83165500D01*
X295052513Y-83165500D01*
X295046061Y-83166872D01*
X295046056Y-83166872D01*
X294959113Y-83185353D01*
X294865712Y-83205206D01*
X294859682Y-83207891D01*
X294859681Y-83207891D01*
X294697278Y-83280197D01*
X294697276Y-83280198D01*
X294691248Y-83282882D01*
X294542092Y-83391251D01*
X294541837Y-83391436D01*
X294474969Y-83415294D01*
X294467776Y-83415500D01*
X292272224Y-83415500D01*
X292204103Y-83395498D01*
X292198163Y-83391436D01*
X292197909Y-83391251D01*
X292048752Y-83282882D01*
X292042724Y-83280198D01*
X292042722Y-83280197D01*
X291880319Y-83207891D01*
X291880318Y-83207891D01*
X291874288Y-83205206D01*
X291780888Y-83185353D01*
X291693944Y-83166872D01*
X291693939Y-83166872D01*
X291687487Y-83165500D01*
X291496513Y-83165500D01*
X291490061Y-83166872D01*
X291490056Y-83166872D01*
X291403113Y-83185353D01*
X291309712Y-83205206D01*
X291303682Y-83207891D01*
X291303681Y-83207891D01*
X291141278Y-83280197D01*
X291141276Y-83280198D01*
X291135248Y-83282882D01*
X290980747Y-83395134D01*
X290976326Y-83400044D01*
X290976325Y-83400045D01*
X290878105Y-83509130D01*
X290852960Y-83537056D01*
X290757473Y-83702444D01*
X290698458Y-83884072D01*
X290678496Y-84074000D01*
X290698458Y-84263928D01*
X290757473Y-84445556D01*
X290852960Y-84610944D01*
X290980747Y-84752866D01*
X291135248Y-84865118D01*
X291141276Y-84867802D01*
X291141278Y-84867803D01*
X291303681Y-84940109D01*
X291309712Y-84942794D01*
X291403112Y-84962647D01*
X291490056Y-84981128D01*
X291490061Y-84981128D01*
X291496513Y-84982500D01*
X291687487Y-84982500D01*
X291693939Y-84981128D01*
X291693944Y-84981128D01*
X291780888Y-84962647D01*
X291874288Y-84942794D01*
X291880319Y-84940109D01*
X292042722Y-84867803D01*
X292042724Y-84867802D01*
X292048752Y-84865118D01*
X292198163Y-84756564D01*
X292265031Y-84732706D01*
X292272224Y-84732500D01*
X294385421Y-84732500D01*
X294453542Y-84752502D01*
X294500035Y-84806158D01*
X294510139Y-84876432D01*
X294480645Y-84941012D01*
X294474516Y-84947595D01*
X275944395Y-103477716D01*
X275935615Y-103485706D01*
X275935613Y-103485708D01*
X275928920Y-103489955D01*
X275923494Y-103495733D01*
X275923493Y-103495734D01*
X275880396Y-103541628D01*
X275877641Y-103544470D01*
X275857073Y-103565038D01*
X275854356Y-103568541D01*
X275846648Y-103577566D01*
X275815028Y-103611238D01*
X275811207Y-103618189D01*
X275811206Y-103618190D01*
X275804697Y-103630029D01*
X275793843Y-103646553D01*
X275786018Y-103656642D01*
X275780696Y-103663503D01*
X275777549Y-103670775D01*
X275777548Y-103670777D01*
X275762346Y-103705906D01*
X275757124Y-103716566D01*
X275734876Y-103757034D01*
X275729541Y-103777812D01*
X275723142Y-103796502D01*
X275714620Y-103816195D01*
X275709758Y-103846891D01*
X275707394Y-103861819D01*
X275704987Y-103873442D01*
X275693500Y-103918183D01*
X275693500Y-103939630D01*
X275691949Y-103959340D01*
X275688594Y-103980523D01*
X275689340Y-103988414D01*
X275692941Y-104026509D01*
X275693500Y-104038367D01*
X275693500Y-132167241D01*
X275673498Y-132235362D01*
X275661136Y-132251551D01*
X275612960Y-132305056D01*
X275576070Y-132368951D01*
X275557867Y-132400480D01*
X275506485Y-132449473D01*
X275436771Y-132462909D01*
X275370860Y-132436523D01*
X275359653Y-132426575D01*
X176815473Y-33882395D01*
X176807483Y-33873615D01*
X176807481Y-33873613D01*
X176803234Y-33866920D01*
X176751560Y-33818395D01*
X176748719Y-33815641D01*
X176728151Y-33795073D01*
X176724644Y-33792353D01*
X176715622Y-33784647D01*
X176687731Y-33758456D01*
X176681951Y-33753028D01*
X176674999Y-33749206D01*
X176663160Y-33742697D01*
X176646636Y-33731843D01*
X176635950Y-33723555D01*
X176629686Y-33718696D01*
X176622414Y-33715549D01*
X176622412Y-33715548D01*
X176587283Y-33700346D01*
X176576623Y-33695124D01*
X176543102Y-33676695D01*
X176543100Y-33676694D01*
X176536155Y-33672876D01*
X176515377Y-33667541D01*
X176496687Y-33661142D01*
X176476994Y-33652620D01*
X176431370Y-33645394D01*
X176419747Y-33642987D01*
X176391746Y-33635798D01*
X176375006Y-33631500D01*
X176353559Y-33631500D01*
X176333849Y-33629949D01*
X176320495Y-33627834D01*
X176312666Y-33626594D01*
X176266677Y-33630941D01*
X176254822Y-33631500D01*
X141396224Y-33631500D01*
X141328103Y-33611498D01*
X141322163Y-33607436D01*
X141321909Y-33607251D01*
X141172752Y-33498882D01*
X141166724Y-33496198D01*
X141166722Y-33496197D01*
X141004319Y-33423891D01*
X141004318Y-33423891D01*
X140998288Y-33421206D01*
X140885721Y-33397279D01*
X140817944Y-33382872D01*
X140817939Y-33382872D01*
X140811487Y-33381500D01*
X140620513Y-33381500D01*
X140614061Y-33382872D01*
X140614056Y-33382872D01*
X140546279Y-33397279D01*
X140433712Y-33421206D01*
X140427682Y-33423891D01*
X140427681Y-33423891D01*
X140265278Y-33496197D01*
X140265276Y-33496198D01*
X140259248Y-33498882D01*
X140104747Y-33611134D01*
X140100326Y-33616044D01*
X140100325Y-33616045D01*
X139983039Y-33746305D01*
X139976960Y-33753056D01*
X139881473Y-33918444D01*
X139822458Y-34100072D01*
X139821768Y-34106633D01*
X139821768Y-34106635D01*
X139809953Y-34219050D01*
X139802496Y-34290000D01*
X139816965Y-34427659D01*
X139817126Y-34429195D01*
X139804354Y-34499034D01*
X139755852Y-34550881D01*
X139687019Y-34568275D01*
X139619709Y-34545694D01*
X139602721Y-34531461D01*
X139379405Y-34308145D01*
X139345379Y-34245833D01*
X139342500Y-34219050D01*
X139342500Y-30054056D01*
X139343059Y-30042200D01*
X139343059Y-30042197D01*
X139344788Y-30034463D01*
X139342562Y-29963631D01*
X139342500Y-29959673D01*
X139342500Y-29930568D01*
X139341944Y-29926168D01*
X139341012Y-29914330D01*
X139339811Y-29876094D01*
X139339562Y-29868169D01*
X139333580Y-29847579D01*
X139329570Y-29828216D01*
X139327875Y-29814796D01*
X139327875Y-29814795D01*
X139326882Y-29806936D01*
X139323966Y-29799571D01*
X139323965Y-29799567D01*
X139309876Y-29763982D01*
X139306031Y-29752753D01*
X139295356Y-29716010D01*
X139293145Y-29708399D01*
X139282230Y-29689943D01*
X139273531Y-29672187D01*
X139268787Y-29660206D01*
X139265635Y-29652244D01*
X139238480Y-29614868D01*
X139231965Y-29604949D01*
X139212492Y-29572023D01*
X139212489Y-29572019D01*
X139208452Y-29565193D01*
X139193291Y-29550032D01*
X139180449Y-29534997D01*
X139167841Y-29517643D01*
X139132242Y-29488193D01*
X139123463Y-29480204D01*
X139118970Y-29475711D01*
X139084944Y-29413399D01*
X139082755Y-29399786D01*
X139070232Y-29280637D01*
X139070232Y-29280635D01*
X139069542Y-29274072D01*
X139010527Y-29092444D01*
X138915040Y-28927056D01*
X138787253Y-28785134D01*
X138637644Y-28676436D01*
X138594290Y-28620213D01*
X138588215Y-28549477D01*
X138621347Y-28486686D01*
X138683167Y-28451774D01*
X138711705Y-28448500D01*
X349758500Y-28448500D01*
X349826621Y-28468502D01*
G37*
%TD.AperFunction*%
%TA.AperFunction,Conductor*%
G36*
X137708416Y-28468502D02*
G01*
X137754909Y-28522158D01*
X137765013Y-28592432D01*
X137735519Y-28657012D01*
X137714356Y-28676436D01*
X137564747Y-28785134D01*
X137436960Y-28927056D01*
X137341473Y-29092444D01*
X137282458Y-29274072D01*
X137262496Y-29464000D01*
X137263186Y-29470565D01*
X137277848Y-29610062D01*
X137282458Y-29653928D01*
X137341473Y-29835556D01*
X137436960Y-30000944D01*
X137441378Y-30005851D01*
X137441379Y-30005852D01*
X137474107Y-30042200D01*
X137564747Y-30142866D01*
X137719248Y-30255118D01*
X137725276Y-30257802D01*
X137725278Y-30257803D01*
X137825878Y-30302593D01*
X137893712Y-30332794D01*
X137924673Y-30339375D01*
X137925698Y-30339593D01*
X137988171Y-30373321D01*
X138022492Y-30435471D01*
X138025500Y-30462839D01*
X138025500Y-34461944D01*
X138024941Y-34473800D01*
X138023212Y-34481537D01*
X138023461Y-34489459D01*
X138025438Y-34552369D01*
X138025500Y-34556327D01*
X138025500Y-34585432D01*
X138026056Y-34589832D01*
X138026988Y-34601664D01*
X138028438Y-34647831D01*
X138032814Y-34662891D01*
X138034419Y-34668416D01*
X138038430Y-34687782D01*
X138041118Y-34709064D01*
X138044034Y-34716429D01*
X138044035Y-34716433D01*
X138058126Y-34752021D01*
X138061965Y-34763231D01*
X138074855Y-34807600D01*
X138085775Y-34826065D01*
X138094466Y-34843805D01*
X138102365Y-34863756D01*
X138129516Y-34901126D01*
X138136033Y-34911048D01*
X138155507Y-34943977D01*
X138155510Y-34943981D01*
X138159547Y-34950807D01*
X138174711Y-34965971D01*
X138187551Y-34981004D01*
X138200159Y-34998357D01*
X138211719Y-35007920D01*
X138235752Y-35027802D01*
X138244532Y-35035792D01*
X139176345Y-35967605D01*
X139184335Y-35976385D01*
X139188584Y-35983080D01*
X139194362Y-35988506D01*
X139194363Y-35988507D01*
X139240257Y-36031604D01*
X139243099Y-36034359D01*
X139263667Y-36054927D01*
X139267170Y-36057644D01*
X139276195Y-36065352D01*
X139309867Y-36096972D01*
X139316818Y-36100793D01*
X139316819Y-36100794D01*
X139328658Y-36107303D01*
X139345182Y-36118157D01*
X139355271Y-36125982D01*
X139362132Y-36131304D01*
X139369404Y-36134451D01*
X139369406Y-36134452D01*
X139404535Y-36149654D01*
X139415196Y-36154876D01*
X139455663Y-36177124D01*
X139476441Y-36182459D01*
X139495131Y-36188858D01*
X139514824Y-36197380D01*
X139558596Y-36204313D01*
X139560448Y-36204606D01*
X139572071Y-36207013D01*
X139600072Y-36214202D01*
X139616812Y-36218500D01*
X139638259Y-36218500D01*
X139657969Y-36220051D01*
X139679152Y-36223406D01*
X139725141Y-36219059D01*
X139736996Y-36218500D01*
X152809223Y-36218500D01*
X152877344Y-36238502D01*
X152898318Y-36255405D01*
X160402976Y-43760063D01*
X160437002Y-43822375D01*
X160431937Y-43893190D01*
X160407517Y-43933468D01*
X160344181Y-44003810D01*
X160283735Y-44041050D01*
X160250545Y-44045500D01*
X131998224Y-44045500D01*
X131930103Y-44025498D01*
X131924163Y-44021436D01*
X131780094Y-43916763D01*
X131780093Y-43916762D01*
X131774752Y-43912882D01*
X131768724Y-43910198D01*
X131768722Y-43910197D01*
X131606319Y-43837891D01*
X131606318Y-43837891D01*
X131600288Y-43835206D01*
X131505227Y-43815000D01*
X131419944Y-43796872D01*
X131419939Y-43796872D01*
X131413487Y-43795500D01*
X131392949Y-43795500D01*
X131324828Y-43775498D01*
X131303854Y-43758595D01*
X129555655Y-42010395D01*
X129547665Y-42001615D01*
X129547663Y-42001613D01*
X129543416Y-41994920D01*
X129491742Y-41946395D01*
X129488901Y-41943641D01*
X129468333Y-41923073D01*
X129464826Y-41920353D01*
X129455804Y-41912647D01*
X129427913Y-41886456D01*
X129422133Y-41881028D01*
X129415181Y-41877206D01*
X129403342Y-41870697D01*
X129386818Y-41859843D01*
X129376132Y-41851555D01*
X129369868Y-41846696D01*
X129362596Y-41843549D01*
X129362594Y-41843548D01*
X129327465Y-41828346D01*
X129316805Y-41823124D01*
X129283284Y-41804695D01*
X129283282Y-41804694D01*
X129276337Y-41800876D01*
X129255559Y-41795541D01*
X129236869Y-41789142D01*
X129217176Y-41780620D01*
X129171552Y-41773394D01*
X129159929Y-41770987D01*
X129131928Y-41763798D01*
X129115188Y-41759500D01*
X129093741Y-41759500D01*
X129074031Y-41757949D01*
X129060677Y-41755834D01*
X129052848Y-41754594D01*
X129006859Y-41758941D01*
X128995004Y-41759500D01*
X67990224Y-41759500D01*
X67922103Y-41739498D01*
X67916163Y-41735436D01*
X67915909Y-41735251D01*
X67766752Y-41626882D01*
X67760724Y-41624198D01*
X67760722Y-41624197D01*
X67598319Y-41551891D01*
X67598318Y-41551891D01*
X67592288Y-41549206D01*
X67498888Y-41529353D01*
X67411944Y-41510872D01*
X67411939Y-41510872D01*
X67405487Y-41509500D01*
X67214513Y-41509500D01*
X67208061Y-41510872D01*
X67208056Y-41510872D01*
X67121112Y-41529353D01*
X67027712Y-41549206D01*
X67021682Y-41551891D01*
X67021681Y-41551891D01*
X66859278Y-41624197D01*
X66859276Y-41624198D01*
X66853248Y-41626882D01*
X66698747Y-41739134D01*
X66694326Y-41744044D01*
X66694325Y-41744045D01*
X66584589Y-41865920D01*
X66570960Y-41881056D01*
X66475473Y-42046444D01*
X66416458Y-42228072D01*
X66396496Y-42418000D01*
X66397186Y-42424565D01*
X66412299Y-42568354D01*
X66416458Y-42607928D01*
X66475473Y-42789556D01*
X66570960Y-42954944D01*
X66575378Y-42959851D01*
X66575379Y-42959852D01*
X66611871Y-43000380D01*
X66698747Y-43096866D01*
X66853248Y-43209118D01*
X66859276Y-43211802D01*
X66859278Y-43211803D01*
X67021681Y-43284109D01*
X67027712Y-43286794D01*
X67121113Y-43306647D01*
X67208056Y-43325128D01*
X67208061Y-43325128D01*
X67214513Y-43326500D01*
X67405487Y-43326500D01*
X67411939Y-43325128D01*
X67411944Y-43325128D01*
X67498887Y-43306647D01*
X67592288Y-43286794D01*
X67598319Y-43284109D01*
X67760722Y-43211803D01*
X67760724Y-43211802D01*
X67766752Y-43209118D01*
X67804987Y-43181339D01*
X67898489Y-43113405D01*
X67916163Y-43100564D01*
X67983031Y-43076706D01*
X67990224Y-43076500D01*
X128707050Y-43076500D01*
X128775171Y-43096502D01*
X128796145Y-43113405D01*
X130375030Y-44692290D01*
X130409056Y-44754602D01*
X130411244Y-44768211D01*
X130424458Y-44893928D01*
X130426498Y-44900205D01*
X130426498Y-44900207D01*
X130431259Y-44914860D01*
X130483473Y-45075556D01*
X130486776Y-45081278D01*
X130486777Y-45081279D01*
X130498579Y-45101721D01*
X130578960Y-45240944D01*
X130583378Y-45245851D01*
X130583379Y-45245852D01*
X130645157Y-45314463D01*
X130706747Y-45382866D01*
X130726915Y-45397519D01*
X130817543Y-45463364D01*
X130861248Y-45495118D01*
X130867276Y-45497802D01*
X130867278Y-45497803D01*
X131029681Y-45570109D01*
X131035712Y-45572794D01*
X131129113Y-45592647D01*
X131216056Y-45611128D01*
X131216061Y-45611128D01*
X131222513Y-45612500D01*
X131413487Y-45612500D01*
X131419939Y-45611128D01*
X131419944Y-45611128D01*
X131506887Y-45592647D01*
X131600288Y-45572794D01*
X131606319Y-45570109D01*
X131768722Y-45497803D01*
X131768724Y-45497802D01*
X131774752Y-45495118D01*
X131818458Y-45463364D01*
X131923563Y-45387000D01*
X131924163Y-45386564D01*
X131991031Y-45362706D01*
X131998224Y-45362500D01*
X160509081Y-45362500D01*
X160572084Y-45379383D01*
X160573906Y-45380435D01*
X160579248Y-45384316D01*
X160585275Y-45386999D01*
X160585276Y-45387000D01*
X160714709Y-45444627D01*
X160753712Y-45461992D01*
X160847112Y-45481845D01*
X160934056Y-45500326D01*
X160934061Y-45500326D01*
X160940513Y-45501698D01*
X161131487Y-45501698D01*
X161137939Y-45500326D01*
X161137944Y-45500326D01*
X161224887Y-45481845D01*
X161318288Y-45461992D01*
X161357291Y-45444627D01*
X161486722Y-45387001D01*
X161486724Y-45387000D01*
X161492752Y-45384316D01*
X161522496Y-45362706D01*
X161641914Y-45275943D01*
X161647253Y-45272064D01*
X161675274Y-45240944D01*
X161685256Y-45229858D01*
X161745703Y-45192619D01*
X161816686Y-45193971D01*
X161867987Y-45225074D01*
X164404595Y-47761682D01*
X164438621Y-47823994D01*
X164441500Y-47850777D01*
X164441500Y-53935241D01*
X164421498Y-54003362D01*
X164409136Y-54019551D01*
X164360960Y-54073056D01*
X164265473Y-54238444D01*
X164206458Y-54420072D01*
X164186496Y-54610000D01*
X164187186Y-54616565D01*
X164204863Y-54784749D01*
X164206458Y-54799928D01*
X164265473Y-54981556D01*
X164268776Y-54987278D01*
X164268777Y-54987279D01*
X164281392Y-55009128D01*
X164360960Y-55146944D01*
X164365378Y-55151851D01*
X164365379Y-55151852D01*
X164468075Y-55265907D01*
X164488747Y-55288866D01*
X164643248Y-55401118D01*
X164649276Y-55403802D01*
X164649278Y-55403803D01*
X164811681Y-55476109D01*
X164817712Y-55478794D01*
X164911113Y-55498647D01*
X164998056Y-55517128D01*
X164998061Y-55517128D01*
X165004513Y-55518500D01*
X165195487Y-55518500D01*
X165201939Y-55517128D01*
X165201944Y-55517128D01*
X165288888Y-55498647D01*
X165382288Y-55478794D01*
X165388319Y-55476109D01*
X165550722Y-55403803D01*
X165550724Y-55403802D01*
X165556752Y-55401118D01*
X165711253Y-55288866D01*
X165731925Y-55265907D01*
X165834621Y-55151852D01*
X165834622Y-55151851D01*
X165839040Y-55146944D01*
X165918608Y-55009128D01*
X165931223Y-54987279D01*
X165931224Y-54987278D01*
X165934527Y-54981556D01*
X165993542Y-54799928D01*
X165995138Y-54784749D01*
X166012814Y-54616565D01*
X166013504Y-54610000D01*
X165993542Y-54420072D01*
X165934527Y-54238444D01*
X165839040Y-54073056D01*
X165790864Y-54019551D01*
X165760146Y-53955544D01*
X165758500Y-53935241D01*
X165758500Y-51816000D01*
X167488496Y-51816000D01*
X167489186Y-51822565D01*
X167505032Y-51973328D01*
X167508458Y-52005928D01*
X167567473Y-52187556D01*
X167662960Y-52352944D01*
X167667378Y-52357851D01*
X167667379Y-52357852D01*
X167786325Y-52489955D01*
X167790747Y-52494866D01*
X167810238Y-52509027D01*
X167938423Y-52602159D01*
X167945248Y-52607118D01*
X167951276Y-52609802D01*
X167951278Y-52609803D01*
X168113681Y-52682109D01*
X168119712Y-52684794D01*
X168213113Y-52704647D01*
X168300056Y-52723128D01*
X168300061Y-52723128D01*
X168306513Y-52724500D01*
X168497487Y-52724500D01*
X168503939Y-52723128D01*
X168503944Y-52723128D01*
X168590888Y-52704647D01*
X168684288Y-52684794D01*
X168690319Y-52682109D01*
X168852722Y-52609803D01*
X168852724Y-52609802D01*
X168858752Y-52607118D01*
X168865578Y-52602159D01*
X168993762Y-52509027D01*
X169013253Y-52494866D01*
X169017675Y-52489955D01*
X169136621Y-52357852D01*
X169136622Y-52357851D01*
X169141040Y-52352944D01*
X169236527Y-52187556D01*
X169295542Y-52005928D01*
X169308755Y-51880213D01*
X169335768Y-51814558D01*
X169344970Y-51804290D01*
X170841605Y-50307655D01*
X170850385Y-50299665D01*
X170850387Y-50299663D01*
X170857080Y-50295416D01*
X170905605Y-50243742D01*
X170908359Y-50240901D01*
X170928927Y-50220333D01*
X170931647Y-50216826D01*
X170939353Y-50207804D01*
X170965544Y-50179913D01*
X170970972Y-50174133D01*
X170974794Y-50167181D01*
X170981303Y-50155342D01*
X170992157Y-50138818D01*
X171000445Y-50128132D01*
X171005304Y-50121868D01*
X171011315Y-50107978D01*
X171023654Y-50079465D01*
X171028876Y-50068805D01*
X171047305Y-50035284D01*
X171047306Y-50035282D01*
X171051124Y-50028337D01*
X171056459Y-50007559D01*
X171062858Y-49988869D01*
X171071380Y-49969176D01*
X171078606Y-49923552D01*
X171081013Y-49911929D01*
X171090528Y-49874868D01*
X171092500Y-49867188D01*
X171092500Y-49845741D01*
X171094051Y-49826031D01*
X171096166Y-49812677D01*
X171097406Y-49804848D01*
X171093059Y-49758859D01*
X171092500Y-49747004D01*
X171092500Y-47815259D01*
X171112502Y-47747138D01*
X171124864Y-47730949D01*
X171168621Y-47682352D01*
X171168622Y-47682351D01*
X171173040Y-47677444D01*
X171268527Y-47512056D01*
X171327542Y-47330428D01*
X171329781Y-47309130D01*
X171346814Y-47147065D01*
X171347504Y-47140500D01*
X171342915Y-47096842D01*
X171328232Y-46957135D01*
X171328232Y-46957133D01*
X171327542Y-46950572D01*
X171268527Y-46768944D01*
X171173040Y-46603556D01*
X171045253Y-46461634D01*
X170906020Y-46360475D01*
X170896094Y-46353263D01*
X170896093Y-46353262D01*
X170890752Y-46349382D01*
X170884724Y-46346698D01*
X170884722Y-46346697D01*
X170722319Y-46274391D01*
X170722318Y-46274391D01*
X170716288Y-46271706D01*
X170622887Y-46251853D01*
X170535944Y-46233372D01*
X170535939Y-46233372D01*
X170529487Y-46232000D01*
X170338513Y-46232000D01*
X170332061Y-46233372D01*
X170332056Y-46233372D01*
X170245112Y-46251853D01*
X170151712Y-46271706D01*
X170145682Y-46274391D01*
X170145681Y-46274391D01*
X169983278Y-46346697D01*
X169983276Y-46346698D01*
X169977248Y-46349382D01*
X169971907Y-46353262D01*
X169971906Y-46353263D01*
X169961980Y-46360475D01*
X169822747Y-46461634D01*
X169694960Y-46603556D01*
X169599473Y-46768944D01*
X169540458Y-46950572D01*
X169539768Y-46957133D01*
X169539768Y-46957135D01*
X169525085Y-47096842D01*
X169520496Y-47140500D01*
X169521186Y-47147065D01*
X169538220Y-47309130D01*
X169540458Y-47330428D01*
X169599473Y-47512056D01*
X169694960Y-47677444D01*
X169699378Y-47682351D01*
X169699379Y-47682352D01*
X169743136Y-47730949D01*
X169773854Y-47794956D01*
X169775500Y-47815259D01*
X169775500Y-49459050D01*
X169755498Y-49527171D01*
X169738595Y-49548145D01*
X168416145Y-50870595D01*
X168353833Y-50904621D01*
X168327050Y-50907500D01*
X168306513Y-50907500D01*
X168300061Y-50908872D01*
X168300056Y-50908872D01*
X168213112Y-50927353D01*
X168119712Y-50947206D01*
X168113682Y-50949891D01*
X168113681Y-50949891D01*
X167951278Y-51022197D01*
X167951276Y-51022198D01*
X167945248Y-51024882D01*
X167790747Y-51137134D01*
X167662960Y-51279056D01*
X167567473Y-51444444D01*
X167508458Y-51626072D01*
X167507768Y-51632633D01*
X167507768Y-51632635D01*
X167495951Y-51745066D01*
X167488496Y-51816000D01*
X165758500Y-51816000D01*
X165758500Y-47607886D01*
X165759059Y-47596030D01*
X165760789Y-47588290D01*
X165759820Y-47557446D01*
X165758562Y-47517438D01*
X165758500Y-47513480D01*
X165758500Y-47484395D01*
X165757946Y-47480006D01*
X165757013Y-47468164D01*
X165755811Y-47429921D01*
X165755562Y-47421996D01*
X165749580Y-47401406D01*
X165745570Y-47382043D01*
X165745001Y-47377534D01*
X165742882Y-47360763D01*
X165739966Y-47353398D01*
X165739965Y-47353394D01*
X165725874Y-47317806D01*
X165722035Y-47306596D01*
X165709145Y-47262227D01*
X165698225Y-47243762D01*
X165689534Y-47226022D01*
X165681635Y-47206071D01*
X165654482Y-47168698D01*
X165647967Y-47158779D01*
X165628493Y-47125850D01*
X165628490Y-47125846D01*
X165624453Y-47119020D01*
X165609289Y-47103856D01*
X165596448Y-47088822D01*
X165588501Y-47077884D01*
X165583841Y-47071470D01*
X165548247Y-47042024D01*
X165539468Y-47034035D01*
X153669028Y-35163595D01*
X153635002Y-35101283D01*
X153640067Y-35030468D01*
X153682614Y-34973632D01*
X153749134Y-34948821D01*
X153758123Y-34948500D01*
X175966868Y-34948500D01*
X176034989Y-34968502D01*
X176055963Y-34985405D01*
X209030963Y-67960405D01*
X209064989Y-68022717D01*
X209059924Y-68093532D01*
X209017377Y-68150368D01*
X208950857Y-68175179D01*
X208941868Y-68175500D01*
X95168224Y-68175500D01*
X95100103Y-68155498D01*
X95094163Y-68151436D01*
X95093909Y-68151251D01*
X95042126Y-68113629D01*
X94950094Y-68046763D01*
X94950093Y-68046762D01*
X94944752Y-68042882D01*
X94938724Y-68040198D01*
X94938722Y-68040197D01*
X94776319Y-67967891D01*
X94776318Y-67967891D01*
X94770288Y-67965206D01*
X94676888Y-67945353D01*
X94589944Y-67926872D01*
X94589939Y-67926872D01*
X94583487Y-67925500D01*
X94392513Y-67925500D01*
X94386061Y-67926872D01*
X94386056Y-67926872D01*
X94299112Y-67945353D01*
X94205712Y-67965206D01*
X94199682Y-67967891D01*
X94199681Y-67967891D01*
X94037278Y-68040197D01*
X94037276Y-68040198D01*
X94031248Y-68042882D01*
X93876747Y-68155134D01*
X93748960Y-68297056D01*
X93653473Y-68462444D01*
X93651432Y-68468725D01*
X93648746Y-68474758D01*
X93647003Y-68473982D01*
X93622059Y-68514682D01*
X58078395Y-104058345D01*
X58069615Y-104066335D01*
X58069613Y-104066337D01*
X58062920Y-104070584D01*
X58057494Y-104076362D01*
X58057493Y-104076363D01*
X58014396Y-104122257D01*
X58011641Y-104125099D01*
X57991073Y-104145667D01*
X57988356Y-104149170D01*
X57980648Y-104158195D01*
X57949028Y-104191867D01*
X57945207Y-104198818D01*
X57945206Y-104198819D01*
X57938697Y-104210658D01*
X57927843Y-104227182D01*
X57920018Y-104237271D01*
X57914696Y-104244132D01*
X57911549Y-104251404D01*
X57911548Y-104251406D01*
X57896346Y-104286535D01*
X57891124Y-104297195D01*
X57868876Y-104337663D01*
X57863541Y-104358441D01*
X57857142Y-104377131D01*
X57848620Y-104396824D01*
X57847380Y-104404655D01*
X57841394Y-104442448D01*
X57838987Y-104454071D01*
X57832752Y-104478355D01*
X57827500Y-104498812D01*
X57827500Y-104520259D01*
X57825949Y-104539969D01*
X57822594Y-104561152D01*
X57823340Y-104569043D01*
X57826941Y-104607138D01*
X57827500Y-104618996D01*
X57827500Y-124458991D01*
X57807498Y-124527112D01*
X57753842Y-124573605D01*
X57748306Y-124575903D01*
X57747704Y-124576232D01*
X57739295Y-124579385D01*
X57622739Y-124666739D01*
X57535385Y-124783295D01*
X57484255Y-124919684D01*
X57477500Y-124981866D01*
X57477500Y-125755050D01*
X57457498Y-125823171D01*
X57440595Y-125844145D01*
X57248742Y-126035998D01*
X57239963Y-126043987D01*
X57239957Y-126043992D01*
X57233265Y-126048239D01*
X57227840Y-126054016D01*
X57184740Y-126099913D01*
X57181985Y-126102755D01*
X57161418Y-126123322D01*
X57158701Y-126126825D01*
X57150993Y-126135850D01*
X57119373Y-126169522D01*
X57115552Y-126176473D01*
X57115551Y-126176474D01*
X57109042Y-126188313D01*
X57098188Y-126204837D01*
X57090363Y-126214926D01*
X57085041Y-126221787D01*
X57081894Y-126229059D01*
X57081893Y-126229061D01*
X57066691Y-126264190D01*
X57061469Y-126274850D01*
X57039221Y-126315318D01*
X57033886Y-126336096D01*
X57027487Y-126354786D01*
X57018965Y-126374479D01*
X57017725Y-126382310D01*
X57011739Y-126420103D01*
X57009332Y-126431726D01*
X56997845Y-126476467D01*
X56997845Y-126497914D01*
X56996294Y-126517624D01*
X56992939Y-126538807D01*
X56993685Y-126546698D01*
X56997286Y-126584793D01*
X56997845Y-126596651D01*
X56997845Y-127957845D01*
X56977843Y-128025966D01*
X56924187Y-128072459D01*
X56871845Y-128083845D01*
X56760858Y-128083845D01*
X56754406Y-128085217D01*
X56754401Y-128085217D01*
X56667458Y-128103698D01*
X56574057Y-128123551D01*
X56568027Y-128126236D01*
X56568026Y-128126236D01*
X56513043Y-128150716D01*
X56442676Y-128160150D01*
X56378379Y-128130043D01*
X56343812Y-128079838D01*
X56325768Y-128031705D01*
X56325767Y-128031703D01*
X56322615Y-128023295D01*
X56235261Y-127906739D01*
X56118705Y-127819385D01*
X55982316Y-127768255D01*
X55920134Y-127761500D01*
X54823866Y-127761500D01*
X54761684Y-127768255D01*
X54625295Y-127819385D01*
X54508739Y-127906739D01*
X54507813Y-127907974D01*
X54448783Y-127940208D01*
X54377968Y-127935143D01*
X54336645Y-127908586D01*
X54335261Y-127906739D01*
X54218705Y-127819385D01*
X54082316Y-127768255D01*
X54020134Y-127761500D01*
X52923866Y-127761500D01*
X52861684Y-127768255D01*
X52725295Y-127819385D01*
X52608739Y-127906739D01*
X52521385Y-128023295D01*
X52470255Y-128159684D01*
X52463500Y-128221866D01*
X52463500Y-129718134D01*
X52470255Y-129780316D01*
X52521385Y-129916705D01*
X52608739Y-130033261D01*
X52725295Y-130120615D01*
X52733704Y-130123767D01*
X52741575Y-130128077D01*
X52740664Y-130129741D01*
X52788490Y-130165663D01*
X52813193Y-130232224D01*
X52813500Y-130241009D01*
X52813500Y-130300991D01*
X52793498Y-130369112D01*
X52739842Y-130415605D01*
X52734306Y-130417903D01*
X52733704Y-130418232D01*
X52725295Y-130421385D01*
X52608739Y-130508739D01*
X52521385Y-130625295D01*
X52470255Y-130761684D01*
X52463500Y-130823866D01*
X52463500Y-132320134D01*
X52470255Y-132382316D01*
X52521385Y-132518705D01*
X52608739Y-132635261D01*
X52725295Y-132722615D01*
X52733704Y-132725767D01*
X52741575Y-132730077D01*
X52740664Y-132731741D01*
X52788490Y-132767663D01*
X52813193Y-132834224D01*
X52813500Y-132843009D01*
X52813500Y-132851106D01*
X52796620Y-132914104D01*
X52759473Y-132978444D01*
X52700458Y-133160072D01*
X52699768Y-133166633D01*
X52699768Y-133166635D01*
X52694837Y-133213556D01*
X52680496Y-133350000D01*
X52681186Y-133356565D01*
X52698863Y-133524749D01*
X52700458Y-133539928D01*
X52759473Y-133721556D01*
X52854960Y-133886944D01*
X52859378Y-133891851D01*
X52859379Y-133891852D01*
X52978325Y-134023955D01*
X52982747Y-134028866D01*
X53137248Y-134141118D01*
X53143276Y-134143802D01*
X53143278Y-134143803D01*
X53215756Y-134176072D01*
X53311712Y-134218794D01*
X53318173Y-134220167D01*
X53318178Y-134220169D01*
X53432905Y-134244556D01*
X53495379Y-134278284D01*
X53529700Y-134340434D01*
X53524972Y-134411273D01*
X53482696Y-134468310D01*
X53457881Y-134482942D01*
X52602435Y-134863140D01*
X52551262Y-134874000D01*
X49840860Y-134874000D01*
X49772739Y-134853998D01*
X49746380Y-134831364D01*
X49203508Y-134216109D01*
X46005520Y-130591722D01*
X45975449Y-130527410D01*
X45974000Y-130508359D01*
X45974000Y-70866000D01*
X62586496Y-70866000D01*
X62587186Y-70872565D01*
X62602397Y-71017286D01*
X62606458Y-71055928D01*
X62665473Y-71237556D01*
X62760960Y-71402944D01*
X62765378Y-71407851D01*
X62765379Y-71407852D01*
X62866417Y-71520066D01*
X62888747Y-71544866D01*
X62952805Y-71591407D01*
X63037330Y-71652818D01*
X63043248Y-71657118D01*
X63049276Y-71659802D01*
X63049278Y-71659803D01*
X63161051Y-71709567D01*
X63217712Y-71734794D01*
X63311113Y-71754647D01*
X63398056Y-71773128D01*
X63398061Y-71773128D01*
X63404513Y-71774500D01*
X63425050Y-71774500D01*
X63493171Y-71794502D01*
X63514145Y-71811405D01*
X63820595Y-72117855D01*
X63854621Y-72180167D01*
X63857500Y-72206950D01*
X63857500Y-91273241D01*
X63837498Y-91341362D01*
X63825136Y-91357551D01*
X63776960Y-91411056D01*
X63681473Y-91576444D01*
X63622458Y-91758072D01*
X63602496Y-91948000D01*
X63603186Y-91954565D01*
X63615388Y-92070657D01*
X63622458Y-92137928D01*
X63681473Y-92319556D01*
X63776960Y-92484944D01*
X63781378Y-92489851D01*
X63781379Y-92489852D01*
X63900325Y-92621955D01*
X63904747Y-92626866D01*
X64059248Y-92739118D01*
X64065276Y-92741802D01*
X64065278Y-92741803D01*
X64169789Y-92788334D01*
X64233712Y-92816794D01*
X64327113Y-92836647D01*
X64414056Y-92855128D01*
X64414061Y-92855128D01*
X64420513Y-92856500D01*
X64611487Y-92856500D01*
X64617939Y-92855128D01*
X64617944Y-92855128D01*
X64704887Y-92836647D01*
X64798288Y-92816794D01*
X64862211Y-92788334D01*
X64966722Y-92741803D01*
X64966724Y-92741802D01*
X64972752Y-92739118D01*
X65127253Y-92626866D01*
X65131675Y-92621955D01*
X65250621Y-92489852D01*
X65250622Y-92489851D01*
X65255040Y-92484944D01*
X65350527Y-92319556D01*
X65409542Y-92137928D01*
X65416613Y-92070657D01*
X65428814Y-91954565D01*
X65429504Y-91948000D01*
X65409542Y-91758072D01*
X65350527Y-91576444D01*
X65255040Y-91411056D01*
X65206864Y-91357551D01*
X65176146Y-91293544D01*
X65174500Y-91273241D01*
X65174500Y-71964056D01*
X65175059Y-71952200D01*
X65175059Y-71952197D01*
X65176788Y-71944463D01*
X65174562Y-71873631D01*
X65174500Y-71869673D01*
X65174500Y-71840568D01*
X65173944Y-71836168D01*
X65173012Y-71824330D01*
X65171811Y-71786094D01*
X65171562Y-71778169D01*
X65165580Y-71757579D01*
X65161570Y-71738216D01*
X65159875Y-71724796D01*
X65159875Y-71724795D01*
X65158882Y-71716936D01*
X65155966Y-71709571D01*
X65155965Y-71709567D01*
X65141874Y-71673979D01*
X65138035Y-71662769D01*
X65125145Y-71618400D01*
X65114225Y-71599935D01*
X65105534Y-71582195D01*
X65097635Y-71562244D01*
X65070482Y-71524871D01*
X65063967Y-71514952D01*
X65044493Y-71482023D01*
X65044490Y-71482019D01*
X65040453Y-71475193D01*
X65025289Y-71460029D01*
X65012448Y-71444995D01*
X65004501Y-71434057D01*
X64999841Y-71427643D01*
X64964247Y-71398197D01*
X64955468Y-71390208D01*
X64442970Y-70877710D01*
X64408944Y-70815398D01*
X64406755Y-70801786D01*
X64406633Y-70800620D01*
X64393542Y-70676072D01*
X64376529Y-70623710D01*
X64336569Y-70500729D01*
X64334527Y-70494444D01*
X64239040Y-70329056D01*
X64213064Y-70300206D01*
X64115675Y-70192045D01*
X64115674Y-70192044D01*
X64111253Y-70187134D01*
X63996829Y-70104000D01*
X63962094Y-70078763D01*
X63962093Y-70078762D01*
X63956752Y-70074882D01*
X63950724Y-70072198D01*
X63950722Y-70072197D01*
X63788319Y-69999891D01*
X63788318Y-69999891D01*
X63782288Y-69997206D01*
X63688888Y-69977353D01*
X63601944Y-69958872D01*
X63601939Y-69958872D01*
X63595487Y-69957500D01*
X63404513Y-69957500D01*
X63398061Y-69958872D01*
X63398056Y-69958872D01*
X63311112Y-69977353D01*
X63217712Y-69997206D01*
X63211682Y-69999891D01*
X63211681Y-69999891D01*
X63049278Y-70072197D01*
X63049276Y-70072198D01*
X63043248Y-70074882D01*
X63037907Y-70078762D01*
X63037906Y-70078763D01*
X63003171Y-70104000D01*
X62888747Y-70187134D01*
X62884326Y-70192044D01*
X62884325Y-70192045D01*
X62786937Y-70300206D01*
X62760960Y-70329056D01*
X62665473Y-70494444D01*
X62606458Y-70676072D01*
X62605768Y-70682633D01*
X62605768Y-70682635D01*
X62594209Y-70792616D01*
X62586496Y-70866000D01*
X45974000Y-70866000D01*
X45974000Y-67818000D01*
X87478496Y-67818000D01*
X87479186Y-67824565D01*
X87494171Y-67967136D01*
X87498458Y-68007928D01*
X87557473Y-68189556D01*
X87652960Y-68354944D01*
X87657378Y-68359851D01*
X87657379Y-68359852D01*
X87744602Y-68456723D01*
X87780747Y-68496866D01*
X87935248Y-68609118D01*
X87941276Y-68611802D01*
X87941278Y-68611803D01*
X88103681Y-68684109D01*
X88109712Y-68686794D01*
X88203112Y-68706647D01*
X88290056Y-68725128D01*
X88290061Y-68725128D01*
X88296513Y-68726500D01*
X88487487Y-68726500D01*
X88493939Y-68725128D01*
X88493944Y-68725128D01*
X88580888Y-68706647D01*
X88674288Y-68686794D01*
X88680319Y-68684109D01*
X88842722Y-68611803D01*
X88842724Y-68611802D01*
X88848752Y-68609118D01*
X89003253Y-68496866D01*
X89039398Y-68456723D01*
X89126621Y-68359852D01*
X89126622Y-68359851D01*
X89131040Y-68354944D01*
X89226527Y-68189556D01*
X89285542Y-68007928D01*
X89289830Y-67967136D01*
X89304814Y-67824565D01*
X89305504Y-67818000D01*
X89285542Y-67628072D01*
X89226527Y-67446444D01*
X89131040Y-67281056D01*
X89082864Y-67227551D01*
X89052146Y-67163544D01*
X89050500Y-67143241D01*
X89050500Y-66460759D01*
X89070502Y-66392638D01*
X89082864Y-66376449D01*
X89126621Y-66327852D01*
X89126622Y-66327851D01*
X89131040Y-66322944D01*
X89226527Y-66157556D01*
X89285542Y-65975928D01*
X89305504Y-65786000D01*
X89285542Y-65596072D01*
X89226527Y-65414444D01*
X89131040Y-65249056D01*
X89055422Y-65165073D01*
X89007675Y-65112045D01*
X89007674Y-65112044D01*
X89003253Y-65107134D01*
X88848752Y-64994882D01*
X88842724Y-64992198D01*
X88842722Y-64992197D01*
X88680319Y-64919891D01*
X88680318Y-64919891D01*
X88674288Y-64917206D01*
X88580888Y-64897353D01*
X88493944Y-64878872D01*
X88493939Y-64878872D01*
X88487487Y-64877500D01*
X88296513Y-64877500D01*
X88290061Y-64878872D01*
X88290056Y-64878872D01*
X88203112Y-64897353D01*
X88109712Y-64917206D01*
X88103682Y-64919891D01*
X88103681Y-64919891D01*
X87941278Y-64992197D01*
X87941276Y-64992198D01*
X87935248Y-64994882D01*
X87780747Y-65107134D01*
X87776326Y-65112044D01*
X87776325Y-65112045D01*
X87728579Y-65165073D01*
X87652960Y-65249056D01*
X87557473Y-65414444D01*
X87498458Y-65596072D01*
X87478496Y-65786000D01*
X87498458Y-65975928D01*
X87557473Y-66157556D01*
X87652960Y-66322944D01*
X87657378Y-66327851D01*
X87657379Y-66327852D01*
X87701136Y-66376449D01*
X87731854Y-66440456D01*
X87733500Y-66460759D01*
X87733500Y-67143241D01*
X87713498Y-67211362D01*
X87701136Y-67227551D01*
X87652960Y-67281056D01*
X87557473Y-67446444D01*
X87498458Y-67628072D01*
X87478496Y-67818000D01*
X45974000Y-67818000D01*
X45974000Y-58420000D01*
X144882496Y-58420000D01*
X144883186Y-58426565D01*
X144893353Y-58523294D01*
X144902458Y-58609928D01*
X144961473Y-58791556D01*
X145056960Y-58956944D01*
X145061378Y-58961851D01*
X145061379Y-58961852D01*
X145088589Y-58992072D01*
X145184747Y-59098866D01*
X145283843Y-59170864D01*
X145308207Y-59188565D01*
X145339248Y-59211118D01*
X145345276Y-59213802D01*
X145345278Y-59213803D01*
X145507681Y-59286109D01*
X145513712Y-59288794D01*
X145607113Y-59308647D01*
X145694056Y-59327128D01*
X145694061Y-59327128D01*
X145700513Y-59328500D01*
X145721050Y-59328500D01*
X145789171Y-59348502D01*
X145810145Y-59365405D01*
X146034345Y-59589605D01*
X146042335Y-59598385D01*
X146046584Y-59605080D01*
X146052362Y-59610506D01*
X146052363Y-59610507D01*
X146098257Y-59653604D01*
X146101099Y-59656359D01*
X146121667Y-59676927D01*
X146125170Y-59679644D01*
X146134195Y-59687352D01*
X146167867Y-59718972D01*
X146174818Y-59722793D01*
X146174819Y-59722794D01*
X146186658Y-59729303D01*
X146203182Y-59740157D01*
X146213271Y-59747982D01*
X146220132Y-59753304D01*
X146227404Y-59756451D01*
X146227406Y-59756452D01*
X146262535Y-59771654D01*
X146273196Y-59776876D01*
X146313663Y-59799124D01*
X146334441Y-59804459D01*
X146353131Y-59810858D01*
X146372824Y-59819380D01*
X146416596Y-59826313D01*
X146418448Y-59826606D01*
X146430071Y-59829013D01*
X146458072Y-59836202D01*
X146474812Y-59840500D01*
X146496259Y-59840500D01*
X146515969Y-59842051D01*
X146537152Y-59845406D01*
X146583141Y-59841059D01*
X146594996Y-59840500D01*
X164673776Y-59840500D01*
X164741897Y-59860502D01*
X164747834Y-59864562D01*
X164897248Y-59973118D01*
X164903276Y-59975802D01*
X164903278Y-59975803D01*
X165065681Y-60048109D01*
X165071712Y-60050794D01*
X165165113Y-60070647D01*
X165252056Y-60089128D01*
X165252061Y-60089128D01*
X165258513Y-60090500D01*
X165449487Y-60090500D01*
X165455939Y-60089128D01*
X165455944Y-60089128D01*
X165542887Y-60070647D01*
X165636288Y-60050794D01*
X165642319Y-60048109D01*
X165804722Y-59975803D01*
X165804724Y-59975802D01*
X165810752Y-59973118D01*
X165965253Y-59860866D01*
X165993934Y-59829013D01*
X166088621Y-59723852D01*
X166088622Y-59723851D01*
X166093040Y-59718944D01*
X166188527Y-59553556D01*
X166247542Y-59371928D01*
X166252107Y-59328500D01*
X166266814Y-59188565D01*
X166267504Y-59182000D01*
X166266814Y-59175435D01*
X166248232Y-58998635D01*
X166248232Y-58998633D01*
X166247542Y-58992072D01*
X166188527Y-58810444D01*
X166093040Y-58645056D01*
X166067064Y-58616206D01*
X165969675Y-58508045D01*
X165969674Y-58508044D01*
X165965253Y-58503134D01*
X165850829Y-58420000D01*
X165816094Y-58394763D01*
X165816093Y-58394762D01*
X165810752Y-58390882D01*
X165804724Y-58388198D01*
X165804722Y-58388197D01*
X165642319Y-58315891D01*
X165642318Y-58315891D01*
X165636288Y-58313206D01*
X165542887Y-58293353D01*
X165455944Y-58274872D01*
X165455939Y-58274872D01*
X165449487Y-58273500D01*
X165258513Y-58273500D01*
X165252061Y-58274872D01*
X165252056Y-58274872D01*
X165165113Y-58293353D01*
X165071712Y-58313206D01*
X165065682Y-58315891D01*
X165065681Y-58315891D01*
X164903278Y-58388197D01*
X164903276Y-58388198D01*
X164897248Y-58390882D01*
X164891907Y-58394762D01*
X164891906Y-58394763D01*
X164848135Y-58426565D01*
X164748092Y-58499251D01*
X164747837Y-58499436D01*
X164680969Y-58523294D01*
X164673776Y-58523500D01*
X146882950Y-58523500D01*
X146814829Y-58503498D01*
X146793855Y-58486595D01*
X146738970Y-58431710D01*
X146704944Y-58369398D01*
X146702755Y-58355786D01*
X146690232Y-58236636D01*
X146690232Y-58236635D01*
X146689542Y-58230072D01*
X146630527Y-58048444D01*
X146535040Y-57883056D01*
X146407253Y-57741134D01*
X146252752Y-57628882D01*
X146246724Y-57626198D01*
X146246722Y-57626197D01*
X146084319Y-57553891D01*
X146084318Y-57553891D01*
X146078288Y-57551206D01*
X145984887Y-57531353D01*
X145897944Y-57512872D01*
X145897939Y-57512872D01*
X145891487Y-57511500D01*
X145700513Y-57511500D01*
X145694061Y-57512872D01*
X145694056Y-57512872D01*
X145607113Y-57531353D01*
X145513712Y-57551206D01*
X145507682Y-57553891D01*
X145507681Y-57553891D01*
X145345278Y-57626197D01*
X145345276Y-57626198D01*
X145339248Y-57628882D01*
X145184747Y-57741134D01*
X145056960Y-57883056D01*
X144961473Y-58048444D01*
X144902458Y-58230072D01*
X144901768Y-58236633D01*
X144901768Y-58236635D01*
X144893720Y-58313206D01*
X144882496Y-58420000D01*
X45974000Y-58420000D01*
X45974000Y-48895000D01*
X59777677Y-48895000D01*
X59796930Y-49115068D01*
X59854106Y-49328450D01*
X59856428Y-49333431D01*
X59856429Y-49333432D01*
X59934594Y-49501056D01*
X59947466Y-49528661D01*
X60074174Y-49709620D01*
X60230380Y-49865826D01*
X60234888Y-49868983D01*
X60234891Y-49868985D01*
X60243293Y-49874868D01*
X60411338Y-49992534D01*
X60416320Y-49994857D01*
X60416325Y-49994860D01*
X60597763Y-50079465D01*
X60611550Y-50085894D01*
X60616858Y-50087316D01*
X60616860Y-50087317D01*
X60682252Y-50104839D01*
X60824932Y-50143070D01*
X61045000Y-50162323D01*
X61265068Y-50143070D01*
X61407748Y-50104839D01*
X61473140Y-50087317D01*
X61473142Y-50087316D01*
X61478450Y-50085894D01*
X61492237Y-50079465D01*
X61581160Y-50038000D01*
X66396496Y-50038000D01*
X66397186Y-50044565D01*
X66415331Y-50217201D01*
X66416458Y-50227928D01*
X66475473Y-50409556D01*
X66570960Y-50574944D01*
X66575378Y-50579851D01*
X66575379Y-50579852D01*
X66684397Y-50700929D01*
X66698747Y-50716866D01*
X66727198Y-50737537D01*
X66824690Y-50808369D01*
X66853248Y-50829118D01*
X66859276Y-50831802D01*
X66859278Y-50831803D01*
X66904691Y-50852022D01*
X67027712Y-50906794D01*
X67121113Y-50926647D01*
X67208056Y-50945128D01*
X67208061Y-50945128D01*
X67214513Y-50946500D01*
X67235050Y-50946500D01*
X67303171Y-50966502D01*
X67324145Y-50983405D01*
X70850345Y-54509605D01*
X70858335Y-54518385D01*
X70862584Y-54525080D01*
X70868362Y-54530506D01*
X70868363Y-54530507D01*
X70914257Y-54573604D01*
X70917099Y-54576359D01*
X70937667Y-54596927D01*
X70941170Y-54599644D01*
X70950195Y-54607352D01*
X70983867Y-54638972D01*
X70990818Y-54642793D01*
X70990819Y-54642794D01*
X71002658Y-54649303D01*
X71019182Y-54660157D01*
X71029271Y-54667982D01*
X71036132Y-54673304D01*
X71043404Y-54676451D01*
X71043406Y-54676452D01*
X71078535Y-54691654D01*
X71089196Y-54696876D01*
X71129663Y-54719124D01*
X71150441Y-54724459D01*
X71169131Y-54730858D01*
X71188824Y-54739380D01*
X71225495Y-54745188D01*
X71234448Y-54746606D01*
X71246071Y-54749013D01*
X71274072Y-54756202D01*
X71290812Y-54760500D01*
X71312259Y-54760500D01*
X71331969Y-54762051D01*
X71353152Y-54765406D01*
X71399141Y-54761059D01*
X71410996Y-54760500D01*
X130421276Y-54760500D01*
X130489397Y-54780502D01*
X130495334Y-54784562D01*
X130644748Y-54893118D01*
X130650776Y-54895802D01*
X130650778Y-54895803D01*
X130813181Y-54968109D01*
X130819212Y-54970794D01*
X130912613Y-54990647D01*
X130999556Y-55009128D01*
X130999561Y-55009128D01*
X131006013Y-55010500D01*
X131196987Y-55010500D01*
X131203439Y-55009128D01*
X131203444Y-55009128D01*
X131290387Y-54990647D01*
X131383788Y-54970794D01*
X131389819Y-54968109D01*
X131552222Y-54895803D01*
X131552224Y-54895802D01*
X131558252Y-54893118D01*
X131712753Y-54780866D01*
X131741434Y-54749013D01*
X131836121Y-54643852D01*
X131836122Y-54643851D01*
X131840540Y-54638944D01*
X131911393Y-54516224D01*
X131932723Y-54479279D01*
X131932724Y-54479278D01*
X131936027Y-54473556D01*
X131995042Y-54291928D01*
X132008255Y-54166213D01*
X132035268Y-54100558D01*
X132044470Y-54090290D01*
X132353355Y-53781405D01*
X132415667Y-53747379D01*
X132442450Y-53744500D01*
X161117776Y-53744500D01*
X161185897Y-53764502D01*
X161191834Y-53768562D01*
X161341248Y-53877118D01*
X161347276Y-53879802D01*
X161347278Y-53879803D01*
X161471795Y-53935241D01*
X161515712Y-53954794D01*
X161609112Y-53974647D01*
X161696056Y-53993128D01*
X161696061Y-53993128D01*
X161702513Y-53994500D01*
X161893487Y-53994500D01*
X161899939Y-53993128D01*
X161899944Y-53993128D01*
X161986887Y-53974647D01*
X162080288Y-53954794D01*
X162124205Y-53935241D01*
X162248722Y-53879803D01*
X162248724Y-53879802D01*
X162254752Y-53877118D01*
X162409253Y-53764866D01*
X162537040Y-53622944D01*
X162632527Y-53457556D01*
X162691542Y-53275928D01*
X162696177Y-53231834D01*
X162710814Y-53092565D01*
X162711504Y-53086000D01*
X162691542Y-52896072D01*
X162632527Y-52714444D01*
X162537040Y-52549056D01*
X162491744Y-52498749D01*
X162413675Y-52412045D01*
X162413674Y-52412044D01*
X162409253Y-52407134D01*
X162254752Y-52294882D01*
X162248724Y-52292198D01*
X162248722Y-52292197D01*
X162086319Y-52219891D01*
X162086318Y-52219891D01*
X162080288Y-52217206D01*
X161967721Y-52193279D01*
X161899944Y-52178872D01*
X161899939Y-52178872D01*
X161893487Y-52177500D01*
X161702513Y-52177500D01*
X161696061Y-52178872D01*
X161696056Y-52178872D01*
X161628279Y-52193279D01*
X161515712Y-52217206D01*
X161509682Y-52219891D01*
X161509681Y-52219891D01*
X161347278Y-52292197D01*
X161347276Y-52292198D01*
X161341248Y-52294882D01*
X161192092Y-52403251D01*
X161191837Y-52403436D01*
X161124969Y-52427294D01*
X161117776Y-52427500D01*
X132199556Y-52427500D01*
X132187700Y-52426941D01*
X132187697Y-52426941D01*
X132179963Y-52425212D01*
X132124946Y-52426941D01*
X132109131Y-52427438D01*
X132105173Y-52427500D01*
X132076068Y-52427500D01*
X132071668Y-52428056D01*
X132059836Y-52428988D01*
X132013669Y-52430438D01*
X131993079Y-52436420D01*
X131973718Y-52440430D01*
X131966730Y-52441312D01*
X131960296Y-52442125D01*
X131960295Y-52442125D01*
X131952436Y-52443118D01*
X131945071Y-52446034D01*
X131945067Y-52446035D01*
X131909479Y-52460126D01*
X131898269Y-52463965D01*
X131853900Y-52476855D01*
X131835435Y-52487775D01*
X131817695Y-52496466D01*
X131797744Y-52504365D01*
X131760374Y-52531516D01*
X131750452Y-52538033D01*
X131717523Y-52557507D01*
X131717519Y-52557510D01*
X131710693Y-52561547D01*
X131695529Y-52576711D01*
X131680496Y-52589551D01*
X131663143Y-52602159D01*
X131633698Y-52637752D01*
X131625708Y-52646532D01*
X131115645Y-53156595D01*
X131053333Y-53190621D01*
X131026550Y-53193500D01*
X131006013Y-53193500D01*
X130999561Y-53194872D01*
X130999556Y-53194872D01*
X130912612Y-53213353D01*
X130819212Y-53233206D01*
X130813182Y-53235891D01*
X130813181Y-53235891D01*
X130650778Y-53308197D01*
X130650776Y-53308198D01*
X130644748Y-53310882D01*
X130639407Y-53314762D01*
X130639406Y-53314763D01*
X130495337Y-53419436D01*
X130428469Y-53443294D01*
X130421276Y-53443500D01*
X71698950Y-53443500D01*
X71630829Y-53423498D01*
X71609855Y-53406595D01*
X68252970Y-50049710D01*
X68218944Y-49987398D01*
X68216755Y-49973786D01*
X68216271Y-49969176D01*
X68205408Y-49865826D01*
X68204232Y-49854636D01*
X68204232Y-49854635D01*
X68203542Y-49848072D01*
X68199563Y-49835824D01*
X68146569Y-49672729D01*
X68144527Y-49666444D01*
X68049040Y-49501056D01*
X68012974Y-49461000D01*
X67925675Y-49364045D01*
X67925674Y-49364044D01*
X67921253Y-49359134D01*
X67766752Y-49246882D01*
X67760724Y-49244198D01*
X67760722Y-49244197D01*
X67598319Y-49171891D01*
X67598318Y-49171891D01*
X67592288Y-49169206D01*
X67498888Y-49149353D01*
X67411944Y-49130872D01*
X67411939Y-49130872D01*
X67405487Y-49129500D01*
X67214513Y-49129500D01*
X67208061Y-49130872D01*
X67208056Y-49130872D01*
X67121112Y-49149353D01*
X67027712Y-49169206D01*
X67021682Y-49171891D01*
X67021681Y-49171891D01*
X66859278Y-49244197D01*
X66859276Y-49244198D01*
X66853248Y-49246882D01*
X66698747Y-49359134D01*
X66694326Y-49364044D01*
X66694325Y-49364045D01*
X66607027Y-49461000D01*
X66570960Y-49501056D01*
X66475473Y-49666444D01*
X66416458Y-49848072D01*
X66415768Y-49854633D01*
X66415768Y-49854635D01*
X66409746Y-49911929D01*
X66396496Y-50038000D01*
X61581160Y-50038000D01*
X61673675Y-49994860D01*
X61673680Y-49994857D01*
X61678662Y-49992534D01*
X61846707Y-49874868D01*
X61855109Y-49868985D01*
X61855112Y-49868983D01*
X61859620Y-49865826D01*
X62015826Y-49709620D01*
X62142534Y-49528661D01*
X62155407Y-49501056D01*
X62233571Y-49333432D01*
X62233572Y-49333431D01*
X62235894Y-49328450D01*
X62293070Y-49115068D01*
X62312323Y-48895000D01*
X62293070Y-48674932D01*
X62235894Y-48461550D01*
X62233571Y-48456568D01*
X62144857Y-48266320D01*
X62144855Y-48266317D01*
X62142534Y-48261339D01*
X62015826Y-48080380D01*
X61859620Y-47924174D01*
X61855112Y-47921017D01*
X61855109Y-47921015D01*
X61683171Y-47800623D01*
X61683168Y-47800621D01*
X61678662Y-47797466D01*
X61673680Y-47795143D01*
X61673675Y-47795140D01*
X61581160Y-47752000D01*
X137516496Y-47752000D01*
X137517186Y-47758565D01*
X137535002Y-47928071D01*
X137536458Y-47941928D01*
X137595473Y-48123556D01*
X137690960Y-48288944D01*
X137695378Y-48293851D01*
X137695379Y-48293852D01*
X137753571Y-48358481D01*
X137818747Y-48430866D01*
X137973248Y-48543118D01*
X137979276Y-48545802D01*
X137979278Y-48545803D01*
X138141681Y-48618109D01*
X138147712Y-48620794D01*
X138241112Y-48640647D01*
X138328056Y-48659128D01*
X138328061Y-48659128D01*
X138334513Y-48660500D01*
X138525487Y-48660500D01*
X138531939Y-48659128D01*
X138531944Y-48659128D01*
X138618888Y-48640647D01*
X138712288Y-48620794D01*
X138718319Y-48618109D01*
X138880722Y-48545803D01*
X138880724Y-48545802D01*
X138886752Y-48543118D01*
X139041253Y-48430866D01*
X139090558Y-48376107D01*
X139151004Y-48338867D01*
X139184194Y-48334417D01*
X148456359Y-48334417D01*
X148524480Y-48354419D01*
X148530417Y-48358479D01*
X148554680Y-48376107D01*
X148672282Y-48461550D01*
X148679831Y-48467035D01*
X148685859Y-48469719D01*
X148685861Y-48469720D01*
X148842000Y-48539237D01*
X148854295Y-48544711D01*
X148947695Y-48564564D01*
X149034639Y-48583045D01*
X149034644Y-48583045D01*
X149041096Y-48584417D01*
X149232070Y-48584417D01*
X149238522Y-48583045D01*
X149238527Y-48583045D01*
X149325470Y-48564564D01*
X149418871Y-48544711D01*
X149431166Y-48539237D01*
X149587305Y-48469720D01*
X149587307Y-48469719D01*
X149593335Y-48467035D01*
X149600885Y-48461550D01*
X149718486Y-48376107D01*
X149747836Y-48354783D01*
X149766174Y-48334417D01*
X149871204Y-48217769D01*
X149871205Y-48217768D01*
X149875623Y-48212861D01*
X149971110Y-48047473D01*
X150030125Y-47865845D01*
X150041401Y-47758565D01*
X150049397Y-47682482D01*
X150050087Y-47675917D01*
X150044973Y-47627259D01*
X150030815Y-47492552D01*
X150030815Y-47492550D01*
X150030125Y-47485989D01*
X149971110Y-47304361D01*
X149942848Y-47255409D01*
X149910658Y-47199655D01*
X149875623Y-47138973D01*
X149853624Y-47114540D01*
X149752258Y-47001962D01*
X149752257Y-47001961D01*
X149747836Y-46997051D01*
X149686517Y-46952500D01*
X153772496Y-46952500D01*
X153773186Y-46959065D01*
X153790716Y-47125850D01*
X153792458Y-47142428D01*
X153851473Y-47324056D01*
X153854776Y-47329778D01*
X153854777Y-47329779D01*
X153884029Y-47380444D01*
X153946960Y-47489444D01*
X153951378Y-47494351D01*
X153951379Y-47494352D01*
X153995136Y-47542949D01*
X154025854Y-47606956D01*
X154027500Y-47627259D01*
X154027500Y-50717944D01*
X154026941Y-50729800D01*
X154025212Y-50737537D01*
X154025461Y-50745459D01*
X154027438Y-50808369D01*
X154027500Y-50812327D01*
X154027500Y-50841432D01*
X154028056Y-50845832D01*
X154028988Y-50857664D01*
X154030438Y-50903831D01*
X154032650Y-50911443D01*
X154032650Y-50911446D01*
X154033179Y-50913266D01*
X154033489Y-50916743D01*
X154033890Y-50919273D01*
X154033717Y-50919300D01*
X154037491Y-50961586D01*
X154026496Y-51066200D01*
X154027186Y-51072765D01*
X154034468Y-51142045D01*
X154046458Y-51256128D01*
X154105473Y-51437756D01*
X154200960Y-51603144D01*
X154205378Y-51608051D01*
X154205379Y-51608052D01*
X154301876Y-51715223D01*
X154328747Y-51745066D01*
X154410262Y-51804290D01*
X154453688Y-51835841D01*
X154483248Y-51857318D01*
X154489276Y-51860002D01*
X154489278Y-51860003D01*
X154651681Y-51932309D01*
X154657712Y-51934994D01*
X154751113Y-51954847D01*
X154838056Y-51973328D01*
X154838061Y-51973328D01*
X154844513Y-51974700D01*
X155035487Y-51974700D01*
X155041939Y-51973328D01*
X155041944Y-51973328D01*
X155128887Y-51954847D01*
X155222288Y-51934994D01*
X155228319Y-51932309D01*
X155390722Y-51860003D01*
X155390724Y-51860002D01*
X155396752Y-51857318D01*
X155426313Y-51835841D01*
X155469738Y-51804290D01*
X155551253Y-51745066D01*
X155578124Y-51715223D01*
X155674621Y-51608052D01*
X155674622Y-51608051D01*
X155679040Y-51603144D01*
X155774527Y-51437756D01*
X155833542Y-51256128D01*
X155845533Y-51142045D01*
X155852814Y-51072765D01*
X155853504Y-51066200D01*
X155844802Y-50983405D01*
X155834232Y-50882835D01*
X155834232Y-50882833D01*
X155833542Y-50876272D01*
X155774527Y-50694644D01*
X155679040Y-50529256D01*
X155639620Y-50485475D01*
X155555675Y-50392245D01*
X155555674Y-50392244D01*
X155551253Y-50387334D01*
X155396752Y-50275082D01*
X155398503Y-50272672D01*
X155358467Y-50230624D01*
X155344500Y-50172965D01*
X155344500Y-47627259D01*
X155364502Y-47559138D01*
X155376864Y-47542949D01*
X155420621Y-47494352D01*
X155420622Y-47494351D01*
X155425040Y-47489444D01*
X155487971Y-47380444D01*
X155517223Y-47329779D01*
X155517224Y-47329778D01*
X155520527Y-47324056D01*
X155579542Y-47142428D01*
X155581285Y-47125850D01*
X155598814Y-46959065D01*
X155599504Y-46952500D01*
X155589879Y-46860919D01*
X155580232Y-46769135D01*
X155580232Y-46769133D01*
X155579542Y-46762572D01*
X155520527Y-46580944D01*
X155513921Y-46569501D01*
X155463504Y-46482178D01*
X155425040Y-46415556D01*
X155371535Y-46356132D01*
X155301675Y-46278545D01*
X155301674Y-46278544D01*
X155297253Y-46273634D01*
X155198157Y-46201636D01*
X155148094Y-46165263D01*
X155148093Y-46165262D01*
X155142752Y-46161382D01*
X155136724Y-46158698D01*
X155136722Y-46158697D01*
X154974319Y-46086391D01*
X154974318Y-46086391D01*
X154968288Y-46083706D01*
X154874887Y-46063853D01*
X154787944Y-46045372D01*
X154787939Y-46045372D01*
X154781487Y-46044000D01*
X154590513Y-46044000D01*
X154584061Y-46045372D01*
X154584056Y-46045372D01*
X154497113Y-46063853D01*
X154403712Y-46083706D01*
X154397682Y-46086391D01*
X154397681Y-46086391D01*
X154235278Y-46158697D01*
X154235276Y-46158698D01*
X154229248Y-46161382D01*
X154223907Y-46165262D01*
X154223906Y-46165263D01*
X154173843Y-46201636D01*
X154074747Y-46273634D01*
X154070326Y-46278544D01*
X154070325Y-46278545D01*
X154000466Y-46356132D01*
X153946960Y-46415556D01*
X153908496Y-46482178D01*
X153858080Y-46569501D01*
X153851473Y-46580944D01*
X153792458Y-46762572D01*
X153791768Y-46769133D01*
X153791768Y-46769135D01*
X153782121Y-46860919D01*
X153772496Y-46952500D01*
X149686517Y-46952500D01*
X149608881Y-46896094D01*
X149598677Y-46888680D01*
X149598676Y-46888679D01*
X149593335Y-46884799D01*
X149587307Y-46882115D01*
X149587305Y-46882114D01*
X149424902Y-46809808D01*
X149424901Y-46809808D01*
X149418871Y-46807123D01*
X149325470Y-46787270D01*
X149238527Y-46768789D01*
X149238522Y-46768789D01*
X149232070Y-46767417D01*
X149041096Y-46767417D01*
X149034644Y-46768789D01*
X149034639Y-46768789D01*
X148947696Y-46787270D01*
X148854295Y-46807123D01*
X148848265Y-46809808D01*
X148848264Y-46809808D01*
X148685861Y-46882114D01*
X148685859Y-46882115D01*
X148679831Y-46884799D01*
X148674490Y-46888679D01*
X148674489Y-46888680D01*
X148664285Y-46896094D01*
X148530675Y-46993168D01*
X148530420Y-46993353D01*
X148463552Y-47017211D01*
X148456359Y-47017417D01*
X139005505Y-47017417D01*
X138937384Y-46997415D01*
X138931444Y-46993353D01*
X138892094Y-46964763D01*
X138892092Y-46964762D01*
X138886752Y-46960882D01*
X138880724Y-46958198D01*
X138880722Y-46958197D01*
X138718319Y-46885891D01*
X138718318Y-46885891D01*
X138712288Y-46883206D01*
X138618887Y-46863353D01*
X138531944Y-46844872D01*
X138531939Y-46844872D01*
X138525487Y-46843500D01*
X138334513Y-46843500D01*
X138328061Y-46844872D01*
X138328056Y-46844872D01*
X138241113Y-46863353D01*
X138147712Y-46883206D01*
X138141682Y-46885891D01*
X138141681Y-46885891D01*
X137979278Y-46958197D01*
X137979276Y-46958198D01*
X137973248Y-46960882D01*
X137967907Y-46964762D01*
X137967906Y-46964763D01*
X137928810Y-46993168D01*
X137818747Y-47073134D01*
X137814326Y-47078044D01*
X137814325Y-47078045D01*
X137732550Y-47168866D01*
X137690960Y-47215056D01*
X137648759Y-47288150D01*
X137604558Y-47364709D01*
X137595473Y-47380444D01*
X137536458Y-47562072D01*
X137535768Y-47568633D01*
X137535768Y-47568635D01*
X137522802Y-47692002D01*
X137516496Y-47752000D01*
X61581160Y-47752000D01*
X61553107Y-47738919D01*
X61499822Y-47692002D01*
X61480361Y-47623725D01*
X61500903Y-47555765D01*
X61553107Y-47510529D01*
X61673424Y-47454425D01*
X61682919Y-47448942D01*
X61725021Y-47419462D01*
X61733396Y-47408985D01*
X61726328Y-47395538D01*
X61057812Y-46727022D01*
X61043868Y-46719408D01*
X61042035Y-46719539D01*
X61035420Y-46723790D01*
X60362951Y-47396259D01*
X60356521Y-47408034D01*
X60365817Y-47420049D01*
X60407081Y-47448942D01*
X60416576Y-47454425D01*
X60536893Y-47510529D01*
X60590178Y-47557446D01*
X60609639Y-47625723D01*
X60589097Y-47693683D01*
X60536893Y-47738919D01*
X60416320Y-47795143D01*
X60416317Y-47795145D01*
X60411339Y-47797466D01*
X60230380Y-47924174D01*
X60074174Y-48080380D01*
X59947466Y-48261339D01*
X59945145Y-48266317D01*
X59945143Y-48266320D01*
X59856429Y-48456568D01*
X59854106Y-48461550D01*
X59796930Y-48674932D01*
X59777677Y-48895000D01*
X45974000Y-48895000D01*
X45974000Y-46360475D01*
X59778658Y-46360475D01*
X59796946Y-46569501D01*
X59798849Y-46580296D01*
X59853155Y-46782968D01*
X59856901Y-46793260D01*
X59945577Y-46983425D01*
X59951055Y-46992915D01*
X59980539Y-47035022D01*
X59991015Y-47043396D01*
X60004463Y-47036327D01*
X60672978Y-46367812D01*
X60679356Y-46356132D01*
X61409408Y-46356132D01*
X61409539Y-46357965D01*
X61413790Y-46364580D01*
X62086259Y-47037049D01*
X62098033Y-47043479D01*
X62110049Y-47034183D01*
X62138945Y-46992915D01*
X62144423Y-46983425D01*
X62233099Y-46793260D01*
X62236845Y-46782968D01*
X62291151Y-46580296D01*
X62293054Y-46569501D01*
X62311342Y-46360475D01*
X62311342Y-46349525D01*
X62293054Y-46140499D01*
X62291151Y-46129704D01*
X62236845Y-45927032D01*
X62233099Y-45916740D01*
X62144423Y-45726575D01*
X62138945Y-45717085D01*
X62109461Y-45674978D01*
X62098985Y-45666604D01*
X62085537Y-45673673D01*
X61417022Y-46342188D01*
X61409408Y-46356132D01*
X60679356Y-46356132D01*
X60680592Y-46353868D01*
X60680461Y-46352035D01*
X60676210Y-46345420D01*
X60003741Y-45672951D01*
X59991967Y-45666521D01*
X59979951Y-45675817D01*
X59951055Y-45717085D01*
X59945577Y-45726575D01*
X59856901Y-45916740D01*
X59853155Y-45927032D01*
X59798849Y-46129704D01*
X59796946Y-46140499D01*
X59778658Y-46349525D01*
X59778658Y-46360475D01*
X45974000Y-46360475D01*
X45974000Y-43815000D01*
X59777677Y-43815000D01*
X59796930Y-44035068D01*
X59854106Y-44248450D01*
X59856428Y-44253431D01*
X59856429Y-44253432D01*
X59903142Y-44353607D01*
X59947466Y-44448661D01*
X60074174Y-44629620D01*
X60230380Y-44785826D01*
X60234888Y-44788983D01*
X60234891Y-44788985D01*
X60393733Y-44900207D01*
X60411338Y-44912534D01*
X60416320Y-44914857D01*
X60416325Y-44914860D01*
X60536893Y-44971081D01*
X60590178Y-45017998D01*
X60609639Y-45086275D01*
X60589097Y-45154235D01*
X60536893Y-45199471D01*
X60416575Y-45255576D01*
X60407085Y-45261055D01*
X60364978Y-45290539D01*
X60356604Y-45301015D01*
X60363673Y-45314463D01*
X61032188Y-45982978D01*
X61046132Y-45990592D01*
X61047965Y-45990461D01*
X61054580Y-45986210D01*
X61727049Y-45313741D01*
X61733479Y-45301966D01*
X61724183Y-45289951D01*
X61682919Y-45261058D01*
X61673424Y-45255575D01*
X61553107Y-45199471D01*
X61499822Y-45152554D01*
X61480361Y-45084277D01*
X61500903Y-45016317D01*
X61553107Y-44971081D01*
X61673675Y-44914860D01*
X61673680Y-44914857D01*
X61678662Y-44912534D01*
X61696267Y-44900207D01*
X61855109Y-44788985D01*
X61855112Y-44788983D01*
X61859620Y-44785826D01*
X62015826Y-44629620D01*
X62142534Y-44448661D01*
X62186859Y-44353607D01*
X62233571Y-44253432D01*
X62233572Y-44253431D01*
X62235894Y-44248450D01*
X62293070Y-44035068D01*
X62312323Y-43815000D01*
X62293070Y-43594932D01*
X62249091Y-43430800D01*
X62237317Y-43386860D01*
X62237316Y-43386858D01*
X62235894Y-43381550D01*
X62209584Y-43325128D01*
X62144857Y-43186320D01*
X62144855Y-43186317D01*
X62142534Y-43181339D01*
X62015826Y-43000380D01*
X61859620Y-42844174D01*
X61855112Y-42841017D01*
X61855109Y-42841015D01*
X61683171Y-42720623D01*
X61683168Y-42720621D01*
X61678662Y-42717466D01*
X61673680Y-42715143D01*
X61673675Y-42715140D01*
X61483432Y-42626429D01*
X61483431Y-42626429D01*
X61478450Y-42624106D01*
X61473142Y-42622684D01*
X61473140Y-42622683D01*
X61393580Y-42601365D01*
X61265068Y-42566930D01*
X61045000Y-42547677D01*
X60824932Y-42566930D01*
X60696420Y-42601365D01*
X60616860Y-42622683D01*
X60616858Y-42622684D01*
X60611550Y-42624106D01*
X60606569Y-42626428D01*
X60606568Y-42626429D01*
X60416320Y-42715143D01*
X60416317Y-42715145D01*
X60411339Y-42717466D01*
X60230380Y-42844174D01*
X60074174Y-43000380D01*
X59947466Y-43181339D01*
X59945145Y-43186317D01*
X59945143Y-43186320D01*
X59880416Y-43325128D01*
X59854106Y-43381550D01*
X59852684Y-43386858D01*
X59852683Y-43386860D01*
X59840909Y-43430800D01*
X59796930Y-43594932D01*
X59777677Y-43815000D01*
X45974000Y-43815000D01*
X45974000Y-36195000D01*
X59777677Y-36195000D01*
X59796930Y-36415068D01*
X59854106Y-36628450D01*
X59856428Y-36633431D01*
X59856429Y-36633432D01*
X59928705Y-36788427D01*
X59947466Y-36828661D01*
X60074174Y-37009620D01*
X60230380Y-37165826D01*
X60234888Y-37168983D01*
X60234891Y-37168985D01*
X60406829Y-37289377D01*
X60411338Y-37292534D01*
X60416320Y-37294857D01*
X60416325Y-37294860D01*
X60490867Y-37329619D01*
X60611550Y-37385894D01*
X60616858Y-37387316D01*
X60616860Y-37387317D01*
X60682252Y-37404839D01*
X60824932Y-37443070D01*
X61045000Y-37462323D01*
X61265068Y-37443070D01*
X61407748Y-37404839D01*
X61473140Y-37387317D01*
X61473142Y-37387316D01*
X61478450Y-37385894D01*
X61599133Y-37329619D01*
X61673675Y-37294860D01*
X61673680Y-37294857D01*
X61678662Y-37292534D01*
X61683171Y-37289377D01*
X61855109Y-37168985D01*
X61855112Y-37168983D01*
X61859620Y-37165826D01*
X62015826Y-37009620D01*
X62142534Y-36828661D01*
X62161296Y-36788427D01*
X62233571Y-36633432D01*
X62233572Y-36633431D01*
X62235894Y-36628450D01*
X62293070Y-36415068D01*
X62312323Y-36195000D01*
X62293070Y-35974932D01*
X62235894Y-35761550D01*
X62142534Y-35561339D01*
X62015826Y-35380380D01*
X61859620Y-35224174D01*
X61855112Y-35221017D01*
X61855109Y-35221015D01*
X61764713Y-35157720D01*
X61748994Y-35146713D01*
X61704666Y-35091256D01*
X61697357Y-35020637D01*
X61729388Y-34957276D01*
X61790589Y-34921291D01*
X61821265Y-34917500D01*
X61847134Y-34917500D01*
X61909316Y-34910745D01*
X62045705Y-34859615D01*
X62162261Y-34772261D01*
X62249615Y-34655705D01*
X62300745Y-34519316D01*
X62307500Y-34457134D01*
X62307500Y-32852866D01*
X62300745Y-32790684D01*
X62249615Y-32654295D01*
X62162261Y-32537739D01*
X62045705Y-32450385D01*
X61909316Y-32399255D01*
X61847134Y-32392500D01*
X60242866Y-32392500D01*
X60180684Y-32399255D01*
X60044295Y-32450385D01*
X59927739Y-32537739D01*
X59840385Y-32654295D01*
X59789255Y-32790684D01*
X59782500Y-32852866D01*
X59782500Y-34457134D01*
X59789255Y-34519316D01*
X59840385Y-34655705D01*
X59927739Y-34772261D01*
X60044295Y-34859615D01*
X60180684Y-34910745D01*
X60242866Y-34917500D01*
X60268737Y-34917500D01*
X60336858Y-34937502D01*
X60383351Y-34991158D01*
X60393455Y-35061432D01*
X60363961Y-35126012D01*
X60341014Y-35146708D01*
X60230380Y-35224174D01*
X60074174Y-35380380D01*
X59947466Y-35561339D01*
X59854106Y-35761550D01*
X59796930Y-35974932D01*
X59777677Y-36195000D01*
X45974000Y-36195000D01*
X45974000Y-28574500D01*
X45994002Y-28506379D01*
X46047658Y-28459886D01*
X46100000Y-28448500D01*
X137640295Y-28448500D01*
X137708416Y-28468502D01*
G37*
%TD.AperFunction*%
%TA.AperFunction,Conductor*%
G36*
X125899888Y-69512502D02*
G01*
X125946381Y-69566158D01*
X125956485Y-69636432D01*
X125940887Y-69681497D01*
X125911473Y-69732444D01*
X125908488Y-69741632D01*
X125875410Y-69843435D01*
X125852458Y-69914072D01*
X125840223Y-70030485D01*
X125839245Y-70039786D01*
X125812232Y-70105442D01*
X125803030Y-70115710D01*
X124728145Y-71190595D01*
X124665833Y-71224621D01*
X124639050Y-71227500D01*
X124618513Y-71227500D01*
X124612061Y-71228872D01*
X124612056Y-71228872D01*
X124544279Y-71243279D01*
X124431712Y-71267206D01*
X124425682Y-71269891D01*
X124425681Y-71269891D01*
X124263278Y-71342197D01*
X124263276Y-71342198D01*
X124257248Y-71344882D01*
X124251907Y-71348762D01*
X124251906Y-71348763D01*
X124220909Y-71371284D01*
X124102747Y-71457134D01*
X124098326Y-71462044D01*
X124098325Y-71462045D01*
X123990153Y-71582183D01*
X123974960Y-71599056D01*
X123943679Y-71653237D01*
X123883434Y-71757584D01*
X123879473Y-71764444D01*
X123820458Y-71946072D01*
X123819768Y-71952633D01*
X123819768Y-71952635D01*
X123811720Y-72029206D01*
X123800496Y-72136000D01*
X123801186Y-72142565D01*
X123808826Y-72215251D01*
X123820458Y-72325928D01*
X123879473Y-72507556D01*
X123974960Y-72672944D01*
X123979378Y-72677851D01*
X123979379Y-72677852D01*
X124006589Y-72708072D01*
X124102747Y-72814866D01*
X124171070Y-72864506D01*
X124226207Y-72904565D01*
X124257248Y-72927118D01*
X124263276Y-72929802D01*
X124263278Y-72929803D01*
X124336075Y-72962214D01*
X124431712Y-73004794D01*
X124525112Y-73024647D01*
X124612056Y-73043128D01*
X124612061Y-73043128D01*
X124618513Y-73044500D01*
X124809487Y-73044500D01*
X124815939Y-73043128D01*
X124815944Y-73043128D01*
X124902888Y-73024647D01*
X124996288Y-73004794D01*
X125091925Y-72962214D01*
X125164722Y-72929803D01*
X125164724Y-72929802D01*
X125170752Y-72927118D01*
X125201794Y-72904565D01*
X125256930Y-72864506D01*
X125325253Y-72814866D01*
X125421411Y-72708072D01*
X125448621Y-72677852D01*
X125448622Y-72677851D01*
X125453040Y-72672944D01*
X125548527Y-72507556D01*
X125607542Y-72325928D01*
X125620755Y-72200213D01*
X125647768Y-72134558D01*
X125656970Y-72124290D01*
X126731855Y-71049405D01*
X126794167Y-71015379D01*
X126820950Y-71012500D01*
X126841487Y-71012500D01*
X126847939Y-71011128D01*
X126847944Y-71011128D01*
X126934888Y-70992647D01*
X127028288Y-70972794D01*
X127171759Y-70908917D01*
X127196722Y-70897803D01*
X127196724Y-70897802D01*
X127202752Y-70895118D01*
X127211410Y-70888828D01*
X127289582Y-70832032D01*
X127357253Y-70782866D01*
X127361675Y-70777955D01*
X127480621Y-70645852D01*
X127480622Y-70645851D01*
X127485040Y-70640944D01*
X127580527Y-70475556D01*
X127639542Y-70293928D01*
X127651175Y-70183251D01*
X127658814Y-70110565D01*
X127659504Y-70104000D01*
X127648280Y-69997206D01*
X127640232Y-69920635D01*
X127640232Y-69920633D01*
X127639542Y-69914072D01*
X127580527Y-69732444D01*
X127551113Y-69681498D01*
X127534376Y-69612506D01*
X127557596Y-69545414D01*
X127613403Y-69501526D01*
X127660233Y-69492500D01*
X135334379Y-69492500D01*
X135402500Y-69512502D01*
X135448993Y-69566158D01*
X135459097Y-69636432D01*
X135429603Y-69701012D01*
X135369877Y-69739396D01*
X135360576Y-69741747D01*
X135353712Y-69743206D01*
X135347682Y-69745891D01*
X135347681Y-69745891D01*
X135185278Y-69818197D01*
X135185276Y-69818198D01*
X135179248Y-69820882D01*
X135173907Y-69824762D01*
X135173906Y-69824763D01*
X135140700Y-69848889D01*
X135024747Y-69933134D01*
X135020326Y-69938044D01*
X135020325Y-69938045D01*
X134922937Y-70046206D01*
X134896960Y-70075056D01*
X134846882Y-70161794D01*
X134813506Y-70219603D01*
X134801473Y-70240444D01*
X134799431Y-70246729D01*
X134765410Y-70351435D01*
X134742458Y-70422072D01*
X134731234Y-70528866D01*
X134729245Y-70547786D01*
X134702232Y-70613442D01*
X134693030Y-70623710D01*
X128118104Y-77198636D01*
X128055792Y-77232662D01*
X127984977Y-77227597D01*
X127928141Y-77185050D01*
X127903699Y-77122711D01*
X127894232Y-77032635D01*
X127894232Y-77032633D01*
X127893542Y-77026072D01*
X127834527Y-76844444D01*
X127739040Y-76679056D01*
X127611253Y-76537134D01*
X127456752Y-76424882D01*
X127450724Y-76422198D01*
X127450722Y-76422197D01*
X127288319Y-76349891D01*
X127288318Y-76349891D01*
X127282288Y-76347206D01*
X127188888Y-76327353D01*
X127101944Y-76308872D01*
X127101939Y-76308872D01*
X127095487Y-76307500D01*
X126904513Y-76307500D01*
X126898061Y-76308872D01*
X126898056Y-76308872D01*
X126811112Y-76327353D01*
X126717712Y-76347206D01*
X126711682Y-76349891D01*
X126711681Y-76349891D01*
X126549278Y-76422197D01*
X126549276Y-76422198D01*
X126543248Y-76424882D01*
X126394092Y-76533251D01*
X126393837Y-76533436D01*
X126326969Y-76557294D01*
X126319776Y-76557500D01*
X118536224Y-76557500D01*
X118468103Y-76537498D01*
X118462163Y-76533436D01*
X118461909Y-76533251D01*
X118312752Y-76424882D01*
X118306724Y-76422198D01*
X118306722Y-76422197D01*
X118144319Y-76349891D01*
X118144318Y-76349891D01*
X118138288Y-76347206D01*
X118044888Y-76327353D01*
X117957944Y-76308872D01*
X117957939Y-76308872D01*
X117951487Y-76307500D01*
X117760513Y-76307500D01*
X117754061Y-76308872D01*
X117754056Y-76308872D01*
X117667112Y-76327353D01*
X117573712Y-76347206D01*
X117567682Y-76349891D01*
X117567681Y-76349891D01*
X117405278Y-76422197D01*
X117405276Y-76422198D01*
X117399248Y-76424882D01*
X117244747Y-76537134D01*
X117116960Y-76679056D01*
X117021473Y-76844444D01*
X116962458Y-77026072D01*
X116942496Y-77216000D01*
X116962458Y-77405928D01*
X117021473Y-77587556D01*
X117116960Y-77752944D01*
X117244747Y-77894866D01*
X117399248Y-78007118D01*
X117405276Y-78009802D01*
X117405278Y-78009803D01*
X117567681Y-78082109D01*
X117573712Y-78084794D01*
X117667113Y-78104647D01*
X117754056Y-78123128D01*
X117754061Y-78123128D01*
X117760513Y-78124500D01*
X117951487Y-78124500D01*
X117957939Y-78123128D01*
X117957944Y-78123128D01*
X118044887Y-78104647D01*
X118138288Y-78084794D01*
X118144319Y-78082109D01*
X118306722Y-78009803D01*
X118306724Y-78009802D01*
X118312752Y-78007118D01*
X118462163Y-77898564D01*
X118529031Y-77874706D01*
X118536224Y-77874500D01*
X126319776Y-77874500D01*
X126387897Y-77894502D01*
X126393834Y-77898562D01*
X126543248Y-78007118D01*
X126549276Y-78009802D01*
X126549278Y-78009803D01*
X126711681Y-78082109D01*
X126717712Y-78084794D01*
X126904513Y-78124500D01*
X126904911Y-78124500D01*
X126968438Y-78150633D01*
X127009071Y-78208852D01*
X127011778Y-78279797D01*
X126978711Y-78338029D01*
X90950145Y-114366595D01*
X90887833Y-114400621D01*
X90861050Y-114403500D01*
X79928224Y-114403500D01*
X79860103Y-114383498D01*
X79854163Y-114379436D01*
X79853909Y-114379251D01*
X79704752Y-114270882D01*
X79698724Y-114268198D01*
X79698722Y-114268197D01*
X79536319Y-114195891D01*
X79536318Y-114195891D01*
X79530288Y-114193206D01*
X79436887Y-114173353D01*
X79349944Y-114154872D01*
X79349939Y-114154872D01*
X79343487Y-114153500D01*
X79152513Y-114153500D01*
X79146061Y-114154872D01*
X79146056Y-114154872D01*
X79059113Y-114173353D01*
X78965712Y-114193206D01*
X78959682Y-114195891D01*
X78959681Y-114195891D01*
X78797278Y-114268197D01*
X78797276Y-114268198D01*
X78791248Y-114270882D01*
X78636747Y-114383134D01*
X78508960Y-114525056D01*
X78413473Y-114690444D01*
X78354458Y-114872072D01*
X78334496Y-115062000D01*
X78354458Y-115251928D01*
X78356499Y-115258210D01*
X78357872Y-115264668D01*
X78355618Y-115265147D01*
X78357340Y-115325538D01*
X78320674Y-115386334D01*
X78256960Y-115417656D01*
X78235481Y-115419500D01*
X77552056Y-115419500D01*
X77540200Y-115418941D01*
X77540197Y-115418941D01*
X77532463Y-115417212D01*
X77477446Y-115418941D01*
X77461631Y-115419438D01*
X77457673Y-115419500D01*
X77428568Y-115419500D01*
X77424168Y-115420056D01*
X77412336Y-115420988D01*
X77366169Y-115422438D01*
X77345579Y-115428420D01*
X77326218Y-115432430D01*
X77319230Y-115433312D01*
X77312796Y-115434125D01*
X77312795Y-115434125D01*
X77304936Y-115435118D01*
X77297571Y-115438034D01*
X77297567Y-115438035D01*
X77261979Y-115452126D01*
X77250769Y-115455965D01*
X77206400Y-115468855D01*
X77187943Y-115479771D01*
X77170193Y-115488466D01*
X77150244Y-115496365D01*
X77143833Y-115501023D01*
X77143831Y-115501024D01*
X77112864Y-115523523D01*
X77102946Y-115530038D01*
X77063193Y-115553548D01*
X77048026Y-115568714D01*
X77033003Y-115581545D01*
X77022056Y-115589499D01*
X77022054Y-115589501D01*
X77015643Y-115594159D01*
X77010591Y-115600266D01*
X76986193Y-115629758D01*
X76978203Y-115638538D01*
X72004067Y-120612673D01*
X71941755Y-120646699D01*
X71916547Y-120649568D01*
X71900115Y-120649773D01*
X71900113Y-120649774D01*
X71882000Y-120650000D01*
X71878173Y-120662438D01*
X71853541Y-120742493D01*
X71822209Y-120794531D01*
X68339073Y-124277667D01*
X68339070Y-124277671D01*
X65292145Y-127324595D01*
X65229833Y-127358621D01*
X65203050Y-127361500D01*
X65182513Y-127361500D01*
X65176061Y-127362872D01*
X65176056Y-127362872D01*
X65089113Y-127381353D01*
X64995712Y-127401206D01*
X64989682Y-127403891D01*
X64989681Y-127403891D01*
X64827278Y-127476197D01*
X64827276Y-127476198D01*
X64821248Y-127478882D01*
X64666747Y-127591134D01*
X64538960Y-127733056D01*
X64443473Y-127898444D01*
X64384458Y-128080072D01*
X64383768Y-128086633D01*
X64383768Y-128086635D01*
X64375265Y-128167540D01*
X64364496Y-128270000D01*
X64384458Y-128459928D01*
X64443473Y-128641556D01*
X64538960Y-128806944D01*
X64543378Y-128811851D01*
X64543379Y-128811852D01*
X64644207Y-128923833D01*
X64666747Y-128948866D01*
X64821248Y-129061118D01*
X64827276Y-129063802D01*
X64827278Y-129063803D01*
X64989681Y-129136109D01*
X64995712Y-129138794D01*
X65089113Y-129158647D01*
X65176056Y-129177128D01*
X65176061Y-129177128D01*
X65182513Y-129178500D01*
X65373487Y-129178500D01*
X65379939Y-129177128D01*
X65379944Y-129177128D01*
X65466887Y-129158647D01*
X65560288Y-129138794D01*
X65566319Y-129136109D01*
X65728722Y-129063803D01*
X65728724Y-129063802D01*
X65734752Y-129061118D01*
X65889253Y-128948866D01*
X65911793Y-128923833D01*
X66012621Y-128811852D01*
X66012622Y-128811851D01*
X66017040Y-128806944D01*
X66112527Y-128641556D01*
X66171542Y-128459928D01*
X66184755Y-128334213D01*
X66211768Y-128268558D01*
X66220970Y-128258290D01*
X69240803Y-125238456D01*
X69240806Y-125238454D01*
X70657840Y-123821420D01*
X70720152Y-123787394D01*
X70790967Y-123792459D01*
X70847803Y-123835006D01*
X70872614Y-123901526D01*
X70867363Y-123947570D01*
X70565678Y-124928046D01*
X67856770Y-133732000D01*
X67845368Y-133769055D01*
X67806217Y-133828281D01*
X67741261Y-133856938D01*
X67724940Y-133858000D01*
X60479016Y-133858000D01*
X60410895Y-133837998D01*
X60364402Y-133784342D01*
X60354298Y-133714068D01*
X60383792Y-133649488D01*
X60404955Y-133630064D01*
X60406094Y-133629237D01*
X60555253Y-133520866D01*
X60612308Y-133457500D01*
X60678621Y-133383852D01*
X60678622Y-133383851D01*
X60683040Y-133378944D01*
X60778527Y-133213556D01*
X60837542Y-133031928D01*
X60850852Y-132905291D01*
X60881073Y-132836452D01*
X60880924Y-132836336D01*
X60881385Y-132835742D01*
X60881386Y-132835740D01*
X60883638Y-132832837D01*
X60891349Y-132823808D01*
X60892375Y-132822715D01*
X60922972Y-132790133D01*
X60928471Y-132780131D01*
X60933301Y-132771345D01*
X60944158Y-132754816D01*
X60952447Y-132744131D01*
X60952448Y-132744129D01*
X60957304Y-132737869D01*
X60975657Y-132695456D01*
X60980868Y-132684819D01*
X61003124Y-132644337D01*
X61005784Y-132633979D01*
X61008457Y-132623566D01*
X61014859Y-132604864D01*
X61023379Y-132585177D01*
X61030605Y-132539552D01*
X61033013Y-132527926D01*
X61042529Y-132490865D01*
X61042529Y-132490864D01*
X61044500Y-132483188D01*
X61044500Y-132461742D01*
X61046051Y-132442031D01*
X61048023Y-132429584D01*
X61049406Y-132420849D01*
X61045059Y-132374864D01*
X61044500Y-132363006D01*
X61044500Y-127001009D01*
X61064502Y-126932888D01*
X61118158Y-126886395D01*
X61123694Y-126884097D01*
X61124297Y-126883767D01*
X61132705Y-126880615D01*
X61249261Y-126793261D01*
X61336615Y-126676705D01*
X61387745Y-126540316D01*
X61394500Y-126478134D01*
X61394500Y-124981866D01*
X61387745Y-124919684D01*
X61336615Y-124783295D01*
X61249261Y-124666739D01*
X61132705Y-124579385D01*
X60996316Y-124528255D01*
X60934134Y-124521500D01*
X59837866Y-124521500D01*
X59775684Y-124528255D01*
X59639295Y-124579385D01*
X59522739Y-124666739D01*
X59521813Y-124667974D01*
X59462783Y-124700208D01*
X59391968Y-124695143D01*
X59350645Y-124668586D01*
X59349261Y-124666739D01*
X59232705Y-124579385D01*
X59224296Y-124576233D01*
X59216425Y-124571923D01*
X59217336Y-124570259D01*
X59169510Y-124534337D01*
X59144807Y-124467776D01*
X59144500Y-124458991D01*
X59144500Y-111222201D01*
X81666034Y-111222201D01*
X81679659Y-111430078D01*
X81730938Y-111631991D01*
X81818155Y-111821178D01*
X81938387Y-111991303D01*
X81942521Y-111995330D01*
X82069171Y-112118707D01*
X82087609Y-112136669D01*
X82092405Y-112139874D01*
X82092408Y-112139876D01*
X82215714Y-112222266D01*
X82260823Y-112252407D01*
X82266131Y-112254688D01*
X82266132Y-112254688D01*
X82446926Y-112332363D01*
X82446929Y-112332364D01*
X82452229Y-112334641D01*
X82457858Y-112335915D01*
X82457859Y-112335915D01*
X82649778Y-112379342D01*
X82649783Y-112379343D01*
X82655415Y-112380617D01*
X82661186Y-112380844D01*
X82661188Y-112380844D01*
X82723508Y-112383292D01*
X82863577Y-112388796D01*
X82966661Y-112373849D01*
X83064030Y-112359732D01*
X83064035Y-112359731D01*
X83069744Y-112358903D01*
X83075208Y-112357048D01*
X83075213Y-112357047D01*
X83261543Y-112293796D01*
X83267011Y-112291940D01*
X83448772Y-112190149D01*
X83608939Y-112056939D01*
X83742149Y-111896772D01*
X83843940Y-111715011D01*
X83870399Y-111637066D01*
X83909047Y-111523213D01*
X83909048Y-111523208D01*
X83910903Y-111517744D01*
X83911731Y-111512035D01*
X83911732Y-111512030D01*
X83938407Y-111328054D01*
X83940796Y-111311577D01*
X83942356Y-111252000D01*
X83939618Y-111222201D01*
X84206034Y-111222201D01*
X84219659Y-111430078D01*
X84270938Y-111631991D01*
X84358155Y-111821178D01*
X84478387Y-111991303D01*
X84482521Y-111995330D01*
X84609171Y-112118707D01*
X84627609Y-112136669D01*
X84632405Y-112139874D01*
X84632408Y-112139876D01*
X84755714Y-112222266D01*
X84800823Y-112252407D01*
X84806131Y-112254688D01*
X84806132Y-112254688D01*
X84986926Y-112332363D01*
X84986929Y-112332364D01*
X84992229Y-112334641D01*
X84997858Y-112335915D01*
X84997859Y-112335915D01*
X85189778Y-112379342D01*
X85189783Y-112379343D01*
X85195415Y-112380617D01*
X85201186Y-112380844D01*
X85201188Y-112380844D01*
X85263508Y-112383292D01*
X85403577Y-112388796D01*
X85506661Y-112373849D01*
X85604030Y-112359732D01*
X85604035Y-112359731D01*
X85609744Y-112358903D01*
X85615208Y-112357048D01*
X85615213Y-112357047D01*
X85801543Y-112293796D01*
X85807011Y-112291940D01*
X85988772Y-112190149D01*
X86148939Y-112056939D01*
X86282149Y-111896772D01*
X86383940Y-111715011D01*
X86410399Y-111637066D01*
X86449047Y-111523213D01*
X86449048Y-111523208D01*
X86450903Y-111517744D01*
X86451731Y-111512035D01*
X86451732Y-111512030D01*
X86478407Y-111328054D01*
X86480796Y-111311577D01*
X86482356Y-111252000D01*
X86479618Y-111222201D01*
X86746034Y-111222201D01*
X86759659Y-111430078D01*
X86810938Y-111631991D01*
X86898155Y-111821178D01*
X87018387Y-111991303D01*
X87022521Y-111995330D01*
X87149171Y-112118707D01*
X87167609Y-112136669D01*
X87172405Y-112139874D01*
X87172408Y-112139876D01*
X87295714Y-112222266D01*
X87340823Y-112252407D01*
X87346131Y-112254688D01*
X87346132Y-112254688D01*
X87526926Y-112332363D01*
X87526929Y-112332364D01*
X87532229Y-112334641D01*
X87537858Y-112335915D01*
X87537859Y-112335915D01*
X87729778Y-112379342D01*
X87729783Y-112379343D01*
X87735415Y-112380617D01*
X87741186Y-112380844D01*
X87741188Y-112380844D01*
X87803508Y-112383292D01*
X87943577Y-112388796D01*
X88046661Y-112373849D01*
X88144030Y-112359732D01*
X88144035Y-112359731D01*
X88149744Y-112358903D01*
X88155208Y-112357048D01*
X88155213Y-112357047D01*
X88341543Y-112293796D01*
X88347011Y-112291940D01*
X88490970Y-112211319D01*
X89829041Y-112211319D01*
X89838923Y-112223809D01*
X89876259Y-112248756D01*
X89886371Y-112254247D01*
X90067081Y-112331885D01*
X90078014Y-112335437D01*
X90269844Y-112378845D01*
X90281253Y-112380347D01*
X90477783Y-112388068D01*
X90489265Y-112387466D01*
X90683905Y-112359245D01*
X90695101Y-112356557D01*
X90881343Y-112293336D01*
X90891840Y-112288662D01*
X91010401Y-112222266D01*
X91020264Y-112212189D01*
X91017309Y-112204519D01*
X90436812Y-111624022D01*
X90422868Y-111616408D01*
X90421035Y-111616539D01*
X90414420Y-111620790D01*
X89835237Y-112199973D01*
X89829041Y-112211319D01*
X88490970Y-112211319D01*
X88528772Y-112190149D01*
X88688939Y-112056939D01*
X88822149Y-111896772D01*
X88923940Y-111715011D01*
X88950399Y-111637066D01*
X88989047Y-111523213D01*
X88989048Y-111523208D01*
X88990903Y-111517744D01*
X88991731Y-111512035D01*
X88991732Y-111512030D01*
X89018407Y-111328054D01*
X89020796Y-111311577D01*
X89022356Y-111252000D01*
X89020149Y-111227980D01*
X89286914Y-111227980D01*
X89299777Y-111424233D01*
X89301577Y-111435601D01*
X89349991Y-111626228D01*
X89353829Y-111637066D01*
X89436173Y-111815685D01*
X89441922Y-111825642D01*
X89451850Y-111839690D01*
X89462439Y-111848078D01*
X89475740Y-111841050D01*
X90051978Y-111264812D01*
X90058356Y-111253132D01*
X90788408Y-111253132D01*
X90788539Y-111254965D01*
X90792790Y-111261580D01*
X91372603Y-111841393D01*
X91384983Y-111848153D01*
X91391563Y-111843227D01*
X91460662Y-111719840D01*
X91465336Y-111709343D01*
X91528557Y-111523101D01*
X91531245Y-111511905D01*
X91559762Y-111315224D01*
X91560392Y-111307843D01*
X91561757Y-111255704D01*
X91561514Y-111248305D01*
X91543330Y-111050397D01*
X91541233Y-111039083D01*
X91487846Y-110849789D01*
X91483724Y-110839050D01*
X91396736Y-110662656D01*
X91395577Y-110660765D01*
X91386732Y-110654126D01*
X91374312Y-110660898D01*
X90796022Y-111239188D01*
X90788408Y-111253132D01*
X90058356Y-111253132D01*
X90059592Y-111250868D01*
X90059461Y-111249035D01*
X90055210Y-111242420D01*
X89474031Y-110661241D01*
X89461651Y-110654481D01*
X89455685Y-110658947D01*
X89375452Y-110811445D01*
X89371047Y-110822079D01*
X89312724Y-111009910D01*
X89310332Y-111021164D01*
X89287215Y-111216479D01*
X89286914Y-111227980D01*
X89020149Y-111227980D01*
X89003294Y-111044551D01*
X88946747Y-110844050D01*
X88854608Y-110657211D01*
X88729963Y-110490291D01*
X88576987Y-110348881D01*
X88487527Y-110292436D01*
X89828547Y-110292436D01*
X89832033Y-110300823D01*
X90411188Y-110879978D01*
X90425132Y-110887592D01*
X90426965Y-110887461D01*
X90433580Y-110883210D01*
X91012407Y-110304383D01*
X91019167Y-110292003D01*
X91013137Y-110283948D01*
X90945459Y-110241246D01*
X90935211Y-110236025D01*
X90752531Y-110163143D01*
X90741504Y-110159876D01*
X90548605Y-110121506D01*
X90537159Y-110120303D01*
X90340507Y-110117730D01*
X90329027Y-110118633D01*
X90135199Y-110151938D01*
X90124079Y-110154918D01*
X89939557Y-110222992D01*
X89929179Y-110227942D01*
X89838146Y-110282101D01*
X89828547Y-110292436D01*
X88487527Y-110292436D01*
X88400803Y-110237717D01*
X88207311Y-110160522D01*
X88038120Y-110126868D01*
X88008657Y-110121007D01*
X88002991Y-110119880D01*
X87997216Y-110119804D01*
X87997212Y-110119804D01*
X87892901Y-110118439D01*
X87794686Y-110117153D01*
X87788989Y-110118132D01*
X87788988Y-110118132D01*
X87776354Y-110120303D01*
X87589372Y-110152433D01*
X87393925Y-110224537D01*
X87388964Y-110227489D01*
X87388963Y-110227489D01*
X87297169Y-110282101D01*
X87214891Y-110331051D01*
X87058266Y-110468407D01*
X87054699Y-110472932D01*
X87054694Y-110472937D01*
X87009957Y-110529686D01*
X86929294Y-110632007D01*
X86926603Y-110637123D01*
X86926601Y-110637125D01*
X86869039Y-110746533D01*
X86832296Y-110816370D01*
X86770520Y-111015322D01*
X86746034Y-111222201D01*
X86479618Y-111222201D01*
X86463294Y-111044551D01*
X86406747Y-110844050D01*
X86314608Y-110657211D01*
X86189963Y-110490291D01*
X86036987Y-110348881D01*
X85860803Y-110237717D01*
X85667311Y-110160522D01*
X85498120Y-110126868D01*
X85468657Y-110121007D01*
X85462991Y-110119880D01*
X85457216Y-110119804D01*
X85457212Y-110119804D01*
X85352901Y-110118439D01*
X85254686Y-110117153D01*
X85248989Y-110118132D01*
X85248988Y-110118132D01*
X85236354Y-110120303D01*
X85049372Y-110152433D01*
X84853925Y-110224537D01*
X84848964Y-110227489D01*
X84848963Y-110227489D01*
X84757169Y-110282101D01*
X84674891Y-110331051D01*
X84518266Y-110468407D01*
X84514699Y-110472932D01*
X84514694Y-110472937D01*
X84469957Y-110529686D01*
X84389294Y-110632007D01*
X84386603Y-110637123D01*
X84386601Y-110637125D01*
X84329039Y-110746533D01*
X84292296Y-110816370D01*
X84230520Y-111015322D01*
X84206034Y-111222201D01*
X83939618Y-111222201D01*
X83923294Y-111044551D01*
X83866747Y-110844050D01*
X83774608Y-110657211D01*
X83649963Y-110490291D01*
X83496987Y-110348881D01*
X83320803Y-110237717D01*
X83127311Y-110160522D01*
X82958120Y-110126868D01*
X82928657Y-110121007D01*
X82922991Y-110119880D01*
X82917216Y-110119804D01*
X82917212Y-110119804D01*
X82812901Y-110118439D01*
X82714686Y-110117153D01*
X82708989Y-110118132D01*
X82708988Y-110118132D01*
X82696354Y-110120303D01*
X82509372Y-110152433D01*
X82313925Y-110224537D01*
X82308964Y-110227489D01*
X82308963Y-110227489D01*
X82217169Y-110282101D01*
X82134891Y-110331051D01*
X81978266Y-110468407D01*
X81974699Y-110472932D01*
X81974694Y-110472937D01*
X81929957Y-110529686D01*
X81849294Y-110632007D01*
X81846603Y-110637123D01*
X81846601Y-110637125D01*
X81789039Y-110746533D01*
X81752296Y-110816370D01*
X81690520Y-111015322D01*
X81666034Y-111222201D01*
X59144500Y-111222201D01*
X59144500Y-108966000D01*
X83668496Y-108966000D01*
X83669186Y-108972565D01*
X83683894Y-109112500D01*
X83688458Y-109155928D01*
X83747473Y-109337556D01*
X83842960Y-109502944D01*
X83847378Y-109507851D01*
X83847379Y-109507852D01*
X83898299Y-109564404D01*
X83970747Y-109644866D01*
X84125248Y-109757118D01*
X84131276Y-109759802D01*
X84131278Y-109759803D01*
X84185626Y-109784000D01*
X84299712Y-109834794D01*
X84393113Y-109854647D01*
X84480056Y-109873128D01*
X84480061Y-109873128D01*
X84486513Y-109874500D01*
X84677487Y-109874500D01*
X84683939Y-109873128D01*
X84683944Y-109873128D01*
X84770887Y-109854647D01*
X84864288Y-109834794D01*
X84978374Y-109784000D01*
X85032722Y-109759803D01*
X85032724Y-109759802D01*
X85038752Y-109757118D01*
X85188163Y-109648564D01*
X85255031Y-109624706D01*
X85262224Y-109624500D01*
X85937068Y-109624500D01*
X86005189Y-109644502D01*
X86012633Y-109649674D01*
X86115295Y-109726615D01*
X86251684Y-109777745D01*
X86313866Y-109784500D01*
X86830134Y-109784500D01*
X86892316Y-109777745D01*
X87028705Y-109726615D01*
X87046852Y-109713014D01*
X87113360Y-109688167D01*
X87182743Y-109703221D01*
X87197980Y-109713013D01*
X87208353Y-109720787D01*
X87223946Y-109729324D01*
X87344394Y-109774478D01*
X87359649Y-109778105D01*
X87410514Y-109783631D01*
X87417328Y-109784000D01*
X87443885Y-109784000D01*
X87459124Y-109779525D01*
X87460329Y-109778135D01*
X87462000Y-109770452D01*
X87462000Y-109765884D01*
X87882000Y-109765884D01*
X87886475Y-109781123D01*
X87887865Y-109782328D01*
X87895548Y-109783999D01*
X87926669Y-109783999D01*
X87933490Y-109783629D01*
X87984352Y-109778105D01*
X87999604Y-109774479D01*
X88120054Y-109729324D01*
X88135649Y-109720786D01*
X88237724Y-109644285D01*
X88250285Y-109631724D01*
X88326786Y-109529649D01*
X88335324Y-109514054D01*
X88380478Y-109393606D01*
X88384105Y-109378351D01*
X88389631Y-109327486D01*
X88390000Y-109320672D01*
X88390000Y-109194115D01*
X88385525Y-109178876D01*
X88384135Y-109177671D01*
X88376452Y-109176000D01*
X87900115Y-109176000D01*
X87884876Y-109180475D01*
X87883671Y-109181865D01*
X87882000Y-109189548D01*
X87882000Y-109765884D01*
X87462000Y-109765884D01*
X87462000Y-108737885D01*
X87882000Y-108737885D01*
X87886475Y-108753124D01*
X87887865Y-108754329D01*
X87895548Y-108756000D01*
X88371884Y-108756000D01*
X88387123Y-108751525D01*
X88388328Y-108750135D01*
X88389999Y-108742452D01*
X88389999Y-108611331D01*
X88389629Y-108604510D01*
X88384105Y-108553648D01*
X88380479Y-108538396D01*
X88335324Y-108417946D01*
X88326786Y-108402351D01*
X88250285Y-108300276D01*
X88237724Y-108287715D01*
X88135649Y-108211214D01*
X88120054Y-108202676D01*
X87999606Y-108157522D01*
X87984351Y-108153895D01*
X87933486Y-108148369D01*
X87926672Y-108148000D01*
X87900115Y-108148000D01*
X87884876Y-108152475D01*
X87883671Y-108153865D01*
X87882000Y-108161548D01*
X87882000Y-108737885D01*
X87462000Y-108737885D01*
X87462000Y-108166116D01*
X87457525Y-108150877D01*
X87456135Y-108149672D01*
X87448452Y-108148001D01*
X87417331Y-108148001D01*
X87410510Y-108148371D01*
X87359648Y-108153895D01*
X87344396Y-108157521D01*
X87223946Y-108202676D01*
X87208353Y-108211213D01*
X87197980Y-108218987D01*
X87131473Y-108243833D01*
X87062091Y-108228779D01*
X87046853Y-108218986D01*
X87043215Y-108216260D01*
X87028705Y-108205385D01*
X86892316Y-108154255D01*
X86830134Y-108147500D01*
X86313866Y-108147500D01*
X86251684Y-108154255D01*
X86115295Y-108205385D01*
X86035276Y-108265356D01*
X86012633Y-108282326D01*
X85946127Y-108307174D01*
X85937068Y-108307500D01*
X85262224Y-108307500D01*
X85194103Y-108287498D01*
X85188163Y-108283436D01*
X85187909Y-108283251D01*
X85080736Y-108205385D01*
X85044094Y-108178763D01*
X85044093Y-108178762D01*
X85038752Y-108174882D01*
X85032724Y-108172198D01*
X85032722Y-108172197D01*
X84870319Y-108099891D01*
X84870318Y-108099891D01*
X84864288Y-108097206D01*
X84770887Y-108077353D01*
X84683944Y-108058872D01*
X84683939Y-108058872D01*
X84677487Y-108057500D01*
X84486513Y-108057500D01*
X84480061Y-108058872D01*
X84480056Y-108058872D01*
X84393112Y-108077353D01*
X84299712Y-108097206D01*
X84293682Y-108099891D01*
X84293681Y-108099891D01*
X84131278Y-108172197D01*
X84131276Y-108172198D01*
X84125248Y-108174882D01*
X84119907Y-108178762D01*
X84119906Y-108178763D01*
X84087603Y-108202233D01*
X83970747Y-108287134D01*
X83966326Y-108292044D01*
X83966325Y-108292045D01*
X83868937Y-108400206D01*
X83842960Y-108429056D01*
X83747473Y-108594444D01*
X83688458Y-108776072D01*
X83687768Y-108782633D01*
X83687768Y-108782635D01*
X83669186Y-108959435D01*
X83668496Y-108966000D01*
X59144500Y-108966000D01*
X59144500Y-104906950D01*
X59164502Y-104838829D01*
X59181405Y-104817855D01*
X64888332Y-99110928D01*
X64950644Y-99076902D01*
X65021459Y-99081967D01*
X65071063Y-99115713D01*
X65174747Y-99230866D01*
X65329248Y-99343118D01*
X65335276Y-99345802D01*
X65335278Y-99345803D01*
X65497681Y-99418109D01*
X65503712Y-99420794D01*
X65597112Y-99440647D01*
X65684056Y-99459128D01*
X65684061Y-99459128D01*
X65690513Y-99460500D01*
X65881487Y-99460500D01*
X65887939Y-99459128D01*
X65887944Y-99459128D01*
X65974888Y-99440647D01*
X66068288Y-99420794D01*
X66074319Y-99418109D01*
X66236722Y-99345803D01*
X66236724Y-99345802D01*
X66242752Y-99343118D01*
X66314598Y-99290919D01*
X66374489Y-99247405D01*
X66392163Y-99234564D01*
X66459031Y-99210706D01*
X66466224Y-99210500D01*
X82225050Y-99210500D01*
X82293171Y-99230502D01*
X82314145Y-99247405D01*
X91259030Y-108192289D01*
X91293056Y-108254601D01*
X91295245Y-108268212D01*
X91308458Y-108393928D01*
X91367473Y-108575556D01*
X91370776Y-108581278D01*
X91370777Y-108581279D01*
X91376085Y-108590472D01*
X91462960Y-108740944D01*
X91467378Y-108745851D01*
X91467379Y-108745852D01*
X91494589Y-108776072D01*
X91590747Y-108882866D01*
X91689843Y-108954864D01*
X91714207Y-108972565D01*
X91745248Y-108995118D01*
X91751276Y-108997802D01*
X91751278Y-108997803D01*
X91813685Y-109025588D01*
X91919712Y-109072794D01*
X92013113Y-109092647D01*
X92100056Y-109111128D01*
X92100061Y-109111128D01*
X92106513Y-109112500D01*
X92297487Y-109112500D01*
X92303939Y-109111128D01*
X92303944Y-109111128D01*
X92390888Y-109092647D01*
X92484288Y-109072794D01*
X92590315Y-109025588D01*
X92652722Y-108997803D01*
X92652724Y-108997802D01*
X92658752Y-108995118D01*
X92689794Y-108972565D01*
X92714157Y-108954864D01*
X92813253Y-108882866D01*
X92909411Y-108776072D01*
X92936621Y-108745852D01*
X92936622Y-108745851D01*
X92941040Y-108740944D01*
X93027915Y-108590472D01*
X93033223Y-108581279D01*
X93033224Y-108581278D01*
X93036527Y-108575556D01*
X93095542Y-108393928D01*
X93107175Y-108283251D01*
X93114814Y-108210565D01*
X93115504Y-108204000D01*
X93109618Y-108148000D01*
X93096232Y-108020635D01*
X93096232Y-108020633D01*
X93095542Y-108014072D01*
X93036527Y-107832444D01*
X92941040Y-107667056D01*
X92813253Y-107525134D01*
X92658752Y-107412882D01*
X92652724Y-107410198D01*
X92652722Y-107410197D01*
X92490319Y-107337891D01*
X92490318Y-107337891D01*
X92484288Y-107335206D01*
X92390888Y-107315353D01*
X92303944Y-107296872D01*
X92303939Y-107296872D01*
X92297487Y-107295500D01*
X92276949Y-107295500D01*
X92208828Y-107275498D01*
X92187854Y-107258595D01*
X83073655Y-98144395D01*
X83065665Y-98135615D01*
X83065663Y-98135613D01*
X83061416Y-98128920D01*
X83009742Y-98080395D01*
X83006901Y-98077641D01*
X82986333Y-98057073D01*
X82982826Y-98054353D01*
X82973804Y-98046647D01*
X82945913Y-98020456D01*
X82940133Y-98015028D01*
X82933181Y-98011206D01*
X82921342Y-98004697D01*
X82904818Y-97993843D01*
X82894132Y-97985555D01*
X82887868Y-97980696D01*
X82880596Y-97977549D01*
X82880594Y-97977548D01*
X82845465Y-97962346D01*
X82834805Y-97957124D01*
X82801284Y-97938695D01*
X82801282Y-97938694D01*
X82794337Y-97934876D01*
X82773559Y-97929541D01*
X82754869Y-97923142D01*
X82735176Y-97914620D01*
X82689552Y-97907394D01*
X82677929Y-97904987D01*
X82649928Y-97897798D01*
X82633188Y-97893500D01*
X82611741Y-97893500D01*
X82592031Y-97891949D01*
X82578677Y-97889834D01*
X82570848Y-97888594D01*
X82524859Y-97892941D01*
X82513004Y-97893500D01*
X66466224Y-97893500D01*
X66398103Y-97873498D01*
X66392163Y-97869436D01*
X66359569Y-97845755D01*
X66316215Y-97789533D01*
X66310140Y-97718796D01*
X66344535Y-97654724D01*
X88040721Y-75958538D01*
X88103033Y-75924512D01*
X88173848Y-75929577D01*
X88230684Y-75972124D01*
X88255495Y-76038644D01*
X88255126Y-76060803D01*
X88240496Y-76200000D01*
X88241186Y-76206565D01*
X88255824Y-76345834D01*
X88260458Y-76389928D01*
X88319473Y-76571556D01*
X88414960Y-76736944D01*
X88419378Y-76741851D01*
X88419379Y-76741852D01*
X88463136Y-76790449D01*
X88493854Y-76854456D01*
X88495500Y-76874759D01*
X88495500Y-78827241D01*
X88475498Y-78895362D01*
X88463136Y-78911551D01*
X88414960Y-78965056D01*
X88319473Y-79130444D01*
X88260458Y-79312072D01*
X88240496Y-79502000D01*
X88260458Y-79691928D01*
X88319473Y-79873556D01*
X88414960Y-80038944D01*
X88419378Y-80043851D01*
X88419379Y-80043852D01*
X88518689Y-80154147D01*
X88542747Y-80180866D01*
X88559466Y-80193013D01*
X88680213Y-80280741D01*
X88697248Y-80293118D01*
X88703276Y-80295802D01*
X88703278Y-80295803D01*
X88858148Y-80364755D01*
X88871712Y-80370794D01*
X88965112Y-80390647D01*
X89052056Y-80409128D01*
X89052061Y-80409128D01*
X89058513Y-80410500D01*
X89249487Y-80410500D01*
X89255939Y-80409128D01*
X89255944Y-80409128D01*
X89342888Y-80390647D01*
X89436288Y-80370794D01*
X89449852Y-80364755D01*
X89604722Y-80295803D01*
X89604724Y-80295802D01*
X89610752Y-80293118D01*
X89627788Y-80280741D01*
X89748534Y-80193013D01*
X89765253Y-80180866D01*
X89789311Y-80154147D01*
X89888621Y-80043852D01*
X89888622Y-80043851D01*
X89893040Y-80038944D01*
X89988527Y-79873556D01*
X90047542Y-79691928D01*
X90067504Y-79502000D01*
X90047542Y-79312072D01*
X89988527Y-79130444D01*
X89893040Y-78965056D01*
X89844864Y-78911551D01*
X89814146Y-78847544D01*
X89812500Y-78827241D01*
X89812500Y-76874759D01*
X89832502Y-76806638D01*
X89844864Y-76790449D01*
X89888621Y-76741852D01*
X89888622Y-76741851D01*
X89893040Y-76736944D01*
X89988527Y-76571556D01*
X90047542Y-76389928D01*
X90052177Y-76345834D01*
X90066814Y-76206565D01*
X90067504Y-76200000D01*
X90047542Y-76010072D01*
X89988527Y-75828444D01*
X89893040Y-75663056D01*
X89869080Y-75636445D01*
X89769675Y-75526045D01*
X89769674Y-75526044D01*
X89765253Y-75521134D01*
X89610752Y-75408882D01*
X89604724Y-75406198D01*
X89604722Y-75406197D01*
X89442319Y-75333891D01*
X89442318Y-75333891D01*
X89436288Y-75331206D01*
X89342887Y-75311353D01*
X89255944Y-75292872D01*
X89255939Y-75292872D01*
X89249487Y-75291500D01*
X89058513Y-75291500D01*
X89052060Y-75292872D01*
X89052047Y-75292873D01*
X89029152Y-75297740D01*
X88958362Y-75292339D01*
X88901729Y-75249522D01*
X88877235Y-75182885D01*
X88892656Y-75113583D01*
X88913860Y-75085399D01*
X94232181Y-69767078D01*
X94294493Y-69733052D01*
X94347474Y-69732927D01*
X94386049Y-69741127D01*
X94386058Y-69741128D01*
X94392513Y-69742500D01*
X94583487Y-69742500D01*
X94589939Y-69741128D01*
X94589944Y-69741128D01*
X94695442Y-69718703D01*
X94770288Y-69702794D01*
X94787913Y-69694947D01*
X94938722Y-69627803D01*
X94938724Y-69627802D01*
X94944752Y-69625118D01*
X94963185Y-69611726D01*
X95094163Y-69516564D01*
X95161031Y-69492706D01*
X95168224Y-69492500D01*
X125831767Y-69492500D01*
X125899888Y-69512502D01*
G37*
%TD.AperFunction*%
%TD*%
M02*
